<?xml version="1.0" standalone="no"?>
<!DOCTYPE svg PUBLIC "-//W3C//DTD SVG 1.1//EN" "http://www.w3.org/Graphics/SVG/1.1/DTD/svg11.dtd" >
<svg>
<metadata>
Created by FontForge 20090622 at Tue Aug 28 07:42:45 2018
 By deploy user
Copyright 2016 The Unna Project Authors (omnibus.type@gmail.com)
</metadata>
<defs>
<font id="Unna-Regular" horiz-adv-x="460" >
  <font-face 
    font-family="Unna"
    font-weight="400"
    font-stretch="normal"
    units-per-em="1000"
    panose-1="2 4 5 3 7 7 5 2 2 3"
    ascent="800"
    descent="-200"
    x-height="420"
    cap-height="597"
    bbox="-184 -269 904 878"
    underline-thickness="50"
    underline-position="-50"
    unicode-range="U+000D-U+FB02"
  />
<missing-glyph horiz-adv-x="488" 
d="M400 730v-975h-309v975h309zM325 665h-161v-32h63v-37h-64v-32h162v32h-65v37h65v32zM260 539h-97v-101h162v33h-65v68zM227 506v-35h-32v35h32zM325 411h-162v-32h64v-36h-64v-32h97v68h65v32zM325 353h-32v-65h-130v-33h162v98zM325 234h-98v-55h33v23h33v-46h-98v78
h-32v-110h162v110zM325 65h-162v-110h162v110zM293 33v-46h-98v46h98zM325 -68h-162v-32h68l-68 -46v-32h162v32h-100l68 46h32v32z" />
    <glyph glyph-name="fi" unicode="fi" horiz-adv-x="551" 
d="M35 0zM35 26l37 -2q13 0 13 19v352h-39v25h39v66q0 105 32 177.5t117 72.5q39 0 68 -24t29 -59q0 -21 -12 -35t-36 -14q-35 0 -35 29q0 8 4 20q5 12 5 24q0 14 -8 23t-22 9q-63 0 -63 -120q0 -28 3 -66q1 -14 2 -33t1 -41v-29h107v-25h-106v-352q0 -19 13 -19l66 2v-26
h-215v26zM456.5 630q15.5 -13 15.5 -34q0 -23 -15 -35.5t-40 -12.5q-24 0 -39 12.5t-15 35.5q0 21 15 34t39 13t39.5 -13zM467 43q0 -19 13 -19l36 2v-26h-185v26l37 -2q13 0 13 19v333q0 17 -12 20l-37 -2v26h135v-377z" />
    <glyph glyph-name="fl" unicode="fl" horiz-adv-x="551" 
d="M35 26l37 -2q13 0 13 19v352h-39v25h39v66q0 105 32 177.5t117 72.5q39 0 68 -24t29 -59q0 -21 -12 -35t-36 -14q-35 0 -35 29q0 8 4 20q5 12 5 24q0 14 -8 23t-22 9q-63 0 -63 -120q0 -28 3 -66q1 -14 2 -33t1 -41v-29h107v-25h-106v-352q0 -19 13 -19l66 2v-26h-215v26
zM331 26l37 -2q13 3 13 19v644q0 17 -12 21l-29 -2v25h127v-688q0 -19 13 -19l36 2v-26h-185v26z" />
    <glyph glyph-name=".notdef" horiz-adv-x="488" 
d="M400 730v-975h-309v975h309zM325 665h-161v-32h63v-37h-64v-32h162v32h-65v37h65v32zM260 539h-97v-101h162v33h-65v68zM227 506v-35h-32v35h32zM325 411h-162v-32h64v-36h-64v-32h97v68h65v32zM325 353h-32v-65h-130v-33h162v98zM325 234h-98v-55h33v23h33v-46h-98v78
h-32v-110h162v110zM325 65h-162v-110h162v110zM293 33v-46h-98v46h98zM325 -68h-162v-32h68l-68 -46v-32h162v32h-100l68 46h32v32z" />
    <glyph glyph-name="NULL" horiz-adv-x="0" 
 />
    <glyph glyph-name="NULL" horiz-adv-x="0" 
 />
    <glyph glyph-name="nonmarkingreturn" unicode="&#xd;" horiz-adv-x="220" 
 />
    <glyph glyph-name="space" unicode=" " horiz-adv-x="220" 
 />
    <glyph glyph-name="A" unicode="A" horiz-adv-x="601" 
d="M621 29v-29h-265v29l49 -2q30 -3 30 24q0 17 -10 39l-49 118h-233l-46 -112q-14 -31 -14 -50q0 -21 22 -20l48 3v-29h-173v29l26 -2h4q20 0 33 19q15 22 30 58l209 503h26l211 -505q14 -36 29 -57q14 -18 35 -18h5zM155 236h209l-105 252z" />
    <glyph glyph-name="Aacute" unicode="&#xc1;" horiz-adv-x="601" 
d="M0 0zM621 29v-29h-265v29l49 -2q30 -3 30 24q0 17 -10 39l-49 118h-233l-46 -112q-14 -31 -14 -50q0 -21 22 -20l48 3v-29h-173v29l26 -2h4q20 0 33 19q15 22 30 58l209 503h26l211 -505q14 -36 29 -57q14 -18 35 -18h5zM155 236h209l-105 252zM434.5 791
q-4.5 -3 -5.5 -4l-163 -112q-12 -9 -20 -9q-13 0 -13 8q0 4 7.5 12l10.5 11l95 104q15 17 20.5 21t15.5 4q17 0 37 -10t20 -16t-4.5 -9z" />
    <glyph glyph-name="Abreve" unicode="&#x102;" horiz-adv-x="601" 
d="M0 0zM621 29v-29h-265v29l49 -2q30 -3 30 24q0 17 -10 39l-49 118h-233l-46 -112q-14 -31 -14 -50q0 -21 22 -20l48 3v-29h-173v29l26 -2h4q20 0 33 19q15 22 30 58l209 503h26l211 -505q14 -36 29 -57q14 -18 35 -18h5zM155 236h209l-105 252zM394 699.5
q-35 -33.5 -94 -33.5t-93.5 33.5t-41.5 90.5h38q8 -32 31 -53t66 -21q41 0 65.5 21.5t32.5 52.5h38q-7 -57 -42 -90.5z" />
    <glyph glyph-name="Acircumflex" unicode="&#xc2;" horiz-adv-x="601" 
d="M0 0zM621 29v-29h-265v29l49 -2q30 -3 30 24q0 17 -10 39l-49 118h-233l-46 -112q-14 -31 -14 -50q0 -21 22 -20l48 3v-29h-173v29l26 -2h4q20 0 33 19q15 22 30 58l209 503h26l211 -505q14 -36 29 -57q14 -18 35 -18h5zM155 236h209l-105 252zM448 666q-9 0 -28 12
l-119 74l-119 -74q-19 -12 -28 -12t-9 8q0 3 7.5 10t17.5 15q35 30 54 50l23 24l24 24q27 25 30 25t30 -25l24 -24l23 -24q19 -20 54 -50q10 -8 17.5 -15t7.5 -10q0 -8 -9 -8z" />
    <glyph glyph-name="Adieresis" unicode="&#xc4;" horiz-adv-x="601" 
d="M0 0zM621 29v-29h-265v29l49 -2q30 -3 30 24q0 17 -10 39l-49 118h-233l-46 -112q-14 -31 -14 -50q0 -21 22 -20l48 3v-29h-173v29l26 -2h4q20 0 33 19q15 22 30 58l209 503h26l211 -505q14 -36 29 -57q14 -18 35 -18h5zM155 236h209l-105 252zM149 696zM164.5 779
q15.5 14 38.5 14q22 0 38 -14t16 -35t-15 -34.5t-39 -13.5t-39 13.5t-15 34.5t15.5 35zM359.5 779q15.5 14 38.5 14q22 0 38 -14t16 -35t-15 -34.5t-39 -13.5t-39 13.5t-15 34.5t15.5 35z" />
    <glyph glyph-name="Agrave" unicode="&#xc0;" horiz-adv-x="601" 
d="M0 0zM621 29v-29h-265v29l49 -2q30 -3 30 24q0 17 -10 39l-49 118h-233l-46 -112q-14 -31 -14 -50q0 -21 22 -20l48 3v-29h-173v29l26 -2h4q20 0 33 19q15 22 30 58l209 503h26l211 -505q14 -36 29 -57q14 -18 35 -18h5zM155 236h209l-105 252zM184 816q20 10 37 10
q10 0 15.5 -4t20.5 -21l95 -104l10.5 -11t7.5 -12q0 -8 -13 -8q-8 0 -20 9l-163 112q-1 1 -5.5 4t-4.5 9t20 16z" />
    <glyph glyph-name="Amacron" unicode="&#x100;" horiz-adv-x="601" 
d="M0 0zM621 29v-29h-265v29l49 -2q30 -3 30 24q0 17 -10 39l-49 118h-233l-46 -112q-14 -31 -14 -50q0 -21 22 -20l48 3v-29h-173v29l26 -2h4q20 0 33 19q15 22 30 58l209 503h26l211 -505q14 -36 29 -57q14 -18 35 -18h5zM155 236h209l-105 252zM181 706v40h239v-40h-239z
" />
    <glyph glyph-name="Aogonek" unicode="&#x104;" horiz-adv-x="601" 
d="M650 -99q-25 -29 -55.5 -44.5t-62.5 -15.5q-30 0 -52 19t-22 53q0 25 12.5 47.5t37.5 39.5h-152v29l49 -2q30 -3 30 24q0 17 -10 39l-49 118h-233l-46 -112q-14 -31 -14 -50q0 -21 22 -20l48 3v-29h-173v29l26 -2h4q20 0 33 19q15 22 30 58l209 503h26l211 -505
q14 -36 29 -57q14 -18 35 -18h5l33 2v-29h-82q-29 -24 -29 -62q0 -24 14.5 -39t43.5 -15q36 0 70 29zM155 236h209l-105 252z" />
    <glyph glyph-name="Aring" unicode="&#xc5;" horiz-adv-x="601" 
d="M0 0zM621 29v-29h-265v29l49 -2q30 -3 30 24q0 17 -10 39l-49 118h-233l-46 -112q-14 -31 -14 -50q0 -21 22 -20l48 3v-29h-173v29l26 -2h4q20 0 33 19q15 22 30 58l209 503h26l211 -505q14 -36 29 -57q14 -18 35 -18h5zM155 236h209l-105 252zM241 805.5
q24 23.5 59 23.5t59.5 -23.5t24.5 -57.5t-24.5 -58t-59.5 -24q-34 0 -58.5 24t-24.5 58t24 57.5zM270 714.5q11 -12.5 30 -12.5t30.5 12.5t11.5 33.5q0 20 -11.5 32.5t-30.5 12.5t-30 -12.5t-11 -32.5q0 -21 11 -33.5z" />
    <glyph glyph-name="Atilde" unicode="&#xc3;" horiz-adv-x="601" 
d="M0 0zM621 29v-29h-265v29l49 -2q30 -3 30 24q0 17 -10 39l-49 118h-233l-46 -112q-14 -31 -14 -50q0 -21 22 -20l48 3v-29h-173v29l26 -2h4q20 0 33 19q15 22 30 58l209 503h26l211 -505q14 -36 29 -57q14 -18 35 -18h5zM155 236h209l-105 252zM176.5 740
q18.5 27 45.5 27q24 0 88 -22q61 -21 81 -21q14 0 23.5 12t9.5 30h20q0 -37 -18.5 -64t-45.5 -27q-24 0 -88 22q-59 21 -81 21q-14 0 -23.5 -12t-9.5 -30h-20q0 37 18.5 64z" />
    <glyph glyph-name="AE" unicode="&#xc6;" horiz-adv-x="847" 
d="M783 443h-26q0 65 -34.5 95.5t-107.5 30.5h-164l45 -245h83q33 0 54.5 28.5t21.5 73.5h26v-231h-26q0 45 -21.5 73.5t-54.5 28.5h-79l48 -251q5 -19 21 -19h66q141 0 141 144h27v-174q-36 3 -88 3h-345v30l57 -3q12 -1 18 7t4 18l-29 156h-246l-76 -128q-14 -26 -14 -38
q0 -16 20 -15l51 3v-30h-175v30l31 -3q13 -2 25.5 11t34.5 48l279 457q2 3 2 8q0 7 -5 11.5t-12 4.5l-51 -2v32h465q20 0 34 2v-156zM362 515l-172 -279h224z" />
    <glyph glyph-name="B" unicode="B" horiz-adv-x="573" 
d="M456 561q44 -36 44 -107q0 -53 -37.5 -89.5t-100.5 -47.5q47 0 86 -20t62 -55.5t23 -79.5q0 -162 -221 -162h-262v29l50 -2q18 0 18 22v500q0 7 -4.5 13.5t-12.5 6.5l-51 -2v30h277q85 0 129 -36zM223 569q-10 0 -12 -12v-230h76q118 0 118 126q0 54 -32.5 85t-91.5 31
h-58zM211 299v-258q0 -13 14 -13h70q64 0 102.5 36t38.5 98q0 137 -122 137h-103z" />
    <glyph glyph-name="C" unicode="C" horiz-adv-x="607" 
d="M124.5 524.5q79.5 82.5 220.5 82.5q37 0 61.5 -6t60.5 -18q25 -9 43.5 -14t42.5 -5q-4 -31 -4 -75q0 -21 1 -37.5t3 -18.5h-24q-9 41 -37 75t-68 54t-84 20q-59 0 -102.5 -35.5t-67 -100.5t-23.5 -151q0 -81 24.5 -144.5t69.5 -98.5t104 -35q69 0 122 42.5t67 107.5h28
q-6 -47 -6 -85q0 -29 3 -47h-6q-14 0 -33 -4.5t-30.5 -8.5t-16.5 -5q-38 -13 -69 -20t-64 -7q-90 0 -156.5 37t-102.5 105.5t-36 162.5q0 147 79.5 229.5z" />
    <glyph glyph-name="Cacute" unicode="&#x106;" horiz-adv-x="607" 
d="M45 0zM124.5 524.5q79.5 82.5 220.5 82.5q37 0 61.5 -6t60.5 -18q25 -9 43.5 -14t42.5 -5q-4 -31 -4 -75q0 -21 1 -37.5t3 -18.5h-24q-9 41 -37 75t-68 54t-84 20q-59 0 -102.5 -35.5t-67 -100.5t-23.5 -151q0 -81 24.5 -144.5t69.5 -98.5t104 -35q69 0 122 42.5
t67 107.5h28q-6 -47 -6 -85q0 -29 3 -47h-6q-14 0 -33 -4.5t-30.5 -8.5t-16.5 -5q-38 -13 -69 -20t-64 -7q-90 0 -156.5 37t-102.5 105.5t-36 162.5q0 147 79.5 229.5zM437.5 791q-4.5 -3 -5.5 -4l-163 -112q-12 -9 -20 -9q-13 0 -13 8q0 4 7.5 12l10.5 11l95 104
q15 17 20.5 21t15.5 4q17 0 37 -10t20 -16t-4.5 -9z" />
    <glyph glyph-name="Ccaron" unicode="&#x10c;" horiz-adv-x="607" 
d="M45 0zM124.5 524.5q79.5 82.5 220.5 82.5q37 0 61.5 -6t60.5 -18q25 -9 43.5 -14t42.5 -5q-4 -31 -4 -75q0 -21 1 -37.5t3 -18.5h-24q-9 41 -37 75t-68 54t-84 20q-59 0 -102.5 -35.5t-67 -100.5t-23.5 -151q0 -81 24.5 -144.5t69.5 -98.5t104 -35q69 0 122 42.5
t67 107.5h28q-6 -47 -6 -85q0 -29 3 -47h-6q-14 0 -33 -4.5t-30.5 -8.5t-16.5 -5q-38 -13 -69 -20t-64 -7q-90 0 -156.5 37t-102.5 105.5t-36 162.5q0 147 79.5 229.5zM157 824q9 0 28 -12l119 -74l119 74q19 12 28 12t9 -8q0 -3 -7.5 -10t-17.5 -15q-35 -30 -54 -50
l-23 -24l-24 -24q-27 -25 -30 -25t-30 25l-24 24l-23 24q-19 20 -54 50q-10 8 -17.5 15t-7.5 10q0 8 9 8z" />
    <glyph glyph-name="Ccedilla" unicode="&#xc7;" horiz-adv-x="607" 
d="M556 82q0 -29 3 -47h-6q-14 0 -33 -4.5t-30.5 -8.5t-16.5 -5q-38 -13 -69 -20t-64 -7h-17l-21 -33q-6 -11 -6 -19q0 -6 7 -9t23 -7q27 -6 41.5 -15t14.5 -29q0 -43 -24.5 -67.5t-69.5 -24.5q-44 0 -69 16l7 24q12 -13 35 -13t39.5 15.5t16.5 38.5q0 21 -34 39l-23 14
q-11 8 -11 15t6 13l36 45q-115 14 -180.5 94t-65.5 208q0 147 79.5 229.5t220.5 82.5q37 0 61.5 -6t60.5 -18q25 -9 43.5 -14t42.5 -5q-4 -31 -4 -75q0 -21 1 -37.5t3 -18.5h-24q-9 41 -37 75t-68 54t-84 20q-59 0 -102.5 -35.5t-67 -100.5t-23.5 -151q0 -81 24.5 -144.5
t69.5 -98.5t104 -35q69 0 122 42.5t67 107.5h28q-6 -47 -6 -85z" />
    <glyph glyph-name="D" unicode="D" horiz-adv-x="623" 
d="M50 29l43 -2q15 0 15 22v499q0 9 -5 15t-14 6l-39 -2v30h225q160 0 236.5 -69.5t76.5 -228.5q0 -299 -301 -299h-237v29zM213 28h45q84 0 133.5 26.5t72 85.5t22.5 158t-22.5 158t-72.5 86t-133 27h-45q-12 0 -12 -13v-515q0 -13 12 -13z" />
    <glyph glyph-name="Eth" unicode="&#xd0;" horiz-adv-x="631" 
d="M511.5 527.5q76.5 -69.5 76.5 -228.5q0 -299 -301 -299h-237v29l43 -2q15 0 15 22v244h-66v36h66v219q0 9 -5 15t-14 6l-39 -2v30h225q160 0 236.5 -69.5zM391.5 54.5q49.5 26.5 72 85.5t22.5 158t-22.5 158t-72.5 86t-133 27h-45q-12 0 -12 -13v-227h190v-36h-190v-252
q0 -13 12 -13h45q84 0 133.5 26.5z" />
    <glyph glyph-name="Dcaron" unicode="&#x10e;" horiz-adv-x="623" 
d="M50 0zM50 29l43 -2q15 0 15 22v499q0 9 -5 15t-14 6l-39 -2v30h225q160 0 236.5 -69.5t76.5 -228.5q0 -299 -301 -299h-237v29zM213 28h45q84 0 133.5 26.5t72 85.5t22.5 158t-22.5 158t-72.5 86t-133 27h-45q-12 0 -12 -13v-515q0 -13 12 -13zM165 824q9 0 28 -12
l119 -74l119 74q19 12 28 12t9 -8q0 -3 -7.5 -10t-17.5 -15q-35 -30 -54 -50l-23 -24l-24 -24q-27 -25 -30 -25t-30 25l-24 24l-23 24q-19 20 -54 50q-10 8 -17.5 15t-7.5 10q0 8 9 8z" />
    <glyph glyph-name="Dcroat" unicode="&#x110;" horiz-adv-x="631" 
d="M42 0zM511.5 527.5q76.5 -69.5 76.5 -228.5q0 -299 -301 -299h-237v29l43 -2q15 0 15 22v244h-66v36h66v219q0 9 -5 15t-14 6l-39 -2v30h225q160 0 236.5 -69.5zM391.5 54.5q49.5 26.5 72 85.5t22.5 158t-22.5 158t-72.5 86t-133 27h-45q-12 0 -12 -13v-227h190v-36h-190
v-252q0 -13 12 -13h45q84 0 133.5 26.5z" />
    <glyph glyph-name="E" unicode="E" horiz-adv-x="563" 
d="M50 30l40 -3q18 0 18 22v499q0 9 -5.5 15.5t-14.5 5.5l-38 -2v30h422q14 0 17 1v-155h-27q0 67 -33.5 96.5t-108.5 29.5h-107q-12 0 -12 -14v-230h94q34 0 55 27t21 74h27v-231h-27q0 44 -22.5 73t-53.5 29h-94v-256q0 -13 12 -13h140q68 0 103.5 39t35.5 112h27v-182
q-22 3 -88 3h-381v30z" />
    <glyph glyph-name="Eacute" unicode="&#xc9;" horiz-adv-x="563" 
d="M50 0zM50 30l40 -3q18 0 18 22v499q0 9 -5.5 15.5t-14.5 5.5l-38 -2v30h422q14 0 17 1v-155h-27q0 67 -33.5 96.5t-108.5 29.5h-107q-12 0 -12 -14v-230h94q34 0 55 27t21 74h27v-231h-27q0 44 -22.5 73t-53.5 29h-94v-256q0 -13 12 -13h140q68 0 103.5 39t35.5 112h27
v-182q-22 3 -88 3h-381v30zM415.5 791q-4.5 -3 -5.5 -4l-163 -112q-12 -9 -20 -9q-13 0 -13 8q0 4 7.5 12l10.5 11l95 104q15 17 20.5 21t15.5 4q17 0 37 -10t20 -16t-4.5 -9z" />
    <glyph glyph-name="Ecaron" unicode="&#x11a;" horiz-adv-x="563" 
d="M50 0zM50 30l40 -3q18 0 18 22v499q0 9 -5.5 15.5t-14.5 5.5l-38 -2v30h422q14 0 17 1v-155h-27q0 67 -33.5 96.5t-108.5 29.5h-107q-12 0 -12 -14v-230h94q34 0 55 27t21 74h27v-231h-27q0 44 -22.5 73t-53.5 29h-94v-256q0 -13 12 -13h140q68 0 103.5 39t35.5 112h27
v-182q-22 3 -88 3h-381v30zM135 824q9 0 28 -12l119 -74l119 74q19 12 28 12t9 -8q0 -3 -7.5 -10t-17.5 -15q-35 -30 -54 -50l-23 -24l-24 -24q-27 -25 -30 -25t-30 25l-24 24l-23 24q-19 20 -54 50q-10 8 -17.5 15t-7.5 10q0 8 9 8z" />
    <glyph glyph-name="Ecircumflex" unicode="&#xca;" horiz-adv-x="563" 
d="M50 0zM50 30l40 -3q18 0 18 22v499q0 9 -5.5 15.5t-14.5 5.5l-38 -2v30h422q14 0 17 1v-155h-27q0 67 -33.5 96.5t-108.5 29.5h-107q-12 0 -12 -14v-230h94q34 0 55 27t21 74h27v-231h-27q0 44 -22.5 73t-53.5 29h-94v-256q0 -13 12 -13h140q68 0 103.5 39t35.5 112h27
v-182q-22 3 -88 3h-381v30zM429 666q-9 0 -28 12l-119 74l-119 -74q-19 -12 -28 -12t-9 8q0 3 7.5 10t17.5 15q35 30 54 50l23 24l24 24q27 25 30 25t30 -25l24 -24l23 -24q19 -20 54 -50q10 -8 17.5 -15t7.5 -10q0 -8 -9 -8z" />
    <glyph glyph-name="Edieresis" unicode="&#xcb;" horiz-adv-x="563" 
d="M50 0zM50 30l40 -3q18 0 18 22v499q0 9 -5.5 15.5t-14.5 5.5l-38 -2v30h422q14 0 17 1v-155h-27q0 67 -33.5 96.5t-108.5 29.5h-107q-12 0 -12 -14v-230h94q34 0 55 27t21 74h27v-231h-27q0 44 -22.5 73t-53.5 29h-94v-256q0 -13 12 -13h140q68 0 103.5 39t35.5 112h27
v-182q-22 3 -88 3h-381v30zM145.5 779q15.5 14 38.5 14q22 0 38 -14t16 -35t-15 -34.5t-39 -13.5t-39 13.5t-15 34.5t15.5 35zM340.5 779q15.5 14 38.5 14q22 0 38 -14t16 -35t-15 -34.5t-39 -13.5t-39 13.5t-15 34.5t15.5 35z" />
    <glyph glyph-name="Edotaccent" unicode="&#x116;" horiz-adv-x="563" 
d="M50 0zM50 30l40 -3q18 0 18 22v499q0 9 -5.5 15.5t-14.5 5.5l-38 -2v30h422q14 0 17 1v-155h-27q0 67 -33.5 96.5t-108.5 29.5h-107q-12 0 -12 -14v-230h94q34 0 55 27t21 74h27v-231h-27q0 44 -22.5 73t-53.5 29h-94v-256q0 -13 12 -13h140q68 0 103.5 39t35.5 112h27
v-182q-22 3 -88 3h-381v30zM243.5 779q15.5 14 38.5 14q22 0 38 -14t16 -35t-15 -34.5t-39 -13.5t-39 13.5t-15 34.5t15.5 35z" />
    <glyph glyph-name="Egrave" unicode="&#xc8;" horiz-adv-x="563" 
d="M50 0zM50 30l40 -3q18 0 18 22v499q0 9 -5.5 15.5t-14.5 5.5l-38 -2v30h422q14 0 17 1v-155h-27q0 67 -33.5 96.5t-108.5 29.5h-107q-12 0 -12 -14v-230h94q34 0 55 27t21 74h27v-231h-27q0 44 -22.5 73t-53.5 29h-94v-256q0 -13 12 -13h140q68 0 103.5 39t35.5 112h27
v-182q-22 3 -88 3h-381v30zM165 816q20 10 37 10q10 0 15.5 -4t20.5 -21l95 -104l10.5 -11t7.5 -12q0 -8 -13 -8q-8 0 -20 9l-163 112q-1 1 -5.5 4t-4.5 9t20 16z" />
    <glyph glyph-name="Emacron" unicode="&#x112;" horiz-adv-x="563" 
d="M50 0zM50 30l40 -3q18 0 18 22v499q0 9 -5.5 15.5t-14.5 5.5l-38 -2v30h422q14 0 17 1v-155h-27q0 67 -33.5 96.5t-108.5 29.5h-107q-12 0 -12 -14v-230h94q34 0 55 27t21 74h27v-231h-27q0 44 -22.5 73t-53.5 29h-94v-256q0 -13 12 -13h140q68 0 103.5 39t35.5 112h27
v-182q-22 3 -88 3h-381v30zM162 706v40h239v-40h-239z" />
    <glyph glyph-name="Eogonek" unicode="&#x118;" horiz-adv-x="563" 
d="M556 -99q-25 -29 -55.5 -44.5t-62.5 -15.5q-30 0 -52 19t-22 53q0 25 12.5 47.5t37.5 39.5h-364v30l40 -3q18 0 18 22v499q0 9 -5.5 15.5t-14.5 5.5l-38 -2v30h422q14 0 17 1v-155h-27q0 67 -33.5 96.5t-108.5 29.5h-107q-12 0 -12 -14v-230h94q34 0 55 27t21 74h27v-231
h-27q0 44 -22.5 73t-53.5 29h-94v-256q0 -13 12 -13h140q68 0 103.5 39t35.5 112h27v-182q-19 3 -74 3q-29 -24 -29 -62q0 -24 14.5 -39t43.5 -15q36 0 70 29z" />
    <glyph glyph-name="F" unicode="F" horiz-adv-x="529" 
d="M50 30l40 -3q18 0 18 22v499q0 21 -17 21h-2l-39 -2v30h434q12 0 15 1v-155h-27q0 66 -34 96t-108 30h-117q-12 0 -12 -13v-241h75q36 0 57.5 27.5t21.5 74.5h27v-230h-27q0 45 -22 72.5t-57 27.5h-75v-239q0 -9 5.5 -15t13.5 -6l52 3v-30h-222v30z" />
    <glyph glyph-name="G" unicode="G" horiz-adv-x="646" 
d="M122.5 528q77.5 79 222.5 79q46 0 80 -8t71 -21q39 -14 57 -14q-4 -20 -4 -69q0 -14 2 -38q2 -16 2 -24h-40q1 5 1 15q0 63 -44.5 98.5t-129.5 35.5q-87 0 -140 -73t-53 -214q0 -278 198 -278q45 0 73 9.5t55 36.5v160q0 22 -19 22l-59 -2v29h231v-29l-41 2q-9 0 -14 -6
t-5 -15v-189q-4 1 -13 1q-19 0 -62 -16q-44 -15 -76.5 -22.5t-74.5 -7.5q-140 0 -217.5 77.5t-77.5 227.5q0 154 77.5 233z" />
    <glyph glyph-name="Gbreve" unicode="&#x11e;" horiz-adv-x="646" 
d="M45 0zM122.5 528q77.5 79 222.5 79q46 0 80 -8t71 -21q39 -14 57 -14q-4 -20 -4 -69q0 -14 2 -38q2 -16 2 -24h-40q1 5 1 15q0 63 -44.5 98.5t-129.5 35.5q-87 0 -140 -73t-53 -214q0 -278 198 -278q45 0 73 9.5t55 36.5v160q0 22 -19 22l-59 -2v29h231v-29l-41 2
q-9 0 -14 -6t-5 -15v-189q-4 1 -13 1q-19 0 -62 -16q-44 -15 -76.5 -22.5t-74.5 -7.5q-140 0 -217.5 77.5t-77.5 227.5q0 154 77.5 233zM416 699.5q-35 -33.5 -94 -33.5t-93.5 33.5t-41.5 90.5h38q8 -32 31 -53t66 -21q41 0 65.5 21.5t32.5 52.5h38q-7 -57 -42 -90.5z" />
    <glyph glyph-name="Gcommaaccent" unicode="&#x122;" horiz-adv-x="646" 
d="M45 0zM122.5 528q77.5 79 222.5 79q46 0 80 -8t71 -21q39 -14 57 -14q-4 -20 -4 -69q0 -14 2 -38q2 -16 2 -24h-40q1 5 1 15q0 63 -44.5 98.5t-129.5 35.5q-87 0 -140 -73t-53 -214q0 -278 198 -278q45 0 73 9.5t55 36.5v160q0 22 -19 22l-59 -2v29h231v-29l-41 2
q-9 0 -14 -6t-5 -15v-189q-4 1 -13 1q-19 0 -62 -16q-44 -15 -76.5 -22.5t-74.5 -7.5q-140 0 -217.5 77.5t-77.5 227.5q0 154 77.5 233zM319 -171q15 18 15 31q0 29 -28 29q-13 0 -21.5 10.5t-8.5 23.5q0 17 12.5 30t35.5 13q27 0 43.5 -18.5t16.5 -43.5q0 -38 -24.5 -69.5
t-59.5 -47.5l-16 13q20 11 35 29z" />
    <glyph glyph-name="H" unicode="H" horiz-adv-x="696" 
d="M50 29l39 -2q19 0 19 22v499q0 22 -19 21l-39 -2v30h220v-30l-49 2h-2q-9 0 -13.5 -6t-4.5 -15v-226h294v226q0 22 -19 21l-49 -2v30h219v-30l-39 2h-2q-8 0 -12.5 -6t-4.5 -15v-499q0 -22 19 -22l39 2v-29h-219v29l49 -2q19 0 19 22v245h-294v-245q0 -22 20 -22l49 2
v-29h-220v29z" />
    <glyph glyph-name="I" unicode="I" horiz-adv-x="310" 
d="M50 29l39 -2q19 0 19 22v499q0 9 -5 15.5t-14 5.5l-39 -2v30h210v-30l-39 2h-2q-8 0 -13 -6t-5 -15v-499q0 -22 20 -22l39 2v-29h-210v29z" />
    <glyph glyph-name="IJ" unicode="&#x132;" horiz-adv-x="761" 
d="M50 0zM50 29l39 -2q19 0 19 22v499q0 9 -5 15.5t-14 5.5l-39 -2v30h210v-30l-39 2h-2q-8 0 -13 -6t-5 -15v-499q0 -22 20 -22l39 2v-29h-210v29zM334 172h36q0 -58 24.5 -107t80.5 -49q48 0 69 37t21 126v369q0 9 -5.5 15.5t-13.5 5.5l-69 -2v30h239v-30l-38 2h-2
q-8 0 -13 -6t-5 -14v-370q0 -189 -167 -189q-31 0 -81 9q-32 6 -41 6h-8q-21 0 -27 -6v173z" />
    <glyph glyph-name="Iacute" unicode="&#xcd;" horiz-adv-x="310" 
d="M50 0zM50 29l39 -2q19 0 19 22v499q0 9 -5 15.5t-14 5.5l-39 -2v30h210v-30l-39 2h-2q-8 0 -13 -6t-5 -15v-499q0 -22 20 -22l39 2v-29h-210v29zM288.5 791q-4.5 -3 -5.5 -4l-163 -112q-12 -9 -20 -9q-13 0 -13 8q0 4 7.5 12l10.5 11l95 104q15 17 20.5 21t15.5 4
q17 0 37 -10t20 -16t-4.5 -9z" />
    <glyph glyph-name="Icircumflex" unicode="&#xce;" horiz-adv-x="310" 
d="M0 0zM50 29l39 -2q19 0 19 22v499q0 9 -5 15.5t-14 5.5l-39 -2v30h210v-30l-39 2h-2q-8 0 -13 -6t-5 -15v-499q0 -22 20 -22l39 2v-29h-210v29zM302 666q-9 0 -28 12l-119 74l-119 -74q-19 -12 -28 -12t-9 8q0 3 7.5 10t17.5 15q35 30 54 50l23 24l24 24q27 25 30 25
t30 -25l24 -24l23 -24q19 -20 54 -50q10 -8 17.5 -15t7.5 -10q0 -8 -9 -8z" />
    <glyph glyph-name="Idieresis" unicode="&#xcf;" horiz-adv-x="310" 
d="M3 0zM50 29l39 -2q19 0 19 22v499q0 9 -5 15.5t-14 5.5l-39 -2v30h210v-30l-39 2h-2q-8 0 -13 -6t-5 -15v-499q0 -22 20 -22l39 2v-29h-210v29zM18.5 779q15.5 14 38.5 14q22 0 38 -14t16 -35t-15 -34.5t-39 -13.5t-39 13.5t-15 34.5t15.5 35zM213.5 779q15.5 14 38.5 14
q22 0 38 -14t16 -35t-15 -34.5t-39 -13.5t-39 13.5t-15 34.5t15.5 35z" />
    <glyph glyph-name="Idotaccent" unicode="&#x130;" horiz-adv-x="310" 
d="M50 0zM50 29l39 -2q19 0 19 22v499q0 9 -5 15.5t-14 5.5l-39 -2v30h210v-30l-39 2h-2q-8 0 -13 -6t-5 -15v-499q0 -22 20 -22l39 2v-29h-210v29zM116.5 779q15.5 14 38.5 14q22 0 38 -14t16 -35t-15 -34.5t-39 -13.5t-39 13.5t-15 34.5t15.5 35z" />
    <glyph glyph-name="Igrave" unicode="&#xcc;" horiz-adv-x="310" 
d="M18 0zM50 29l39 -2q19 0 19 22v499q0 9 -5 15.5t-14 5.5l-39 -2v30h210v-30l-39 2h-2q-8 0 -13 -6t-5 -15v-499q0 -22 20 -22l39 2v-29h-210v29zM38 816q20 10 37 10q10 0 15.5 -4t20.5 -21l95 -104l10.5 -11t7.5 -12q0 -8 -13 -8q-8 0 -20 9l-163 112q-1 1 -5.5 4
t-4.5 9t20 16z" />
    <glyph glyph-name="Imacron" unicode="&#x12a;" horiz-adv-x="310" 
d="M35 0zM50 29l39 -2q19 0 19 22v499q0 9 -5 15.5t-14 5.5l-39 -2v30h210v-30l-39 2h-2q-8 0 -13 -6t-5 -15v-499q0 -22 20 -22l39 2v-29h-210v29zM35 706v40h239v-40h-239z" />
    <glyph glyph-name="Iogonek" unicode="&#x12e;" horiz-adv-x="310" 
d="M308 -99q-25 -29 -55.5 -44.5t-62.5 -15.5q-30 0 -52 19t-22 53q0 25 12.5 47.5t37.5 39.5h-116v29l39 -2q19 0 19 22v499q0 9 -5 15.5t-14 5.5l-39 -2v30h210v-30l-39 2h-2q-8 0 -13 -6t-5 -15v-499q0 -22 20 -22l39 2v-29h-63q-29 -24 -29 -62q0 -24 14.5 -39t43.5 -15
q36 0 70 29z" />
    <glyph glyph-name="J" unicode="J" horiz-adv-x="451" 
d="M24 172h36q0 -58 24.5 -107t80.5 -49q48 0 69 37t21 126v369q0 9 -5.5 15.5t-13.5 5.5l-69 -2v30h239v-30l-38 2h-2q-8 0 -13 -6t-5 -14v-370q0 -189 -167 -189q-31 0 -81 9q-32 6 -41 6h-8q-21 0 -27 -6v173z" />
    <glyph glyph-name="K" unicode="K" horiz-adv-x="617" 
d="M611 30v-30h-237v30l51 -3h3q17 0 17 11q0 7 -5 14l-183 247l-56 -65v-185q0 -22 20 -22l49 2v-29h-220v29l39 -2q19 0 19 22v499q0 10 -5 16t-14 5l-39 -2v30h220v-30l-49 2q-20 0 -20 -22v-269l215 255q17 20 17 27q0 9 -10 9l-42 -2v30h178v-30l-34 2q-16 1 -29 -5
t-29 -24l-153 -175l239 -324q11 -14 24 -14q16 0 34 3z" />
    <glyph glyph-name="Kcommaaccent" unicode="&#x136;" horiz-adv-x="617" 
d="M50 0zM611 30v-30h-237v30l51 -3h3q17 0 17 11q0 7 -5 14l-183 247l-56 -65v-185q0 -22 20 -22l49 2v-29h-220v29l39 -2q19 0 19 22v499q0 10 -5 16t-14 5l-39 -2v30h220v-30l-49 2q-20 0 -20 -22v-269l215 255q17 20 17 27q0 9 -10 9l-42 -2v30h178v-30l-34 2
q-16 1 -29 -5t-29 -24l-153 -175l239 -324q11 -14 24 -14q16 0 34 3zM305 -171q15 18 15 31q0 29 -28 29q-13 0 -21.5 10.5t-8.5 23.5q0 17 12.5 30t35.5 13q27 0 43.5 -18.5t16.5 -43.5q0 -38 -24.5 -69.5t-59.5 -47.5l-16 13q20 11 35 29z" />
    <glyph glyph-name="L" unicode="L" horiz-adv-x="514" 
d="M50 30l43 -3q15 0 15 22v499q0 9 -5.5 15.5t-13.5 5.5l-39 -2v30h220v-30l-49 2h-2q-8 0 -13 -6t-5 -15v-507q0 -13 12 -13h113q69 0 104.5 36.5t35.5 106.5h26v-174q-18 3 -124 3h-318v30z" />
    <glyph glyph-name="Lacute" unicode="&#x139;" horiz-adv-x="514" 
d="M50 0zM50 30l43 -3q15 0 15 22v499q0 9 -5.5 15.5t-13.5 5.5l-39 -2v30h220v-30l-49 2h-2q-8 0 -13 -6t-5 -15v-507q0 -13 12 -13h113q69 0 104.5 36.5t35.5 106.5h26v-174q-18 3 -124 3h-318v30zM310.5 791q-4.5 -3 -5.5 -4l-163 -112q-12 -9 -20 -9q-13 0 -13 8
q0 4 7.5 12l10.5 11l95 104q15 17 20.5 21t15.5 4q17 0 37 -10t20 -16t-4.5 -9z" />
    <glyph glyph-name="Lcaron" unicode="&#x13d;" horiz-adv-x="514" 
d="M50 0zM50 30l43 -3q15 0 15 22v499q0 9 -5.5 15.5t-13.5 5.5l-39 -2v30h220v-30l-49 2h-2q-8 0 -13 -6t-5 -15v-507q0 -13 12 -13h113q69 0 104.5 36.5t35.5 106.5h26v-174q-18 3 -124 3h-318v30zM426.5 480.5q11.5 17.5 11.5 30.5q0 19 -18 19q-13 0 -21.5 10.5
t-8.5 23.5q0 17 11 30t32 13q24 0 39.5 -18.5t15.5 -43.5q0 -34 -21.5 -63t-52.5 -44l-16 13q17 12 28.5 29.5z" />
    <glyph glyph-name="Lcommaaccent" unicode="&#x13b;" horiz-adv-x="514" 
d="M50 0zM50 30l43 -3q15 0 15 22v499q0 9 -5.5 15.5t-13.5 5.5l-39 -2v30h220v-30l-49 2h-2q-8 0 -13 -6t-5 -15v-507q0 -13 12 -13h113q69 0 104.5 36.5t35.5 106.5h26v-174q-18 3 -124 3h-318v30zM253 -171q15 18 15 31q0 29 -28 29q-13 0 -21.5 10.5t-8.5 23.5
q0 17 12.5 30t35.5 13q27 0 43.5 -18.5t16.5 -43.5q0 -38 -24.5 -69.5t-59.5 -47.5l-16 13q20 11 35 29z" />
    <glyph glyph-name="Ldot" unicode="&#x13f;" horiz-adv-x="514" 
d="M50 0zM50 30l43 -3q15 0 15 22v499q0 9 -5.5 15.5t-13.5 5.5l-39 -2v30h220v-30l-49 2h-2q-8 0 -13 -6t-5 -15v-507q0 -13 12 -13h113q69 0 104.5 36.5t35.5 106.5h26v-174q-18 3 -124 3h-318v30zM358.5 376q18.5 16 46.5 16t46.5 -16t18.5 -42t-18.5 -41.5t-46.5 -15.5
t-46.5 15.5t-18.5 41.5t18.5 42z" />
    <glyph glyph-name="Lslash" unicode="&#x141;" horiz-adv-x="514" 
d="M492 171v-174q-18 3 -124 3h-318v30l43 -3q15 0 15 22v174l-58 -48v45l58 48v280q0 9 -5.5 15.5t-13.5 5.5l-39 -2v30h220v-30l-49 2h-2q-8 0 -13 -6t-5 -15v-207l98 82v-47l-98 -81v-254q0 -13 12 -13h113q69 0 104.5 36.5t35.5 106.5h26z" />
    <glyph glyph-name="M" unicode="M" horiz-adv-x="858" 
d="M808 29v-29h-220v29l49 -2q20 0 20 22v470l-238 -529h-24l-257 537v-478q0 -22 19 -22l49 2v-29h-161v29l39 -2q20 0 20 22v514q0 7 -10 6l-42 -2v30h154l233 -484l219 484h145v-30l-34 2h-2q-8 0 -13 -6t-5 -14v-500q0 -22 20 -22z" />
    <glyph glyph-name="N" unicode="N" horiz-adv-x="662" 
d="M617 597v-30l-39 2h-2q-17 0 -17 -21v-554h-30l-391 531v-476q0 -22 19 -22l49 2v-29h-161v29l39 -2q20 0 20 22v499q0 9 -5.5 15.5t-14.5 5.5l-39 -2v30h155l325 -442v394q0 20 -17 20h-3l-49 -2v30h161z" />
    <glyph glyph-name="Nacute" unicode="&#x143;" horiz-adv-x="662" 
d="M45 0zM617 597v-30l-39 2h-2q-17 0 -17 -21v-554h-30l-391 531v-476q0 -22 19 -22l49 2v-29h-161v29l39 -2q20 0 20 22v499q0 9 -5.5 15.5t-14.5 5.5l-39 -2v30h155l325 -442v394q0 20 -17 20h-3l-49 -2v30h161zM464.5 791q-4.5 -3 -5.5 -4l-163 -112q-12 -9 -20 -9
q-13 0 -13 8q0 4 7.5 12l10.5 11l95 104q15 17 20.5 21t15.5 4q17 0 37 -10t20 -16t-4.5 -9z" />
    <glyph glyph-name="Ncaron" unicode="&#x147;" horiz-adv-x="662" 
d="M45 0zM617 597v-30l-39 2h-2q-17 0 -17 -21v-554h-30l-391 531v-476q0 -22 19 -22l49 2v-29h-161v29l39 -2q20 0 20 22v499q0 9 -5.5 15.5t-14.5 5.5l-39 -2v30h155l325 -442v394q0 20 -17 20h-3l-49 -2v30h161zM184 824q9 0 28 -12l119 -74l119 74q19 12 28 12t9 -8
q0 -3 -7.5 -10t-17.5 -15q-35 -30 -54 -50l-23 -24l-24 -24q-27 -25 -30 -25t-30 25l-24 24l-23 24q-19 20 -54 50q-10 8 -17.5 15t-7.5 10q0 8 9 8z" />
    <glyph glyph-name="Ncommaaccent" unicode="&#x145;" horiz-adv-x="662" 
d="M45 0zM617 597v-30l-39 2h-2q-17 0 -17 -21v-554h-30l-391 531v-476q0 -22 19 -22l49 2v-29h-161v29l39 -2q20 0 20 22v499q0 9 -5.5 15.5t-14.5 5.5l-39 -2v30h155l325 -442v394q0 20 -17 20h-3l-49 -2v30h161zM327 -171q15 18 15 31q0 29 -28 29q-13 0 -21.5 10.5
t-8.5 23.5q0 17 12.5 30t35.5 13q27 0 43.5 -18.5t16.5 -43.5q0 -38 -24.5 -69.5t-59.5 -47.5l-16 13q20 11 35 29z" />
    <glyph glyph-name="Ntilde" unicode="&#xd1;" horiz-adv-x="662" 
d="M45 0zM617 597v-30l-39 2h-2q-17 0 -17 -21v-554h-30l-391 531v-476q0 -22 19 -22l49 2v-29h-161v29l39 -2q20 0 20 22v499q0 9 -5.5 15.5t-14.5 5.5l-39 -2v30h155l325 -442v394q0 20 -17 20h-3l-49 -2v30h161zM206.5 740q18.5 27 45.5 27q24 0 88 -22q61 -21 81 -21
q14 0 23.5 12t9.5 30h20q0 -37 -18.5 -64t-45.5 -27q-24 0 -88 22q-59 21 -81 21q-14 0 -23.5 -12t-9.5 -30h-20q0 37 18.5 64z" />
    <glyph glyph-name="O" unicode="O" horiz-adv-x="670" 
d="M121.5 527.5q76.5 79.5 213.5 79.5q139 0 214.5 -81t75.5 -227q0 -147 -76.5 -228t-213.5 -81t-213.5 81t-76.5 228q0 149 76.5 228.5zM192.5 83q45.5 -66 142.5 -66t142.5 66t45.5 216q0 149 -45.5 215t-142.5 66t-142.5 -66t-45.5 -215q0 -150 45.5 -216z" />
    <glyph glyph-name="Oacute" unicode="&#xd3;" horiz-adv-x="670" 
d="M45 0zM121.5 527.5q76.5 79.5 213.5 79.5q139 0 214.5 -81t75.5 -227q0 -147 -76.5 -228t-213.5 -81t-213.5 81t-76.5 228q0 149 76.5 228.5zM192.5 83q45.5 -66 142.5 -66t142.5 66t45.5 216q0 149 -45.5 215t-142.5 66t-142.5 -66t-45.5 -215q0 -150 45.5 -216z
M468.5 791q-4.5 -3 -5.5 -4l-163 -112q-12 -9 -20 -9q-13 0 -13 8q0 4 7.5 12l10.5 11l95 104q15 17 20.5 21t15.5 4q17 0 37 -10t20 -16t-4.5 -9z" />
    <glyph glyph-name="Ocircumflex" unicode="&#xd4;" horiz-adv-x="670" 
d="M45 0zM121.5 527.5q76.5 79.5 213.5 79.5q139 0 214.5 -81t75.5 -227q0 -147 -76.5 -228t-213.5 -81t-213.5 81t-76.5 228q0 149 76.5 228.5zM192.5 83q45.5 -66 142.5 -66t142.5 66t45.5 216q0 149 -45.5 215t-142.5 66t-142.5 -66t-45.5 -215q0 -150 45.5 -216z
M482 666q-9 0 -28 12l-119 74l-119 -74q-19 -12 -28 -12t-9 8q0 3 7.5 10t17.5 15q35 30 54 50l23 24l24 24q27 25 30 25t30 -25l24 -24l23 -24q19 -20 54 -50q10 -8 17.5 -15t7.5 -10q0 -8 -9 -8z" />
    <glyph glyph-name="Odieresis" unicode="&#xd6;" horiz-adv-x="670" 
d="M45 0zM121.5 527.5q76.5 79.5 213.5 79.5q139 0 214.5 -81t75.5 -227q0 -147 -76.5 -228t-213.5 -81t-213.5 81t-76.5 228q0 149 76.5 228.5zM192.5 83q45.5 -66 142.5 -66t142.5 66t45.5 216q0 149 -45.5 215t-142.5 66t-142.5 -66t-45.5 -215q0 -150 45.5 -216z
M198.5 779q15.5 14 38.5 14q22 0 38 -14t16 -35t-15 -34.5t-39 -13.5t-39 13.5t-15 34.5t15.5 35zM393.5 779q15.5 14 38.5 14q22 0 38 -14t16 -35t-15 -34.5t-39 -13.5t-39 13.5t-15 34.5t15.5 35z" />
    <glyph glyph-name="Ograve" unicode="&#xd2;" horiz-adv-x="670" 
d="M45 0zM121.5 527.5q76.5 79.5 213.5 79.5q139 0 214.5 -81t75.5 -227q0 -147 -76.5 -228t-213.5 -81t-213.5 81t-76.5 228q0 149 76.5 228.5zM192.5 83q45.5 -66 142.5 -66t142.5 66t45.5 216q0 149 -45.5 215t-142.5 66t-142.5 -66t-45.5 -215q0 -150 45.5 -216z
M218 816q20 10 37 10q10 0 15.5 -4t20.5 -21l95 -104l10.5 -11t7.5 -12q0 -8 -13 -8q-8 0 -20 9l-163 112q-1 1 -5.5 4t-4.5 9t20 16z" />
    <glyph glyph-name="Ohungarumlaut" unicode="&#x150;" horiz-adv-x="670" 
d="M45 0zM121.5 527.5q76.5 79.5 213.5 79.5q139 0 214.5 -81t75.5 -227q0 -147 -76.5 -228t-213.5 -81t-213.5 81t-76.5 228q0 149 76.5 228.5zM192.5 83q45.5 -66 142.5 -66t142.5 66t45.5 216q0 149 -45.5 215t-142.5 66t-142.5 -66t-45.5 -215q0 -150 45.5 -216z
M234 711l39 67t24 39q4 5 6.5 7t6.5 2q5 0 19.5 -4.5t23.5 -8.5t9 -12q0 -4 -6 -12q-10 -11 -118 -117q-6 -6 -15 -6t-9 8q0 3 3 9zM354 711l39 67t24 39q4 5 6.5 7t6.5 2q5 0 19.5 -4.5t23.5 -8.5t9 -12q0 -4 -6 -12q-10 -11 -118 -117q-6 -6 -15 -6t-9 8q0 3 3 9z" />
    <glyph glyph-name="Omacron" unicode="&#x14c;" horiz-adv-x="670" 
d="M45 0zM121.5 527.5q76.5 79.5 213.5 79.5q139 0 214.5 -81t75.5 -227q0 -147 -76.5 -228t-213.5 -81t-213.5 81t-76.5 228q0 149 76.5 228.5zM192.5 83q45.5 -66 142.5 -66t142.5 66t45.5 216q0 149 -45.5 215t-142.5 66t-142.5 -66t-45.5 -215q0 -150 45.5 -216z
M215 706v40h239v-40h-239z" />
    <glyph glyph-name="Oslash" unicode="&#xd8;" horiz-adv-x="664" 
d="M595.5 455.5q29.5 -66.5 29.5 -156.5q0 -147 -76.5 -228t-213.5 -81q-83 0 -143 30l-66 -112l-37 17l68 115q-54 39 -83 104.5t-29 154.5q0 149 76.5 228.5t213.5 79.5q79 0 139 -27l61 105l37 -20l-62 -105q56 -38 85.5 -104.5zM187 92l265 451q-43 37 -117 37
q-97 0 -142.5 -66t-45.5 -215q0 -140 40 -207zM477.5 83q45.5 66 45.5 216q0 143 -42 211l-267 -453q44 -40 121 -40q97 0 142.5 66z" />
    <glyph glyph-name="Otilde" unicode="&#xd5;" horiz-adv-x="670" 
d="M45 0zM121.5 527.5q76.5 79.5 213.5 79.5q139 0 214.5 -81t75.5 -227q0 -147 -76.5 -228t-213.5 -81t-213.5 81t-76.5 228q0 149 76.5 228.5zM192.5 83q45.5 -66 142.5 -66t142.5 66t45.5 216q0 149 -45.5 215t-142.5 66t-142.5 -66t-45.5 -215q0 -150 45.5 -216z
M210.5 740q18.5 27 45.5 27q24 0 88 -22q61 -21 81 -21q14 0 23.5 12t9.5 30h20q0 -37 -18.5 -64t-45.5 -27q-24 0 -88 22q-59 21 -81 21q-14 0 -23.5 -12t-9.5 -30h-20q0 37 18.5 64z" />
    <glyph glyph-name="OE" unicode="&#x152;" horiz-adv-x="861" 
d="M342 607q21 0 41.5 -2t27.5 -3q32 -5 60 -5h327v-154h-27q0 68 -33.5 97t-108.5 29h-94q-13 0 -13 -14v-231h76q33 0 55 27.5t22 74.5h27v-231h-27q0 44 -22.5 73t-54.5 29h-76v-257q0 -13 13 -13h115q69 0 104.5 39.5t35.5 112.5h27v-182q-24 3 -88 3h-250q-60 0 -99 -5
t-41 -5q-142 0 -218 78t-76 224q0 315 297 315zM187 83q45 -65 148 -65q55 0 77 20.5t22 51.5v436q0 23 -29 39t-70 16q-102 0 -147.5 -67.5t-45.5 -217.5q0 -148 45 -213z" />
    <glyph glyph-name="P" unicode="P" horiz-adv-x="523" 
d="M50 29l39 -2q19 0 19 22v498q0 12 -5 17.5t-18 4.5l-35 -2v30h235q104 0 153.5 -39.5t49.5 -121.5q0 -79 -49 -126t-133 -47h-105v-214q0 -22 20 -22l49 2v-29h-220v29zM285 291q46 0 76.5 41t30.5 104q0 60 -33.5 96.5t-89.5 36.5h-56q-4 0 -8 -3.5t-4 -8.5v-266h84z
" />
    <glyph glyph-name="Thorn" unicode="&#xde;" horiz-adv-x="524" 
d="M50 29l39 -2h2q9 0 13 6t4 16v499q0 9 -5 15t-14 6l-39 -2v30h220v-30l-49 2q-9 0 -14.5 -6t-5.5 -15v-52h82q106 0 156 -39t50 -123q0 -79 -49 -125.5t-136 -46.5h-103v-113q0 -23 20 -22l49 2v-29h-220v29zM205 192q4 -4 9 -4h69q29 0 54.5 19.5t40.5 53t15 73.5
q0 62 -34 99.5t-92 37.5h-66v-270q0 -5 4 -9z" />
    <glyph glyph-name="Q" unicode="Q" horiz-adv-x="670" 
d="M406 -88.5q21 -36.5 59.5 -57t88.5 -20.5l-13 -30q-74 0 -132.5 24t-91.5 67t-33 98q-114 15 -176.5 94.5t-62.5 211.5q0 149 76.5 228.5t213.5 79.5q139 0 214.5 -81t75.5 -227q0 -133 -62.5 -212.5t-177.5 -93.5q0 -45 21 -81.5zM192.5 83q45.5 -66 142.5 -66t142.5 66
t45.5 216q0 149 -45.5 215t-142.5 66t-142.5 -66t-45.5 -215q0 -150 45.5 -216z" />
    <glyph glyph-name="R" unicode="R" horiz-adv-x="581" 
d="M50 29l39 -2q19 0 19 22v499q0 9 -5.5 15.5t-16.5 5.5l-36 -2v30h225q111 0 161 -37.5t50 -121.5q0 -51 -33.5 -88.5t-88.5 -52.5q31 0 62.5 -21t52.5 -61t21 -93q0 -30 7.5 -61t21.5 -33q6 -2 14 -2q12 0 19 4v-30h-136q-12 25 -14 66q-2 26 -2 38v33q0 75 -48.5 112
t-118.5 37h-42v-237q0 -22 20 -22l49 2v-29h-220v29zM294 313q46 0 72 33t26 92q0 69 -28.5 100t-88.5 31h-62q-12 0 -12 -10v-246h93z" />
    <glyph glyph-name="Racute" unicode="&#x154;" horiz-adv-x="581" 
d="M50 0zM50 29l39 -2q19 0 19 22v499q0 9 -5.5 15.5t-16.5 5.5l-36 -2v30h225q111 0 161 -37.5t50 -121.5q0 -51 -33.5 -88.5t-88.5 -52.5q31 0 62.5 -21t52.5 -61t21 -93q0 -30 7.5 -61t21.5 -33q6 -2 14 -2q12 0 19 4v-30h-136q-12 25 -14 66q-2 26 -2 38v33
q0 75 -48.5 112t-118.5 37h-42v-237q0 -22 20 -22l49 2v-29h-220v29zM294 313q46 0 72 33t26 92q0 69 -28.5 100t-88.5 31h-62q-12 0 -12 -10v-246h93zM424.5 791q-4.5 -3 -5.5 -4l-163 -112q-12 -9 -20 -9q-13 0 -13 8q0 4 7.5 12l10.5 11l95 104q15 17 20.5 21t15.5 4
q17 0 37 -10t20 -16t-4.5 -9z" />
    <glyph glyph-name="Rcaron" unicode="&#x158;" horiz-adv-x="581" 
d="M50 0zM50 29l39 -2q19 0 19 22v499q0 9 -5.5 15.5t-16.5 5.5l-36 -2v30h225q111 0 161 -37.5t50 -121.5q0 -51 -33.5 -88.5t-88.5 -52.5q31 0 62.5 -21t52.5 -61t21 -93q0 -30 7.5 -61t21.5 -33q6 -2 14 -2q12 0 19 4v-30h-136q-12 25 -14 66q-2 26 -2 38v33
q0 75 -48.5 112t-118.5 37h-42v-237q0 -22 20 -22l49 2v-29h-220v29zM294 313q46 0 72 33t26 92q0 69 -28.5 100t-88.5 31h-62q-12 0 -12 -10v-246h93zM144 824q9 0 28 -12l119 -74l119 74q19 12 28 12t9 -8q0 -3 -7.5 -10t-17.5 -15q-35 -30 -54 -50l-23 -24l-24 -24
q-27 -25 -30 -25t-30 25l-24 24l-23 24q-19 20 -54 50q-10 8 -17.5 15t-7.5 10q0 8 9 8z" />
    <glyph glyph-name="Rcommaaccent" unicode="&#x156;" horiz-adv-x="581" 
d="M50 0zM50 29l39 -2q19 0 19 22v499q0 9 -5.5 15.5t-16.5 5.5l-36 -2v30h225q111 0 161 -37.5t50 -121.5q0 -51 -33.5 -88.5t-88.5 -52.5q31 0 62.5 -21t52.5 -61t21 -93q0 -30 7.5 -61t21.5 -33q6 -2 14 -2q12 0 19 4v-30h-136q-12 25 -14 66q-2 26 -2 38v33
q0 75 -48.5 112t-118.5 37h-42v-237q0 -22 20 -22l49 2v-29h-220v29zM294 313q46 0 72 33t26 92q0 69 -28.5 100t-88.5 31h-62q-12 0 -12 -10v-246h93zM287 -171q15 18 15 31q0 29 -28 29q-13 0 -21.5 10.5t-8.5 23.5q0 17 12.5 30t35.5 13q27 0 43.5 -18.5t16.5 -43.5
q0 -38 -24.5 -69.5t-59.5 -47.5l-16 13q20 11 35 29z" />
    <glyph glyph-name="S" unicode="S" horiz-adv-x="494" 
d="M73 203q23 -185 184 -185q50 0 79.5 33t30.5 87q0 39 -26.5 68.5t-72.5 47.5l-102 41q-54 22 -82 59t-28 87q0 45 21 83t63 60.5t101 22.5q32 0 54.5 -5.5t44.5 -13t30 -10.5q16 -6 27 -6q18 0 29 4q-3 -24 -3 -75q0 -30 1 -43t5 -24h-26q0 65 -42.5 105.5t-106.5 40.5
q-52 0 -84 -28.5t-32 -79.5q0 -33 23 -59.5t63 -42.5l92 -37q76 -31 108.5 -68.5t32.5 -96.5q0 -52 -25.5 -92.5t-69 -63t-94.5 -22.5q-31 0 -54 2.5t-49 10.5q-53 15 -79 15q-9 0 -19 -2l-15 -3q4 21 4 83q0 81 -8 107h25z" />
    <glyph glyph-name="Sacute" unicode="&#x15a;" horiz-adv-x="494" 
d="M48 0zM73 203q23 -185 184 -185q50 0 79.5 33t30.5 87q0 39 -26.5 68.5t-72.5 47.5l-102 41q-54 22 -82 59t-28 87q0 45 21 83t63 60.5t101 22.5q32 0 54.5 -5.5t44.5 -13t30 -10.5q16 -6 27 -6q18 0 29 4q-3 -24 -3 -75q0 -30 1 -43t5 -24h-26q0 65 -42.5 105.5
t-106.5 40.5q-52 0 -84 -28.5t-32 -79.5q0 -33 23 -59.5t63 -42.5l92 -37q76 -31 108.5 -68.5t32.5 -96.5q0 -52 -25.5 -92.5t-69 -63t-94.5 -22.5q-31 0 -54 2.5t-49 10.5q-53 15 -79 15q-9 0 -19 -2l-15 -3q4 21 4 83q0 81 -8 107h25zM380.5 791q-4.5 -3 -5.5 -4
l-163 -112q-12 -9 -20 -9q-13 0 -13 8q0 4 7.5 12l10.5 11l95 104q15 17 20.5 21t15.5 4q17 0 37 -10t20 -16t-4.5 -9z" />
    <glyph glyph-name="Scaron" unicode="&#x160;" horiz-adv-x="494" 
d="M48 0zM73 203q23 -185 184 -185q50 0 79.5 33t30.5 87q0 39 -26.5 68.5t-72.5 47.5l-102 41q-54 22 -82 59t-28 87q0 45 21 83t63 60.5t101 22.5q32 0 54.5 -5.5t44.5 -13t30 -10.5q16 -6 27 -6q18 0 29 4q-3 -24 -3 -75q0 -30 1 -43t5 -24h-26q0 65 -42.5 105.5
t-106.5 40.5q-52 0 -84 -28.5t-32 -79.5q0 -33 23 -59.5t63 -42.5l92 -37q76 -31 108.5 -68.5t32.5 -96.5q0 -52 -25.5 -92.5t-69 -63t-94.5 -22.5q-31 0 -54 2.5t-49 10.5q-53 15 -79 15q-9 0 -19 -2l-15 -3q4 21 4 83q0 81 -8 107h25zM100 824q9 0 28 -12l119 -74l119 74
q19 12 28 12t9 -8q0 -3 -7.5 -10t-17.5 -15q-35 -30 -54 -50l-23 -24l-24 -24q-27 -25 -30 -25t-30 25l-24 24l-23 24q-19 20 -54 50q-10 8 -17.5 15t-7.5 10q0 8 9 8z" />
    <glyph glyph-name="Scedilla" unicode="&#x15e;" horiz-adv-x="494" 
d="M245 -43q-6 -11 -6 -19q0 -6 7 -9t23 -7q27 -6 41.5 -15t14.5 -29q0 -43 -24.5 -67.5t-69.5 -24.5q-44 0 -69 16l7 24q12 -13 35 -13t39.5 15.5t16.5 38.5q0 21 -34 39l-23 14q-11 8 -11 15t6 13l34 43q-31 1 -67 12q-53 15 -79 15q-9 0 -19 -2l-15 -3q4 21 4 83
q0 81 -8 107h25q23 -185 184 -185q50 0 79.5 33t30.5 87q0 39 -26.5 68.5t-72.5 47.5l-102 41q-54 22 -82 59t-28 87q0 45 21 83t63 60.5t101 22.5q32 0 54.5 -5.5t44.5 -13t30 -10.5q16 -6 27 -6q18 0 29 4q-3 -24 -3 -75q0 -30 1 -43t5 -24h-26q0 65 -42.5 105.5
t-106.5 40.5q-52 0 -84 -28.5t-32 -79.5q0 -33 23 -59.5t63 -42.5l92 -37q76 -31 108.5 -68.5t32.5 -96.5q0 -52 -25.5 -92.5t-69 -63t-94.5 -22.5h-2z" />
    <glyph glyph-name="Scommaaccent" unicode="&#x218;" horiz-adv-x="494" 
d="M48 0zM73 203q23 -185 184 -185q50 0 79.5 33t30.5 87q0 39 -26.5 68.5t-72.5 47.5l-102 41q-54 22 -82 59t-28 87q0 45 21 83t63 60.5t101 22.5q32 0 54.5 -5.5t44.5 -13t30 -10.5q16 -6 27 -6q18 0 29 4q-3 -24 -3 -75q0 -30 1 -43t5 -24h-26q0 65 -42.5 105.5
t-106.5 40.5q-52 0 -84 -28.5t-32 -79.5q0 -33 23 -59.5t63 -42.5l92 -37q76 -31 108.5 -68.5t32.5 -96.5q0 -52 -25.5 -92.5t-69 -63t-94.5 -22.5q-31 0 -54 2.5t-49 10.5q-53 15 -79 15q-9 0 -19 -2l-15 -3q4 21 4 83q0 81 -8 107h25zM243 -171q15 18 15 31q0 29 -28 29
q-13 0 -21.5 10.5t-8.5 23.5q0 17 12.5 30t35.5 13q27 0 43.5 -18.5t16.5 -43.5q0 -38 -24.5 -69.5t-59.5 -47.5l-16 13q20 11 35 29z" />
    <glyph glyph-name="T" unicode="T" horiz-adv-x="529" 
d="M15 600q14 -2 40 -2h419q32 0 40 2v-156h-26q0 65 -28.5 95.5t-94.5 30.5h-42q-10 0 -12 -11v-510q0 -22 20 -22l53 2v-29h-239v29l54 -2q9 0 14 7.5t5 17.5v506q0 12 -12 12h-41q-66 0 -95 -30.5t-29 -95.5h-26v156z" />
    <glyph glyph-name="Tcaron" unicode="&#x164;" horiz-adv-x="529" 
d="M15 0zM15 600q14 -2 40 -2h419q32 0 40 2v-156h-26q0 65 -28.5 95.5t-94.5 30.5h-42q-10 0 -12 -11v-510q0 -22 20 -22l53 2v-29h-239v29l54 -2q9 0 14 7.5t5 17.5v506q0 12 -12 12h-41q-66 0 -95 -30.5t-29 -95.5h-26v156zM118 824q9 0 28 -12l119 -74l119 74
q19 12 28 12t9 -8q0 -3 -7.5 -10t-17.5 -15q-35 -30 -54 -50l-23 -24l-24 -24q-27 -25 -30 -25t-30 25l-24 24l-23 24q-19 20 -54 50q-10 8 -17.5 15t-7.5 10q0 8 9 8z" />
    <glyph glyph-name="uni0162" unicode="&#x162;" horiz-adv-x="529" 
d="M15 0zM15 600q14 -2 40 -2h419q32 0 40 2v-156h-26q0 65 -28.5 95.5t-94.5 30.5h-42q-10 0 -12 -11v-510q0 -22 20 -22l53 2v-29h-239v29l54 -2q9 0 14 7.5t5 17.5v506q0 12 -12 12h-41q-66 0 -95 -30.5t-29 -95.5h-26v156zM187 -174q12 -13 35 -13t39.5 15.5t16.5 38.5
q0 21 -34 39l-23 14q-11 8 -11 15t6 13l41 52h33l-27 -43q-6 -11 -6 -19q0 -6 7 -9t23 -7q27 -6 41.5 -15t14.5 -29q0 -43 -24.5 -67.5t-69.5 -24.5q-44 0 -69 16z" />
    <glyph glyph-name="uni021A" unicode="&#x21a;" horiz-adv-x="529" 
d="M15 0zM15 600q14 -2 40 -2h419q32 0 40 2v-156h-26q0 65 -28.5 95.5t-94.5 30.5h-42q-10 0 -12 -11v-510q0 -22 20 -22l53 2v-29h-239v29l54 -2q9 0 14 7.5t5 17.5v506q0 12 -12 12h-41q-66 0 -95 -30.5t-29 -95.5h-26v156zM261 -171q15 18 15 31q0 29 -28 29
q-13 0 -21.5 10.5t-8.5 23.5q0 17 12.5 30t35.5 13q27 0 43.5 -18.5t16.5 -43.5q0 -38 -24.5 -69.5t-59.5 -47.5l-16 13q20 11 35 29z" />
    <glyph glyph-name="U" unicode="U" horiz-adv-x="651" 
d="M35 597h219v-30l-49 2h-2q-8 0 -13 -6t-5 -14v-350q0 -84 46.5 -131t130.5 -47q48 0 87 23t61 63.5t22 90.5v350q0 10 -5 16t-13 5l-49 -2v30h161v-30l-39 2h-2q-8 0 -13 -6t-5 -14v-360q0 -57 -29 -102.5t-79.5 -71t-114.5 -25.5q-122 0 -187 53.5t-65 155.5v349
q0 9 -5.5 15.5t-13.5 5.5l-38 -2v30z" />
    <glyph glyph-name="Uacute" unicode="&#xda;" horiz-adv-x="651" 
d="M35 0zM35 597h219v-30l-49 2h-2q-8 0 -13 -6t-5 -14v-350q0 -84 46.5 -131t130.5 -47q48 0 87 23t61 63.5t22 90.5v350q0 10 -5 16t-13 5l-49 -2v30h161v-30l-39 2h-2q-8 0 -13 -6t-5 -14v-360q0 -57 -29 -102.5t-79.5 -71t-114.5 -25.5q-122 0 -187 53.5t-65 155.5v349
q0 9 -5.5 15.5t-13.5 5.5l-38 -2v30zM469.5 791q-4.5 -3 -5.5 -4l-163 -112q-12 -9 -20 -9q-13 0 -13 8q0 4 7.5 12l10.5 11l95 104q15 17 20.5 21t15.5 4q17 0 37 -10t20 -16t-4.5 -9z" />
    <glyph glyph-name="Ucircumflex" unicode="&#xdb;" horiz-adv-x="651" 
d="M35 0zM35 597h219v-30l-49 2h-2q-8 0 -13 -6t-5 -14v-350q0 -84 46.5 -131t130.5 -47q48 0 87 23t61 63.5t22 90.5v350q0 10 -5 16t-13 5l-49 -2v30h161v-30l-39 2h-2q-8 0 -13 -6t-5 -14v-360q0 -57 -29 -102.5t-79.5 -71t-114.5 -25.5q-122 0 -187 53.5t-65 155.5v349
q0 9 -5.5 15.5t-13.5 5.5l-38 -2v30zM483 666q-9 0 -28 12l-119 74l-119 -74q-19 -12 -28 -12t-9 8q0 3 7.5 10t17.5 15q35 30 54 50l23 24l24 24q27 25 30 25t30 -25l24 -24l23 -24q19 -20 54 -50q10 -8 17.5 -15t7.5 -10q0 -8 -9 -8z" />
    <glyph glyph-name="Udieresis" unicode="&#xdc;" horiz-adv-x="651" 
d="M35 0zM35 597h219v-30l-49 2h-2q-8 0 -13 -6t-5 -14v-350q0 -84 46.5 -131t130.5 -47q48 0 87 23t61 63.5t22 90.5v350q0 10 -5 16t-13 5l-49 -2v30h161v-30l-39 2h-2q-8 0 -13 -6t-5 -14v-360q0 -57 -29 -102.5t-79.5 -71t-114.5 -25.5q-122 0 -187 53.5t-65 155.5v349
q0 9 -5.5 15.5t-13.5 5.5l-38 -2v30zM199.5 779q15.5 14 38.5 14q22 0 38 -14t16 -35t-15 -34.5t-39 -13.5t-39 13.5t-15 34.5t15.5 35zM394.5 779q15.5 14 38.5 14q22 0 38 -14t16 -35t-15 -34.5t-39 -13.5t-39 13.5t-15 34.5t15.5 35z" />
    <glyph glyph-name="Ugrave" unicode="&#xd9;" horiz-adv-x="651" 
d="M35 0zM35 597h219v-30l-49 2h-2q-8 0 -13 -6t-5 -14v-350q0 -84 46.5 -131t130.5 -47q48 0 87 23t61 63.5t22 90.5v350q0 10 -5 16t-13 5l-49 -2v30h161v-30l-39 2h-2q-8 0 -13 -6t-5 -14v-360q0 -57 -29 -102.5t-79.5 -71t-114.5 -25.5q-122 0 -187 53.5t-65 155.5v349
q0 9 -5.5 15.5t-13.5 5.5l-38 -2v30zM219 816q20 10 37 10q10 0 15.5 -4t20.5 -21l95 -104l10.5 -11t7.5 -12q0 -8 -13 -8q-8 0 -20 9l-163 112q-1 1 -5.5 4t-4.5 9t20 16z" />
    <glyph glyph-name="Uhungarumlaut" unicode="&#x170;" horiz-adv-x="651" 
d="M35 0zM35 597h219v-30l-49 2h-2q-8 0 -13 -6t-5 -14v-350q0 -84 46.5 -131t130.5 -47q48 0 87 23t61 63.5t22 90.5v350q0 10 -5 16t-13 5l-49 -2v30h161v-30l-39 2h-2q-8 0 -13 -6t-5 -14v-360q0 -57 -29 -102.5t-79.5 -71t-114.5 -25.5q-122 0 -187 53.5t-65 155.5v349
q0 9 -5.5 15.5t-13.5 5.5l-38 -2v30zM235 711l39 67t24 39q4 5 6.5 7t6.5 2q5 0 19.5 -4.5t23.5 -8.5t9 -12q0 -4 -6 -12q-10 -11 -118 -117q-6 -6 -15 -6t-9 8q0 3 3 9zM355 711l39 67t24 39q4 5 6.5 7t6.5 2q5 0 19.5 -4.5t23.5 -8.5t9 -12q0 -4 -6 -12q-10 -11 -118 -117
q-6 -6 -15 -6t-9 8q0 3 3 9z" />
    <glyph glyph-name="Umacron" unicode="&#x16a;" horiz-adv-x="651" 
d="M35 0zM35 597h219v-30l-49 2h-2q-8 0 -13 -6t-5 -14v-350q0 -84 46.5 -131t130.5 -47q48 0 87 23t61 63.5t22 90.5v350q0 10 -5 16t-13 5l-49 -2v30h161v-30l-39 2h-2q-8 0 -13 -6t-5 -14v-360q0 -57 -29 -102.5t-79.5 -71t-114.5 -25.5q-122 0 -187 53.5t-65 155.5v349
q0 9 -5.5 15.5t-13.5 5.5l-38 -2v30zM216 706v40h239v-40h-239z" />
    <glyph glyph-name="Uogonek" unicode="&#x172;" horiz-adv-x="651" 
d="M626 597v-30l-39 2h-2q-8 0 -13 -6t-5 -14v-360q0 -59 -30.5 -105t-83.5 -71q-23 -11 -36 -31t-13 -44t14.5 -39t43.5 -15q36 0 70 29l12 -12q-25 -29 -55.5 -44.5t-62.5 -15.5q-30 0 -52 19t-22 53q0 48 43 82q-27 -5 -51 -5q-122 0 -187 53.5t-65 155.5v349
q0 9 -5.5 15.5t-13.5 5.5l-38 -2v30h219v-30l-49 2h-2q-8 0 -13 -6t-5 -14v-350q0 -84 46.5 -131t130.5 -47q48 0 87 23t61 63.5t22 90.5v350q0 10 -5 16t-13 5l-49 -2v30h161z" />
    <glyph glyph-name="Uring" unicode="&#x16e;" horiz-adv-x="651" 
d="M35 0zM35 597h219v-30l-49 2h-2q-8 0 -13 -6t-5 -14v-350q0 -84 46.5 -131t130.5 -47q48 0 87 23t61 63.5t22 90.5v350q0 10 -5 16t-13 5l-49 -2v30h161v-30l-39 2h-2q-8 0 -13 -6t-5 -14v-360q0 -57 -29 -102.5t-79.5 -71t-114.5 -25.5q-122 0 -187 53.5t-65 155.5v349
q0 9 -5.5 15.5t-13.5 5.5l-38 -2v30zM276 805.5q24 23.5 59 23.5t59.5 -23.5t24.5 -57.5t-24.5 -58t-59.5 -24q-34 0 -58.5 24t-24.5 58t24 57.5zM305 714.5q11 -12.5 30 -12.5t30.5 12.5t11.5 33.5q0 20 -11.5 32.5t-30.5 12.5t-30 -12.5t-11 -32.5q0 -21 11 -33.5z" />
    <glyph glyph-name="V" unicode="V" horiz-adv-x="584" 
d="M604 597v-30l-36 2q-8 1 -11.5 -4t-9.5 -19l-238 -550h-26l-237 550q-11 23 -23 23l-28 -2v30h215v-30l-53 2q-5 0 -8 -4.5t-3 -10.5q0 -3 2 -9l181 -416l174 405q7 18 7 24q0 11 -12 11l-51 -2v30h157z" />
    <glyph glyph-name="W" unicode="W" horiz-adv-x="884" 
d="M904 597v-30l-30 2q-9 1 -15.5 -6t-9.5 -15l-181 -558h-16l-206 519l-170 -519h-19l-211 557q-7 22 -21 22l-30 -2v30h216v-30l-53 2q-7 0 -10 -2.5t-3 -8.5l3 -11l149 -392l130 401q-4 8 -8.5 11t-12.5 2l-41 -2v30h208v-30l-42 2q-8 0 -10.5 -7.5t0.5 -14.5l163 -404
l130 406l2 8q0 6 -3.5 9.5t-9.5 2.5l-52 -2v30h153z" />
    <glyph glyph-name="Wacute" unicode="&#x1e82;" horiz-adv-x="884" 
d="M0 0zM904 597v-30l-30 2q-9 1 -15.5 -6t-9.5 -15l-181 -558h-16l-206 519l-170 -519h-19l-211 557q-7 22 -21 22l-30 -2v30h216v-30l-53 2q-7 0 -10 -2.5t-3 -8.5l3 -11l149 -392l130 401q-4 8 -8.5 11t-12.5 2l-41 -2v30h208v-30l-42 2q-8 0 -10.5 -7.5t0.5 -14.5
l163 -404l130 406l2 8q0 6 -3.5 9.5t-9.5 2.5l-52 -2v30h153zM595.5 791q-4.5 -3 -5.5 -4l-163 -112q-12 -9 -20 -9q-13 0 -13 8q0 4 7.5 12l10.5 11l95 104q15 17 20.5 21t15.5 4q17 0 37 -10t20 -16t-4.5 -9z" />
    <glyph glyph-name="Wcircumflex" unicode="&#x174;" horiz-adv-x="884" 
d="M0 0zM904 597v-30l-30 2q-9 1 -15.5 -6t-9.5 -15l-181 -558h-16l-206 519l-170 -519h-19l-211 557q-7 22 -21 22l-30 -2v30h216v-30l-53 2q-7 0 -10 -2.5t-3 -8.5l3 -11l149 -392l130 401q-4 8 -8.5 11t-12.5 2l-41 -2v30h208v-30l-42 2q-8 0 -10.5 -7.5t0.5 -14.5
l163 -404l130 406l2 8q0 6 -3.5 9.5t-9.5 2.5l-52 -2v30h153zM609 666q-9 0 -28 12l-119 74l-119 -74q-19 -12 -28 -12t-9 8q0 3 7.5 10t17.5 15q35 30 54 50l23 24l24 24q27 25 30 25t30 -25l24 -24l23 -24q19 -20 54 -50q10 -8 17.5 -15t7.5 -10q0 -8 -9 -8z" />
    <glyph glyph-name="Wdieresis" unicode="&#x1e84;" horiz-adv-x="884" 
d="M0 0zM904 597v-30l-30 2q-9 1 -15.5 -6t-9.5 -15l-181 -558h-16l-206 519l-170 -519h-19l-211 557q-7 22 -21 22l-30 -2v30h216v-30l-53 2q-7 0 -10 -2.5t-3 -8.5l3 -11l149 -392l130 401q-4 8 -8.5 11t-12.5 2l-41 -2v30h208v-30l-42 2q-8 0 -10.5 -7.5t0.5 -14.5
l163 -404l130 406l2 8q0 6 -3.5 9.5t-9.5 2.5l-52 -2v30h153zM325.5 779q15.5 14 38.5 14q22 0 38 -14t16 -35t-15 -34.5t-39 -13.5t-39 13.5t-15 34.5t15.5 35zM520.5 779q15.5 14 38.5 14q22 0 38 -14t16 -35t-15 -34.5t-39 -13.5t-39 13.5t-15 34.5t15.5 35z" />
    <glyph glyph-name="Wgrave" unicode="&#x1e80;" horiz-adv-x="884" 
d="M0 0zM904 597v-30l-30 2q-9 1 -15.5 -6t-9.5 -15l-181 -558h-16l-206 519l-170 -519h-19l-211 557q-7 22 -21 22l-30 -2v30h216v-30l-53 2q-7 0 -10 -2.5t-3 -8.5l3 -11l149 -392l130 401q-4 8 -8.5 11t-12.5 2l-41 -2v30h208v-30l-42 2q-8 0 -10.5 -7.5t0.5 -14.5
l163 -404l130 406l2 8q0 6 -3.5 9.5t-9.5 2.5l-52 -2v30h153zM345 816q20 10 37 10q10 0 15.5 -4t20.5 -21l95 -104l10.5 -11t7.5 -12q0 -8 -13 -8q-8 0 -20 9l-163 112q-1 1 -5.5 4t-4.5 9t20 16z" />
    <glyph glyph-name="X" unicode="X" horiz-adv-x="566" 
d="M578 30v-30h-235v30l49 -3h2q10 0 10 9q0 8 -5 14l-126 212l-135 -215q-3 -6 -3 -11q0 -4 2.5 -7t6.5 -2l45 3v-30h-159v30l36 -2q21 0 34 22l154 246l-151 254q-10 19 -32 19l-32 -2v30h228v-30l-42 2h-2q-7 0 -11 -3.5t-4 -8.5q0 -4 3 -9l109 -187l119 188q5 7 5 12
q0 9 -13 8l-43 -2v30h152v-30l-31 2q-17 0 -31 -20l-138 -221l169 -284q10 -18 30 -17z" />
    <glyph glyph-name="Y" unicode="Y" horiz-adv-x="507" 
d="M517 597v-30l-30 2q-16 0 -28 -21l-146 -261v-239q0 -21 20 -21l48 2v-29h-229v29l49 -2q19 0 19 22v214l-173 287q-10 19 -24 19l-28 -2v30h221v-30l-53 2h-1q-11 0 -11 -10q0 -6 5 -14l137 -228l131 232q3 5 3 10q0 10 -10 10l-52 -2v30h152z" />
    <glyph glyph-name="Yacute" unicode="&#xdd;" horiz-adv-x="507" 
d="M0 0zM517 597v-30l-30 2q-16 0 -28 -21l-146 -261v-239q0 -21 20 -21l48 2v-29h-229v29l49 -2q19 0 19 22v214l-173 287q-10 19 -24 19l-28 -2v30h221v-30l-53 2h-1q-11 0 -11 -10q0 -6 5 -14l137 -228l131 232q3 5 3 10q0 10 -10 10l-52 -2v30h152zM397.5 791
q-4.5 -3 -5.5 -4l-163 -112q-12 -9 -20 -9q-13 0 -13 8q0 4 7.5 12l10.5 11l95 104q15 17 20.5 21t15.5 4q17 0 37 -10t20 -16t-4.5 -9z" />
    <glyph glyph-name="Ycircumflex" unicode="&#x176;" horiz-adv-x="507" 
d="M0 0zM517 597v-30l-30 2q-16 0 -28 -21l-146 -261v-239q0 -21 20 -21l48 2v-29h-229v29l49 -2q19 0 19 22v214l-173 287q-10 19 -24 19l-28 -2v30h221v-30l-53 2h-1q-11 0 -11 -10q0 -6 5 -14l137 -228l131 232q3 5 3 10q0 10 -10 10l-52 -2v30h152zM411 666q-9 0 -28 12
l-119 74l-119 -74q-19 -12 -28 -12t-9 8q0 3 7.5 10t17.5 15q35 30 54 50l23 24l24 24q27 25 30 25t30 -25l24 -24l23 -24q19 -20 54 -50q10 -8 17.5 -15t7.5 -10q0 -8 -9 -8z" />
    <glyph glyph-name="Ydieresis" unicode="&#x178;" horiz-adv-x="507" 
d="M0 0zM517 597v-30l-30 2q-16 0 -28 -21l-146 -261v-239q0 -21 20 -21l48 2v-29h-229v29l49 -2q19 0 19 22v214l-173 287q-10 19 -24 19l-28 -2v30h221v-30l-53 2h-1q-11 0 -11 -10q0 -6 5 -14l137 -228l131 232q3 5 3 10q0 10 -10 10l-52 -2v30h152zM127.5 779
q15.5 14 38.5 14q22 0 38 -14t16 -35t-15 -34.5t-39 -13.5t-39 13.5t-15 34.5t15.5 35zM322.5 779q15.5 14 38.5 14q22 0 38 -14t16 -35t-15 -34.5t-39 -13.5t-39 13.5t-15 34.5t15.5 35z" />
    <glyph glyph-name="Ygrave" unicode="&#x1ef2;" horiz-adv-x="507" 
d="M0 0zM517 597v-30l-30 2q-16 0 -28 -21l-146 -261v-239q0 -21 20 -21l48 2v-29h-229v29l49 -2q19 0 19 22v214l-173 287q-10 19 -24 19l-28 -2v30h221v-30l-53 2h-1q-11 0 -11 -10q0 -6 5 -14l137 -228l131 232q3 5 3 10q0 10 -10 10l-52 -2v30h152zM147 816q20 10 37 10
q10 0 15.5 -4t20.5 -21l95 -104l10.5 -11t7.5 -12q0 -8 -13 -8q-8 0 -20 9l-163 112q-1 1 -5.5 4t-4.5 9t20 16z" />
    <glyph glyph-name="Z" unicode="Z" horiz-adv-x="512" 
d="M492 167l-8 -171q-12 4 -113 4h-337v27l321 542h-152q-72 0 -106.5 -30.5t-34.5 -95.5h-27v157l51 -1q36 -2 58 -2h320v-24l-323 -546h174q69 0 109.5 37.5t40.5 102.5h27z" />
    <glyph glyph-name="Zacute" unicode="&#x179;" horiz-adv-x="512" 
d="M34 0zM492 167l-8 -171q-12 4 -113 4h-337v27l321 542h-152q-72 0 -106.5 -30.5t-34.5 -95.5h-27v157l51 -1q36 -2 58 -2h320v-24l-323 -546h174q69 0 109.5 37.5t40.5 102.5h27zM389.5 791q-4.5 -3 -5.5 -4l-163 -112q-12 -9 -20 -9q-13 0 -13 8q0 4 7.5 12l10.5 11
l95 104q15 17 20.5 21t15.5 4q17 0 37 -10t20 -16t-4.5 -9z" />
    <glyph glyph-name="Zcaron" unicode="&#x17d;" horiz-adv-x="512" 
d="M34 0zM492 167l-8 -171q-12 4 -113 4h-337v27l321 542h-152q-72 0 -106.5 -30.5t-34.5 -95.5h-27v157l51 -1q36 -2 58 -2h320v-24l-323 -546h174q69 0 109.5 37.5t40.5 102.5h27zM109 824q9 0 28 -12l119 -74l119 74q19 12 28 12t9 -8q0 -3 -7.5 -10t-17.5 -15
q-35 -30 -54 -50l-23 -24l-24 -24q-27 -25 -30 -25t-30 25l-24 24l-23 24q-19 20 -54 50q-10 8 -17.5 15t-7.5 10q0 8 9 8z" />
    <glyph glyph-name="Zdotaccent" unicode="&#x17b;" horiz-adv-x="512" 
d="M34 0zM492 167l-8 -171q-12 4 -113 4h-337v27l321 542h-152q-72 0 -106.5 -30.5t-34.5 -95.5h-27v157l51 -1q36 -2 58 -2h320v-24l-323 -546h174q69 0 109.5 37.5t40.5 102.5h27zM217.5 779q15.5 14 38.5 14q22 0 38 -14t16 -35t-15 -34.5t-39 -13.5t-39 13.5t-15 34.5
t15.5 35z" />
    <glyph glyph-name="a" unicode="a" horiz-adv-x="450" 
d="M430 26v-26h-142q1 7 2.5 18.5t1.5 18.5l2 39q-22 -43 -56.5 -62t-82.5 -19q-63 0 -95.5 28.5t-32.5 84.5q0 77 64.5 113.5t202.5 36.5v58q0 47 -22 67t-71 20q-76 0 -76 -42q0 -8 4.5 -18.5t4.5 -19.5q0 -17 -11 -25.5t-28 -8.5q-21 0 -32.5 13t-11.5 34q0 42 44 68
t118 26q167 0 167 -141v-246q0 -19 13 -19zM260 67.5q31 36.5 34 94.5v69q-94 0 -135 -27.5t-41 -87.5q0 -42 17.5 -63.5t49.5 -21.5q44 0 75 36.5z" />
    <glyph glyph-name="aacute" unicode="&#xe1;" horiz-adv-x="450" 
d="M27 0zM430 26v-26h-142q1 7 2.5 18.5t1.5 18.5l2 39q-22 -43 -56.5 -62t-82.5 -19q-63 0 -95.5 28.5t-32.5 84.5q0 77 64.5 113.5t202.5 36.5v58q0 47 -22 67t-71 20q-76 0 -76 -42q0 -8 4.5 -18.5t4.5 -19.5q0 -17 -11 -25.5t-28 -8.5q-21 0 -32.5 13t-11.5 34
q0 42 44 68t118 26q167 0 167 -141v-246q0 -19 13 -19zM260 67.5q31 36.5 34 94.5v69q-94 0 -135 -27.5t-41 -87.5q0 -42 17.5 -63.5t49.5 -21.5q44 0 75 36.5zM357.5 618q-4.5 -3 -5.5 -4l-163 -112q-12 -9 -20 -9q-13 0 -13 8q0 4 7.5 12l10.5 11l95 104q15 17 20.5 21
t15.5 4q17 0 37 -10t20 -16t-4.5 -9z" />
    <glyph glyph-name="abreve" unicode="&#x103;" horiz-adv-x="450" 
d="M27 0zM430 26v-26h-142q1 7 2.5 18.5t1.5 18.5l2 39q-22 -43 -56.5 -62t-82.5 -19q-63 0 -95.5 28.5t-32.5 84.5q0 77 64.5 113.5t202.5 36.5v58q0 47 -22 67t-71 20q-76 0 -76 -42q0 -8 4.5 -18.5t4.5 -19.5q0 -17 -11 -25.5t-28 -8.5q-21 0 -32.5 13t-11.5 34
q0 42 44 68t118 26q167 0 167 -141v-246q0 -19 13 -19zM260 67.5q31 36.5 34 94.5v69q-94 0 -135 -27.5t-41 -87.5q0 -42 17.5 -63.5t49.5 -21.5q44 0 75 36.5zM318 551.5q-35 -33.5 -94 -33.5t-93.5 33.5t-41.5 90.5h38q8 -32 31 -53t66 -21q41 0 65.5 21.5t32.5 52.5h38
q-7 -57 -42 -90.5z" />
    <glyph glyph-name="acircumflex" unicode="&#xe2;" horiz-adv-x="450" 
d="M27 0zM430 26v-26h-142q1 7 2.5 18.5t1.5 18.5l2 39q-22 -43 -56.5 -62t-82.5 -19q-63 0 -95.5 28.5t-32.5 84.5q0 77 64.5 113.5t202.5 36.5v58q0 47 -22 67t-71 20q-76 0 -76 -42q0 -8 4.5 -18.5t4.5 -19.5q0 -17 -11 -25.5t-28 -8.5q-21 0 -32.5 13t-11.5 34
q0 42 44 68t118 26q167 0 167 -141v-246q0 -19 13 -19zM260 67.5q31 36.5 34 94.5v69q-94 0 -135 -27.5t-41 -87.5q0 -42 17.5 -63.5t49.5 -21.5q44 0 75 36.5zM372 493q-9 0 -28 12l-119 74l-119 -74q-19 -12 -28 -12t-9 8q0 3 7.5 10t17.5 15q35 30 54 50l23 24l24 24
q27 25 30 25t30 -25l24 -24l23 -24q19 -20 54 -50q10 -8 17.5 -15t7.5 -10q0 -8 -9 -8z" />
    <glyph glyph-name="adieresis" unicode="&#xe4;" horiz-adv-x="450" 
d="M27 0zM430 26v-26h-142q1 7 2.5 18.5t1.5 18.5l2 39q-22 -43 -56.5 -62t-82.5 -19q-63 0 -95.5 28.5t-32.5 84.5q0 77 64.5 113.5t202.5 36.5v58q0 47 -22 67t-71 20q-76 0 -76 -42q0 -8 4.5 -18.5t4.5 -19.5q0 -17 -11 -25.5t-28 -8.5q-21 0 -32.5 13t-11.5 34
q0 42 44 68t118 26q167 0 167 -141v-246q0 -19 13 -19zM260 67.5q31 36.5 34 94.5v69q-94 0 -135 -27.5t-41 -87.5q0 -42 17.5 -63.5t49.5 -21.5q44 0 75 36.5zM88.5 630q15.5 14 38.5 14q22 0 38 -14t16 -35t-15 -34.5t-39 -13.5t-39 13.5t-15 34.5t15.5 35zM283.5 630
q15.5 14 38.5 14q22 0 38 -14t16 -35t-15 -34.5t-39 -13.5t-39 13.5t-15 34.5t15.5 35z" />
    <glyph glyph-name="agrave" unicode="&#xe0;" horiz-adv-x="450" 
d="M27 0zM430 26v-26h-142q1 7 2.5 18.5t1.5 18.5l2 39q-22 -43 -56.5 -62t-82.5 -19q-63 0 -95.5 28.5t-32.5 84.5q0 77 64.5 113.5t202.5 36.5v58q0 47 -22 67t-71 20q-76 0 -76 -42q0 -8 4.5 -18.5t4.5 -19.5q0 -17 -11 -25.5t-28 -8.5q-21 0 -32.5 13t-11.5 34
q0 42 44 68t118 26q167 0 167 -141v-246q0 -19 13 -19zM260 67.5q31 36.5 34 94.5v69q-94 0 -135 -27.5t-41 -87.5q0 -42 17.5 -63.5t49.5 -21.5q44 0 75 36.5zM108 643q20 10 37 10q10 0 15.5 -4t20.5 -21l95 -104l10.5 -11t7.5 -12q0 -8 -13 -8q-8 0 -20 9l-163 112
q-1 1 -5.5 4t-4.5 9t20 16z" />
    <glyph glyph-name="amacron" unicode="&#x101;" horiz-adv-x="450" 
d="M27 0zM430 26v-26h-142q1 7 2.5 18.5t1.5 18.5l2 39q-22 -43 -56.5 -62t-82.5 -19q-63 0 -95.5 28.5t-32.5 84.5q0 77 64.5 113.5t202.5 36.5v58q0 47 -22 67t-71 20q-76 0 -76 -42q0 -8 4.5 -18.5t4.5 -19.5q0 -17 -11 -25.5t-28 -8.5q-21 0 -32.5 13t-11.5 34
q0 42 44 68t118 26q167 0 167 -141v-246q0 -19 13 -19zM260 67.5q31 36.5 34 94.5v69q-94 0 -135 -27.5t-41 -87.5q0 -42 17.5 -63.5t49.5 -21.5q44 0 75 36.5zM105 567v40h239v-40h-239z" />
    <glyph glyph-name="aogonek" unicode="&#x105;" horiz-adv-x="450" 
d="M494 -103q-25 -29 -55.5 -44.5t-62.5 -15.5q-30 0 -52 19t-22 53q0 27 14.5 50.5t41.5 40.5h-70q1 7 2.5 18.5t1.5 18.5l2 39q-22 -43 -56.5 -62t-82.5 -19q-63 0 -95.5 28.5t-32.5 84.5q0 77 64.5 113.5t202.5 36.5v58q0 47 -22 67t-71 20q-76 0 -76 -42q0 -8 4.5 -18.5
t4.5 -19.5q0 -17 -11 -25.5t-28 -8.5q-21 0 -32.5 13t-11.5 34q0 42 44 68t118 26q167 0 167 -141v-246q0 -19 13 -19l37 2v-26h-42q-34 -25 -34 -66q0 -24 14.5 -39t43.5 -15q36 0 70 29zM260 67.5q31 36.5 34 94.5v69q-94 0 -135 -27.5t-41 -87.5q0 -42 17.5 -63.5
t49.5 -21.5q44 0 75 36.5z" />
    <glyph glyph-name="aring" unicode="&#xe5;" horiz-adv-x="450" 
d="M27 0zM430 26v-26h-142q1 7 2.5 18.5t1.5 18.5l2 39q-22 -43 -56.5 -62t-82.5 -19q-63 0 -95.5 28.5t-32.5 84.5q0 77 64.5 113.5t202.5 36.5v58q0 47 -22 67t-71 20q-76 0 -76 -42q0 -8 4.5 -18.5t4.5 -19.5q0 -17 -11 -25.5t-28 -8.5q-21 0 -32.5 13t-11.5 34
q0 42 44 68t118 26q167 0 167 -141v-246q0 -19 13 -19zM260 67.5q31 36.5 34 94.5v69q-94 0 -135 -27.5t-41 -87.5q0 -42 17.5 -63.5t49.5 -21.5q44 0 75 36.5zM165 632.5q24 23.5 59 23.5t59.5 -23.5t24.5 -57.5t-24.5 -58t-59.5 -24q-34 0 -58.5 24t-24.5 58t24 57.5z
M194 541.5q11 -12.5 30 -12.5t30.5 12.5t11.5 33.5q0 20 -11.5 32.5t-30.5 12.5t-30 -12.5t-11 -32.5q0 -21 11 -33.5z" />
    <glyph glyph-name="atilde" unicode="&#xe3;" horiz-adv-x="450" 
d="M27 0zM430 26v-26h-142q1 7 2.5 18.5t1.5 18.5l2 39q-22 -43 -56.5 -62t-82.5 -19q-63 0 -95.5 28.5t-32.5 84.5q0 77 64.5 113.5t202.5 36.5v58q0 47 -22 67t-71 20q-76 0 -76 -42q0 -8 4.5 -18.5t4.5 -19.5q0 -17 -11 -25.5t-28 -8.5q-21 0 -32.5 13t-11.5 34
q0 42 44 68t118 26q167 0 167 -141v-246q0 -19 13 -19zM260 67.5q31 36.5 34 94.5v69q-94 0 -135 -27.5t-41 -87.5q0 -42 17.5 -63.5t49.5 -21.5q44 0 75 36.5zM100.5 594q18.5 27 45.5 27q24 0 88 -22q61 -21 81 -21q14 0 23.5 12t9.5 30h20q0 -37 -18.5 -64t-45.5 -27
q-24 0 -88 22q-59 21 -81 21q-14 0 -23.5 -12t-9.5 -30h-20q0 37 18.5 64z" />
    <glyph glyph-name="ae" unicode="&#xe6;" horiz-adv-x="710" 
d="M631 375.5q44 -54.5 44 -158.5h-294q0 -90 34 -142t99 -52q39 0 78.5 25t57.5 62l24 -18q-21 -47 -66.5 -74.5t-99.5 -27.5q-77 0 -122 25t-68 72q-25 -47 -59 -69.5t-87 -22.5q-66 0 -105.5 25.5t-39.5 77.5q0 80 64 112t203 32v74q0 47 -22 67t-71 20q-76 0 -76 -42
q0 -8 4.5 -18.5t4.5 -19.5q0 -17 -11 -25.5t-28 -8.5q-21 0 -32.5 13t-11.5 34q0 42 44 68t118 26q99 0 139 -49q29 26 64 37.5t84 11.5q87 0 131 -54.5zM410 363.5q-29 -39.5 -29 -121.5h199q10 0 10 28q0 133 -89 133q-62 0 -91 -39.5zM160 186q-42 -31 -42 -93
q0 -33 20 -49t53 -16q27 0 50.5 19t38 53t14.5 77v40q-92 0 -134 -31z" />
    <glyph glyph-name="b" unicode="b" horiz-adv-x="481" 
d="M21 730h136v-388q37 88 131 88q173 0 173 -221q0 -109 -47 -164t-143 -55q-49 0 -74 16t-48 46q-4 9 -18 9t-21 -18t-7 -48h-33v692q0 20 -13 20l-36 -2v25zM185 61q26 -44 86 -44q39 0 60 17.5t30 58.5t9 116q0 78 -7.5 118.5t-27.5 58t-58 17.5q-56 0 -87 -47.5
t-31 -129.5v-42q0 -79 26 -123z" />
    <glyph glyph-name="c" unicode="c" horiz-adv-x="425" 
d="M308.5 416.5q35.5 -13.5 57 -37t21.5 -51.5q0 -21 -11.5 -35.5t-36.5 -14.5q-35 0 -35 30q0 8 4 20q5 12 5 23q0 25 -23 38.5t-55 13.5q-52 0 -79 -42t-27 -144q0 -101 28 -150.5t85 -49.5q50 0 89.5 28t51.5 79l24 -18q-18 -54 -61.5 -85t-108.5 -31q-94 0 -147.5 57.5
t-53.5 158.5q0 68 24.5 118.5t69 78t102.5 27.5q41 0 76.5 -13.5z" />
    <glyph glyph-name="cacute" unicode="&#x107;" horiz-adv-x="425" 
d="M36 0zM308.5 416.5q35.5 -13.5 57 -37t21.5 -51.5q0 -21 -11.5 -35.5t-36.5 -14.5q-35 0 -35 30q0 8 4 20q5 12 5 23q0 25 -23 38.5t-55 13.5q-52 0 -79 -42t-27 -144q0 -101 28 -150.5t85 -49.5q50 0 89.5 28t51.5 79l24 -18q-18 -54 -61.5 -85t-108.5 -31
q-94 0 -147.5 57.5t-53.5 158.5q0 68 24.5 118.5t69 78t102.5 27.5q41 0 76.5 -13.5zM345.5 618q-4.5 -3 -5.5 -4l-163 -112q-12 -9 -20 -9q-13 0 -13 8q0 4 7.5 12l10.5 11l95 104q15 17 20.5 21t15.5 4q17 0 37 -10t20 -16t-4.5 -9z" />
    <glyph glyph-name="ccaron" unicode="&#x10d;" horiz-adv-x="425" 
d="M36 0zM308.5 416.5q35.5 -13.5 57 -37t21.5 -51.5q0 -21 -11.5 -35.5t-36.5 -14.5q-35 0 -35 30q0 8 4 20q5 12 5 23q0 25 -23 38.5t-55 13.5q-52 0 -79 -42t-27 -144q0 -101 28 -150.5t85 -49.5q50 0 89.5 28t51.5 79l24 -18q-18 -54 -61.5 -85t-108.5 -31
q-94 0 -147.5 57.5t-53.5 158.5q0 68 24.5 118.5t69 78t102.5 27.5q41 0 76.5 -13.5zM66 657q9 0 28 -12l119 -74l119 74q19 12 28 12t9 -8q0 -3 -7.5 -10t-17.5 -15q-35 -30 -54 -50l-23 -24l-24 -24q-27 -25 -30 -25t-30 25l-24 24l-23 24q-19 20 -54 50q-10 8 -17.5 15
t-7.5 10q0 8 9 8z" />
    <glyph glyph-name="ccedilla" unicode="&#xe7;" horiz-adv-x="425" 
d="M211 -43q-6 -11 -6 -19q0 -6 7 -9t23 -7q27 -6 41.5 -15t14.5 -29q0 -43 -24.5 -67.5t-69.5 -24.5q-44 0 -69 16l7 24q12 -13 35 -13t39.5 15.5t16.5 38.5q0 21 -34 39l-23 14q-11 8 -11 15t6 13l35 45q-77 11 -120 67t-43 146q0 68 24.5 118.5t69 78t102.5 27.5
q41 0 76.5 -13.5t57 -37t21.5 -51.5q0 -21 -11.5 -35.5t-36.5 -14.5q-35 0 -35 30q0 8 4 20q5 12 5 23q0 25 -23 38.5t-55 13.5q-52 0 -79 -42t-27 -144q0 -101 28 -150.5t85 -49.5q50 0 89.5 28t51.5 79l24 -18q-18 -54 -61.5 -85t-108.5 -31h-5z" />
    <glyph glyph-name="d" unicode="d" horiz-adv-x="496" 
d="M82.5 374q47.5 56 141.5 56q46 0 75.5 -23t39.5 -59v339q0 20 -13 20l-46 -2v25h146v-687q0 -19 13 -19l37 2v-26h-144q2 8 2 16v22q0 13 1 20t1 9q-12 -37 -38.5 -57t-72.5 -20q-102 0 -146 53.5t-44 165.5q0 109 47.5 165zM135.5 95q8.5 -41 29.5 -59.5t60 -18.5
q61 0 86.5 40t25.5 127v42q0 84 -28 130.5t-85 46.5q-54 0 -75.5 -50t-21.5 -144q0 -73 8.5 -114z" />
    <glyph glyph-name="eth" unicode="&#xf0;" horiz-adv-x="492" 
d="M413 409.5q44 -85.5 44 -196.5q0 -104 -55 -164t-156 -60q-103 0 -157 56t-54 164t54 164t157 56q22 0 46 -7t36 -18q-10 30 -32 59.5t-50 54.5l-106 -61l-15 26l96 55q-29 22 -58 34.5t-51 12.5l20 22q71 -3 137 -42l95 55l14 -26l-81 -47q72 -52 116 -137.5z
M338.5 59.5q27.5 45.5 27.5 149.5q0 105 -28 150t-92 45q-46 0 -72 -18t-37 -60t-11 -117q0 -74 12 -116t38 -60.5t70 -18.5q65 0 92.5 45.5z" />
    <glyph glyph-name="dcaron" unicode="&#x10f;" horiz-adv-x="496" 
d="M35 0zM82.5 374q47.5 56 141.5 56q46 0 75.5 -23t39.5 -59v339q0 20 -13 20l-46 -2v25h146v-687q0 -19 13 -19l37 2v-26h-144q2 8 2 16v22q0 13 1 20t1 9q-12 -37 -38.5 -57t-72.5 -20q-102 0 -146 53.5t-44 165.5q0 109 47.5 165zM135.5 95q8.5 -41 29.5 -59.5t60 -18.5
q61 0 86.5 40t25.5 127v42q0 84 -28 130.5t-85 46.5q-54 0 -75.5 -50t-21.5 -144q0 -73 8.5 -114zM496.5 480.5q11.5 17.5 11.5 30.5q0 19 -18 19q-13 0 -21.5 10.5t-8.5 23.5q0 17 11 30t32 13q24 0 39.5 -18.5t15.5 -43.5q0 -34 -21.5 -63t-52.5 -44l-16 13
q17 12 28.5 29.5z" />
    <glyph glyph-name="dcroat" unicode="&#x111;" horiz-adv-x="496" 
d="M426 558v-515q0 -19 13 -19l37 2v-26h-144q2 8 2 16v22q0 13 1 20t1 9q-12 -37 -38.5 -57t-72.5 -20q-102 0 -146 53.5t-44 165.5q0 109 47.5 165t141.5 56q46 0 75.5 -23t39.5 -59v210h-101v40h101v89q0 20 -13 20l-46 -2v25h146v-132h51v-40h-51zM337 226
q0 84 -28 130.5t-85 46.5q-54 0 -75.5 -50t-21.5 -144q0 -73 8.5 -114t29.5 -59.5t60 -18.5q61 0 86.5 40t25.5 127v42z" />
    <glyph glyph-name="e" unicode="e" horiz-adv-x="449" 
d="M363.5 379.5q48.5 -50.5 50.5 -138.5v-29h-288q0 -91 31.5 -139.5t94.5 -49.5q50 0 84.5 25t50.5 62l23 -17q-20 -48 -67.5 -75.5t-104.5 -27.5q-203 0 -203 219q0 109 51 165t150 56q79 0 127.5 -50.5zM153.5 357q-26.5 -46 -26.5 -120h182q10 0 15 7t5 26
q0 68 -21.5 100.5t-71.5 32.5q-56 0 -82.5 -46z" />
    <glyph glyph-name="eacute" unicode="&#xe9;" horiz-adv-x="449" 
d="M35 0zM363.5 379.5q48.5 -50.5 50.5 -138.5v-29h-288q0 -91 31.5 -139.5t94.5 -49.5q50 0 84.5 25t50.5 62l23 -17q-20 -48 -67.5 -75.5t-104.5 -27.5q-203 0 -203 219q0 109 51 165t150 56q79 0 127.5 -50.5zM153.5 357q-26.5 -46 -26.5 -120h182q10 0 15 7t5 26
q0 68 -21.5 100.5t-71.5 32.5q-56 0 -82.5 -46zM357.5 618q-4.5 -3 -5.5 -4l-163 -112q-12 -9 -20 -9q-13 0 -13 8q0 4 7.5 12l10.5 11l95 104q15 17 20.5 21t15.5 4q17 0 37 -10t20 -16t-4.5 -9z" />
    <glyph glyph-name="ecaron" unicode="&#x11b;" horiz-adv-x="449" 
d="M35 0zM363.5 379.5q48.5 -50.5 50.5 -138.5v-29h-288q0 -91 31.5 -139.5t94.5 -49.5q50 0 84.5 25t50.5 62l23 -17q-20 -48 -67.5 -75.5t-104.5 -27.5q-203 0 -203 219q0 109 51 165t150 56q79 0 127.5 -50.5zM153.5 357q-26.5 -46 -26.5 -120h182q10 0 15 7t5 26
q0 68 -21.5 100.5t-71.5 32.5q-56 0 -82.5 -46zM78 657q9 0 28 -12l119 -74l119 74q19 12 28 12t9 -8q0 -3 -7.5 -10t-17.5 -15q-35 -30 -54 -50l-23 -24l-24 -24q-27 -25 -30 -25t-30 25l-24 24l-23 24q-19 20 -54 50q-10 8 -17.5 15t-7.5 10q0 8 9 8z" />
    <glyph glyph-name="ecircumflex" unicode="&#xea;" horiz-adv-x="449" 
d="M35 0zM363.5 379.5q48.5 -50.5 50.5 -138.5v-29h-288q0 -91 31.5 -139.5t94.5 -49.5q50 0 84.5 25t50.5 62l23 -17q-20 -48 -67.5 -75.5t-104.5 -27.5q-203 0 -203 219q0 109 51 165t150 56q79 0 127.5 -50.5zM153.5 357q-26.5 -46 -26.5 -120h182q10 0 15 7t5 26
q0 68 -21.5 100.5t-71.5 32.5q-56 0 -82.5 -46zM372 493q-9 0 -28 12l-119 74l-119 -74q-19 -12 -28 -12t-9 8q0 3 7.5 10t17.5 15q35 30 54 50l23 24l24 24q27 25 30 25t30 -25l24 -24l23 -24q19 -20 54 -50q10 -8 17.5 -15t7.5 -10q0 -8 -9 -8z" />
    <glyph glyph-name="edieresis" unicode="&#xeb;" horiz-adv-x="449" 
d="M35 0zM363.5 379.5q48.5 -50.5 50.5 -138.5v-29h-288q0 -91 31.5 -139.5t94.5 -49.5q50 0 84.5 25t50.5 62l23 -17q-20 -48 -67.5 -75.5t-104.5 -27.5q-203 0 -203 219q0 109 51 165t150 56q79 0 127.5 -50.5zM153.5 357q-26.5 -46 -26.5 -120h182q10 0 15 7t5 26
q0 68 -21.5 100.5t-71.5 32.5q-56 0 -82.5 -46zM88.5 630q15.5 14 38.5 14q22 0 38 -14t16 -35t-15 -34.5t-39 -13.5t-39 13.5t-15 34.5t15.5 35zM283.5 630q15.5 14 38.5 14q22 0 38 -14t16 -35t-15 -34.5t-39 -13.5t-39 13.5t-15 34.5t15.5 35z" />
    <glyph glyph-name="edotaccent" unicode="&#x117;" horiz-adv-x="449" 
d="M35 0zM363.5 379.5q48.5 -50.5 50.5 -138.5v-29h-288q0 -91 31.5 -139.5t94.5 -49.5q50 0 84.5 25t50.5 62l23 -17q-20 -48 -67.5 -75.5t-104.5 -27.5q-203 0 -203 219q0 109 51 165t150 56q79 0 127.5 -50.5zM153.5 357q-26.5 -46 -26.5 -120h182q10 0 15 7t5 26
q0 68 -21.5 100.5t-71.5 32.5q-56 0 -82.5 -46zM186.5 630q15.5 14 38.5 14q22 0 38 -14t16 -35t-15 -34.5t-39 -13.5t-39 13.5t-15 34.5t15.5 35z" />
    <glyph glyph-name="egrave" unicode="&#xe8;" horiz-adv-x="449" 
d="M35 0zM363.5 379.5q48.5 -50.5 50.5 -138.5v-29h-288q0 -91 31.5 -139.5t94.5 -49.5q50 0 84.5 25t50.5 62l23 -17q-20 -48 -67.5 -75.5t-104.5 -27.5q-203 0 -203 219q0 109 51 165t150 56q79 0 127.5 -50.5zM153.5 357q-26.5 -46 -26.5 -120h182q10 0 15 7t5 26
q0 68 -21.5 100.5t-71.5 32.5q-56 0 -82.5 -46zM108 643q20 10 37 10q10 0 15.5 -4t20.5 -21l95 -104l10.5 -11t7.5 -12q0 -8 -13 -8q-8 0 -20 9l-163 112q-1 1 -5.5 4t-4.5 9t20 16z" />
    <glyph glyph-name="emacron" unicode="&#x113;" horiz-adv-x="449" 
d="M35 0zM363.5 379.5q48.5 -50.5 50.5 -138.5v-29h-288q0 -91 31.5 -139.5t94.5 -49.5q50 0 84.5 25t50.5 62l23 -17q-20 -48 -67.5 -75.5t-104.5 -27.5q-203 0 -203 219q0 109 51 165t150 56q79 0 127.5 -50.5zM153.5 357q-26.5 -46 -26.5 -120h182q10 0 15 7t5 26
q0 68 -21.5 100.5t-71.5 32.5q-56 0 -82.5 -46zM105 567v40h239v-40h-239z" />
    <glyph glyph-name="eogonek" unicode="&#x119;" horiz-adv-x="449" 
d="M425 -99q-25 -29 -55.5 -44.5t-62.5 -15.5q-30 0 -52 19t-22 53q0 22 10.5 43t30.5 37q-18 -3 -36 -3q-203 0 -203 219q0 109 51 165t150 56q79 0 127.5 -50.5t50.5 -138.5v-29h-288q0 -91 31.5 -139.5t94.5 -49.5q50 0 84.5 25t50.5 62l23 -17q-22 -54 -81 -82
q-21 -12 -32.5 -31t-11.5 -42q0 -24 14.5 -39t43.5 -15q36 0 70 29zM153.5 357q-26.5 -46 -26.5 -120h182q10 0 15 7t5 26q0 68 -21.5 100.5t-71.5 32.5q-56 0 -82.5 -46z" />
    <glyph glyph-name="f" unicode="f" horiz-adv-x="296" 
d="M35 26l37 -2q13 0 13 19v352h-39v25h39v66q0 250 174 250q47 0 82.5 -30t35.5 -73q0 -21 -12 -35t-36 -14q-35 0 -35 29q0 8 4 20q5 12 5 24q0 22 -13 37t-38 15q-36 0 -62 -26t-26 -94q0 -28 3 -66q1 -14 2 -33t1 -41v-29h107v-25h-106v-352q0 -19 13 -19l66 2v-26h-215
v26z" />
    <glyph glyph-name="g" unicode="g" 
d="M358.5 436q-21.5 -11 -34.5 -27q74 -37 74 -129q0 -66 -47 -107.5t-124 -41.5q-42 0 -78 15q-34 -21 -34 -44q0 -37 56 -37h133q74 0 111.5 -32t37.5 -107q0 -51 -29.5 -90t-83.5 -60t-125 -21q-88 0 -135.5 34t-47.5 99q0 40 22.5 68t67.5 49q-74 14 -74 66
q0 19 10.5 32.5t36.5 34.5l27 22q-30 19 -47.5 49.5t-17.5 70.5q0 67 47.5 108.5t122.5 41.5q42 0 76 -12q25 34 61.5 60.5t56.5 26.5q25 0 35.5 -13.5t10.5 -30.5q0 -13 -9 -25t-23 -12q-12 0 -18 3.5t-12.5 11.5t-14.5 8q-10 0 -31.5 -11zM291.5 182.5
q17.5 28.5 17.5 97.5q0 67 -18 95t-64 28t-63.5 -26.5t-17.5 -96.5q0 -49 7 -76t24.5 -38.5t49.5 -11.5q47 0 64.5 28.5zM189 0q-29 0 -54 -16t-39.5 -41.5t-14.5 -52.5q0 -49 33.5 -79t99.5 -30q83 0 128 38t45 100q0 41 -23.5 61t-74.5 20h-100z" />
    <glyph glyph-name="gbreve" unicode="&#x11f;" 
d="M32 0zM358.5 436q-21.5 -11 -34.5 -27q74 -37 74 -129q0 -66 -47 -107.5t-124 -41.5q-42 0 -78 15q-34 -21 -34 -44q0 -37 56 -37h133q74 0 111.5 -32t37.5 -107q0 -51 -29.5 -90t-83.5 -60t-125 -21q-88 0 -135.5 34t-47.5 99q0 40 22.5 68t67.5 49q-74 14 -74 66
q0 19 10.5 32.5t36.5 34.5l27 22q-30 19 -47.5 49.5t-17.5 70.5q0 67 47.5 108.5t122.5 41.5q42 0 76 -12q25 34 61.5 60.5t56.5 26.5q25 0 35.5 -13.5t10.5 -30.5q0 -13 -9 -25t-23 -12q-12 0 -18 3.5t-12.5 11.5t-14.5 8q-10 0 -31.5 -11zM291.5 182.5
q17.5 28.5 17.5 97.5q0 67 -18 95t-64 28t-63.5 -26.5t-17.5 -96.5q0 -49 7 -76t24.5 -38.5t49.5 -11.5q47 0 64.5 28.5zM189 0q-29 0 -54 -16t-39.5 -41.5t-14.5 -52.5q0 -49 33.5 -79t99.5 -30q83 0 128 38t45 100q0 41 -23.5 61t-74.5 20h-100zM323 551.5
q-35 -33.5 -94 -33.5t-93.5 33.5t-41.5 90.5h38q8 -32 31 -53t66 -21q41 0 65.5 21.5t32.5 52.5h38q-7 -57 -42 -90.5z" />
    <glyph glyph-name="gcommaaccent" unicode="&#x123;" 
d="M200.5 504.5q-16.5 18.5 -16.5 43.5q0 38 24.5 69.5t59.5 47.5l16 -13q-20 -11 -35 -29t-15 -31q0 -29 28 -29q13 0 21.5 -10.5t8.5 -23.5q0 -17 -12.5 -30t-35.5 -13q-27 0 -43.5 18.5zM358.5 436q-21.5 -11 -34.5 -27q74 -37 74 -129q0 -66 -47 -107.5t-124 -41.5
q-42 0 -78 15q-34 -21 -34 -44q0 -37 56 -37h133q74 0 111.5 -32t37.5 -107q0 -51 -29.5 -90t-83.5 -60t-125 -21q-88 0 -135.5 34t-47.5 99q0 40 22.5 68t67.5 49q-74 14 -74 66q0 19 10.5 32.5t36.5 34.5l27 22q-30 19 -47.5 49.5t-17.5 70.5q0 67 47.5 108.5t122.5 41.5
q42 0 76 -12q25 34 61.5 60.5t56.5 26.5q25 0 35.5 -13.5t10.5 -30.5q0 -13 -9 -25t-23 -12q-12 0 -18 3.5t-12.5 11.5t-14.5 8q-10 0 -31.5 -11zM291.5 182.5q17.5 28.5 17.5 97.5q0 67 -18 95t-64 28t-63.5 -26.5t-17.5 -96.5q0 -49 7 -76t24.5 -38.5t49.5 -11.5
q47 0 64.5 28.5zM189 0q-29 0 -54 -16t-39.5 -41.5t-14.5 -52.5q0 -49 33.5 -79t99.5 -30q83 0 128 38t45 100q0 41 -23.5 61t-74.5 20h-100z" />
    <glyph glyph-name="h" unicode="h" horiz-adv-x="525" 
d="M505 26v-26h-195v26l46 -2q13 3 13 19v227q0 48 -4.5 74t-18.5 40t-44 14q-57 0 -92.5 -48.5t-38.5 -130.5v-176q0 -19 13 -19l46 2v-26h-195v26l37 -2q13 3 13 19v643q0 21 -13 21l-37 -2v25h136v-400q21 47 60 73.5t90 26.5q71 0 102.5 -33.5t31.5 -108.5v-245
q0 -19 13 -19z" />
    <glyph glyph-name="i" unicode="i" horiz-adv-x="255" 
d="M160.5 630q15.5 -13 15.5 -34q0 -23 -15 -35.5t-40 -12.5q-24 0 -39 12.5t-15 35.5q0 21 15 34t39 13t39.5 -13zM171 43q0 -19 13 -19l36 2v-26h-185v26l37 -2q13 0 13 19v333q0 17 -12 20l-37 -2v26h135v-377z" />
    <glyph glyph-name="dotlessi" unicode="&#x131;" horiz-adv-x="255" 
d="M171 43q0 -19 13 -19l36 2v-26h-185v26l37 -2q13 0 13 19v333q0 17 -12 20l-37 -2v26h135v-377z" />
    <glyph glyph-name="iacute" unicode="&#xed;" horiz-adv-x="255" 
d="M35 0zM171 43q0 -19 13 -19l36 2v-26h-185v26l37 -2q13 0 13 19v333q0 17 -12 20l-37 -2v26h135v-377zM260.5 618q-4.5 -3 -5.5 -4l-163 -112q-12 -9 -20 -9q-13 0 -13 8q0 4 7.5 12l10.5 11l95 104q15 17 20.5 21t15.5 4q17 0 37 -10t20 -16t-4.5 -9z" />
    <glyph glyph-name="icircumflex" unicode="&#xee;" horiz-adv-x="255" 
d="M0 0zM171 43q0 -19 13 -19l36 2v-26h-185v26l37 -2q13 0 13 19v333q0 17 -12 20l-37 -2v26h135v-377zM1 493q-3 0 -5.5 2t-2.5 5q0 2 10.5 14.5l15.5 18.5l94 111q12 15 15 15t15 -15l94 -111l15.5 -18.5t10.5 -14.5q0 -3 -2.5 -5t-5.5 -2q-12 0 -29 13l-98 78l-98 -78
q-17 -13 -29 -13z" />
    <glyph glyph-name="idieresis" unicode="&#xef;" horiz-adv-x="255" 
d="M0 0zM171 43q0 -19 13 -19l36 2v-26h-185v26l37 -2q13 0 13 19v333q0 17 -12 20l-37 -2v26h135v-377zM-8.5 630q15.5 14 38.5 14q22 0 38 -14t16 -35t-15 -34.5t-39 -13.5t-39 13.5t-15 34.5t15.5 35zM186.5 630q15.5 14 38.5 14q22 0 38 -14t16 -35t-15 -34.5t-39 -13.5
t-39 13.5t-15 34.5t15.5 35z" />
    <glyph glyph-name="i.loclTRK" horiz-adv-x="255" 
d="M35 0zM171 43q0 -19 13 -19l36 2v-26h-185v26l37 -2q13 0 13 19v333q0 17 -12 20l-37 -2v26h135v-377zM89.5 630q15.5 14 38.5 14q22 0 38 -14t16 -35t-15 -34.5t-39 -13.5t-39 13.5t-15 34.5t15.5 35z" />
    <glyph glyph-name="igrave" unicode="&#xec;" horiz-adv-x="255" 
d="M0 0zM171 43q0 -19 13 -19l36 2v-26h-185v26l37 -2q13 0 13 19v333q0 17 -12 20l-37 -2v26h135v-377zM11 643q20 10 37 10q10 0 15.5 -4t20.5 -21l95 -104l10.5 -11t7.5 -12q0 -8 -13 -8q-8 0 -20 9l-163 112q-1 1 -5.5 4t-4.5 9t20 16z" />
    <glyph glyph-name="ij" unicode="&#x133;" horiz-adv-x="506" 
d="M35 0zM160.5 630q15.5 -13 15.5 -34q0 -23 -15 -35.5t-40 -12.5q-24 0 -39 12.5t-15 35.5q0 21 15 34t39 13t39.5 -13zM171 43q0 -19 13 -19l36 2v-26h-185v26l37 -2q13 0 13 19v333q0 17 -12 20l-37 -2v26h135v-377zM417.5 630q15.5 -13 15.5 -34q0 -23 -15.5 -35.5
t-39.5 -12.5q-25 0 -39.5 12.5t-14.5 35.5q0 22 15 34.5t39 12.5t39.5 -13zM426 -4q0 -239 -143 -239q-46 0 -73.5 19.5t-27.5 47.5q0 20 13 32t34 12q12 0 23.5 -6t11.5 -22q0 -5 -3 -16t-3 -15q0 -12 8.5 -18.5t22.5 -6.5q53 0 53 83q0 5 -1 24t-1 50v435q0 20 -13 20
l-41 -2v26h140v-424z" />
    <glyph glyph-name="imacron" unicode="&#x12b;" horiz-adv-x="255" 
d="M8 0zM171 43q0 -19 13 -19l36 2v-26h-185v26l37 -2q13 0 13 19v333q0 17 -12 20l-37 -2v26h135v-377zM8 567v40h239v-40h-239z" />
    <glyph glyph-name="iogonek" unicode="&#x12f;" horiz-adv-x="255" 
d="M89 560.5q-15 13.5 -15 34.5t15.5 35t38.5 14q22 0 38 -14t16 -35t-15 -34.5t-39 -13.5t-39 13.5zM281 -100q-25 -29 -55.5 -44.5t-62.5 -15.5q-30 0 -52 19t-22 53q0 25 13 48t39 40h-106v26l37 -2q13 0 13 19v333q0 17 -12 20l-37 -2v26h135v-377q0 -19 13 -19l36 2
v-26h-49q-30 -25 -30 -63q0 -24 14.5 -39t43.5 -15q36 0 70 29z" />
    <glyph glyph-name="j" unicode="j" horiz-adv-x="251" 
d="M162.5 630q15.5 -13 15.5 -34q0 -23 -15.5 -35.5t-39.5 -12.5q-25 0 -39.5 12.5t-14.5 35.5q0 22 15 34.5t39 12.5t39.5 -13zM171 -4q0 -239 -143 -239q-46 0 -73.5 19.5t-27.5 47.5q0 20 13 32t34 12q12 0 23.5 -6t11.5 -22q0 -5 -3 -16t-3 -15q0 -12 8.5 -18.5
t22.5 -6.5q53 0 53 83q0 5 -1 24t-1 50v435q0 20 -13 20l-41 -2v26h140v-424z" />
    <glyph glyph-name="uni0237" unicode="&#x237;" horiz-adv-x="251" 
d="M171 -4q0 -239 -143 -239q-46 0 -73.5 19.5t-27.5 47.5q0 20 13 32t34 12q12 0 23.5 -6t11.5 -22q0 -5 -3 -16t-3 -15q0 -12 8.5 -18.5t22.5 -6.5q53 0 53 83q0 5 -1 24t-1 50v435q0 20 -13 20l-41 -2v26h140v-424z" />
    <glyph glyph-name="k" unicode="k" horiz-adv-x="511" 
d="M504 26v-26h-215v26l45 -2h2q7 0 9 4.5t-2 9.5l-139 192l-33 -28v-159q0 -19 13 -19l46 2v-26h-195v26l37 -2q13 3 13 19v643q0 21 -12 21l-37 -2v25h135v-493l163 140q6 6 6 13q0 3 -2.5 5.5t-6.5 1.5l-43 -2v25h162v-25l-36 2q-15 0 -31 -14l-117 -100l175 -241
q6 -8 13.5 -13t13.5 -5z" />
    <glyph glyph-name="kcommaaccent" unicode="&#x137;" horiz-adv-x="511" 
d="M35 0zM504 26v-26h-215v26l45 -2h2q7 0 9 4.5t-2 9.5l-139 192l-33 -28v-159q0 -19 13 -19l46 2v-26h-195v26l37 -2q13 3 13 19v643q0 21 -12 21l-37 -2v25h135v-493l163 140q6 6 6 13q0 3 -2.5 5.5t-6.5 1.5l-43 -2v25h162v-25l-36 2q-15 0 -31 -14l-117 -100l175 -241
q6 -8 13.5 -13t13.5 -5zM252 -171q15 18 15 31q0 29 -28 29q-13 0 -21.5 10.5t-8.5 23.5q0 17 12.5 30t35.5 13q27 0 43.5 -18.5t16.5 -43.5q0 -38 -24.5 -69.5t-59.5 -47.5l-16 13q20 11 35 29z" />
    <glyph glyph-name="l" unicode="l" horiz-adv-x="255" 
d="M35 26l37 -2q13 3 13 19v644q0 17 -12 21l-37 -2v25h135v-688q0 -19 13 -19l36 2v-26h-185v26z" />
    <glyph glyph-name="lacute" unicode="&#x13a;" horiz-adv-x="255" 
d="M251 834l-161 -72q-10 -4 -17 -4q-6 0 -10 2.5t-4 6.5q0 7 13 16l114 83q16 12 27 12q13 0 30.5 -12.5t17.5 -20.5q0 -6 -10 -11zM35 26l37 -2q13 3 13 19v644q0 17 -12 21l-37 -2v25h135v-688q0 -19 13 -19l36 2v-26h-185v26z" />
    <glyph glyph-name="lcaron" unicode="&#x13e;" horiz-adv-x="255" 
d="M35 0zM35 26l37 -2q13 3 13 19v644q0 17 -12 21l-37 -2v25h135v-688q0 -19 13 -19l36 2v-26h-185v26zM236.5 480.5q11.5 17.5 11.5 30.5q0 19 -18 19q-13 0 -21.5 10.5t-8.5 23.5q0 17 11 30t32 13q24 0 39.5 -18.5t15.5 -43.5q0 -34 -21.5 -63t-52.5 -44l-16 13
q17 12 28.5 29.5z" />
    <glyph glyph-name="lcommaaccent" unicode="&#x13c;" horiz-adv-x="255" 
d="M35 0zM35 26l37 -2q13 3 13 19v644q0 17 -12 21l-37 -2v25h135v-688q0 -19 13 -19l36 2v-26h-185v26zM124 -171q15 18 15 31q0 29 -28 29q-13 0 -21.5 10.5t-8.5 23.5q0 17 12.5 30t35.5 13q27 0 43.5 -18.5t16.5 -43.5q0 -38 -24.5 -69.5t-59.5 -47.5l-16 13
q20 11 35 29z" />
    <glyph glyph-name="ldot" unicode="&#x140;" horiz-adv-x="255" 
d="M35 0zM35 26l37 -2q13 3 13 19v644q0 17 -12 21l-37 -2v25h135v-688q0 -19 13 -19l36 2v-26h-185v26zM217.5 389q15.5 14 38.5 14q22 0 38 -14t16 -35t-15 -34.5t-39 -13.5t-39 13.5t-15 34.5t15.5 35z" />
    <glyph glyph-name="lslash" unicode="&#x142;" horiz-adv-x="255" 
d="M171 415v-372q0 -19 13 -19l36 2v-26h-185v26l37 -2q13 3 13 19v308l-60 -50v45l60 50v291q0 17 -12 21l-37 -2v25h135v-270l60 50v-46z" />
    <glyph glyph-name="m" unicode="m" horiz-adv-x="801" 
d="M781 26v-26h-195v26l46 -2q13 3 13 19v227q0 48 -4.5 74t-18.5 40t-44 14q-53 0 -88.5 -48t-38.5 -127v-180q0 -19 13 -19l47 2v-26h-205v26l46 -2q13 3 13 19v229q0 52 -5.5 78t-20 36.5t-45.5 10.5q-51 0 -84 -46t-38 -120l-1 -188q0 -19 13 -19l46 2v-26h-195v26
l37 -2q13 3 13 19v333q0 8 -3.5 14t-9.5 6l-37 -2v26h142q-5 -15 -5 -34v-55q15 44 53 71.5t92 27.5q57 0 89.5 -24t41.5 -89q17 55 56.5 84t92.5 29q71 0 102.5 -33.5t31.5 -108.5v-245q0 -19 13 -19zM171 203v-8v8z" />
    <glyph glyph-name="n" unicode="n" horiz-adv-x="525" 
d="M505 26v-26h-195v26l46 -2q13 3 13 19v227q0 48 -4.5 74t-18.5 40t-44 14q-57 0 -92.5 -48.5t-38.5 -130.5v-176q0 -19 13 -19l46 2v-26h-195v26l37 -2q13 3 13 19v333q0 17 -13 20l-37 -2v26h141q-5 -15 -5 -35v-55q21 47 60 73.5t90 26.5q71 0 102.5 -33.5t31.5 -108.5
v-245q0 -19 13 -19z" />
    <glyph glyph-name="nacute" unicode="&#x144;" horiz-adv-x="525" 
d="M35 0zM505 26v-26h-195v26l46 -2q13 3 13 19v227q0 48 -4.5 74t-18.5 40t-44 14q-57 0 -92.5 -48.5t-38.5 -130.5v-176q0 -19 13 -19l46 2v-26h-195v26l37 -2q13 3 13 19v333q0 17 -13 20l-37 -2v26h141q-5 -15 -5 -35v-55q21 47 60 73.5t90 26.5q71 0 102.5 -33.5
t31.5 -108.5v-245q0 -19 13 -19zM395.5 618q-4.5 -3 -5.5 -4l-163 -112q-12 -9 -20 -9q-13 0 -13 8q0 4 7.5 12l10.5 11l95 104q15 17 20.5 21t15.5 4q17 0 37 -10t20 -16t-4.5 -9z" />
    <glyph glyph-name="ncaron" unicode="&#x148;" horiz-adv-x="525" 
d="M35 0zM505 26v-26h-195v26l46 -2q13 3 13 19v227q0 48 -4.5 74t-18.5 40t-44 14q-57 0 -92.5 -48.5t-38.5 -130.5v-176q0 -19 13 -19l46 2v-26h-195v26l37 -2q13 3 13 19v333q0 17 -13 20l-37 -2v26h141q-5 -15 -5 -35v-55q21 47 60 73.5t90 26.5q71 0 102.5 -33.5
t31.5 -108.5v-245q0 -19 13 -19zM116 657q9 0 28 -12l119 -74l119 74q19 12 28 12t9 -8q0 -3 -7.5 -10t-17.5 -15q-35 -30 -54 -50l-23 -24l-24 -24q-27 -25 -30 -25t-30 25l-24 24l-23 24q-19 20 -54 50q-10 8 -17.5 15t-7.5 10q0 8 9 8z" />
    <glyph glyph-name="ncommaaccent" unicode="&#x146;" horiz-adv-x="525" 
d="M35 0zM505 26v-26h-195v26l46 -2q13 3 13 19v227q0 48 -4.5 74t-18.5 40t-44 14q-57 0 -92.5 -48.5t-38.5 -130.5v-176q0 -19 13 -19l46 2v-26h-195v26l37 -2q13 3 13 19v333q0 17 -13 20l-37 -2v26h141q-5 -15 -5 -35v-55q21 47 60 73.5t90 26.5q71 0 102.5 -33.5
t31.5 -108.5v-245q0 -19 13 -19zM259 -171q15 18 15 31q0 29 -28 29q-13 0 -21.5 10.5t-8.5 23.5q0 17 12.5 30t35.5 13q27 0 43.5 -18.5t16.5 -43.5q0 -38 -24.5 -69.5t-59.5 -47.5l-16 13q20 11 35 29z" />
    <glyph glyph-name="ntilde" unicode="&#xf1;" horiz-adv-x="525" 
d="M35 0zM505 26v-26h-195v26l46 -2q13 3 13 19v227q0 48 -4.5 74t-18.5 40t-44 14q-57 0 -92.5 -48.5t-38.5 -130.5v-176q0 -19 13 -19l46 2v-26h-195v26l37 -2q13 3 13 19v333q0 17 -13 20l-37 -2v26h141q-5 -15 -5 -35v-55q21 47 60 73.5t90 26.5q71 0 102.5 -33.5
t31.5 -108.5v-245q0 -19 13 -19zM138.5 594q18.5 27 45.5 27q24 0 88 -22q61 -21 81 -21q14 0 23.5 12t9.5 30h20q0 -37 -18.5 -64t-45.5 -27q-24 0 -88 22q-59 21 -81 21q-14 0 -23.5 -12t-9.5 -30h-20q0 37 18.5 64z" />
    <glyph glyph-name="o" unicode="o" horiz-adv-x="472" 
d="M86 371.5q51 58.5 150 58.5t150 -58.5t51 -160.5q0 -104 -51 -162.5t-150 -58.5t-150 58.5t-51 162.5q0 102 51 160.5zM151.5 62.5q25.5 -45.5 84.5 -45.5t84.5 45.5t25.5 146.5q0 102 -25.5 148t-84.5 46t-84.5 -46t-25.5 -148q0 -101 25.5 -146.5z" />
    <glyph glyph-name="oacute" unicode="&#xf3;" horiz-adv-x="472" 
d="M35 0zM86 371.5q51 58.5 150 58.5t150 -58.5t51 -160.5q0 -104 -51 -162.5t-150 -58.5t-150 58.5t-51 162.5q0 102 51 160.5zM151.5 62.5q25.5 -45.5 84.5 -45.5t84.5 45.5t25.5 146.5q0 102 -25.5 148t-84.5 46t-84.5 -46t-25.5 -148q0 -101 25.5 -146.5zM368.5 618
q-4.5 -3 -5.5 -4l-163 -112q-12 -9 -20 -9q-13 0 -13 8q0 4 7.5 12l10.5 11l95 104q15 17 20.5 21t15.5 4q17 0 37 -10t20 -16t-4.5 -9z" />
    <glyph glyph-name="ocircumflex" unicode="&#xf4;" horiz-adv-x="472" 
d="M35 0zM86 371.5q51 58.5 150 58.5t150 -58.5t51 -160.5q0 -104 -51 -162.5t-150 -58.5t-150 58.5t-51 162.5q0 102 51 160.5zM151.5 62.5q25.5 -45.5 84.5 -45.5t84.5 45.5t25.5 146.5q0 102 -25.5 148t-84.5 46t-84.5 -46t-25.5 -148q0 -101 25.5 -146.5zM383 493
q-9 0 -28 12l-119 74l-119 -74q-19 -12 -28 -12t-9 8q0 3 7.5 10t17.5 15q35 30 54 50l23 24l24 24q27 25 30 25t30 -25l24 -24l23 -24q19 -20 54 -50q10 -8 17.5 -15t7.5 -10q0 -8 -9 -8z" />
    <glyph glyph-name="odieresis" unicode="&#xf6;" horiz-adv-x="472" 
d="M35 0zM86 371.5q51 58.5 150 58.5t150 -58.5t51 -160.5q0 -104 -51 -162.5t-150 -58.5t-150 58.5t-51 162.5q0 102 51 160.5zM151.5 62.5q25.5 -45.5 84.5 -45.5t84.5 45.5t25.5 146.5q0 102 -25.5 148t-84.5 46t-84.5 -46t-25.5 -148q0 -101 25.5 -146.5zM99.5 630
q15.5 14 38.5 14q22 0 38 -14t16 -35t-15 -34.5t-39 -13.5t-39 13.5t-15 34.5t15.5 35zM294.5 630q15.5 14 38.5 14q22 0 38 -14t16 -35t-15 -34.5t-39 -13.5t-39 13.5t-15 34.5t15.5 35z" />
    <glyph glyph-name="ograve" unicode="&#xf2;" horiz-adv-x="472" 
d="M35 0zM86 371.5q51 58.5 150 58.5t150 -58.5t51 -160.5q0 -104 -51 -162.5t-150 -58.5t-150 58.5t-51 162.5q0 102 51 160.5zM151.5 62.5q25.5 -45.5 84.5 -45.5t84.5 45.5t25.5 146.5q0 102 -25.5 148t-84.5 46t-84.5 -46t-25.5 -148q0 -101 25.5 -146.5zM119 643
q20 10 37 10q10 0 15.5 -4t20.5 -21l95 -104l10.5 -11t7.5 -12q0 -8 -13 -8q-8 0 -20 9l-163 112q-1 1 -5.5 4t-4.5 9t20 16z" />
    <glyph glyph-name="ohungarumlaut" unicode="&#x151;" horiz-adv-x="472" 
d="M35 0zM86 371.5q51 58.5 150 58.5t150 -58.5t51 -160.5q0 -104 -51 -162.5t-150 -58.5t-150 58.5t-51 162.5q0 102 51 160.5zM151.5 62.5q25.5 -45.5 84.5 -45.5t84.5 45.5t25.5 146.5q0 102 -25.5 148t-84.5 46t-84.5 -46t-25.5 -148q0 -101 25.5 -146.5zM142 538l39 67
t24 39q4 5 6.5 7t6.5 2q5 0 19.5 -4.5t23.5 -8.5t9 -12q0 -4 -6 -12q-10 -11 -118 -117q-6 -6 -15 -6t-9 8q0 3 3 9zM262 538l39 67t24 39q4 5 6.5 7t6.5 2q5 0 19.5 -4.5t23.5 -8.5t9 -12q0 -4 -6 -12q-10 -11 -118 -117q-6 -6 -15 -6t-9 8q0 3 3 9z" />
    <glyph glyph-name="omacron" unicode="&#x14d;" horiz-adv-x="472" 
d="M35 0zM86 371.5q51 58.5 150 58.5t150 -58.5t51 -160.5q0 -104 -51 -162.5t-150 -58.5t-150 58.5t-51 162.5q0 102 51 160.5zM151.5 62.5q25.5 -45.5 84.5 -45.5t84.5 45.5t25.5 146.5q0 102 -25.5 148t-84.5 46t-84.5 -46t-25.5 -148q0 -101 25.5 -146.5zM116 567v40
h239v-40h-239z" />
    <glyph glyph-name="oslash" unicode="&#xf8;" horiz-adv-x="472" 
d="M437 211q0 -104 -51 -162.5t-150 -58.5q-48 0 -81 13l-49 -88l-38 17l50 89q-83 55 -83 190q0 102 51 160.5t150 58.5q57 0 99 -20l53 94l34 -21l-53 -95q68 -56 68 -177zM146 72l167 297q-27 34 -77 34q-59 0 -84.5 -46t-25.5 -148q0 -93 20 -137zM320.5 62.5
q25.5 45.5 25.5 146.5q0 71 -12 116l-161 -289q23 -19 63 -19q59 0 84.5 45.5z" />
    <glyph glyph-name="otilde" unicode="&#xf5;" horiz-adv-x="472" 
d="M35 0zM86 371.5q51 58.5 150 58.5t150 -58.5t51 -160.5q0 -104 -51 -162.5t-150 -58.5t-150 58.5t-51 162.5q0 102 51 160.5zM151.5 62.5q25.5 -45.5 84.5 -45.5t84.5 45.5t25.5 146.5q0 102 -25.5 148t-84.5 46t-84.5 -46t-25.5 -148q0 -101 25.5 -146.5zM111.5 594
q18.5 27 45.5 27q24 0 88 -22q61 -21 81 -21q14 0 23.5 12t9.5 30h20q0 -37 -18.5 -64t-45.5 -27q-24 0 -88 22q-59 21 -81 21q-14 0 -23.5 -12t-9.5 -30h-20q0 37 18.5 64z" />
    <glyph glyph-name="oe" unicode="&#x153;" horiz-adv-x="761" 
d="M679.5 379.5q46.5 -50.5 46.5 -140.5v-22h-294q0 -93 35 -143.5t101 -50.5q28 0 56 13t48.5 33.5t27.5 40.5l23 -17q-18 -46 -62.5 -74.5t-104.5 -28.5q-54 0 -93.5 17.5t-71.5 56.5q-30 -42 -64.5 -58t-98.5 -16q-90 0 -141.5 59t-51.5 153q0 101 47 164.5t145 63.5
q119 0 164 -74q27 39 63 56.5t97 17.5q82 0 128.5 -50.5zM150 354.5q-24 -48.5 -24 -151.5q0 -186 102 -186q48 0 73.5 21.5t34.5 62t9 106.5q0 75 -11 117.5t-36.5 60.5t-70.5 18q-53 0 -77 -48.5zM461.5 364.5q-29.5 -38.5 -29.5 -122.5h197q12 0 12 15q0 78 -22 112
t-73 34q-55 0 -84.5 -38.5z" />
    <glyph glyph-name="p" unicode="p" horiz-adv-x="494" 
d="M416 373.5q43 -56.5 43 -164.5q0 -110 -46.5 -164.5t-143.5 -54.5q-41 0 -70.5 13.5t-43.5 39.5v-238q0 -20 13 -20l62 2v-26h-206v26l32 -2q13 1 13 20v571q0 20 -13 20l-36 -2v26h139q-4 -25 -4 -51v-29q14 43 48 66.5t84 23.5q86 0 129 -56.5zM188.5 354.5
q-31.5 -48.5 -31.5 -128.5v-42q0 -87 28.5 -127t83.5 -40q39 0 60 17.5t30 58.5t9 116t-7.5 116t-27.5 59.5t-57 18.5q-56 0 -87.5 -48.5z" />
    <glyph glyph-name="thorn" unicode="&#xfe;" horiz-adv-x="494" 
d="M155 340q14 43 48 66.5t84 23.5q86 0 129 -56.5t43 -164.5q0 -110 -46.5 -164.5t-143.5 -54.5q-41 0 -70.5 13.5t-43.5 39.5v-238q0 -20 13 -20l62 2v-26h-206v26l32 -2q13 1 13 20v881q0 20 -13 20l-36 -2v26h135v-390zM188.5 354.5q-31.5 -48.5 -31.5 -128.5v-42
q0 -87 28.5 -127t83.5 -40q39 0 60 17.5t30 58.5t9 116t-7.5 116t-27.5 59.5t-57 18.5q-56 0 -87.5 -48.5z" />
    <glyph glyph-name="q" unicode="q" horiz-adv-x="490" 
d="M292.5 417.5q26.5 -12.5 48.5 -42.5q5 -7 9 -10.5t11 -3.5q31 0 31 59h33v-615q0 -20 13 -19l32 1v-26h-200v26l56 -1q13 1 13 19v257q-11 -30 -41.5 -51t-75.5 -21q-63 0 -103.5 19.5t-62 67.5t-21.5 132q0 221 189 221q42 0 68.5 -12.5zM151.5 358.5
q-24.5 -44.5 -24.5 -149.5q0 -81 11.5 -122.5t32.5 -55.5t56 -14q38 0 63 27.5t36 66.5t11 74v41q0 70 -24 123.5t-82 53.5q-55 0 -79.5 -44.5z" />
    <glyph glyph-name="r" unicode="r" horiz-adv-x="383" 
d="M347.5 408q21.5 -22 21.5 -56q0 -23 -11.5 -35t-30.5 -12q-14 0 -25.5 7.5t-11.5 23.5q0 9 4 23t4 22t-5.5 14.5t-17.5 6.5q-31 0 -54 -29.5t-36 -73t-15 -83.5v-173q0 -19 13 -19l61 2v-26h-205v26l32 -2q13 0 13 19v333q0 20 -13 20l-36 -2v26h141q-2 -6 -4 -19.5
t-2 -26.5v-49q23 56 51.5 80.5t65.5 24.5q39 0 60.5 -22z" />
    <glyph glyph-name="racute" unicode="&#x155;" horiz-adv-x="383" 
d="M35 0zM347.5 408q21.5 -22 21.5 -56q0 -23 -11.5 -35t-30.5 -12q-14 0 -25.5 7.5t-11.5 23.5q0 9 4 23t4 22t-5.5 14.5t-17.5 6.5q-31 0 -54 -29.5t-36 -73t-15 -83.5v-173q0 -19 13 -19l61 2v-26h-205v26l32 -2q13 0 13 19v333q0 20 -13 20l-36 -2v26h141
q-2 -6 -4 -19.5t-2 -26.5v-49q23 56 51.5 80.5t65.5 24.5q39 0 60.5 -22zM274.5 618q-4.5 -3 -5.5 -4l-163 -112q-12 -9 -20 -9q-13 0 -13 8q0 4 7.5 12l10.5 11l95 104q15 17 20.5 21t15.5 4q17 0 37 -10t20 -16t-4.5 -9z" />
    <glyph glyph-name="rcaron" unicode="&#x159;" horiz-adv-x="383" 
d="M0 0zM347.5 408q21.5 -22 21.5 -56q0 -23 -11.5 -35t-30.5 -12q-14 0 -25.5 7.5t-11.5 23.5q0 9 4 23t4 22t-5.5 14.5t-17.5 6.5q-31 0 -54 -29.5t-36 -73t-15 -83.5v-173q0 -19 13 -19l61 2v-26h-205v26l32 -2q13 0 13 19v333q0 20 -13 20l-36 -2v26h141q-2 -6 -4 -19.5
t-2 -26.5v-49q23 56 51.5 80.5t65.5 24.5q39 0 60.5 -22zM-5 657q9 0 28 -12l119 -74l119 74q19 12 28 12t9 -8q0 -3 -7.5 -10t-17.5 -15q-35 -30 -54 -50l-23 -24l-24 -24q-27 -25 -30 -25t-30 25l-24 24l-23 24q-19 20 -54 50q-10 8 -17.5 15t-7.5 10q0 8 9 8z" />
    <glyph glyph-name="rcommaaccent" unicode="&#x157;" horiz-adv-x="383" 
d="M35 0zM347.5 408q21.5 -22 21.5 -56q0 -23 -11.5 -35t-30.5 -12q-14 0 -25.5 7.5t-11.5 23.5q0 9 4 23t4 22t-5.5 14.5t-17.5 6.5q-31 0 -54 -29.5t-36 -73t-15 -83.5v-173q0 -19 13 -19l61 2v-26h-205v26l32 -2q13 0 13 19v333q0 20 -13 20l-36 -2v26h141
q-2 -6 -4 -19.5t-2 -26.5v-49q23 56 51.5 80.5t65.5 24.5q39 0 60.5 -22zM133 -171q15 18 15 31q0 29 -28 29q-13 0 -21.5 10.5t-8.5 23.5q0 17 12.5 30t35.5 13q27 0 43.5 -18.5t16.5 -43.5q0 -38 -24.5 -69.5t-59.5 -47.5l-16 13q20 11 35 29z" />
    <glyph glyph-name="s" unicode="s" horiz-adv-x="411" 
d="M49 142l26 2q0 -37 20 -66t53 -45t72 -16q40 0 62 20.5t22 55.5q0 28 -16 46t-54 29l-96 27q-40 12 -63 40.5t-23 70.5q0 55 41 89.5t112 34.5q20 0 35.5 -3t38.5 -10q31 -9 46 -9t28 8l-6 -114h-22q0 40 -31.5 70.5t-85.5 30.5q-38 0 -59.5 -20t-21.5 -51q0 -49 62 -66
l96 -27q51 -14 72 -41.5t21 -71.5q0 -65 -46 -100.5t-120 -35.5q-21 0 -43.5 4.5t-68.5 17.5q-15 4 -27 4q-20 0 -29 -6z" />
    <glyph glyph-name="sacute" unicode="&#x15b;" horiz-adv-x="411" 
d="M44 0zM49 142l26 2q0 -37 20 -66t53 -45t72 -16q40 0 62 20.5t22 55.5q0 28 -16 46t-54 29l-96 27q-40 12 -63 40.5t-23 70.5q0 55 41 89.5t112 34.5q20 0 35.5 -3t38.5 -10q31 -9 46 -9t28 8l-6 -114h-22q0 40 -31.5 70.5t-85.5 30.5q-38 0 -59.5 -20t-21.5 -51
q0 -49 62 -66l96 -27q51 -14 72 -41.5t21 -71.5q0 -65 -46 -100.5t-120 -35.5q-21 0 -43.5 4.5t-68.5 17.5q-15 4 -27 4q-20 0 -29 -6zM338.5 618q-4.5 -3 -5.5 -4l-163 -112q-12 -9 -20 -9q-13 0 -13 8q0 4 7.5 12l10.5 11l95 104q15 17 20.5 21t15.5 4q17 0 37 -10t20 -16
t-4.5 -9z" />
    <glyph glyph-name="scaron" unicode="&#x161;" horiz-adv-x="411" 
d="M44 0zM49 142l26 2q0 -37 20 -66t53 -45t72 -16q40 0 62 20.5t22 55.5q0 28 -16 46t-54 29l-96 27q-40 12 -63 40.5t-23 70.5q0 55 41 89.5t112 34.5q20 0 35.5 -3t38.5 -10q31 -9 46 -9t28 8l-6 -114h-22q0 40 -31.5 70.5t-85.5 30.5q-38 0 -59.5 -20t-21.5 -51
q0 -49 62 -66l96 -27q51 -14 72 -41.5t21 -71.5q0 -65 -46 -100.5t-120 -35.5q-21 0 -43.5 4.5t-68.5 17.5q-15 4 -27 4q-20 0 -29 -6zM59 657q9 0 28 -12l119 -74l119 74q19 12 28 12t9 -8q0 -3 -7.5 -10t-17.5 -15q-35 -30 -54 -50l-23 -24l-24 -24q-27 -25 -30 -25
t-30 25l-24 24l-23 24q-19 20 -54 50q-10 8 -17.5 15t-7.5 10q0 8 9 8z" />
    <glyph glyph-name="scedilla" unicode="&#x15f;" horiz-adv-x="411" 
d="M214 -43q-6 -11 -6 -19q0 -6 7 -9t23 -7q27 -6 41.5 -15t14.5 -29q0 -43 -24.5 -67.5t-69.5 -24.5q-44 0 -69 16l7 24q12 -13 35 -13t39.5 15.5t16.5 38.5q0 21 -34 39l-23 14q-11 8 -11 15t6 13l33 42q-33 3 -100 22q-15 4 -27 4q-20 0 -29 -6l5 132l26 2q0 -37 20 -66
t53 -45t72 -16q40 0 62 20.5t22 55.5q0 28 -16 46t-54 29l-96 27q-40 12 -63 40.5t-23 70.5q0 55 41 89.5t112 34.5q20 0 35.5 -3t38.5 -10q31 -9 46 -9t28 8l-6 -114h-22q0 40 -31.5 70.5t-85.5 30.5q-38 0 -59.5 -20t-21.5 -51q0 -49 62 -66l96 -27q51 -14 72 -41.5
t21 -71.5q0 -60 -39 -95t-104 -40z" />
    <glyph glyph-name="scommaaccent" unicode="&#x219;" horiz-adv-x="411" 
d="M44 0zM49 142l26 2q0 -37 20 -66t53 -45t72 -16q40 0 62 20.5t22 55.5q0 28 -16 46t-54 29l-96 27q-40 12 -63 40.5t-23 70.5q0 55 41 89.5t112 34.5q20 0 35.5 -3t38.5 -10q31 -9 46 -9t28 8l-6 -114h-22q0 40 -31.5 70.5t-85.5 30.5q-38 0 -59.5 -20t-21.5 -51
q0 -49 62 -66l96 -27q51 -14 72 -41.5t21 -71.5q0 -65 -46 -100.5t-120 -35.5q-21 0 -43.5 4.5t-68.5 17.5q-15 4 -27 4q-20 0 -29 -6zM212 -171q15 18 15 31q0 29 -28 29q-13 0 -21.5 10.5t-8.5 23.5q0 17 12.5 30t35.5 13q27 0 43.5 -18.5t16.5 -43.5q0 -38 -24.5 -69.5
t-59.5 -47.5l-16 13q20 11 35 29z" />
    <glyph glyph-name="germandbls" unicode="&#xdf;" horiz-adv-x="528" 
d="M388.5 706q49.5 -31 49.5 -84q0 -36 -23.5 -60t-70.5 -53q-30 -19 -42.5 -35.5t-12.5 -46.5q0 -43 64 -87l87 -63q44 -31 66.5 -64t22.5 -74q0 -45 -22 -78.5t-57.5 -51t-75.5 -17.5q-52 0 -87 18.5t-35 46.5q0 23 13 36.5t35 13.5q23 0 34 -11.5t11 -28.5q0 -7 -1 -14
t-1 -13q0 -9 5.5 -14t21.5 -5q37 0 58.5 19t21.5 59q0 32 -19.5 63t-55.5 57l-86 62q-38 28 -58.5 53t-20.5 52q0 33 17 58t64 62q39 30 53.5 50t14.5 56q0 45 -27 72.5t-74 27.5q-46 0 -74.5 -30t-28.5 -81q0 -21 7 -70q8 -68 8 -97v-386q0 -9 4 -15t10 -6l46 2v-29h-195
v29l36 -2q13 0 13 21v464q0 116 43.5 170.5t129.5 54.5q82 0 131.5 -31z" />
    <glyph glyph-name="t" unicode="t" horiz-adv-x="313" 
d="M171 420h110v-25h-110v-307q0 -38 9 -51.5t32 -13.5q15 0 31 11.5t21 28.5l21 -13q-20 -56 -106 -56q-51 0 -72.5 24t-21.5 78v299h-60v25q40 0 61 7.5t33.5 28.5t23.5 66h28v-102z" />
    <glyph glyph-name="tcaron" unicode="&#x165;" horiz-adv-x="313" 
d="M25 0zM171 420h110v-25h-110v-307q0 -38 9 -51.5t32 -13.5q15 0 31 11.5t21 28.5l21 -13q-20 -56 -106 -56q-51 0 -72.5 24t-21.5 78v299h-60v25q40 0 61 7.5t33.5 28.5t23.5 66h28v-102zM246.5 480.5q11.5 17.5 11.5 30.5q0 19 -18 19q-13 0 -21.5 10.5t-8.5 23.5
q0 17 11 30t32 13q24 0 39.5 -18.5t15.5 -43.5q0 -34 -21.5 -63t-52.5 -44l-16 13q17 12 28.5 29.5z" />
    <glyph glyph-name="uni0163" unicode="&#x163;" horiz-adv-x="313" 
d="M155 -43q-6 -11 -6 -19q0 -6 7 -9t23 -7q27 -6 41.5 -15t14.5 -29q0 -43 -24.5 -67.5t-69.5 -24.5q-44 0 -69 16l7 24q12 -13 35 -13t39.5 15.5t16.5 38.5q0 21 -34 39l-23 14q-11 8 -11 15t6 13l39 49q-33 7 -47.5 30.5t-14.5 68.5v299h-60v25q40 0 61 7.5t33.5 28.5
t23.5 66h28v-102h110v-25h-110v-307q0 -38 9 -51.5t32 -13.5q15 0 31 11.5t21 28.5l21 -13q-20 -56 -106 -56h-1z" />
    <glyph glyph-name="uni021B" unicode="&#x21b;" horiz-adv-x="313" 
d="M25 0zM171 420h110v-25h-110v-307q0 -38 9 -51.5t32 -13.5q15 0 31 11.5t21 28.5l21 -13q-20 -56 -106 -56q-51 0 -72.5 24t-21.5 78v299h-60v25q40 0 61 7.5t33.5 28.5t23.5 66h28v-102zM153 -171q15 18 15 31q0 29 -28 29q-13 0 -21.5 10.5t-8.5 23.5q0 17 12.5 30
t35.5 13q27 0 43.5 -18.5t16.5 -43.5q0 -38 -24.5 -69.5t-59.5 -47.5l-16 13q20 11 35 29z" />
    <glyph glyph-name="u" unicode="u" horiz-adv-x="524" 
d="M489 26v-26h-142q5 12 5 72v13q-20 -46 -60.5 -70.5t-96.5 -24.5q-67 0 -96.5 37t-29.5 121v228q0 20 -13 20l-36 -2v26h135v-272q0 -68 12 -96.5t49 -28.5q57 0 94 43.5t42 119.5l1 189q0 21 -12 21l-47 -2v26h146v-377q0 -19 13 -19zM353 220v6v-6z" />
    <glyph glyph-name="uacute" unicode="&#xfa;" horiz-adv-x="524" 
d="M20 0zM489 26v-26h-142q5 12 5 72v13q-20 -46 -60.5 -70.5t-96.5 -24.5q-67 0 -96.5 37t-29.5 121v228q0 20 -13 20l-36 -2v26h135v-272q0 -68 12 -96.5t49 -28.5q57 0 94 43.5t42 119.5l1 189q0 21 -12 21l-47 -2v26h146v-377q0 -19 13 -19zM353 220v6v-6zM394.5 618
q-4.5 -3 -5.5 -4l-163 -112q-12 -9 -20 -9q-13 0 -13 8q0 4 7.5 12l10.5 11l95 104q15 17 20.5 21t15.5 4q17 0 37 -10t20 -16t-4.5 -9z" />
    <glyph glyph-name="ucircumflex" unicode="&#xfb;" horiz-adv-x="524" 
d="M20 0zM489 26v-26h-142q5 12 5 72v13q-20 -46 -60.5 -70.5t-96.5 -24.5q-67 0 -96.5 37t-29.5 121v228q0 20 -13 20l-36 -2v26h135v-272q0 -68 12 -96.5t49 -28.5q57 0 94 43.5t42 119.5l1 189q0 21 -12 21l-47 -2v26h146v-377q0 -19 13 -19zM353 220v6v-6zM409 493
q-9 0 -28 12l-119 74l-119 -74q-19 -12 -28 -12t-9 8q0 3 7.5 10t17.5 15q35 30 54 50l23 24l24 24q27 25 30 25t30 -25l24 -24l23 -24q19 -20 54 -50q10 -8 17.5 -15t7.5 -10q0 -8 -9 -8z" />
    <glyph glyph-name="udieresis" unicode="&#xfc;" horiz-adv-x="524" 
d="M20 0zM489 26v-26h-142q5 12 5 72v13q-20 -46 -60.5 -70.5t-96.5 -24.5q-67 0 -96.5 37t-29.5 121v228q0 20 -13 20l-36 -2v26h135v-272q0 -68 12 -96.5t49 -28.5q57 0 94 43.5t42 119.5l1 189q0 21 -12 21l-47 -2v26h146v-377q0 -19 13 -19zM353 220v6v-6zM125.5 630
q15.5 14 38.5 14q22 0 38 -14t16 -35t-15 -34.5t-39 -13.5t-39 13.5t-15 34.5t15.5 35zM320.5 630q15.5 14 38.5 14q22 0 38 -14t16 -35t-15 -34.5t-39 -13.5t-39 13.5t-15 34.5t15.5 35z" />
    <glyph glyph-name="ugrave" unicode="&#xf9;" horiz-adv-x="524" 
d="M20 0zM489 26v-26h-142q5 12 5 72v13q-20 -46 -60.5 -70.5t-96.5 -24.5q-67 0 -96.5 37t-29.5 121v228q0 20 -13 20l-36 -2v26h135v-272q0 -68 12 -96.5t49 -28.5q57 0 94 43.5t42 119.5l1 189q0 21 -12 21l-47 -2v26h146v-377q0 -19 13 -19zM353 220v6v-6zM145 643
q20 10 37 10q10 0 15.5 -4t20.5 -21l95 -104l10.5 -11t7.5 -12q0 -8 -13 -8q-8 0 -20 9l-163 112q-1 1 -5.5 4t-4.5 9t20 16z" />
    <glyph glyph-name="uhungarumlaut" unicode="&#x171;" horiz-adv-x="524" 
d="M20 0zM489 26v-26h-142q5 12 5 72v13q-20 -46 -60.5 -70.5t-96.5 -24.5q-67 0 -96.5 37t-29.5 121v228q0 20 -13 20l-36 -2v26h135v-272q0 -68 12 -96.5t49 -28.5q57 0 94 43.5t42 119.5l1 189q0 21 -12 21l-47 -2v26h146v-377q0 -19 13 -19zM353 220v6v-6zM168 538
l39 67t24 39q4 5 6.5 7t6.5 2q5 0 19.5 -4.5t23.5 -8.5t9 -12q0 -4 -6 -12q-10 -11 -118 -117q-6 -6 -15 -6t-9 8q0 3 3 9zM288 538l39 67t24 39q4 5 6.5 7t6.5 2q5 0 19.5 -4.5t23.5 -8.5t9 -12q0 -4 -6 -12q-10 -11 -118 -117q-6 -6 -15 -6t-9 8q0 3 3 9z" />
    <glyph glyph-name="umacron" unicode="&#x16b;" horiz-adv-x="524" 
d="M20 0zM489 26v-26h-142q5 12 5 72v13q-20 -46 -60.5 -70.5t-96.5 -24.5q-67 0 -96.5 37t-29.5 121v228q0 20 -13 20l-36 -2v26h135v-272q0 -68 12 -96.5t49 -28.5q57 0 94 43.5t42 119.5l1 189q0 21 -12 21l-47 -2v26h146v-377q0 -19 13 -19zM353 220v6v-6zM142 567v40
h239v-40h-239z" />
    <glyph glyph-name="uogonek" unicode="&#x173;" horiz-adv-x="524" 
d="M531 -99q-25 -29 -55.5 -44.5t-62.5 -15.5q-30 0 -52 19t-22 53q0 25 12.5 47.5t37.5 39.5h-42q5 12 5 72v13q-20 -46 -60.5 -70.5t-96.5 -24.5q-67 0 -96.5 37t-29.5 121v228q0 20 -13 20l-36 -2v26h135v-272q0 -68 12 -96.5t49 -28.5q57 0 94 43.5t42 119.5l1 189
q0 21 -12 21l-47 -2v26h146v-377q0 -19 13 -19l36 2v-26h-69q-29 -24 -29 -62q0 -24 14.5 -39t43.5 -15q36 0 70 29zM353 220v6v-6z" />
    <glyph glyph-name="uring" unicode="&#x16f;" horiz-adv-x="524" 
d="M20 0zM489 26v-26h-142q5 12 5 72v13q-20 -46 -60.5 -70.5t-96.5 -24.5q-67 0 -96.5 37t-29.5 121v228q0 20 -13 20l-36 -2v26h135v-272q0 -68 12 -96.5t49 -28.5q57 0 94 43.5t42 119.5l1 189q0 21 -12 21l-47 -2v26h146v-377q0 -19 13 -19zM353 220v6v-6zM202 632.5
q24 23.5 59 23.5t59.5 -23.5t24.5 -57.5t-24.5 -58t-59.5 -24q-34 0 -58.5 24t-24.5 58t24 57.5zM231 541.5q11 -12.5 30 -12.5t30.5 12.5t11.5 33.5q0 20 -11.5 32.5t-30.5 12.5t-30 -12.5t-11 -32.5q0 -21 11 -33.5z" />
    <glyph glyph-name="v" unicode="v" horiz-adv-x="444" 
d="M435 420v-26l-33 2q-18 0 -23 -15l-158 -386h-27l-154 388q-2 5 -7.5 9t-12.5 4l-33 -2v26h203v-26l-44 2q-7 0 -12.5 -6t-2.5 -14l109 -264l106 268q2 4 2 8q0 9 -10 8l-44 -2v26h141z" />
    <glyph glyph-name="w" unicode="w" horiz-adv-x="725" 
d="M716 420v-26l-41 2q-15 0 -21 -17l-149 -389h-22l-134 312l-138 -312h-20l-141 393q-6 13 -17 13l-46 -2v26h213v-26l-44 2h-2q-9 0 -12.5 -6t-0.5 -14l94 -265l137 314h21l133 -308l95 262l2 8q0 10 -13 9l-53 -2v26h159z" />
    <glyph glyph-name="wacute" unicode="&#x1e83;" horiz-adv-x="725" 
d="M0 0zM716 420v-26l-41 2q-15 0 -21 -17l-149 -389h-22l-134 312l-138 -312h-20l-141 393q-6 13 -17 13l-46 -2v26h213v-26l-44 2h-2q-9 0 -12.5 -6t-0.5 -14l94 -265l137 314h21l133 -308l95 262l2 8q0 10 -13 9l-53 -2v26h159zM517.5 618q-4.5 -3 -5.5 -4l-163 -112
q-12 -9 -20 -9q-13 0 -13 8q0 4 7.5 12l10.5 11l95 104q15 17 20.5 21t15.5 4q17 0 37 -10t20 -16t-4.5 -9z" />
    <glyph glyph-name="wcircumflex" unicode="&#x175;" horiz-adv-x="725" 
d="M0 0zM716 420v-26l-41 2q-15 0 -21 -17l-149 -389h-22l-134 312l-138 -312h-20l-141 393q-6 13 -17 13l-46 -2v26h213v-26l-44 2h-2q-9 0 -12.5 -6t-0.5 -14l94 -265l137 314h21l133 -308l95 262l2 8q0 10 -13 9l-53 -2v26h159zM532 493q-9 0 -28 12l-119 74l-119 -74
q-19 -12 -28 -12t-9 8q0 3 7.5 10t17.5 15q35 30 54 50l23 24l24 24q27 25 30 25t30 -25l24 -24l23 -24q19 -20 54 -50q10 -8 17.5 -15t7.5 -10q0 -8 -9 -8z" />
    <glyph glyph-name="wdieresis" unicode="&#x1e85;" horiz-adv-x="725" 
d="M0 0zM716 420v-26l-41 2q-15 0 -21 -17l-149 -389h-22l-134 312l-138 -312h-20l-141 393q-6 13 -17 13l-46 -2v26h213v-26l-44 2h-2q-9 0 -12.5 -6t-0.5 -14l94 -265l137 314h21l133 -308l95 262l2 8q0 10 -13 9l-53 -2v26h159zM248.5 630q15.5 14 38.5 14q22 0 38 -14
t16 -35t-15 -34.5t-39 -13.5t-39 13.5t-15 34.5t15.5 35zM443.5 630q15.5 14 38.5 14q22 0 38 -14t16 -35t-15 -34.5t-39 -13.5t-39 13.5t-15 34.5t15.5 35z" />
    <glyph glyph-name="wgrave" unicode="&#x1e81;" horiz-adv-x="725" 
d="M0 0zM716 420v-26l-41 2q-15 0 -21 -17l-149 -389h-22l-134 312l-138 -312h-20l-141 393q-6 13 -17 13l-46 -2v26h213v-26l-44 2h-2q-9 0 -12.5 -6t-0.5 -14l94 -265l137 314h21l133 -308l95 262l2 8q0 10 -13 9l-53 -2v26h159zM268 643q20 10 37 10q10 0 15.5 -4
t20.5 -21l95 -104l10.5 -11t7.5 -12q0 -8 -13 -8q-8 0 -20 9l-163 112q-1 1 -5.5 4t-4.5 9t20 16z" />
    <glyph glyph-name="x" unicode="x" horiz-adv-x="486" 
d="M478 26v-26h-221v26l49 -3h1q6 0 7.5 5t-1.5 9l-102 145l-108 -144l-2 -4q0 -10 13 -10l43 2v-26h-152v26l43 -2q11 0 21 13l125 169l-125 177q-7 13 -19 13l-39 -2v26h215v-26l-46 2q-7 0 -10.5 -3.5t1.5 -9.5l86 -122l89 118q3 5 3 9q0 8 -9 8l-43 -2v26h149v-26l-42 2
q-5 0 -12.5 -4t-12.5 -11l-105 -144l141 -200q9 -13 19 -13z" />
    <glyph glyph-name="y" unicode="y" horiz-adv-x="485" 
d="M482 420v-26l-41 2h-2q-16 0 -25 -19l-211 -509q-24 -59 -51 -83t-67 -24q-27 0 -45.5 13t-20.5 36q0 25 11.5 38t27.5 13q15 0 23 -6.5t15 -17.5q1 -2 5 -7.5t9 -8t11 -2.5q12 0 24.5 11.5t21.5 34.5l58 139l-173 379q-6 13 -16 13l-49 -2v26h219v-26l-45 2
q-7 0 -11 -5.5t-1 -11.5l122 -268l113 270q1 2 1 6q0 9 -11 9l-47 -2v26h155z" />
    <glyph glyph-name="yacute" unicode="&#xfd;" horiz-adv-x="485" 
d="M0 0zM482 420v-26l-41 2h-2q-16 0 -25 -19l-211 -509q-24 -59 -51 -83t-67 -24q-27 0 -45.5 13t-20.5 36q0 25 11.5 38t27.5 13q15 0 23 -6.5t15 -17.5q1 -2 5 -7.5t9 -8t11 -2.5q12 0 24.5 11.5t21.5 34.5l58 139l-173 379q-6 13 -16 13l-49 -2v26h219v-26l-45 2
q-7 0 -11 -5.5t-1 -11.5l122 -268l113 270q1 2 1 6q0 9 -11 9l-47 -2v26h155zM380.5 618q-4.5 -3 -5.5 -4l-163 -112q-12 -9 -20 -9q-13 0 -13 8q0 4 7.5 12l10.5 11l95 104q15 17 20.5 21t15.5 4q17 0 37 -10t20 -16t-4.5 -9z" />
    <glyph glyph-name="ycircumflex" unicode="&#x177;" horiz-adv-x="485" 
d="M0 0zM482 420v-26l-41 2h-2q-16 0 -25 -19l-211 -509q-24 -59 -51 -83t-67 -24q-27 0 -45.5 13t-20.5 36q0 25 11.5 38t27.5 13q15 0 23 -6.5t15 -17.5q1 -2 5 -7.5t9 -8t11 -2.5q12 0 24.5 11.5t21.5 34.5l58 139l-173 379q-6 13 -16 13l-49 -2v26h219v-26l-45 2
q-7 0 -11 -5.5t-1 -11.5l122 -268l113 270q1 2 1 6q0 9 -11 9l-47 -2v26h155zM395 493q-9 0 -28 12l-119 74l-119 -74q-19 -12 -28 -12t-9 8q0 3 7.5 10t17.5 15q35 30 54 50l23 24l24 24q27 25 30 25t30 -25l24 -24l23 -24q19 -20 54 -50q10 -8 17.5 -15t7.5 -10
q0 -8 -9 -8z" />
    <glyph glyph-name="ydieresis" unicode="&#xff;" horiz-adv-x="485" 
d="M0 0zM482 420v-26l-41 2h-2q-16 0 -25 -19l-211 -509q-24 -59 -51 -83t-67 -24q-27 0 -45.5 13t-20.5 36q0 25 11.5 38t27.5 13q15 0 23 -6.5t15 -17.5q1 -2 5 -7.5t9 -8t11 -2.5q12 0 24.5 11.5t21.5 34.5l58 139l-173 379q-6 13 -16 13l-49 -2v26h219v-26l-45 2
q-7 0 -11 -5.5t-1 -11.5l122 -268l113 270q1 2 1 6q0 9 -11 9l-47 -2v26h155zM111.5 630q15.5 14 38.5 14q22 0 38 -14t16 -35t-15 -34.5t-39 -13.5t-39 13.5t-15 34.5t15.5 35zM306.5 630q15.5 14 38.5 14q22 0 38 -14t16 -35t-15 -34.5t-39 -13.5t-39 13.5t-15 34.5
t15.5 35z" />
    <glyph glyph-name="ygrave" unicode="&#x1ef3;" horiz-adv-x="485" 
d="M0 0zM482 420v-26l-41 2h-2q-16 0 -25 -19l-211 -509q-24 -59 -51 -83t-67 -24q-27 0 -45.5 13t-20.5 36q0 25 11.5 38t27.5 13q15 0 23 -6.5t15 -17.5q1 -2 5 -7.5t9 -8t11 -2.5q12 0 24.5 11.5t21.5 34.5l58 139l-173 379q-6 13 -16 13l-49 -2v26h219v-26l-45 2
q-7 0 -11 -5.5t-1 -11.5l122 -268l113 270q1 2 1 6q0 9 -11 9l-47 -2v26h155zM131 643q20 10 37 10q10 0 15.5 -4t20.5 -21l95 -104l10.5 -11t7.5 -12q0 -8 -13 -8q-8 0 -20 9l-163 112q-1 1 -5.5 4t-4.5 9t20 16z" />
    <glyph glyph-name="z" unicode="z" horiz-adv-x="441" 
d="M398 139v-139h-260l-84 -1q-9 -1 -20 -1v20l249 377h-98q-50 0 -80.5 -30t-38.5 -85h-21l9 142q3 0 29.5 -1t66.5 -1h238v-19l-246 -376h106q63 0 96 28.5t33 85.5h21z" />
    <glyph glyph-name="zacute" unicode="&#x17a;" horiz-adv-x="441" 
d="M34 0zM398 139v-139h-260l-84 -1q-9 -1 -20 -1v20l249 377h-98q-50 0 -80.5 -30t-38.5 -85h-21l9 142q3 0 29.5 -1t66.5 -1h238v-19l-246 -376h106q63 0 96 28.5t33 85.5h21zM353.5 618q-4.5 -3 -5.5 -4l-163 -112q-12 -9 -20 -9q-13 0 -13 8q0 4 7.5 12l10.5 11l95 104
q15 17 20.5 21t15.5 4q17 0 37 -10t20 -16t-4.5 -9z" />
    <glyph glyph-name="zcaron" unicode="&#x17e;" horiz-adv-x="441" 
d="M34 0zM398 139v-139h-260l-84 -1q-9 -1 -20 -1v20l249 377h-98q-50 0 -80.5 -30t-38.5 -85h-21l9 142q3 0 29.5 -1t66.5 -1h238v-19l-246 -376h106q63 0 96 28.5t33 85.5h21zM74 657q9 0 28 -12l119 -74l119 74q19 12 28 12t9 -8q0 -3 -7.5 -10t-17.5 -15
q-35 -30 -54 -50l-23 -24l-24 -24q-27 -25 -30 -25t-30 25l-24 24l-23 24q-19 20 -54 50q-10 8 -17.5 15t-7.5 10q0 8 9 8z" />
    <glyph glyph-name="zdotaccent" unicode="&#x17c;" horiz-adv-x="441" 
d="M34 0zM398 139v-139h-260l-84 -1q-9 -1 -20 -1v20l249 377h-98q-50 0 -80.5 -30t-38.5 -85h-21l9 142q3 0 29.5 -1t66.5 -1h238v-19l-246 -376h106q63 0 96 28.5t33 85.5h21zM182.5 630q15.5 14 38.5 14q22 0 38 -14t16 -35t-15 -34.5t-39 -13.5t-39 13.5t-15 34.5
t15.5 35z" />
    <glyph glyph-name="f.ss01" horiz-adv-x="296" 
d="M35 26l37 -2q13 0 13 19v352h-39v25h39v66q0 105 32 177.5t117 72.5q39 0 68 -24t29 -59q0 -21 -12 -35t-36 -14q-35 0 -35 29q0 8 4 20q5 12 5 24q0 14 -8 23t-22 9q-63 0 -63 -120q0 -28 3 -66q1 -14 2 -33t1 -41v-29h107v-25h-106v-352q0 -19 13 -19l66 2v-26h-215v26
z" />
    <glyph glyph-name="ordfeminine" unicode="&#xaa;" horiz-adv-x="350" 
d="M84 482q40 23 126 23v37q0 50 -52 50q-20 0 -28 -3t-10.5 -9.5t-2.5 -21.5q0 -29 -30 -29q-32 0 -32 32q0 25 26 39.5t77 14.5q58 0 85 -21t27 -67v-147q0 -7 6 -7l30 1v-24h-95l3 47q-22 -55 -86 -55q-84 0 -84 69q0 48 40 71zM117 384q10 -11 28 -11q26 0 45.5 24.5
t19.5 59.5v25q-54 0 -78.5 -16t-24.5 -50q0 -21 10 -32z" />
    <glyph glyph-name="ordmasculine" unicode="&#xba;" horiz-adv-x="351" 
d="M79 581.5q35 36.5 96 36.5t96.5 -36t35.5 -102q0 -64 -34.5 -100t-97.5 -36q-64 0 -97.5 38t-33.5 98q0 65 35 101.5zM126.5 392.5q11.5 -24.5 48.5 -24.5q23 0 36 9t19 33t6 70q0 65 -13 89.5t-48 24.5t-47.5 -25.5t-12.5 -88.5t11.5 -87.5z" />
    <glyph glyph-name="uni0394" unicode="&#x394;" horiz-adv-x="601" 
d="M308 607l254 -607h-535l255 607h26zM451 28l-192 460l-192 -460h384z" />
    <glyph glyph-name="uni03A9" unicode="&#x3a9;" horiz-adv-x="670" 
d="M642 139q-20 -112 -20 -142q-11 3 -103 3h-121l-2 5q38 48 62.5 92t39.5 106t15 146q0 123 -43 177t-135 54t-135 -54t-43 -177q0 -84 15 -146t39.5 -106t62.5 -92l-2 -5h-121q-92 0 -103 -3q0 30 -20 142h31q5 -46 26.5 -65t65.5 -19h58q-57 61 -84.5 96t-45.5 83.5
t-18 114.5q0 73 32.5 131.5t94.5 92.5t147 34t147 -34t94.5 -92.5t32.5 -131.5q0 -66 -18 -114.5t-45.5 -83.5t-84.5 -96h58q44 0 65.5 19t26.5 65h31z" />
    <glyph glyph-name="uni03BC" unicode="&#x3bc;" horiz-adv-x="536" 
d="M20 0zM501 26v-26h-142q6 17 6 73v14q-18 -44 -54.5 -70.5t-86.5 -26.5q-15 0 -32 5.5t-27 13.5v-204q0 -16 14 -19l46 1v-26h-205v26l46 -1q12 1 15 19v572q0 19 -13 19l-36 -2v26h135v-272q0 -68 12 -96.5t49 -28.5q62 0 99.5 50.5t37.5 137.5v164q0 21 -12 21l-47 -2
v26h146v-377q0 -19 13 -19z" />
    <glyph glyph-name="pi" unicode="&#x3c0;" horiz-adv-x="608" 
d="M593 458q-17 -51 -17 -86v-19q-12 2 -30 2h-45h-35q-2 -48 -4 -71q-6 -118 -6 -158q0 -52 8 -77.5t31 -25.5q16 0 31 11t27 29l17 -13q-19 -31 -40.5 -43.5t-57.5 -12.5q-63 0 -82.5 31t-19.5 88q0 71 18 208l4 37l-46 2q-34 2 -106 4q-7 -78 -33 -220
q-15 -63 -42 -108.5t-81 -45.5q-21 0 -35.5 11.5t-14.5 35.5q0 21 10.5 34t27.5 13q8 0 15 -2t9 -3q16 -6 26 -6q22 0 32.5 22t19.5 58q17 81 33 212h-21q-45 0 -75.5 -12.5t-52.5 -42.5l-18 12q51 108 160 108q67 0 195 -6q96 -4 118 -4q25 0 35.5 9t18.5 34z" />
    <glyph glyph-name="zero" unicode="0" horiz-adv-x="538" 
d="M95 528.5q65 78.5 173 78.5q109 0 174.5 -79.5t65.5 -230.5q0 -150 -65 -228.5t-175 -78.5t-174 79.5t-64 227.5q0 153 65 231.5zM136 130q17 -61 49.5 -85.5t82.5 -24.5q51 0 84.5 25.5t51 86.5t17.5 166q0 108 -17.5 169.5t-51 87t-84.5 25.5q-75 0 -112 -64t-37 -218
q0 -107 17 -168z" />
    <glyph glyph-name="one" unicode="1" horiz-adv-x="387" 
d="M179 576q21 16 46 41h17v-574q0 -20 19 -20l65 1v-24h-248v24l66 -1q21 0 21 20v454q0 9 -6 14t-15 1l-74 -33l-8 34q58 17 117 63z" />
    <glyph glyph-name="two" unicode="2" horiz-adv-x="506" 
d="M455 165q-23 -132 -25 -168q-9 3 -54 3h-327l-2 45l117 111q58 56 94.5 99t58 91t21.5 103q0 63 -27 97t-73 34q-45 0 -73 -20.5t-28 -56.5q0 -12 6 -30q5 -12 5 -24q0 -20 -14.5 -28.5t-31.5 -8.5q-23 0 -36.5 15t-13.5 42q0 35 21 66.5t65 51.5t108 20q80 0 131 -37.5
t51 -124.5q0 -41 -15.5 -78.5t-55.5 -84.5t-115 -114l-116 -102h177q56 0 83 21.5t33 77.5h36z" />
    <glyph glyph-name="three" unicode="3" horiz-adv-x="498" 
d="M218 318q244 -6 244 -156q0 -55 -31 -94t-83 -58.5t-115 -19.5q-58 0 -103 17t-70 45.5t-25 62.5q0 23 12.5 36.5t36.5 13.5q22 0 34.5 -11t12.5 -28q0 -12 -5 -24q-1 -3 -3 -10t-2 -15q0 -28 30 -44t74 -16q72 0 110 41.5t38 100.5q0 65 -51 100.5t-162 39.5v28
q73 10 124 53t51 106q0 43 -25.5 68.5t-77.5 25.5q-41 0 -69.5 -17t-28.5 -44q0 -7 2 -14t3 -9q6 -16 6 -25q0 -19 -14.5 -29t-33.5 -10q-25 0 -37 14.5t-12 37.5q0 35 27.5 63.5t72.5 44t97 15.5q75 0 127 -31.5t52 -90.5q0 -64 -60 -108.5t-146 -56.5v-2z" />
    <glyph glyph-name="four" unicode="4" horiz-adv-x="470" 
d="M364 224h80v-69h-80v-112q0 -20 19 -20l46 1v-24h-228v24l67 -1q18 0 18 20v112h-269v60q19 17 30 30l29 31l226 278l16 22l21 28h25v-380zM286 488l-214 -264h214v264z" />
    <glyph glyph-name="five" unicode="5" horiz-adv-x="492" 
d="M397 332q55 -50 55 -145q0 -60 -29.5 -104.5t-79.5 -68.5t-109 -24q-48 0 -93 14.5t-74 44.5t-29 74q0 27 13.5 39.5t37.5 12.5q18 0 31.5 -10t13.5 -29q0 -12 -6 -26l-3 -9t-2 -13q0 -35 33.5 -53t78.5 -18q59 0 93 47t34 127q0 68 -38 109t-101 41q-39 0 -73 -15
t-53 -38h-27l21 309h258q41 0 83 3q-9 -19 -14 -69h-296l-17 -199q28 22 68.5 36t77.5 14q91 0 146 -50z" />
    <glyph glyph-name="six" unicode="6" horiz-adv-x="485" 
d="M404.5 344.5q50.5 -54.5 50.5 -144.5q0 -97 -57 -154t-150 -57q-106 0 -154.5 74.5t-48.5 206.5q0 138 54 237.5t183 99.5q48 0 80.5 -14.5t48 -36.5t15.5 -45q0 -22 -13.5 -38t-38.5 -16q-19 0 -32 9.5t-13 26.5q0 7 4 18t4 19q0 21 -18.5 35t-47.5 14q-67 0 -103 -74.5
t-37 -188.5q18 39 53 61t86 22q84 0 134.5 -54.5zM369 187q0 75 -24.5 130t-88.5 55q-60 0 -93 -50t-33 -129q0 -74 32 -126.5t96 -52.5q111 0 111 173z" />
    <glyph glyph-name="seven" unicode="7" horiz-adv-x="427" 
d="M234 0h-94q2 86 18.5 165t64.5 171.5t138 193.5h-206q-44 0 -64.5 -13.5t-24.5 -44.5h-36l3 20q12 94 12 108q13 -3 119 -3h253l4 -42q-87 -97 -139 -219t-52 -261q0 -31 4 -75z" />
    <glyph glyph-name="eight" unicode="8" horiz-adv-x="493" 
d="M391 277.5q31 -22.5 51.5 -53t20.5 -69.5q0 -48 -32 -86t-84.5 -58.5t-112.5 -20.5q-81 0 -139 35.5t-58 104.5q0 58 41 104.5t105 70.5q-60 34 -90 68.5t-30 82.5q0 45 27 79.5t73 53t103 18.5q79 0 130.5 -34t51.5 -97q0 -58 -42 -97t-94 -52q48 -27 79 -49.5zM187 554
q-32 -26 -32 -70q0 -46 33 -76.5t100 -67.5q97 44 97 135q0 51 -30 78t-83 27t-85 -26zM333 44.5q36 27.5 36 76.5q0 39 -23 70t-55 52t-83 48q-44 -22 -74.5 -65.5t-30.5 -91.5q0 -51 36.5 -84t100.5 -33q57 0 93 27.5z" />
    <glyph glyph-name="nine" unicode="9" horiz-adv-x="485" 
d="M408.5 532.5q48.5 -74.5 48.5 -206.5q0 -138 -54 -237.5t-183 -99.5q-48 0 -80.5 14.5t-48 36.5t-15.5 45q0 22 13.5 38t38.5 16q19 0 32 -9.5t13 -26.5q0 -7 -4 -18t-4 -19q0 -21 18.5 -35t47.5 -14q67 0 103 74.5t37 188.5q-18 -39 -53 -61t-86 -22q-84 0 -134.5 54.5
t-50.5 144.5q0 97 57 154t150 57q106 0 154.5 -74.5zM339 274q33 50 33 129q0 74 -32 126.5t-96 52.5q-111 0 -111 -173q0 -75 24.5 -130t88.5 -55q60 0 93 50z" />
    <glyph glyph-name="uni00B9" unicode="&#xb9;" horiz-adv-x="187" 
d="M137 433q0 -9 8 -9h26v-21h-138v21h26q9 0 9 9v180q0 4 -2.5 6t-6.5 1l-30 -8l-6 23q30 6 54 18t49 29h11v-249z" />
    <glyph glyph-name="uni00B2" unicode="&#xb2;" horiz-adv-x="262" 
d="M241 480q-5 -19 -7.5 -42.5t-2.5 -36.5q-8 2 -31 2h-171l-2 44l58 46q46 38 62 62t16 58q0 47 -38 47q-14 0 -23 -6t-9 -16q0 -4 2.5 -14t2.5 -15q0 -12 -10 -19t-25 -7q-18 0 -28 10.5t-10 25.5q0 25 28 42t75 17q48 0 79 -18t31 -53q0 -21 -9 -37t-32 -34.5t-71 -47.5
l-56 -34h95q28 0 40.5 5.5t15.5 20.5h20z" />
    <glyph glyph-name="uni00B3" unicode="&#xb3;" horiz-adv-x="250" 
d="M67 553q34 0 59.5 18t25.5 50q0 17 -9.5 28t-27.5 11q-13 0 -22 -6t-9 -16q0 -4 2 -10.5t2 -11.5q0 -13 -10.5 -19.5t-24.5 -6.5q-18 0 -27.5 10t-9.5 23q0 26 31.5 40.5t74.5 14.5q45 0 75 -15t30 -44q0 -28 -27.5 -46t-70.5 -23v-3q55 -1 85 -18t30 -50
q0 -36 -36.5 -59t-92.5 -23q-45 0 -75.5 15.5t-30.5 40.5q0 14 10 23.5t28 9.5q15 0 24.5 -7t9.5 -20q0 -5 -2 -10.5t-2 -10.5q0 -12 11 -17t26 -5q26 0 41 16.5t15 42.5q0 30 -22.5 43.5t-80.5 18.5v16z" />
    <glyph glyph-name="fraction" unicode="&#x2044;" horiz-adv-x="139" 
d="M-143 5l428 600l34 -20l-429 -603z" />
    <glyph glyph-name="onehalf" unicode="&#xbd;" horiz-adv-x="580" 
d="M51 0zM51 5l428 600l34 -20l-429 -603zM166 362q0 -9 8 -9h26v-21h-138v21h26q9 0 9 9v180q0 4 -2.5 6t-6.5 1l-30 -8l-6 23q30 6 54 18t49 29h11v-249zM553 77q-5 -19 -7.5 -42.5t-2.5 -36.5q-8 2 -31 2h-171l-2 44l58 46q46 38 62 62t16 58q0 47 -38 47q-14 0 -23 -6
t-9 -16q0 -4 2.5 -14t2.5 -15q0 -12 -10 -19t-25 -7q-18 0 -28 10.5t-10 25.5q0 25 28 42t75 17q48 0 79 -18t31 -53q0 -21 -9 -37t-32 -34.5t-71 -47.5l-56 -34h95q28 0 40.5 5.5t15.5 20.5h20z" />
    <glyph glyph-name="onequarter" unicode="&#xbc;" horiz-adv-x="559" 
d="M58 541l-6 23q30 6 54 18t49 29h11v-249q0 -9 8 -9h26v-21h-138v21h26q9 0 9 9v180q0 4 -2.5 6t-6.5 1zM479 605l34 -20l-429 -603l-33 23zM483 65v-35q0 -9 9 -9h20v-21h-140v21h33q9 0 9 9v35h-127v33l163 176h33v-172h36v-37h-36zM324 102h90v96z" />
    <glyph glyph-name="threequarters" unicode="&#xbe;" horiz-adv-x="559" 
d="M231.5 349q-36.5 -23 -92.5 -23q-45 0 -75.5 15.5t-30.5 40.5q0 14 10 23.5t28 9.5q15 0 24.5 -7t9.5 -20q0 -5 -2 -10.5t-2 -10.5q0 -12 11 -17t26 -5q26 0 41 16.5t15 42.5q0 30 -22.5 43.5t-80.5 18.5v16q34 0 59.5 18t25.5 50q0 17 -9.5 28t-27.5 11q-13 0 -22 -6
t-9 -16q0 -4 2 -10.5t2 -11.5q0 -13 -10.5 -19.5t-24.5 -6.5q-18 0 -27.5 10t-9.5 23q0 26 31.5 40.5t74.5 14.5q45 0 75 -15t30 -44q0 -28 -27.5 -46t-70.5 -23v-3q55 -1 85 -18t30 -50q0 -36 -36.5 -59zM489 605l34 -20l-429 -603l-33 23zM493 65v-35q0 -9 9 -9h20v-21
h-140v21h33q9 0 9 9v35h-127v33l163 176h33v-172h36v-37h-36zM334 102h90v96z" />
    <glyph glyph-name="asterisk" unicode="*" horiz-adv-x="338" 
d="M311 522q7 -8 7 -30t-7 -30t-26 -8q-11 0 -16.5 7.5t-12 12t-26.5 4.5q-14 0 -28 -6q1 -12 10 -26q9 -15 16 -19.5t17 -5.5t15 -10q7 -14 7 -21q0 -14 -23 -27q-17 -9 -26 -9q-12 0 -24 19q-3 6 -3 10q0 3 3 10t3 12q0 10 -10 27q-5 10 -18 21q-13 -11 -18 -21
q-9 -17 -9 -27q0 -5 2.5 -12t2.5 -10q0 -4 -3 -10q-12 -19 -24 -19q-10 0 -25 9q-24 13 -24 27q0 7 7 21q5 9 14.5 10t16.5 4.5t17 20.5q7 12 9 27q-12 5 -27 5q-18 0 -25 -4t-13 -12t-17 -8q-19 0 -26 8t-7 30t7 30t26 8q11 0 16.5 -7.5t12 -12t26.5 -4.5q14 0 28 6
q-1 12 -10 26q-9 15 -16 19.5t-17 5.5t-15 10q-7 14 -7 21q0 14 24 27q15 9 25 9q12 0 24 -19q3 -6 3 -10q0 -3 -3 -10t-3 -12q0 -10 10 -27q5 -10 18 -21q13 11 18 21q9 17 9 27q0 5 -2.5 12t-2.5 10q0 4 3 10q12 19 24 19q10 0 25 -9q24 -13 24 -27q0 -7 -7 -21
q-5 -9 -14.5 -10t-16.5 -4.5t-17 -20.5q-7 -12 -9 -27q12 -5 27 -5q18 0 25 4t13 12t17 8q19 0 26 -8z" />
    <glyph glyph-name="backslash" unicode="\" horiz-adv-x="248" 
d="M-8 626l39 9l219 -629l-40 -11z" />
    <glyph glyph-name="periodcentered" unicode="&#xb7;" horiz-adv-x="250" 
d="M78.5 226q18.5 16 46.5 16t46.5 -16t18.5 -42t-18.5 -41.5t-46.5 -15.5t-46.5 15.5t-18.5 41.5t18.5 42z" />
    <glyph glyph-name="bullet" unicode="&#x2022;" horiz-adv-x="469" 
d="M142 330.5q37 32.5 92 32.5t91.5 -32.5t36.5 -83.5t-37 -83.5t-91 -32.5q-57 0 -93 32.5t-36 83.5t37 83.5z" />
    <glyph glyph-name="colon" unicode=":" horiz-adv-x="250" 
d="M60 0zM78.5 89q18.5 16 46.5 16t46.5 -16t18.5 -42t-18.5 -41.5t-46.5 -15.5t-46.5 15.5t-18.5 41.5t18.5 42zM78.5 387q18.5 16 46.5 16t46.5 -16t18.5 -42t-18.5 -41.5t-46.5 -15.5t-46.5 15.5t-18.5 41.5t18.5 42z" />
    <glyph glyph-name="comma" unicode="," horiz-adv-x="250" 
d="M107.5 -91q21.5 34 21.5 57q0 29 -36 29q-18 0 -25 13t-7 30q0 21 17.5 37t40.5 16q35 0 52.5 -21.5t17.5 -61.5q0 -50 -34 -94.5t-76 -73.5l-19 11q26 24 47.5 58z" />
    <glyph glyph-name="ellipsis" unicode="&#x2026;" horiz-adv-x="690" 
d="M60 0zM78.5 89q18.5 16 46.5 16t46.5 -16t18.5 -42t-18.5 -41.5t-46.5 -15.5t-46.5 15.5t-18.5 41.5t18.5 42zM298.5 89q18.5 16 46.5 16t46.5 -16t18.5 -42t-18.5 -41.5t-46.5 -15.5t-46.5 15.5t-18.5 41.5t18.5 42zM518.5 89q18.5 16 46.5 16t46.5 -16t18.5 -42
t-18.5 -41.5t-46.5 -15.5t-46.5 15.5t-18.5 41.5t18.5 42z" />
    <glyph glyph-name="exclam" unicode="!" horiz-adv-x="269" 
d="M195 622q14 -15 14 -39q0 -22 -6 -63l-13 -92l-7 -48q-9 -56 -13 -91.5t-4 -71.5q0 -6 -3 -11t-8 -5q-6 0 -9 5t-3 11q0 36 -4 71.5t-13 91.5l-7 48l-13 92q-6 41 -6 63q0 24 14 39t40 15q27 0 41 -15zM200.5 88q18.5 -17 18.5 -41q0 -23 -19.5 -40t-45.5 -17
q-25 0 -44.5 17t-19.5 41t19 40.5t46 16.5t45.5 -17z" />
    <glyph glyph-name="exclamdown" unicode="&#xa1;" horiz-adv-x="269" 
d="M159.5 428q19.5 -17 19.5 -40q0 -24 -18.5 -41t-45.5 -17t-46 16.5t-19 40.5t19.5 41t44.5 17q26 0 45.5 -17zM126 218q0 -66 7 -135t19 -162q12 -87 12 -114q0 -23 -13 -36t-37 -13q-23 0 -36 13t-13 36q0 25 12 111q12 94 19 164t7 136q0 16 12 16q11 0 11 -16z" />
    <glyph glyph-name="numbersign" unicode="#" horiz-adv-x="505" 
d="M18 194l11 40h99l52 171h-100l11 40h100l59 194h40l-59 -194h114l59 194h40l-58 -194h101l-11 -40h-102l-51 -171h101l-12 -40h-101l-61 -203h-40l61 203h-114l-61 -203h-40l61 203h-99zM168 234h115l51 171h-114z" />
    <glyph glyph-name="period" unicode="." horiz-adv-x="250" 
d="M78.5 89q18.5 16 46.5 16t46.5 -16t18.5 -42t-18.5 -41.5t-46.5 -15.5t-46.5 15.5t-18.5 41.5t18.5 42z" />
    <glyph glyph-name="question" unicode="?" horiz-adv-x="400" 
d="M170.5 241q-25.5 17 -43.5 40t-18 46q0 25 19 50t60 67q42 42 63.5 71t21.5 58t-24.5 49.5t-71.5 20.5q-34 0 -58.5 -11t-24.5 -31q0 -6 4.5 -17t4.5 -18q0 -15 -10.5 -21.5t-25.5 -6.5q-24 0 -35.5 14t-11.5 33q0 40 51.5 62.5t121.5 22.5q78 0 124.5 -29t46.5 -80
q0 -38 -24.5 -67.5t-71.5 -66.5q-44 -36 -65 -61t-21 -56q0 -21 11.5 -40t35.5 -32l-12 -19q-21 5 -46.5 22zM135 4.5q-20 14.5 -20 40.5q0 25 18.5 42.5t46.5 17.5q26 0 45.5 -15t19.5 -42t-19 -42.5t-45 -15.5t-46 14.5z" />
    <glyph glyph-name="questiondown" unicode="&#xbf;" horiz-adv-x="400" 
d="M265 430.5q20 -14.5 20 -40.5q0 -25 -18.5 -42.5t-46.5 -17.5q-26 0 -45.5 15t-19.5 42t19 42.5t45 15.5t46 -14.5zM229.5 194q25.5 -17 43.5 -40t18 -46q0 -25 -19 -50t-60 -67q-42 -42 -63.5 -71t-21.5 -58t24.5 -49.5t71.5 -20.5q34 0 58.5 11t24.5 31q0 6 -4.5 17
t-4.5 18q0 15 10.5 21.5t25.5 6.5q24 0 35.5 -14t11.5 -33q0 -40 -51.5 -62.5t-121.5 -22.5q-78 0 -124.5 29t-46.5 80q0 38 24.5 67.5t71.5 66.5q44 36 65 61t21 56q0 21 -11.5 40t-35.5 32l12 19q21 -5 46.5 -22z" />
    <glyph glyph-name="quotedbl" unicode="&#x22;" horiz-adv-x="252" 
d="M34 409zM43 629.5q9 10.5 24 10.5t24 -10.5t9 -29.5q0 -13 -5.5 -56.5t-7.5 -63.5q-7 -49 -7 -54q0 -7 -3.5 -12t-9.5 -5t-9.5 5t-3.5 12q0 5 -7 54q-2 20 -7.5 63.5t-5.5 56.5q0 19 9 29.5zM161 629.5q9 10.5 24 10.5t24 -10.5t9 -29.5q0 -13 -5.5 -56.5t-7.5 -63.5
q-7 -49 -7 -54q0 -7 -3.5 -12t-9.5 -5t-9.5 5t-3.5 12q0 5 -7 54q-2 20 -7.5 63.5t-5.5 56.5q0 19 9 29.5z" />
    <glyph glyph-name="quotesingle" unicode="'" horiz-adv-x="133" 
d="M43 629.5q9 10.5 24 10.5t24 -10.5t9 -29.5q0 -13 -5.5 -56.5t-7.5 -63.5q-7 -49 -7 -54q0 -7 -3.5 -12t-9.5 -5t-9.5 5t-3.5 12q0 5 -7 54q-2 20 -7.5 63.5t-5.5 56.5q0 19 9 29.5z" />
    <glyph glyph-name="semicolon" unicode=";" horiz-adv-x="250" 
d="M54 0zM109.5 -91q21.5 34 21.5 57q0 29 -36 29q-18 0 -25 13t-7 30q0 21 17.5 37t40.5 16q35 0 52.5 -21.5t17.5 -61.5q0 -50 -34 -94.5t-76 -73.5l-19 11q26 24 47.5 58zM72.5 387q18.5 16 46.5 16t46.5 -16t18.5 -42t-18.5 -41.5t-46.5 -15.5t-46.5 15.5t-18.5 41.5
t18.5 42z" />
    <glyph glyph-name="slash" unicode="/" horiz-adv-x="247" 
d="M-5 6l219 629l38 -9l-218 -631z" />
    <glyph glyph-name="underscore" unicode="_" horiz-adv-x="493" 
d="M0 -143h493v-40h-493v40z" />
    <glyph glyph-name="braceleft" unicode="{" horiz-adv-x="280" 
d="M30 277q40 6 56 24t16 57v224q0 37 9 56.5t30 28t60 8.5h34v-30h-27q-39 0 -39 -56v-231q0 -31 -8.5 -48.5t-28.5 -26.5t-59 -16q40 -9 59.5 -18t28 -25.5t8.5 -47.5v-236q0 -56 39 -56h27v-30h-34q-41 0 -62 8.5t-29 28t-8 56.5v229q0 31 -5.5 45.5t-19.5 21.5t-47 14
v20z" />
    <glyph glyph-name="braceright" unicode="}" horiz-adv-x="290" 
d="M213 243q-14 -7 -19.5 -21.5t-5.5 -45.5v-229q0 -37 -8 -56.5t-29 -28t-62 -8.5h-34v30h27q39 0 39 56v236q0 31 8.5 47.5t28 25.5t59.5 18q-39 7 -59 16t-28.5 26.5t-8.5 48.5v231q0 56 -39 56h-27v30h34q39 0 60 -8.5t30 -28t9 -56.5v-224q0 -39 16 -57t56 -24v-20
q-33 -7 -47 -14z" />
    <glyph glyph-name="bracketleft" unicode="[" horiz-adv-x="256" 
d="M46 -147v822h177v-27h-104v-768h104v-27h-177z" />
    <glyph glyph-name="bracketright" unicode="]" horiz-adv-x="256" 
d="M211 -147h-177v27h104v768h-104v27h177v-822z" />
    <glyph glyph-name="parenleft" unicode="(" horiz-adv-x="254" 
d="M211 711h43q-43 -55 -75.5 -139t-49.5 -173t-17 -159t17 -159t49.5 -173t75.5 -139h-43q-193 228 -193 471t193 471z" />
    <glyph glyph-name="parenright" unicode=")" horiz-adv-x="254" 
d="M43 -231h-43q43 55 75.5 139t49.5 173t17 159t-17 159t-49.5 173t-75.5 139h43q193 -228 193 -471t-193 -471z" />
    <glyph glyph-name="emdash" unicode="&#x2014;" horiz-adv-x="794" 
d="M0 191v39h794v-39h-794z" />
    <glyph glyph-name="endash" unicode="&#x2013;" horiz-adv-x="477" 
d="M18 191v39h441v-39h-441z" />
    <glyph glyph-name="hyphen" unicode="-" horiz-adv-x="250" 
d="M22 189v55h206v-55h-206z" />
    <glyph glyph-name="uni00AD" unicode="&#xad;" horiz-adv-x="250" 
d="M22 189zM22 189v55h206v-55h-206z" />
    <glyph glyph-name="guillemotleft" unicode="&#xab;" horiz-adv-x="428" 
d="M25 16zM193 187l149 171h36l-98 -171l98 -171h-36zM25 187l149 171h36l-98 -171l98 -171h-36z" />
    <glyph glyph-name="guillemotright" unicode="&#xbb;" horiz-adv-x="433" 
d="M235 187l-149 -171h-36l98 171l-98 171h36zM407 187l-149 -171h-36l98 171l-98 171h36z" />
    <glyph glyph-name="guilsinglleft" unicode="&#x2039;" horiz-adv-x="261" 
d="M26 187l149 171h36l-98 -171l98 -171h-36z" />
    <glyph glyph-name="guilsinglright" unicode="&#x203a;" horiz-adv-x="260" 
d="M235 187l-149 -171h-36l98 171l-98 171h36z" />
    <glyph glyph-name="quotedblbase" unicode="&#x201e;" horiz-adv-x="444" 
d="M102 0zM149.5 -91q21.5 34 21.5 57q0 29 -36 29q-18 0 -25 13t-7 30q0 21 17.5 37t40.5 16q35 0 52.5 -21.5t17.5 -61.5q0 -50 -34 -94.5t-76 -73.5l-19 11q26 24 47.5 58zM329.5 -91q21.5 34 21.5 57q0 29 -36 29q-18 0 -25 13t-7 30q0 21 17.5 37t40.5 16
q35 0 52.5 -21.5t17.5 -61.5q0 -50 -34 -94.5t-76 -73.5l-19 11q26 24 47.5 58z" />
    <glyph glyph-name="quotedblleft" unicode="&#x201c;" horiz-adv-x="386" 
d="M108.5 577q-21.5 -34 -21.5 -57q0 -29 36 -29q18 0 25 -13t7 -30q0 -21 -17.5 -37t-40.5 -16q-35 0 -52.5 21.5t-17.5 61.5q0 50 34 94.5t76 73.5l19 -11q-26 -24 -47.5 -58zM274.5 577q-21.5 -34 -21.5 -57q0 -29 36 -29q18 0 25 -13t7 -30q0 -21 -17.5 -37t-40.5 -16
q-35 0 -52.5 21.5t-17.5 61.5q0 50 34 94.5t76 73.5l19 -11q-26 -24 -47.5 -58z" />
    <glyph glyph-name="quotedblright" unicode="&#x201d;" horiz-adv-x="386" 
d="M64 379zM111.5 448q21.5 34 21.5 57q0 29 -36 29q-18 0 -25 13t-7 30q0 21 17.5 37t40.5 16q35 0 52.5 -21.5t17.5 -61.5q0 -50 -34 -94.5t-76 -73.5l-19 11q26 24 47.5 58zM277.5 448q21.5 34 21.5 57q0 29 -36 29q-18 0 -25 13t-7 30q0 21 17.5 37t40.5 16
q35 0 52.5 -21.5t17.5 -61.5q0 -50 -34 -94.5t-76 -73.5l-19 11q26 24 47.5 58z" />
    <glyph glyph-name="quoteleft" unicode="&#x2018;" horiz-adv-x="220" 
d="M108.5 576q-21.5 -34 -21.5 -57q0 -29 36 -29q18 0 25 -13t7 -30q0 -21 -17.5 -37t-40.5 -16q-35 0 -52.5 21.5t-17.5 61.5q0 50 34 94.5t76 73.5l19 -11q-26 -24 -47.5 -58z" />
    <glyph glyph-name="quoteright" unicode="&#x2019;" horiz-adv-x="220" 
d="M111.5 448q21.5 34 21.5 57q0 29 -36 29q-18 0 -25 13t-7 30q0 21 17.5 37t40.5 16q35 0 52.5 -21.5t17.5 -61.5q0 -50 -34 -94.5t-76 -73.5l-19 11q26 24 47.5 58z" />
    <glyph glyph-name="quotesinglbase" unicode="&#x201a;" horiz-adv-x="264" 
d="M102 0zM149.5 -91q21.5 34 21.5 57q0 29 -36 29q-18 0 -25 13t-7 30q0 21 17.5 37t40.5 16q35 0 52.5 -21.5t17.5 -61.5q0 -50 -34 -94.5t-76 -73.5l-19 11q26 24 47.5 58z" />
    <glyph glyph-name="uni00A0" unicode="&#xa0;" horiz-adv-x="220" 
 />
    <glyph glyph-name="cent" unicode="&#xa2;" horiz-adv-x="394" 
d="M243 117v-212h-37v210q-75 2 -119.5 46.5t-44.5 126.5q0 83 45 130t119 49v180h37v-182q45 -6 74 -28.5t29 -52.5q0 -18 -11 -31t-33 -13q-16 0 -26 7.5t-10 21.5q0 6 4 16.5t4 18.5q0 19 -17 29t-41 10q-40 0 -61 -33t-21 -112q0 -83 23.5 -120.5t68.5 -37.5
q38 0 68 20.5t42 61.5l22 -13q-27 -81 -115 -92z" />
    <glyph glyph-name="currency" unicode="&#xa4;" horiz-adv-x="443" 
d="M353 155l48 -49l-23 -23l-48 49q-47 -38 -108 -38t-108 39l-49 -49l-23 23l49 49q-39 49 -39 109t38 108l-47 47l23 23l47 -47q23 19 51 29t58 10q64 0 110 -40l47 47l23 -23l-48 -47q39 -45 39 -107q0 -65 -40 -110zM292 144.5q32 18.5 50.5 50.5t18.5 70
q0 37 -18.5 68.5t-50.5 50.5t-70 19t-70 -19t-50.5 -50.5t-18.5 -68.5q0 -38 18.5 -70t50.5 -50.5t70 -18.5t70 18.5z" />
    <glyph glyph-name="dollar" unicode="$" horiz-adv-x="447" 
d="M331 154q-33 -29 -88 -34v-215h-37v215q-22 2 -76 17q-15 3 -23 3q-16 0 -24 -5l4 106l24 1q0 -43 35 -71t84 -28q30 0 47.5 15t17.5 40q0 20 -12.5 33t-43.5 20l-70 19q-39 10 -59.5 35t-20.5 61q0 44 31 73t86 32v176h37v-178q21 -3 39 -9q24 -7 38 -7q12 0 24 7
l-5 -91h-21q0 31 -25.5 54.5t-70.5 23.5q-29 0 -45.5 -14t-16.5 -36q0 -36 49 -48l69 -18q48 -13 67 -37t19 -62q0 -49 -33 -78z" />
    <glyph glyph-name="Euro" unicode="&#x20ac;" horiz-adv-x="466" 
d="M456 82q0 -29 3 -47h-6q-12 0 -29 -5.5t-35 -12.5q-32 -13 -56.5 -20t-50.5 -7q-93 0 -153.5 60t-77.5 167h-49l10 41h34q-1 12 -1 37q0 24 1 36h-44l10 41h38q16 113 77.5 174t158.5 61q30 0 49.5 -6t48.5 -18q20 -9 35 -14t34 -5q-4 -31 -4 -75q0 -21 1 -37.5t3 -18.5
h-24q-10 62 -50 105.5t-90 43.5q-55 0 -91 -56.5t-47 -153.5h232l-10 -41h-225q-1 -12 -1 -36q0 -25 1 -37h235l-10 -41h-221q11 -92 49 -146t93 -54q52 0 90.5 42.5t49.5 107.5h28q-6 -47 -6 -85z" />
    <glyph glyph-name="florin" unicode="&#x192;" horiz-adv-x="450" 
d="M428.5 587.5q31.5 -19.5 31.5 -53.5q0 -20 -11.5 -34.5t-35.5 -14.5q-15 0 -25.5 6.5t-10.5 21.5q0 8 4.5 18.5t4.5 17.5q0 13 -9 22t-26 9q-35 0 -59.5 -41.5t-45.5 -143.5l-6 -31h99v-15l-29 -16h-77l-51 -246q-22 -99 -75.5 -187t-141.5 -88q-40 0 -69 18.5t-29 48.5
q0 18 11.5 31t33.5 13q15 0 26 -6.5t11 -21.5q0 -6 -3 -16t-3 -15q0 -11 8 -18t24 -7q30 0 50.5 31.5t34.5 83t33 144.5l19 86l33 149h-97l27 31h77l16 70q9 41 33 80.5t62 66t89 26.5q45 0 76.5 -19.5z" />
    <glyph glyph-name="sterling" unicode="&#xa3;" horiz-adv-x="507" 
d="M464 168l-10 -171l-33 1q-26 2 -45 2h-256q-30 0 -90 -3l-2 4q40 25 64 67t24 88v150h-80v23h80v81q0 103 41.5 150t134.5 47q53 0 89 -25t36 -62q0 -16 -12.5 -28t-28.5 -12t-28.5 10t-12.5 24q0 7 4 17.5t4 15.5q0 37 -57 37q-40 0 -65.5 -26.5t-25.5 -70.5q0 -6 6 -54
q1 -10 5.5 -44t5.5 -60h119v-23h-119v-80q0 -44 -18 -84t-44 -69h158q53 0 81 8.5t39 28.5t11 58h25z" />
    <glyph glyph-name="yen" unicode="&#xa5;" horiz-adv-x="507" 
d="M517 597v-30l-30 2q-16 0 -28 -21l-116 -207h102v-29h-118l-14 -25v-56h132v-29h-132v-154q0 -21 20 -21l48 2v-29h-229v29l49 -2q19 0 19 22v153h-132v29h132v32l-30 49h-102v29h85l-126 209q-10 19 -24 19l-28 -2v30h221v-30l-53 2h-1q-11 0 -11 -10q0 -6 5 -14
l137 -228l131 232q3 5 3 10q0 10 -10 10l-52 -2v30h152z" />
    <glyph glyph-name="uni2219" unicode="&#x2219;" horiz-adv-x="230" 
d="M50 127zM68.5 226q18.5 16 46.5 16t46.5 -16t18.5 -42t-18.5 -41.5t-46.5 -15.5t-46.5 15.5t-18.5 41.5t18.5 42z" />
    <glyph glyph-name="uni2215" unicode="&#x2215;" horiz-adv-x="139" 
d="M0 0zM-143 5l428 600l34 -20l-429 -603z" />
    <glyph glyph-name="plus" unicode="+" 
d="M20 259v44h186v185h49v-185h185v-44h-185v-186h-49v186h-186z" />
    <glyph glyph-name="minus" unicode="&#x2212;" 
d="M20 260v41h420v-41h-420z" />
    <glyph glyph-name="multiply" unicode="&#xd7;" 
d="M64 131l138 137l-136 135l29 29l134 -136l137 137l30 -29l-137 -136l137 -138l-28 -28l-138 137l-136 -136z" />
    <glyph glyph-name="divide" unicode="&#xf7;" 
d="M190 471.5q15 12.5 39 12.5t39.5 -12.5t15.5 -35.5q0 -21 -15.5 -34t-39.5 -13t-39 12.5t-15 34.5q0 23 15 35.5zM19 244v51h422v-51h-422zM190 131.5q15 13.5 39 13.5t39.5 -12.5t15.5 -35.5q0 -21 -15.5 -34t-39.5 -13t-39 12.5t-15 34.5q0 21 15 34.5z" />
    <glyph glyph-name="equal" unicode="=" 
d="M35 302v43h390v-43h-390zM35 103v43h390v-43h-390z" />
    <glyph glyph-name="notequal" unicode="&#x2260;" 
d="M425 302h-154l-54 -156h208v-43h-223l-37 -108l-39 11l34 97h-125v43h140l54 156h-194v43h209l38 108l38 -9l-34 -99h139v-43z" />
    <glyph glyph-name="greater" unicode="&#x3e;" 
d="M54 -5v48l256 155l43 20l-43 21l-256 154v49l352 -211v-24z" />
    <glyph glyph-name="less" unicode="&#x3c;" 
d="M406 441v-48l-256 -155l-43 -20l43 -21l256 -154v-49l-352 211v24z" />
    <glyph glyph-name="greaterequal" unicode="&#x2265;" 
d="M406 311v-25l-352 -166v46l231 106l71 26l-71 27l-231 106v46zM54 41h352v-41h-352v41z" />
    <glyph glyph-name="lessequal" unicode="&#x2264;" 
d="M54 311l352 166v-46l-231 -106l-71 -27l71 -26l231 -106v-46l-352 166v25zM406 41v-41h-352v41h352z" />
    <glyph glyph-name="plusminus" unicode="&#xb1;" 
d="M20 274v41h187v191h45v-191h188v-41h-188v-194h-45v194h-187zM20 0v41h420v-41h-420z" />
    <glyph glyph-name="approxequal" unicode="&#x2248;" 
d="M137 380q20 0 41 -8t54 -25q31 -16 51 -24t38 -8q25 0 44 13t42 46l28 -29q-22 -37 -52 -57.5t-62 -20.5q-19 0 -38 7.5t-56 25.5q-30 16 -51 24t-39 8q-26 0 -42.5 -10.5t-39.5 -43.5l-27 29q43 73 109 73zM137 180q20 0 41 -8t54 -25q31 -16 51 -24t38 -8q25 0 44 13
t42 46l28 -29q-22 -37 -52 -57.5t-62 -20.5q-19 0 -38 7.5t-56 25.5q-30 16 -51 24t-39 8q-26 0 -42.5 -10.5t-39.5 -43.5l-27 29q43 73 109 73z" />
    <glyph glyph-name="asciitilde" unicode="~" 
d="M131 328q22 0 44 -8t56 -25q32 -16 53 -24t41 -8q25 0 44 13t42 46l28 -29q-22 -37 -52 -57.5t-62 -20.5q-21 0 -41 7.5t-58 25.5q-31 16 -53 24t-42 8q-26 0 -42.5 -10.5t-39.5 -43.5l-27 29q43 73 109 73z" />
    <glyph glyph-name="logicalnot" unicode="&#xac;" 
d="M20 319v41h420v-214h-43v173h-377z" />
    <glyph glyph-name="infinity" unicode="&#x221e;" horiz-adv-x="539" 
d="M501.5 373q37.5 -47 37.5 -118q0 -63 -31 -104.5t-86 -41.5q-47 0 -84 29.5t-55 71.5q-24 -48 -56 -74.5t-87 -26.5q-65 0 -102.5 47t-37.5 118q0 63 31 104.5t86 41.5q47 0 84 -29.5t55 -71.5q24 48 56 74.5t87 26.5q65 0 102.5 -47zM489.5 201q24.5 20 24.5 60t-24 65
t-63 25q-35 0 -58.5 -15t-38.5 -37.5t-32 -58.5q40 -59 120 -59q47 0 71.5 20zM170.5 193q23.5 15 38.5 37.5t32 58.5q-40 59 -120 59q-47 0 -71.5 -20t-24.5 -59q0 -40 24 -65.5t63 -25.5q35 0 58.5 15z" />
    <glyph glyph-name="integral" unicode="&#x222b;" horiz-adv-x="425" 
d="M361 764q23 -15 23 -43q0 -18 -12 -31t-36 -13q-20 0 -26.5 8t-6.5 23q0 4 0.5 16t-5 18t-18.5 6q-21 0 -29.5 -44t-8.5 -144q0 -33 11 -176q2 -22 9 -125.5t7 -160.5q0 -115 -36.5 -190t-101.5 -75q-34 0 -57 15t-23 43q0 18 12 31t36 13q20 0 26.5 -8t6.5 -23
q0 -4 -0.5 -16t5 -18t18.5 -6q21 0 29.5 44t8.5 144q0 12 -3 55.5l-5 74.5q-19 249 -19 332q0 115 36.5 190t101.5 75q34 0 57 -15z" />
    <glyph glyph-name="uni2126" unicode="&#x2126;" horiz-adv-x="670" 
d="M28 0zM642 139q-20 -112 -20 -142q-11 3 -103 3h-121l-2 5q38 48 62.5 92t39.5 106t15 146q0 123 -43 177t-135 54t-135 -54t-43 -177q0 -84 15 -146t39.5 -106t62.5 -92l-2 -5h-121q-92 0 -103 -3q0 30 -20 142h31q5 -46 26.5 -65t65.5 -19h58q-57 61 -84.5 96
t-45.5 83.5t-18 114.5q0 73 32.5 131.5t94.5 92.5t147 34t147 -34t94.5 -92.5t32.5 -131.5q0 -66 -18 -114.5t-45.5 -83.5t-84.5 -96h58q44 0 65.5 19t26.5 65h31z" />
    <glyph glyph-name="uni2206" unicode="&#x2206;" horiz-adv-x="601" 
d="M27 0zM308 607l254 -607h-535l255 607h26zM451 28l-192 460l-192 -460h384z" />
    <glyph glyph-name="product" unicode="&#x220f;" horiz-adv-x="633" 
d="M50 -51l39 -2q19 0 19 22v579q0 22 -19 21l-39 -2v30h533v-30l-39 2h-2q-8 0 -12.5 -6t-4.5 -15v-579q0 -22 19 -22l39 2v-29h-219v29l49 -2q19 0 19 22v597h-231v-597q0 -22 20 -22l49 2v-29h-220v29z" />
    <glyph glyph-name="summation" unicode="&#x2211;" horiz-adv-x="512" 
d="M475 69q-7 -39 -13.5 -87t-6.5 -65q-11 3 -101 3h-316v25l191 310l-181 319v23h306q92 0 103 3q0 -34 10 -132h-31q-5 56 -26 78.5t-66 22.5h-185l146 -264l-198 -320h245q44 0 65.5 19t26.5 65h31z" />
    <glyph glyph-name="radical" unicode="&#x221a;" 
d="M456 786h26l-192 -881h-27l-168 426l-76 -25l-9 25l155 51l9 -25l118 -319z" />
    <glyph glyph-name="uni00B5" unicode="&#xb5;" horiz-adv-x="536" 
d="M501 26v-26h-142q6 17 6 73v14q-18 -44 -54.5 -70.5t-86.5 -26.5q-15 0 -32 5.5t-27 13.5v-204q0 -16 14 -19l46 1v-26h-205v26l46 -1q12 1 15 19v572q0 19 -13 19l-36 -2v26h135v-272q0 -68 12 -96.5t49 -28.5q62 0 99.5 50.5t37.5 137.5v164q0 21 -12 21l-47 -2v26h146
v-377q0 -19 13 -19z" />
    <glyph glyph-name="partialdiff" unicode="&#x2202;" horiz-adv-x="466" 
d="M324.5 573.5q46.5 -31.5 73 -93.5t26.5 -150q0 -69 -16.5 -146t-62.5 -136t-128 -59q-41 0 -83 16t-70.5 53t-28.5 96q0 51 22.5 90t61.5 60t87 21q30 0 63.5 -9t63.5 -30q3 41 3 71q0 100 -33 160.5t-91 60.5q-25 0 -44 -11t-19 -30q0 -8 4.5 -19t4.5 -18q0 -13 -10 -20
t-25 -7q-20 0 -34 12t-14 34q0 40 45 63t99 23q59 0 105.5 -31.5zM285.5 84q30.5 68 43.5 165q-17 18 -41 28.5t-49 10.5q-50 0 -83.5 -39.5t-33.5 -107.5q0 -55 22.5 -90t58.5 -35q52 0 82.5 68z" />
    <glyph glyph-name="percent" unicode="%" horiz-adv-x="572" 
d="M60 568q34 39 93 39q60 0 93 -39.5t33 -100.5t-32.5 -100t-93.5 -39q-62 0 -94.5 39.5t-32.5 99.5q0 62 34 101zM51 5l428 600l34 -20l-429 -603zM112 374q12 -28 41 -28t41 28.5t12 93.5t-12 93t-41 28t-41 -29t-12 -92q0 -66 12 -94zM327 230q34 39 93 39
q60 0 93 -39.5t33 -100.5t-32.5 -100t-93.5 -39q-62 0 -94.5 39.5t-32.5 99.5q0 62 34 101zM379 36q12 -28 41 -28t41 28.5t12 93.5t-12 93t-41 28t-41 -29t-12 -92q0 -66 12 -94z" />
    <glyph glyph-name="perthousand" unicode="&#x2030;" horiz-adv-x="892" 
d="M60 568q34 39 93 39q60 0 93 -39.5t33 -100.5t-32.5 -100t-93.5 -39q-62 0 -94.5 39.5t-32.5 99.5q0 62 34 101zM51 5l428 600l34 -20l-429 -603zM112 374q12 -28 41 -28t41 28.5t12 93.5t-12 93t-41 28t-41 -29t-12 -92q0 -66 12 -94zM327 230q34 39 93 39
q60 0 93 -39.5t33 -100.5t-32.5 -100t-93.5 -39q-62 0 -94.5 39.5t-32.5 99.5q0 62 34 101zM647 230q34 39 93 39q60 0 93 -39.5t33 -100.5t-32.5 -100t-93.5 -39q-62 0 -94.5 39.5t-32.5 99.5q0 62 34 101zM379 36q12 -28 41 -28t41 28.5t12 93.5t-12 93t-41 28t-41 -29
t-12 -92q0 -66 12 -94zM699 36q12 -28 41 -28t41 28.5t12 93.5t-12 93t-41 28t-41 -29t-12 -92q0 -66 12 -94z" />
    <glyph glyph-name="lozenge" unicode="&#x25ca;" 
d="M246 -79h-28l-209 365l205 359h28l209 -364zM252 17l149 264l-152 268l-20 43l-21 -43l-149 -264l152 -268l20 -43z" />
    <glyph glyph-name="at" unicode="@" horiz-adv-x="741" 
d="M78 381.5q52 96.5 142.5 155.5t200.5 59q83 0 150 -38.5t105 -104.5t38 -147q0 -75 -40.5 -146.5t-112.5 -123.5q-37 -27 -58 -36.5t-44 -9.5q-14 0 -19 11t-5 35q0 49 24 151q-57 -108 -102 -152.5t-93 -44.5q-44 0 -68 32.5t-24 89.5q0 70 37.5 144.5t99.5 124
t130 49.5q21 0 34 -9t23 -30l5 20l92 17l-23 -98q-42 -191 -42 -238q0 -17 13 -17q27 0 61 34.5t57.5 88t23.5 107.5q0 71 -34.5 131t-94.5 95.5t-133 35.5q-106 0 -183 -58t-116.5 -149t-39.5 -187q0 -86 37 -151.5t105.5 -101.5t160.5 -36q89 0 157.5 29.5t133.5 95.5
l18 -22q-69 -71 -144 -101.5t-174 -30.5q-105 0 -184.5 39.5t-122.5 112.5t-43 171q0 107 52 203.5zM311 45q20 0 63 53t76.5 124t33.5 126q0 21 -12.5 36.5t-30.5 15.5q-48 0 -89 -43t-68 -116q-23 -64 -23 -118q0 -78 50 -78z" />
    <glyph glyph-name="ampersand" unicode="&#x26;" horiz-adv-x="610" 
d="M625 28v-28h-167l-57 77q-70 -87 -185 -87q-83 0 -138.5 42.5t-55.5 124.5q0 61 38 105t132 98l-7 9q-53 71 -53 123q0 50 40 82t99 32q55 0 85 -27.5t30 -67.5q0 -73 -99 -128l143 -196q31 78 31 153q0 19 -3 25.5t-11 6.5l-46 -2v29h151v-29l-46 2q-7 0 -9.5 -5
t-3.5 -17q-10 -109 -43 -190l89 -121q10 -13 30 -13zM229.5 560q-20.5 -15 -20.5 -40q0 -21 14.5 -46t41.5 -62l6 -8q85 48 85 106q0 30 -20.5 47.5t-53.5 17.5q-32 0 -52.5 -15zM316.5 42.5q36.5 21.5 65.5 59.5l-173 235q-98 -69 -98 -171q0 -65 35.5 -105t92.5 -40
q41 0 77.5 21.5z" />
    <glyph glyph-name="paragraph" unicode="&#xb6;" horiz-adv-x="499" 
d="M82.5 555.5q52.5 41.5 145.5 41.5h250v-31h-101v-835h-35v835h-41q-38 0 -38 -38v-797h-35v557q-94 0 -146 40t-52 114q0 72 52.5 113.5z" />
    <glyph glyph-name="section" unicode="&#xa7;" horiz-adv-x="437" 
d="M365 51.5q15 -25.5 15 -55.5q0 -59 -48 -95t-127 -36q-66 0 -107.5 25t-41.5 67q0 26 15 41.5t37 15.5q17 0 29.5 -10t12.5 -27q0 -13 -11 -26q-9 -11 -9 -19q0 -19 27 -31.5t58 -12.5q37 0 63.5 20t26.5 55q0 26 -14.5 43.5t-43.5 37.5l-124 85q-47 32 -67.5 59
t-20.5 66q0 81 91 113q-34 28 -49 53.5t-15 55.5q0 59 48 95t127 36q66 0 107.5 -25t41.5 -67q0 -26 -15 -41.5t-37 -15.5q-17 0 -29.5 10t-12.5 27q0 13 11 26q9 11 9 19q0 19 -27 31.5t-58 12.5q-37 0 -63.5 -20t-26.5 -55q0 -26 14.5 -43.5t43.5 -37.5l124 -85
q47 -32 67.5 -59t20.5 -66q0 -81 -91 -113q34 -28 49 -53.5zM295 122q26 11 36.5 25t10.5 35q0 18 -9 32t-34 31l-128 88l-24 17q-26 -11 -36.5 -25t-10.5 -35q0 -18 9 -32t34 -31l128 -88z" />
    <glyph glyph-name="copyright" unicode="&#xa9;" horiz-adv-x="723" 
d="M94 453q41 71 112 112.5t155 41.5t155 -41.5t112.5 -112.5t41.5 -155t-41.5 -155t-112.5 -112t-155 -41q-85 0 -155.5 41t-111.5 111.5t-41 155.5q0 84 41 155zM121 157.5q36 -63.5 99 -100.5t140 -37t140 37t99.5 100.5t36.5 140.5t-36.5 141t-99.5 101t-140 37
t-140 -37t-99 -101t-36 -141t36 -140.5zM239 426q46 45 129 45q23 0 39.5 -3.5t33.5 -10.5q11 -4 23 -7t24 -3q-2 -24 -2 -41q0 -29 2 -31h-19q-7 31 -34.5 53.5t-58.5 22.5q-46 0 -70.5 -38t-24.5 -114q0 -72 25 -109t72 -37q36 0 61 21.5t32 54.5h22l-3 -47q0 -12 2 -26
h-4q-18 0 -51 -11q-42 -14 -72 -14q-80 0 -126 45t-46 123q0 82 46 127z" />
    <glyph glyph-name="registered" unicode="&#xae;" horiz-adv-x="492" 
d="M346 582q46 -25 73 -69.5t27 -99.5q0 -54 -27 -98t-73 -69.5t-100 -25.5q-55 0 -101 25.5t-72.5 69.5t-26.5 98q0 55 26.5 99.5t72.5 69.5t101 25q54 0 100 -25zM158 559.5q-39 -21.5 -61 -59.5t-22 -87q0 -48 22 -86t61 -59.5t87 -21.5t87 21.5t61.5 59.5t22.5 86
q0 49 -22.5 87t-61.5 59.5t-87 21.5t-87 -21.5zM253 514q39 0 58 -11.5t19 -36.5q0 -22 -15 -36t-41 -19q23 0 42 -15t19 -40q0 -28 20 -22v-17h-37q-41 0 -41 31v14q0 19 -11.5 28.5t-27.5 9.5h-10v-58q0 -7 7 -7h17v-18h-101v18h12q6 0 6 7v147q0 7 -8 7h-10v18h102z
M233 496q-5 0 -5 -3v-74h19q12 0 18.5 11t6.5 29q0 37 -30 37h-9z" />
    <glyph glyph-name="trademark" unicode="&#x2122;" horiz-adv-x="758" 
d="M10 597h280v-74h-19q0 28 -14.5 41.5t-46.5 13.5h-15q-6 0 -6 -5v-234q0 -11 10 -11l26 1v-19h-151v19l27 -1q4 0 6.5 3.5t2.5 8.5v232q0 6 -6 6h-14q-33 0 -47.5 -13.5t-14.5 -41.5h-18v74zM740 329v-19h-140v19l25 -1q10 0 10 11v208l-114 -242h-17l-129 258v-224
q0 -11 10 -11l24 1v-19h-85v19l19 -1q10 0 10 11v236q0 3 -5 3l-21 -1v20h114l100 -199l94 199h102v-20l-14 1q-4 0 -7 -3t-3 -7v-229q0 -11 10 -11z" />
    <glyph glyph-name="degree" unicode="&#xb0;" horiz-adv-x="374" 
d="M118 578.5q29 28.5 69 28.5q41 0 69.5 -28.5t28.5 -69.5q0 -40 -28.5 -69t-69.5 -29q-40 0 -69 29t-29 69q0 41 29 69.5zM147.5 469.5q16.5 -16.5 39.5 -16.5t39.5 16.5t16.5 39.5t-16.5 39.5t-39.5 16.5t-39.5 -16.5t-16.5 -39.5t16.5 -39.5z" />
    <glyph glyph-name="bar" unicode="|" horiz-adv-x="232" 
d="M98 -239v969h36v-969h-36z" />
    <glyph glyph-name="brokenbar" unicode="&#xa6;" horiz-adv-x="232" 
d="M97 265v342h38v-342h-38zM97 113h38v-344h-38v344z" />
    <glyph glyph-name="uni2113" unicode="&#x2113;" horiz-adv-x="385" 
d="M264 42.5q21 19.5 37 57.5l21 -10q-22 -50 -50 -73t-72 -23q-61 0 -88.5 30.5t-27.5 98.5l2 77q-30 -16 -75 -34l-10 30q52 21 87 40l6 151q4 102 39 161t109 59q44 0 69 -26t26 -77q0 -67 -34.5 -132t-128.5 -127q-4 -116 -4 -138q0 -47 12 -65.5t40 -18.5q21 0 42 19.5
zM188.5 541q-10.5 -39 -10.5 -95q1 -33 1 -86l-3 -76q63 45 91.5 96t28.5 115q0 43 -14.5 64t-40.5 21q-42 0 -52.5 -39z" />
    <glyph glyph-name="dagger" unicode="&#x2020;" horiz-adv-x="528" 
d="M465.5 443.5q17.5 -14.5 17.5 -35.5q0 -50 -40 -50q-9 0 -14.5 4t-12.5 14q-9 11 -15.5 16t-18.5 5q-11 0 -35 -4q-6 -1 -14 -2t-19 -1q-22 0 -41 9q1 -22 6.5 -35.5t15.5 -30.5q14 -19 14 -34q0 -10 -3 -28q-8 -63 -10 -115q-3 -147 -10 -226.5t-27 -79.5t-27 79.5
t-10 226.5q-2 52 -10 115q-3 18 -3 28q0 9 3.5 17t11.5 21q10 18 15 31t6 31q-19 -9 -41 -9q-11 0 -19 1t-14 2q-24 4 -35 4q-12 0 -18.5 -5t-15.5 -16q-7 -9 -12.5 -13.5t-14.5 -4.5q-40 0 -40 50q0 21 17.5 35.5t42.5 14.5q13 0 22.5 -3.5t24.5 -11.5q24 -12 44.5 -19
t54.5 -8q-12 36 -12 61q0 6 7 39q1 7 3 14.5t2 13.5q0 9 -4 16t-11 14q-7 8 -11 14.5t-4 15.5q0 14 14 25t34 11t34 -11t14 -25q0 -15 -15 -30q-8 -9 -11.5 -15t-3.5 -15q0 -7 6 -33q6 -24 6 -34q0 -25 -12 -61q34 1 54.5 8t41.5 18q15 8 25.5 12t24.5 4q25 0 42.5 -14.5z
" />
    <glyph glyph-name="daggerdbl" unicode="&#x2021;" horiz-adv-x="528" 
d="M483 80q0 -21 -17.5 -35.5t-42.5 -14.5q-14 0 -24.5 4t-24.5 12q-22 12 -42 18.5t-54 7.5q11 -34 11 -61q0 -10 -6 -34q-6 -26 -6 -33q0 -9 3.5 -15t11.5 -15q15 -15 15 -30q0 -14 -14 -25t-34 -11t-34 11t-14 25q0 9 4 15.5t11 14.5q7 7 11 14t4 16q0 6 -2 13.5t-3 14.5
q-7 33 -7 39q0 27 11 61q-33 -1 -53 -7.5t-45 -19.5q-15 -8 -24.5 -11.5t-22.5 -3.5q-25 0 -42.5 14.5t-17.5 35.5q0 50 40 50q9 0 14.5 -4.5t12.5 -13.5q9 -11 15.5 -16t18.5 -5q11 0 35 4q6 1 14 2t19 1q24 0 41 -8q-1 25 -7 39.5t-16 29.5q-5 7 -9 14.5t-4 15.5
q0 13 4 24t14 31q-10 20 -14 31t-4 24q0 8 4 15.5t9 14.5q10 15 16 29.5t7 39.5q-17 -8 -41 -8q-11 0 -19 1t-14 2q-24 4 -35 4q-12 0 -18.5 -5t-15.5 -16q-7 -9 -12.5 -13.5t-14.5 -4.5q-40 0 -40 50q0 21 17.5 35.5t42.5 14.5q13 0 22.5 -3.5t24.5 -11.5q25 -12 45 -19
t53 -8q-11 34 -11 61q0 6 7 39q1 7 3 14.5t2 13.5q0 9 -4 16t-11 14q-7 8 -11 14.5t-4 15.5q0 14 14 25t34 11t34 -11t14 -25q0 -15 -15 -30q-8 -9 -11.5 -15t-3.5 -15q0 -7 6 -33q6 -24 6 -34q0 -27 -11 -61q34 1 54 7.5t42 18.5q14 8 24.5 12t24.5 4q25 0 42.5 -14.5
t17.5 -35.5q0 -50 -40 -50q-9 0 -14.5 4t-12.5 14q-9 11 -15.5 16t-18.5 5q-11 0 -35 -4q-6 -1 -14 -2t-19 -1q-24 0 -41 8q1 -24 6.5 -38.5t16.5 -30.5q13 -17 13 -30q0 -12 -4 -23t-15 -32q11 -21 15 -32t4 -23q0 -13 -13 -30q-11 -16 -16.5 -30.5t-6.5 -38.5q17 8 41 8
q11 0 19 -1t14 -2q24 -4 35 -4q12 0 18.5 5t15.5 16q7 10 12.5 14t14.5 4q40 0 40 -50z" />
    <glyph glyph-name="estimated" unicode="&#x212e;" horiz-adv-x="709" 
d="M576 525q78 -82 78 -226h-496v-211q73 -71 201 -71q82 0 142 30.5t93 87.5l25 -15q-36 -63 -103.5 -97t-156.5 -34q-145 0 -224.5 82t-79.5 228t79 227t221 81q143 0 221 -82zM158 511v-184h393v182q-73 70 -196 70q-124 0 -197 -68z" />
    <glyph glyph-name="asciicircum" unicode="^" 
d="M18 321l201 336h23l200 -336h-47l-145 245l-20 42l-19 -42l-147 -245h-46z" />
    <glyph glyph-name="uni0326" unicode="&#x326;" horiz-adv-x="0" 
d="M-141 -171q15 18 15 31q0 29 -28 29q-13 0 -21.5 10.5t-8.5 23.5q0 17 12.5 30t35.5 13q27 0 43.5 -18.5t16.5 -43.5q0 -38 -24.5 -69.5t-59.5 -47.5l-16 13q20 11 35 29z" />
    <glyph glyph-name="uni02C9" unicode="&#x2c9;" horiz-adv-x="447" 
d="M104 567zM104 567v40h239v-40h-239z" />
    <glyph glyph-name="acute" unicode="&#xb4;" horiz-adv-x="276" 
d="M236.5 618q-4.5 -3 -5.5 -4l-163 -112q-12 -9 -20 -9q-13 0 -13 8q0 4 7.5 12l10.5 11l95 104q15 17 20.5 21t15.5 4q17 0 37 -10t20 -16t-4.5 -9z" />
    <glyph glyph-name="breve" unicode="&#x2d8;" horiz-adv-x="341" 
d="M264 551.5q-35 -33.5 -94 -33.5t-93.5 33.5t-41.5 90.5h38q8 -32 31 -53t66 -21q41 0 65.5 21.5t32.5 52.5h38q-7 -57 -42 -90.5z" />
    <glyph glyph-name="caron" unicode="&#x2c7;" horiz-adv-x="382" 
d="M44 657q9 0 28 -12l119 -74l119 74q19 12 28 12t9 -8q0 -3 -7.5 -10t-17.5 -15q-35 -30 -54 -50l-23 -24l-24 -24q-27 -25 -30 -25t-30 25l-24 24l-23 24q-19 20 -54 50q-10 8 -17.5 15t-7.5 10q0 8 9 8z" />
    <glyph glyph-name="cedilla" unicode="&#xb8;" horiz-adv-x="233" 
d="M42 -174q12 -13 35 -13t39.5 15.5t16.5 38.5q0 21 -34 39l-23 14q-11 8 -11 15t6 13l41 52h33l-27 -43q-6 -11 -6 -19q0 -6 7 -9t23 -7q27 -6 41.5 -15t14.5 -29q0 -43 -24.5 -67.5t-69.5 -24.5q-44 0 -69 16z" />
    <glyph glyph-name="circumflex" unicode="&#x2c6;" horiz-adv-x="382" 
d="M338 493q-9 0 -28 12l-119 74l-119 -74q-19 -12 -28 -12t-9 8q0 3 7.5 10t17.5 15q35 30 54 50l23 24l24 24q27 25 30 25t30 -25l24 -24l23 -24q19 -20 54 -50q10 -8 17.5 -15t7.5 -10q0 -8 -9 -8z" />
    <glyph glyph-name="dieresis" unicode="&#xa8;" horiz-adv-x="373" 
d="M35 547zM50.5 630q15.5 14 38.5 14q22 0 38 -14t16 -35t-15 -34.5t-39 -13.5t-39 13.5t-15 34.5t15.5 35zM245.5 630q15.5 14 38.5 14q22 0 38 -14t16 -35t-15 -34.5t-39 -13.5t-39 13.5t-15 34.5t15.5 35z" />
    <glyph glyph-name="dotaccent" unicode="&#x2d9;" horiz-adv-x="178" 
d="M50.5 630q15.5 14 38.5 14q22 0 38 -14t16 -35t-15 -34.5t-39 -13.5t-39 13.5t-15 34.5t15.5 35z" />
    <glyph glyph-name="grave" unicode="`" horiz-adv-x="276" 
d="M55 643q20 10 37 10q10 0 15.5 -4t20.5 -21l95 -104l10.5 -11t7.5 -12q0 -8 -13 -8q-8 0 -20 9l-163 112q-1 1 -5.5 4t-4.5 9t20 16z" />
    <glyph glyph-name="hungarumlaut" unicode="&#x2dd;" horiz-adv-x="338" 
d="M55 538l39 67t24 39q4 5 6.5 7t6.5 2q5 0 19.5 -4.5t23.5 -8.5t9 -12q0 -4 -6 -12q-10 -11 -118 -117q-6 -6 -15 -6t-9 8q0 3 3 9zM175 538l39 67t24 39q4 5 6.5 7t6.5 2q5 0 19.5 -4.5t23.5 -8.5t9 -12q0 -4 -6 -12q-10 -11 -118 -117q-6 -6 -15 -6t-9 8q0 3 3 9z" />
    <glyph glyph-name="macron" unicode="&#xaf;" horiz-adv-x="447" 
d="M104 567v40h239v-40h-239z" />
    <glyph glyph-name="ogonek" unicode="&#x2db;" horiz-adv-x="242" 
d="M161.5 -143.5q-30.5 -15.5 -62.5 -15.5q-30 0 -52 19t-22 53q0 31 19 57.5t56 43.5h28q-24 -11 -37.5 -31t-13.5 -45q0 -24 14.5 -39t43.5 -15q36 0 70 29l12 -12q-25 -29 -55.5 -44.5z" />
    <glyph glyph-name="ring" unicode="&#x2da;" horiz-adv-x="237" 
d="M59 632.5q24 23.5 59 23.5t59.5 -23.5t24.5 -57.5t-24.5 -58t-59.5 -24q-34 0 -58.5 24t-24.5 58t24 57.5zM88 541.5q11 -12.5 30 -12.5t30.5 12.5t11.5 33.5q0 20 -11.5 32.5t-30.5 12.5t-30 -12.5t-11 -32.5q0 -21 11 -33.5z" />
    <glyph glyph-name="tilde" unicode="&#x2dc;" horiz-adv-x="356" 
d="M53.5 594q18.5 27 45.5 27q24 0 88 -22q61 -21 81 -21q14 0 23.5 12t9.5 30h20q0 -37 -18.5 -64t-45.5 -27q-24 0 -88 22q-59 21 -81 21q-14 0 -23.5 -12t-9.5 -30h-20q0 37 18.5 64z" />
    <glyph glyph-name="caron.alt" horiz-adv-x="320" 
d="M146.5 480.5q11.5 17.5 11.5 30.5q0 19 -18 19q-13 0 -21.5 10.5t-8.5 23.5q0 17 11 30t32 13q24 0 39.5 -18.5t15.5 -43.5q0 -34 -21.5 -63t-52.5 -44l-16 13q17 12 28.5 29.5z" />
    <glyph glyph-name="acute.case" horiz-adv-x="276" 
d="M236.5 791q-4.5 -3 -5.5 -4l-163 -112q-12 -9 -20 -9q-13 0 -13 8q0 4 7.5 12l10.5 11l95 104q15 17 20.5 21t15.5 4q17 0 37 -10t20 -16t-4.5 -9z" />
    <glyph glyph-name="breve.case" horiz-adv-x="341" 
d="M264 699.5q-35 -33.5 -94 -33.5t-93.5 33.5t-41.5 90.5h38q8 -32 31 -53t66 -21q41 0 65.5 21.5t32.5 52.5h38q-7 -57 -42 -90.5z" />
    <glyph glyph-name="caron.case" horiz-adv-x="382" 
d="M44 824q9 0 28 -12l119 -74l119 74q19 12 28 12t9 -8q0 -3 -7.5 -10t-17.5 -15q-35 -30 -54 -50l-23 -24l-24 -24q-27 -25 -30 -25t-30 25l-24 24l-23 24q-19 20 -54 50q-10 8 -17.5 15t-7.5 10q0 8 9 8z" />
    <glyph glyph-name="circumflex.case" horiz-adv-x="382" 
d="M338 666q-9 0 -28 12l-119 74l-119 -74q-19 -12 -28 -12t-9 8q0 3 7.5 10t17.5 15q35 30 54 50l23 24l24 24q27 25 30 25t30 -25l24 -24l23 -24q19 -20 54 -50q10 -8 17.5 -15t7.5 -10q0 -8 -9 -8z" />
    <glyph glyph-name="dieresis.case" horiz-adv-x="373" 
d="M35 696zM50.5 779q15.5 14 38.5 14q22 0 38 -14t16 -35t-15 -34.5t-39 -13.5t-39 13.5t-15 34.5t15.5 35zM245.5 779q15.5 14 38.5 14q22 0 38 -14t16 -35t-15 -34.5t-39 -13.5t-39 13.5t-15 34.5t15.5 35z" />
    <glyph glyph-name="dotaccent.case" horiz-adv-x="178" 
d="M50.5 779q15.5 14 38.5 14q22 0 38 -14t16 -35t-15 -34.5t-39 -13.5t-39 13.5t-15 34.5t15.5 35z" />
    <glyph glyph-name="grave.case" horiz-adv-x="276" 
d="M55 816q20 10 37 10q10 0 15.5 -4t20.5 -21l95 -104l10.5 -11t7.5 -12q0 -8 -13 -8q-8 0 -20 9l-163 112q-1 1 -5.5 4t-4.5 9t20 16z" />
    <glyph glyph-name="hungarumlaut.case" horiz-adv-x="338" 
d="M55 711l39 67t24 39q4 5 6.5 7t6.5 2q5 0 19.5 -4.5t23.5 -8.5t9 -12q0 -4 -6 -12q-10 -11 -118 -117q-6 -6 -15 -6t-9 8q0 3 3 9zM175 711l39 67t24 39q4 5 6.5 7t6.5 2q5 0 19.5 -4.5t23.5 -8.5t9 -12q0 -4 -6 -12q-10 -11 -118 -117q-6 -6 -15 -6t-9 8q0 3 3 9z" />
    <glyph glyph-name="macron.case" horiz-adv-x="309" 
d="M35 706v40h239v-40h-239z" />
    <glyph glyph-name="ring.case" horiz-adv-x="237" 
d="M59 805.5q24 23.5 59 23.5t59.5 -23.5t24.5 -57.5t-24.5 -58t-59.5 -24q-34 0 -58.5 24t-24.5 58t24 57.5zM88 714.5q11 -12.5 30 -12.5t30.5 12.5t11.5 33.5q0 20 -11.5 32.5t-30.5 12.5t-30 -12.5t-11 -32.5q0 -21 11 -33.5z" />
    <glyph glyph-name="tilde.case" horiz-adv-x="356" 
d="M53.5 740q18.5 27 45.5 27q24 0 88 -22q61 -21 81 -21q14 0 23.5 12t9.5 30h20q0 -37 -18.5 -64t-45.5 -27q-24 0 -88 22q-59 21 -81 21q-14 0 -23.5 -12t-9.5 -30h-20q0 37 18.5 64z" />
    <glyph glyph-name="circumflex.narrow" horiz-adv-x="340" 
d="M43 493q-3 0 -5.5 2t-2.5 5q0 2 10.5 14.5l15.5 18.5l94 111q12 15 15 15t15 -15l94 -111l15.5 -18.5t10.5 -14.5q0 -3 -2.5 -5t-5.5 -2q-12 0 -29 13l-98 78l-98 -78q-17 -13 -29 -13z" />
    <glyph glyph-name="uniE000" unicode="&#xe000;" horiz-adv-x="420" 
d="M0 420h420v-420h-420v420z" />
    <glyph glyph-name=".ttfautohint" horiz-adv-x="420" 
d="M0 0z" />
    </font>
</defs>
</svg>
