<?xml version="1.0" standalone="no"?>
<!DOCTYPE svg PUBLIC "-//W3C//DTD SVG 1.1//EN" "http://www.w3.org/Graphics/SVG/1.1/DTD/svg11.dtd" >
<svg>
<metadata>
Created by FontForge 20090622 at Tue Aug 28 07:43:48 2018
 By deploy user
Copyright 2016 The Unna Project Authors (omnibus.type@gmail.com)
</metadata>
<defs>
<font id="Unna-Bold" horiz-adv-x="460" >
  <font-face 
    font-family="Unna"
    font-weight="700"
    font-stretch="normal"
    units-per-em="1000"
    panose-1="2 4 7 3 7 7 5 2 2 3"
    ascent="800"
    descent="-200"
    x-height="425"
    cap-height="597"
    bbox="-195 -269 944 883"
    underline-thickness="50"
    underline-position="-50"
    unicode-range="U+000D-U+FB02"
  />
<missing-glyph horiz-adv-x="488" 
d="M400 730v-975h-309v975h309zM325 665h-161v-32h63v-37h-64v-32h162v32h-65v37h65v32zM260 539h-97v-101h162v33h-65v68zM227 506v-35h-32v35h32zM325 411h-162v-32h64v-36h-64v-32h97v68h65v32zM325 353h-32v-65h-130v-33h162v98zM325 234h-98v-55h33v23h33v-46h-98v78
h-32v-110h162v110zM325 65h-162v-110h162v110zM293 33v-46h-98v46h98zM325 -68h-162v-32h68l-68 -46v-32h162v32h-100l68 46h32v32z" />
    <glyph glyph-name="fi" unicode="fi" horiz-adv-x="573" 
d="M20 0zM20 34l37 -2q13 0 13 19v337h-39v32h39v119q0 80 31 138.5t113 58.5q50 0 83 -24t33 -65q0 -23 -15 -39.5t-44 -16.5q-20 0 -35 10t-15 28q0 8 4 24q3 21 3 23q0 10 -5.5 18t-16.5 8q-35 0 -35 -77q0 -14 3.5 -29.5t8.5 -30.5q8 -26 12.5 -48.5t4.5 -51.5v-45h91
v-32h-90v-337q0 -19 13 -19l70 2v-34h-264v34zM494.5 640q21.5 -17 21.5 -45q0 -29 -21.5 -46t-55.5 -17t-55.5 17t-21.5 46q0 28 21.5 45t55.5 17t55.5 -17zM507 51q0 -20 13 -19l33 2v-34h-223v34l33 -2h2q11 0 11 19v323q0 17 -12 20l-33 -2v33h176v-374z" />
    <glyph glyph-name="fl" unicode="fl" horiz-adv-x="588" 
d="M20 34l37 -2q13 0 13 19v337h-39v32h39v119q0 80 31 138.5t113 58.5q50 0 83 -24t33 -65q0 -23 -15 -39.5t-44 -16.5q-20 0 -35 10t-15 28q0 8 4 24q3 21 3 23q0 10 -5.5 18t-16.5 8q-35 0 -35 -77q0 -14 3.5 -29.5t8.5 -30.5q8 -26 12.5 -48.5t4.5 -51.5v-45h91v-32h-90
v-337q0 -19 13 -19l70 2v-34h-264v34zM330 34l49 -2q13 3 13 19v629q0 17 -12 21l-33 -2v32h176v-680q0 -20 13 -19l32 2v-34h-238v34z" />
    <glyph glyph-name=".notdef" horiz-adv-x="488" 
d="M400 730v-975h-309v975h309zM325 665h-161v-32h63v-37h-64v-32h162v32h-65v37h65v32zM260 539h-97v-101h162v33h-65v68zM227 506v-35h-32v35h32zM325 411h-162v-32h64v-36h-64v-32h97v68h65v32zM325 353h-32v-65h-130v-33h162v98zM325 234h-98v-55h33v23h33v-46h-98v78
h-32v-110h162v110zM325 65h-162v-110h162v110zM293 33v-46h-98v46h98zM325 -68h-162v-32h68l-68 -46v-32h162v32h-100l68 46h32v32z" />
    <glyph glyph-name="NULL" horiz-adv-x="0" 
 />
    <glyph glyph-name="NULL" horiz-adv-x="0" 
 />
    <glyph glyph-name="nonmarkingreturn" unicode="&#xd;" horiz-adv-x="205" 
 />
    <glyph glyph-name="space" unicode=" " horiz-adv-x="205" 
 />
    <glyph glyph-name="A" unicode="A" horiz-adv-x="613" 
d="M633 37v-37h-300v37l46 -2q30 -3 30 24q0 17 -10 39l-37 88h-220l-34 -82q-14 -31 -14 -50q0 -21 22 -20l45 3v-37h-181v37l29 -2h4q20 0 33 19q15 22 30 58l206 495h49l208 -497q14 -36 29 -57q14 -18 35 -18h5zM156 221h192l-97 230z" />
    <glyph glyph-name="Aacute" unicode="&#xc1;" horiz-adv-x="613" 
d="M0 0zM633 37v-37h-300v37l46 -2q30 -3 30 24q0 17 -10 39l-37 88h-220l-34 -82q-14 -31 -14 -50q0 -21 22 -20l45 3v-37h-181v37l29 -2h4q20 0 33 19q15 22 30 58l206 495h49l208 -497q14 -36 29 -57q14 -18 35 -18h5zM156 221h192l-97 230zM445 771l-167 -102
q-13 -9 -24 -9t-11 10t16 27l95 104q15 17 20.5 21t15.5 4q18 0 43 -13.5t25 -23.5q0 -8 -13 -18z" />
    <glyph glyph-name="Abreve" unicode="&#x102;" horiz-adv-x="613" 
d="M0 0zM633 37v-37h-300v37l46 -2q30 -3 30 24q0 17 -10 39l-37 88h-220l-34 -82q-14 -31 -14 -50q0 -21 22 -20l45 3v-37h-181v37l29 -2h4q20 0 33 19q15 22 30 58l206 495h49l208 -497q14 -36 29 -57q14 -18 35 -18h5zM156 221h192l-97 230zM405 695.5
q-37 -36.5 -97 -36.5t-96.5 36.5t-38.5 94.5h46q7 -28 28 -47t61 -19q39 0 61 19t30 47h45q-2 -58 -39 -94.5z" />
    <glyph glyph-name="Acircumflex" unicode="&#xc2;" horiz-adv-x="613" 
d="M0 0zM633 37v-37h-300v37l46 -2q30 -3 30 24q0 17 -10 39l-37 88h-220l-34 -82q-14 -31 -14 -50q0 -21 22 -20l45 3v-37h-181v37l29 -2h4q20 0 33 19q15 22 30 58l206 495h49l208 -497q14 -36 29 -57q14 -18 35 -18h5zM156 221h192l-97 230zM453 666q-14 0 -33 12
l-111 66l-112 -66q-19 -12 -33 -12q-11 0 -11 8q0 4 8 12.5t20 19.5q30 30 48 50l23 24l24 24q17 18 33 18q15 0 33 -18l24 -24l23 -24q18 -20 48 -50q12 -11 20 -19.5t8 -12.5q0 -8 -12 -8z" />
    <glyph glyph-name="Adieresis" unicode="&#xc4;" horiz-adv-x="613" 
d="M0 0zM633 37v-37h-300v37l46 -2q30 -3 30 24q0 17 -10 39l-37 88h-220l-34 -82q-14 -31 -14 -50q0 -21 22 -20l45 3v-37h-181v37l29 -2h4q20 0 33 19q15 22 30 58l206 495h49l208 -497q14 -36 29 -57q14 -18 35 -18h5zM156 221h192l-97 230zM126 681zM147.5 789.5
q21.5 17.5 55.5 17.5q33 0 55 -17.5t22 -45.5q0 -29 -21.5 -46t-55.5 -17t-55.5 17t-21.5 46q0 28 21.5 45.5zM358.5 789.5q21.5 17.5 55.5 17.5q33 0 55 -17.5t22 -45.5q0 -29 -21.5 -46t-55.5 -17t-55.5 17t-21.5 46q0 28 21.5 45.5z" />
    <glyph glyph-name="Agrave" unicode="&#xc0;" horiz-adv-x="613" 
d="M0 0zM633 37v-37h-300v37l46 -2q30 -3 30 24q0 17 -10 39l-37 88h-220l-34 -82q-14 -31 -14 -50q0 -21 22 -20l45 3v-37h-181v37l29 -2h4q20 0 33 19q15 22 30 58l206 495h49l208 -497q14 -36 29 -57q14 -18 35 -18h5zM156 221h192l-97 230zM186 812.5q25 13.5 43 13.5
q10 0 15.5 -4t20.5 -21l95 -104q16 -17 16 -27t-11 -10q-10 0 -24 9l-167 102q-13 10 -13 18q0 10 25 23.5z" />
    <glyph glyph-name="Amacron" unicode="&#x100;" horiz-adv-x="613" 
d="M0 0zM633 37v-37h-300v37l46 -2q30 -3 30 24q0 17 -10 39l-37 88h-220l-34 -82q-14 -31 -14 -50q0 -21 22 -20l45 3v-37h-181v37l29 -2h4q20 0 33 19q15 22 30 58l206 495h49l208 -497q14 -36 29 -57q14 -18 35 -18h5zM156 221h192l-97 230zM189 699v47h239v-47h-239z
" />
    <glyph glyph-name="Aogonek" unicode="&#x104;" horiz-adv-x="613" 
d="M658 -99q-25 -29 -55.5 -44.5t-62.5 -15.5q-33 0 -57 19t-24 53q0 25 12.5 47.5t37.5 39.5h-176v37l46 -2q30 -3 30 24q0 17 -10 39l-37 88h-220l-34 -82q-14 -31 -14 -50q0 -21 22 -20l45 3v-37h-181v37l29 -2h4q20 0 33 19q15 22 30 58l206 495h49l208 -497
q14 -36 29 -57q14 -18 35 -18h5l25 2v-37h-84q-23 -21 -23 -55q0 -20 12.5 -33t37.5 -13q34 0 70 21zM156 221h192l-97 230z" />
    <glyph glyph-name="Aring" unicode="&#xc5;" horiz-adv-x="613" 
d="M0 0zM633 37v-37h-300v37l46 -2q30 -3 30 24q0 17 -10 39l-37 88h-220l-34 -82q-14 -31 -14 -50q0 -21 22 -20l45 3v-37h-181v37l29 -2h4q20 0 33 19q15 22 30 58l206 495h49l208 -497q14 -36 29 -57q14 -18 35 -18h5zM156 221h192l-97 230zM246 807q25 24 62 24
q38 0 63 -23.5t25 -59.5t-25 -59.5t-63 -23.5t-62.5 23.5t-24.5 59.5q0 35 25 59zM281 717q10 -11 27 -11t27.5 11.5t10.5 30.5t-10.5 30t-27.5 11t-27 -11t-10 -30q0 -20 10 -31z" />
    <glyph glyph-name="Atilde" unicode="&#xc3;" horiz-adv-x="613" 
d="M0 0zM633 37v-37h-300v37l46 -2q30 -3 30 24q0 17 -10 39l-37 88h-220l-34 -82q-14 -31 -14 -50q0 -21 22 -20l45 3v-37h-181v37l29 -2h4q20 0 33 19q15 22 30 58l206 495h49l208 -497q14 -36 29 -57q14 -18 35 -18h5zM156 221h192l-97 230zM182 744q16 27 48 27
q17 0 37.5 -5.5t52.5 -15.5q20 -7 40 -12.5t32 -5.5q14 0 23.5 10.5t9.5 27.5h27q0 -45 -16 -72t-48 -27q-28 0 -90 22q-5 2 -30 10t-41 8q-14 0 -23.5 -10.5t-9.5 -28.5h-28q0 45 16 72z" />
    <glyph glyph-name="AE" unicode="&#xc6;" horiz-adv-x="850" 
d="M786 443h-33q0 62 -34.5 90.5t-107.5 28.5h-140l43 -238h61q33 0 54.5 28.5t21.5 73.5h35v-235h-34q0 42 -22 70t-54 28h-56l46 -236q5 -19 21 -19h44q70 0 105.5 35t35.5 102h34v-174q-39 3 -95 3h-369v38l57 -3q12 -1 18 7t4 18l-24 126h-230l-58 -98q-14 -26 -14 -39
q0 -15 20 -14l51 3v-38h-186v38l31 -3q14 -2 26.5 11t33.5 48l270 442q2 3 2 8q0 7 -5 11.5t-12 4.5l-51 -2v39h470q25 0 41 2v-156zM343 473l-154 -252h201z" />
    <glyph glyph-name="B" unicode="B" horiz-adv-x="581" 
d="M479 561q44 -36 44 -107q0 -53 -37.5 -89.5t-100.5 -47.5q47 0 86 -20t62 -55.5t23 -79.5q0 -162 -221 -162h-296v37l48 -2q16 0 16 22v485q0 7 -4.5 13.5t-12.5 6.5l-47 -2v37h311q85 0 129 -36zM253 562q-10 0 -12 -12v-221h52q46 0 68 28.5t22 91.5q0 113 -92 113h-38
zM241 294v-245q0 -13 14 -13h49q51 0 80.5 32t29.5 96q0 68 -24 99t-73 31h-76z" />
    <glyph glyph-name="C" unicode="C" horiz-adv-x="596" 
d="M112.5 525q82.5 82 228.5 82q40 0 66 -6t63 -18q26 -10 45 -14.5t42 -4.5q-4 -31 -4 -75q0 -21 1 -37.5t3 -18.5h-32q-12 59 -61 100.5t-109 41.5q-83 0 -128.5 -72.5t-45.5 -207.5q0 -129 48 -199.5t130 -70.5q63 0 110.5 40.5t60.5 101.5h36q-6 -49 -6 -85q0 -29 3 -47
h-6q-18 0 -37.5 -4.5t-50.5 -14.5q-45 -13 -72.5 -19.5t-60.5 -6.5q-94 0 -163 37t-106 105.5t-37 162.5q0 148 82.5 230z" />
    <glyph glyph-name="Cacute" unicode="&#x106;" horiz-adv-x="596" 
d="M30 0zM112.5 525q82.5 82 228.5 82q40 0 66 -6t63 -18q26 -10 45 -14.5t42 -4.5q-4 -31 -4 -75q0 -21 1 -37.5t3 -18.5h-32q-12 59 -61 100.5t-109 41.5q-83 0 -128.5 -72.5t-45.5 -207.5q0 -129 48 -199.5t130 -70.5q63 0 110.5 40.5t60.5 101.5h36q-6 -49 -6 -85
q0 -29 3 -47h-6q-18 0 -37.5 -4.5t-50.5 -14.5q-45 -13 -72.5 -19.5t-60.5 -6.5q-94 0 -163 37t-106 105.5t-37 162.5q0 148 82.5 230zM463 771l-167 -102q-13 -9 -24 -9t-11 10t16 27l95 104q15 17 20.5 21t15.5 4q18 0 43 -13.5t25 -23.5q0 -8 -13 -18z" />
    <glyph glyph-name="Ccaron" unicode="&#x10c;" horiz-adv-x="596" 
d="M30 0zM112.5 525q82.5 82 228.5 82q40 0 66 -6t63 -18q26 -10 45 -14.5t42 -4.5q-4 -31 -4 -75q0 -21 1 -37.5t3 -18.5h-32q-12 59 -61 100.5t-109 41.5q-83 0 -128.5 -72.5t-45.5 -207.5q0 -129 48 -199.5t130 -70.5q63 0 110.5 40.5t60.5 101.5h36q-6 -49 -6 -85
q0 -29 3 -47h-6q-18 0 -37.5 -4.5t-50.5 -14.5q-45 -13 -72.5 -19.5t-60.5 -6.5q-94 0 -163 37t-106 105.5t-37 162.5q0 148 82.5 230zM183 824q14 0 33 -12l111 -66l112 66q19 12 33 12q11 0 11 -8q0 -4 -8 -12.5t-20 -19.5q-30 -30 -48 -50l-23 -24l-24 -24
q-16 -18 -33 -18q-15 0 -33 18l-24 24l-23 24q-18 20 -48 50q-12 11 -20 19.5t-8 12.5q0 8 12 8z" />
    <glyph glyph-name="Ccedilla" unicode="&#xc7;" horiz-adv-x="596" 
d="M560 82q0 -29 3 -47h-6q-18 0 -37 -4.5t-52 -14.5q-71 -24 -122 -26l-16 -26q-6 -11 -6 -19q0 -7 7.5 -10t25.5 -7q29 -5 46 -15t17 -35q0 -44 -35.5 -68t-80.5 -24q-44 0 -69 16l13 32q12 -13 35 -13q19 0 34.5 14t15.5 32q0 21 -34 39l-23 14q-11 8 -11 15t6 13l34 43
q-128 9 -201.5 90t-73.5 214q0 148 82.5 230t228.5 82q40 0 66 -6t63 -18q26 -10 45 -14.5t42 -4.5q-4 -31 -4 -75q0 -21 1 -37.5t3 -18.5h-32q-12 59 -61 100.5t-109 41.5q-83 0 -128.5 -72.5t-45.5 -207.5q0 -129 48 -199.5t130 -70.5q63 0 110.5 40.5t60.5 101.5h36
q-6 -49 -6 -85z" />
    <glyph glyph-name="D" unicode="D" horiz-adv-x="634" 
d="M39 37l39 -2h1q7 0 10.5 6.5t3.5 15.5v484q0 9 -5 15t-14 6l-35 -2v37h244q167 0 245.5 -69t78.5 -229q0 -148 -76.5 -223.5t-235.5 -75.5h-256v37zM243 36h23q72 0 112.5 22t59 78t18.5 162q0 105 -18.5 162t-59 79.5t-112.5 22.5h-23q-12 0 -12 -13v-500q0 -13 12 -13z
" />
    <glyph glyph-name="Eth" unicode="&#xd0;" horiz-adv-x="636" 
d="M528.5 528q78.5 -69 78.5 -229q0 -148 -76.5 -223.5t-235.5 -75.5h-256v37l39 -2h1q7 0 10.5 6.5t3.5 15.5v229h-58v43h58v212q0 9 -5 15t-14 6l-35 -2v37h244q167 0 245.5 -69zM378.5 58q40.5 22 59 78t18.5 162q0 105 -18.5 162t-59 79.5t-112.5 22.5h-23
q-12 0 -12 -13v-220h145v-43h-145v-237q0 -13 12 -13h23q72 0 112.5 22z" />
    <glyph glyph-name="Dcaron" unicode="&#x10e;" horiz-adv-x="634" 
d="M39 0zM39 37l39 -2h1q7 0 10.5 6.5t3.5 15.5v484q0 9 -5 15t-14 6l-35 -2v37h244q167 0 245.5 -69t78.5 -229q0 -148 -76.5 -223.5t-235.5 -75.5h-256v37zM243 36h23q72 0 112.5 22t59 78t18.5 162q0 105 -18.5 162t-59 79.5t-112.5 22.5h-23q-12 0 -12 -13v-500
q0 -13 12 -13zM159 824q14 0 33 -12l111 -66l112 66q19 12 33 12q11 0 11 -8q0 -4 -8 -12.5t-20 -19.5q-30 -30 -48 -50l-23 -24l-24 -24q-16 -18 -33 -18q-15 0 -33 18l-24 24l-23 24q-18 20 -48 50q-12 11 -20 19.5t-8 12.5q0 8 12 8z" />
    <glyph glyph-name="Dcroat" unicode="&#x110;" horiz-adv-x="636" 
d="M35 0zM528.5 528q78.5 -69 78.5 -229q0 -148 -76.5 -223.5t-235.5 -75.5h-256v37l39 -2h1q7 0 10.5 6.5t3.5 15.5v229h-58v43h58v212q0 9 -5 15t-14 6l-35 -2v37h244q167 0 245.5 -69zM378.5 58q40.5 22 59 78t18.5 162q0 105 -18.5 162t-59 79.5t-112.5 22.5h-23
q-12 0 -12 -13v-220h145v-43h-145v-237q0 -13 12 -13h23q72 0 112.5 22z" />
    <glyph glyph-name="E" unicode="E" horiz-adv-x="571" 
d="M39 38l36 -3q18 0 18 22v484q0 9 -5.5 15.5t-14.5 5.5l-34 -2v37h441q14 0 17 1v-155h-35q0 63 -34 91t-108 28h-77q-12 0 -12 -14v-223h72q34 0 55 27t21 74h34v-235h-34q0 42 -22.5 70.5t-53.5 28.5h-72v-241q0 -13 12 -13h110q68 0 103.5 37t35.5 106h35v-182
q-22 3 -96 3h-392v38z" />
    <glyph glyph-name="Eacute" unicode="&#xc9;" horiz-adv-x="571" 
d="M39 0zM39 38l36 -3q18 0 18 22v484q0 9 -5.5 15.5t-14.5 5.5l-34 -2v37h441q14 0 17 1v-155h-35q0 63 -34 91t-108 28h-77q-12 0 -12 -14v-223h72q34 0 55 27t21 74h34v-235h-34q0 42 -22.5 70.5t-53.5 28.5h-72v-241q0 -13 12 -13h110q68 0 103.5 37t35.5 106h35v-182
q-22 3 -96 3h-392v38zM418 771l-167 -102q-13 -9 -24 -9t-11 10t16 27l95 104q15 17 20.5 21t15.5 4q18 0 43 -13.5t25 -23.5q0 -8 -13 -18z" />
    <glyph glyph-name="Ecaron" unicode="&#x11a;" horiz-adv-x="571" 
d="M39 0zM39 38l36 -3q18 0 18 22v484q0 9 -5.5 15.5t-14.5 5.5l-34 -2v37h441q14 0 17 1v-155h-35q0 63 -34 91t-108 28h-77q-12 0 -12 -14v-223h72q34 0 55 27t21 74h34v-235h-34q0 42 -22.5 70.5t-53.5 28.5h-72v-241q0 -13 12 -13h110q68 0 103.5 37t35.5 106h35v-182
q-22 3 -96 3h-392v38zM138 824q14 0 33 -12l111 -66l112 66q19 12 33 12q11 0 11 -8q0 -4 -8 -12.5t-20 -19.5q-30 -30 -48 -50l-23 -24l-24 -24q-16 -18 -33 -18q-15 0 -33 18l-24 24l-23 24q-18 20 -48 50q-12 11 -20 19.5t-8 12.5q0 8 12 8z" />
    <glyph glyph-name="Ecircumflex" unicode="&#xca;" horiz-adv-x="571" 
d="M39 0zM39 38l36 -3q18 0 18 22v484q0 9 -5.5 15.5t-14.5 5.5l-34 -2v37h441q14 0 17 1v-155h-35q0 63 -34 91t-108 28h-77q-12 0 -12 -14v-223h72q34 0 55 27t21 74h34v-235h-34q0 42 -22.5 70.5t-53.5 28.5h-72v-241q0 -13 12 -13h110q68 0 103.5 37t35.5 106h35v-182
q-22 3 -96 3h-392v38zM426 666q-14 0 -33 12l-111 66l-112 -66q-19 -12 -33 -12q-11 0 -11 8q0 4 8 12.5t20 19.5q30 30 48 50l23 24l24 24q17 18 33 18q15 0 33 -18l24 -24l23 -24q18 -20 48 -50q12 -11 20 -19.5t8 -12.5q0 -8 -12 -8z" />
    <glyph glyph-name="Edieresis" unicode="&#xcb;" horiz-adv-x="571" 
d="M39 0zM39 38l36 -3q18 0 18 22v484q0 9 -5.5 15.5t-14.5 5.5l-34 -2v37h441q14 0 17 1v-155h-35q0 63 -34 91t-108 28h-77q-12 0 -12 -14v-223h72q34 0 55 27t21 74h34v-235h-34q0 42 -22.5 70.5t-53.5 28.5h-72v-241q0 -13 12 -13h110q68 0 103.5 37t35.5 106h35v-182
q-22 3 -96 3h-392v38zM120.5 789.5q21.5 17.5 55.5 17.5q33 0 55 -17.5t22 -45.5q0 -29 -21.5 -46t-55.5 -17t-55.5 17t-21.5 46q0 28 21.5 45.5zM331.5 789.5q21.5 17.5 55.5 17.5q33 0 55 -17.5t22 -45.5q0 -29 -21.5 -46t-55.5 -17t-55.5 17t-21.5 46q0 28 21.5 45.5z
" />
    <glyph glyph-name="Edotaccent" unicode="&#x116;" horiz-adv-x="571" 
d="M39 0zM39 38l36 -3q18 0 18 22v484q0 9 -5.5 15.5t-14.5 5.5l-34 -2v37h441q14 0 17 1v-155h-35q0 63 -34 91t-108 28h-77q-12 0 -12 -14v-223h72q34 0 55 27t21 74h34v-235h-34q0 42 -22.5 70.5t-53.5 28.5h-72v-241q0 -13 12 -13h110q68 0 103.5 37t35.5 106h35v-182
q-22 3 -96 3h-392v38zM226.5 789.5q21.5 17.5 55.5 17.5q33 0 55 -17.5t22 -45.5q0 -29 -21.5 -46t-55.5 -17t-55.5 17t-21.5 46q0 28 21.5 45.5z" />
    <glyph glyph-name="Egrave" unicode="&#xc8;" horiz-adv-x="571" 
d="M39 0zM39 38l36 -3q18 0 18 22v484q0 9 -5.5 15.5t-14.5 5.5l-34 -2v37h441q14 0 17 1v-155h-35q0 63 -34 91t-108 28h-77q-12 0 -12 -14v-223h72q34 0 55 27t21 74h34v-235h-34q0 42 -22.5 70.5t-53.5 28.5h-72v-241q0 -13 12 -13h110q68 0 103.5 37t35.5 106h35v-182
q-22 3 -96 3h-392v38zM159 812.5q25 13.5 43 13.5q10 0 15.5 -4t20.5 -21l95 -104q16 -17 16 -27t-11 -10q-10 0 -24 9l-167 102q-13 10 -13 18q0 10 25 23.5z" />
    <glyph glyph-name="Emacron" unicode="&#x112;" horiz-adv-x="571" 
d="M39 0zM39 38l36 -3q18 0 18 22v484q0 9 -5.5 15.5t-14.5 5.5l-34 -2v37h441q14 0 17 1v-155h-35q0 63 -34 91t-108 28h-77q-12 0 -12 -14v-223h72q34 0 55 27t21 74h34v-235h-34q0 42 -22.5 70.5t-53.5 28.5h-72v-241q0 -13 12 -13h110q68 0 103.5 37t35.5 106h35v-182
q-22 3 -96 3h-392v38zM162 699v47h239v-47h-239z" />
    <glyph glyph-name="Eogonek" unicode="&#x118;" horiz-adv-x="571" 
d="M556 -99q-25 -29 -55.5 -44.5t-62.5 -15.5q-33 0 -57 19t-24 53q0 25 12.5 47.5t37.5 39.5h-368v38l36 -3q18 0 18 22v484q0 9 -5.5 15.5t-14.5 5.5l-34 -2v37h441q14 0 17 1v-155h-35q0 63 -34 91t-108 28h-77q-12 0 -12 -14v-223h72q34 0 55 27t21 74h34v-235h-34
q0 42 -22.5 70.5t-53.5 28.5h-72v-241q0 -13 12 -13h110q68 0 103.5 37t35.5 106h35v-182q-19 3 -80 3q-23 -21 -23 -55q0 -20 12.5 -33t37.5 -13q34 0 70 21z" />
    <glyph glyph-name="F" unicode="F" horiz-adv-x="529" 
d="M39 38l36 -3q18 0 18 22v484q0 21 -17 21h-2l-35 -2v37h453q12 0 15 1v-155h-35q1 62 -33 90.5t-109 28.5h-87q-12 0 -12 -13v-234h68q36 0 57.5 27.5t21.5 74.5h34v-237h-34q0 45 -22 72.5t-57 27.5h-68v-224q0 -9 5.5 -15t13.5 -6l52 3v-38h-263v38z" />
    <glyph glyph-name="G" unicode="G" horiz-adv-x="650" 
d="M111.5 528q81.5 79 231.5 79q43 0 77 -7.5t79 -20.5q19 -6 36 -10.5t29 -4.5q-4 -26 -4 -60q0 -18 4 -78h-50q1 7 1 18q-2 62 -43.5 96.5t-117.5 34.5q-83 0 -128 -73.5t-45 -213.5q0 -263 163 -263q31 0 54 9.5t44 33.5v148q0 22 -19 22l-59 -2v36h267v-36l-32 2
q-9 0 -14 -6t-5 -15v-182q-10 2 -19 2q-14 0 -28 -4t-36 -12q-40 -14 -76.5 -22.5t-85.5 -8.5q-143 0 -224 78t-81 229q0 152 81.5 231z" />
    <glyph glyph-name="Gbreve" unicode="&#x11e;" horiz-adv-x="650" 
d="M30 0zM111.5 528q81.5 79 231.5 79q43 0 77 -7.5t79 -20.5q19 -6 36 -10.5t29 -4.5q-4 -26 -4 -60q0 -18 4 -78h-50q1 7 1 18q-2 62 -43.5 96.5t-117.5 34.5q-83 0 -128 -73.5t-45 -213.5q0 -263 163 -263q31 0 54 9.5t44 33.5v148q0 22 -19 22l-59 -2v36h267v-36l-32 2
q-9 0 -14 -6t-5 -15v-182q-10 2 -19 2q-14 0 -28 -4t-36 -12q-40 -14 -76.5 -22.5t-85.5 -8.5q-143 0 -224 78t-81 229q0 152 81.5 231zM427 695.5q-37 -36.5 -97 -36.5t-96.5 36.5t-38.5 94.5h46q7 -28 28 -47t61 -19q39 0 61 19t30 47h45q-2 -58 -39 -94.5z" />
    <glyph glyph-name="Gcommaaccent" unicode="&#x122;" horiz-adv-x="650" 
d="M30 0zM111.5 528q81.5 79 231.5 79q43 0 77 -7.5t79 -20.5q19 -6 36 -10.5t29 -4.5q-4 -26 -4 -60q0 -18 4 -78h-50q1 7 1 18q-2 62 -43.5 96.5t-117.5 34.5q-83 0 -128 -73.5t-45 -213.5q0 -263 163 -263q31 0 54 9.5t44 33.5v148q0 22 -19 22l-59 -2v36h267v-36l-32 2
q-9 0 -14 -6t-5 -15v-182q-10 2 -19 2q-14 0 -28 -4t-36 -12q-40 -14 -76.5 -22.5t-85.5 -8.5q-143 0 -224 78t-81 229q0 152 81.5 231zM327.5 -200q14.5 17 14.5 30q0 29 -28 29q-19 0 -30 14.5t-11 34.5q0 23 16 40.5t47 17.5q35 0 57 -23t22 -54q0 -45 -29 -82t-70 -58
l-22 22q19 12 33.5 29z" />
    <glyph glyph-name="H" unicode="H" horiz-adv-x="696" 
d="M39 37l35 -2h2q17 0 17 22v484q0 22 -19 21l-35 -2v37h261v-37l-49 2h-2q-9 0 -13.5 -6t-4.5 -15v-219h234v219q0 22 -19 21l-49 -2v37h260v-37l-35 2h-2q-8 0 -12.5 -6t-4.5 -15v-484q0 -23 19 -22l35 2v-37h-260v37l49 -2q19 0 19 22v230h-234v-230q0 -22 20 -22l49 2
v-37h-261v37z" />
    <glyph glyph-name="I" unicode="I" horiz-adv-x="325" 
d="M39 37l35 -2h2q17 0 17 22v484q0 9 -5 15.5t-14 5.5l-35 -2v37h247v-37l-35 2h-2q-8 0 -13 -6t-5 -15v-484q0 -24 20 -22l35 2v-37h-247v37z" />
    <glyph glyph-name="IJ" unicode="&#x132;" horiz-adv-x="784" 
d="M39 0zM39 37l35 -2h2q17 0 17 22v484q0 9 -5 15.5t-14 5.5l-35 -2v37h247v-37l-35 2h-2q-8 0 -13 -6t-5 -15v-484q0 -24 20 -22l35 2v-37h-247v37zM349 172h44q0 -55 20 -101.5t65 -46.5q43 0 61.5 35t18.5 120v362q0 9 -5.5 15.5t-13.5 5.5l-69 -2v37h280v-37l-34 2h-2
q-8 0 -13 -6t-5 -14v-363q0 -189 -195 -189q-28 0 -78 9q-30 6 -39 6h-8q-21 0 -27 -6v173z" />
    <glyph glyph-name="Iacute" unicode="&#xcd;" horiz-adv-x="325" 
d="M39 0zM39 37l35 -2h2q17 0 17 22v484q0 9 -5 15.5t-14 5.5l-35 -2v37h247v-37l-35 2h-2q-8 0 -13 -6t-5 -15v-484q0 -24 20 -22l35 2v-37h-247v37zM299 771l-167 -102q-13 -9 -24 -9t-11 10t16 27l95 104q15 17 20.5 21t15.5 4q18 0 43 -13.5t25 -23.5q0 -8 -13 -18z" />
    <glyph glyph-name="Icircumflex" unicode="&#xce;" horiz-adv-x="325" 
d="M7 0zM39 37l35 -2h2q17 0 17 22v484q0 9 -5 15.5t-14 5.5l-35 -2v37h247v-37l-35 2h-2q-8 0 -13 -6t-5 -15v-484q0 -24 20 -22l35 2v-37h-247v37zM307 666q-14 0 -33 12l-111 66l-112 -66q-19 -12 -33 -12q-11 0 -11 8q0 4 8 12.5t20 19.5q30 30 48 50l23 24l24 24
q17 18 33 18q15 0 33 -18l24 -24l23 -24q18 -20 48 -50q12 -11 20 -19.5t8 -12.5q0 -8 -12 -8z" />
    <glyph glyph-name="Idieresis" unicode="&#xcf;" horiz-adv-x="325" 
d="M0 0zM39 37l35 -2h2q17 0 17 22v484q0 9 -5 15.5t-14 5.5l-35 -2v37h247v-37l-35 2h-2q-8 0 -13 -6t-5 -15v-484q0 -24 20 -22l35 2v-37h-247v37zM1.5 789.5q21.5 17.5 55.5 17.5q33 0 55 -17.5t22 -45.5q0 -29 -21.5 -46t-55.5 -17t-55.5 17t-21.5 46q0 28 21.5 45.5z
M212.5 789.5q21.5 17.5 55.5 17.5q33 0 55 -17.5t22 -45.5q0 -29 -21.5 -46t-55.5 -17t-55.5 17t-21.5 46q0 28 21.5 45.5z" />
    <glyph glyph-name="Idotaccent" unicode="&#x130;" horiz-adv-x="325" 
d="M39 0zM39 37l35 -2h2q17 0 17 22v484q0 9 -5 15.5t-14 5.5l-35 -2v37h247v-37l-35 2h-2q-8 0 -13 -6t-5 -15v-484q0 -24 20 -22l35 2v-37h-247v37zM107.5 789.5q21.5 17.5 55.5 17.5q33 0 55 -17.5t22 -45.5q0 -29 -21.5 -46t-55.5 -17t-55.5 17t-21.5 46q0 28 21.5 45.5
z" />
    <glyph glyph-name="Igrave" unicode="&#xcc;" horiz-adv-x="325" 
d="M15 0zM39 37l35 -2h2q17 0 17 22v484q0 9 -5 15.5t-14 5.5l-35 -2v37h247v-37l-35 2h-2q-8 0 -13 -6t-5 -15v-484q0 -24 20 -22l35 2v-37h-247v37zM40 812.5q25 13.5 43 13.5q10 0 15.5 -4t20.5 -21l95 -104q16 -17 16 -27t-11 -10q-10 0 -24 9l-167 102q-13 10 -13 18
q0 10 25 23.5z" />
    <glyph glyph-name="Imacron" unicode="&#x12a;" horiz-adv-x="325" 
d="M39 0zM39 37l35 -2h2q17 0 17 22v484q0 9 -5 15.5t-14 5.5l-35 -2v37h247v-37l-35 2h-2q-8 0 -13 -6t-5 -15v-484q0 -24 20 -22l35 2v-37h-247v37zM43 699v47h239v-47h-239z" />
    <glyph glyph-name="Iogonek" unicode="&#x12e;" horiz-adv-x="325" 
d="M338 -102q-25 -29 -55.5 -44.5t-62.5 -15.5q-33 0 -57 19t-24 53q0 26 14 49.5t41 40.5h-155v37l35 -2h2q17 0 17 22v484q0 9 -5 15.5t-14 5.5l-35 -2v37h247v-37l-35 2h-2q-8 0 -13 -6t-5 -15v-484q0 -24 20 -22l35 2v-37h-54q-26 -21 -26 -58q0 -20 12.5 -33t37.5 -13
q34 0 70 21z" />
    <glyph glyph-name="J" unicode="J" horiz-adv-x="459" 
d="M24 172h44q0 -55 20 -101.5t65 -46.5q43 0 61.5 35t18.5 120v362q0 9 -5.5 15.5t-13.5 5.5l-69 -2v37h280v-37l-34 2h-2q-8 0 -13 -6t-5 -14v-363q0 -189 -195 -189q-28 0 -78 9q-30 6 -39 6h-8q-21 0 -27 -6v173z" />
    <glyph glyph-name="K" unicode="K" horiz-adv-x="639" 
d="M633 37v-37h-285v37l43 -3h3q17 0 17 11q0 7 -5 14l-139 207l-36 -42v-167q0 -24 20 -22l45 2v-37h-257v37l35 -2h2q17 0 17 22v484q0 10 -5 16t-14 5l-35 -2v37h261v-37l-49 2q-20 0 -20 -22v-262l209 248q17 20 17 27q0 9 -10 9l-36 -2v37h180v-37l-34 2q-16 1 -29 -5
t-29 -24l-139 -161l219 -324q9 -14 24 -14q17 0 30 3z" />
    <glyph glyph-name="Kcommaaccent" unicode="&#x136;" horiz-adv-x="639" 
d="M39 0zM633 37v-37h-285v37l43 -3h3q17 0 17 11q0 7 -5 14l-139 207l-36 -42v-167q0 -24 20 -22l45 2v-37h-257v37l35 -2h2q17 0 17 22v484q0 10 -5 16t-14 5l-35 -2v37h261v-37l-49 2q-20 0 -20 -22v-262l209 248q17 20 17 27q0 9 -10 9l-36 -2v37h180v-37l-34 2
q-16 1 -29 -5t-29 -24l-139 -161l219 -324q9 -14 24 -14q17 0 30 3zM319.5 -200q14.5 17 14.5 30q0 29 -28 29q-19 0 -30 14.5t-11 34.5q0 23 16 40.5t47 17.5q35 0 57 -23t22 -54q0 -45 -29 -82t-70 -58l-22 22q19 12 33.5 29z" />
    <glyph glyph-name="L" unicode="L" horiz-adv-x="514" 
d="M39 38l39 -3q15 0 15 22v484q0 9 -5.5 15.5t-13.5 5.5l-35 -2v37h261v-37l-49 2h-2q-8 0 -13 -6t-5 -15v-492q0 -13 12 -13h83q65 0 99 34.5t34 100.5h33v-174q-18 3 -124 3h-329v38z" />
    <glyph glyph-name="Lacute" unicode="&#x139;" horiz-adv-x="514" 
d="M39 0zM39 38l39 -3q15 0 15 22v484q0 9 -5.5 15.5t-13.5 5.5l-35 -2v37h261v-37l-49 2h-2q-8 0 -13 -6t-5 -15v-492q0 -13 12 -13h83q65 0 99 34.5t34 100.5h33v-174q-18 3 -124 3h-329v38zM313 771l-167 -102q-13 -9 -24 -9t-11 10t16 27l95 104q15 17 20.5 21t15.5 4
q18 0 43 -13.5t25 -23.5q0 -8 -13 -18z" />
    <glyph glyph-name="Lcaron" unicode="&#x13d;" horiz-adv-x="514" 
d="M39 0zM39 38l39 -3q15 0 15 22v484q0 9 -5.5 15.5t-13.5 5.5l-35 -2v37h261v-37l-49 2h-2q-8 0 -13 -6t-5 -15v-492q0 -13 12 -13h83q65 0 99 34.5t34 100.5h33v-174q-18 3 -124 3h-329v38zM426 477q11 14 11 28q0 21 -21 21q-17 0 -27.5 11.5t-10.5 30.5q0 25 17.5 40
t44.5 15q30 0 50 -19.5t20 -50.5q0 -38 -26.5 -71.5t-62.5 -50.5l-21 22q15 10 26 24z" />
    <glyph glyph-name="Lcommaaccent" unicode="&#x13b;" horiz-adv-x="514" 
d="M39 0zM39 38l39 -3q15 0 15 22v484q0 9 -5.5 15.5t-13.5 5.5l-35 -2v37h261v-37l-49 2h-2q-8 0 -13 -6t-5 -15v-492q0 -13 12 -13h83q65 0 99 34.5t34 100.5h33v-174q-18 3 -124 3h-329v38zM253.5 -200q14.5 17 14.5 30q0 29 -28 29q-19 0 -30 14.5t-11 34.5
q0 23 16 40.5t47 17.5q35 0 57 -23t22 -54q0 -45 -29 -82t-70 -58l-22 22q19 12 33.5 29z" />
    <glyph glyph-name="Ldot" unicode="&#x13f;" horiz-adv-x="514" 
d="M39 0zM39 38l39 -3q15 0 15 22v484q0 9 -5.5 15.5t-13.5 5.5l-35 -2v37h261v-37l-49 2h-2q-8 0 -13 -6t-5 -15v-492q0 -13 12 -13h83q65 0 99 34.5t34 100.5h33v-174q-18 3 -124 3h-329v38zM351 398.5q26 20.5 66 20.5q41 0 67 -20.5t26 -54.5q0 -35 -26 -55t-67 -20
t-66.5 20t-25.5 55q0 34 26 54.5z" />
    <glyph glyph-name="Lslash" unicode="&#x141;" horiz-adv-x="514" 
d="M492 171v-174q-18 3 -124 3h-329v38l39 -3q15 0 15 22v147l-43 -36v52l43 36v285q0 9 -5.5 15.5t-13.5 5.5l-35 -2v37h261v-37l-49 2h-2q-8 0 -13 -6t-5 -15v-176l106 89v-55l-106 -87v-263q0 -13 12 -13h83q65 0 99 34.5t34 100.5h33z" />
    <glyph glyph-name="M" unicode="M" horiz-adv-x="884" 
d="M846 37v-37h-262v37l49 -2q20 0 20 22v444l-230 -511h-32l-257 537v-470q0 -22 19 -22l49 2v-37h-168v37l39 -2q20 0 20 22v499q0 7 -10 6l-42 -2v37h206l210 -436l197 436h187v-37l-31 2h-2q-8 0 -13 -6t-5 -14v-485q0 -24 20 -22z" />
    <glyph glyph-name="N" unicode="N" horiz-adv-x="677" 
d="M643 597v-30l-39 2h-2q-17 0 -17 -21v-554h-60l-391 531v-476q0 -22 19 -22l49 2v-29h-168v29l39 -2q20 0 20 22v499q0 9 -5.5 15.5t-14.5 5.5l-39 -2v30h206l304 -414v366q0 20 -17 20h-3l-49 -2v30h168z" />
    <glyph glyph-name="Nacute" unicode="&#x143;" horiz-adv-x="677" 
d="M34 0zM643 597v-30l-39 2h-2q-17 0 -17 -21v-554h-60l-391 531v-476q0 -22 19 -22l49 2v-29h-168v29l39 -2q20 0 20 22v499q0 9 -5.5 15.5t-14.5 5.5l-39 -2v30h206l304 -414v366q0 20 -17 20h-3l-49 -2v30h168zM478 771l-167 -102q-13 -9 -24 -9t-11 10t16 27l95 104
q15 17 20.5 21t15.5 4q18 0 43 -13.5t25 -23.5q0 -8 -13 -18z" />
    <glyph glyph-name="Ncaron" unicode="&#x147;" horiz-adv-x="677" 
d="M34 0zM643 597v-30l-39 2h-2q-17 0 -17 -21v-554h-60l-391 531v-476q0 -22 19 -22l49 2v-29h-168v29l39 -2q20 0 20 22v499q0 9 -5.5 15.5t-14.5 5.5l-39 -2v30h206l304 -414v366q0 20 -17 20h-3l-49 -2v30h168zM198 824q14 0 33 -12l111 -66l112 66q19 12 33 12
q11 0 11 -8q0 -4 -8 -12.5t-20 -19.5q-30 -30 -48 -50l-23 -24l-24 -24q-16 -18 -33 -18q-15 0 -33 18l-24 24l-23 24q-18 20 -48 50q-12 11 -20 19.5t-8 12.5q0 8 12 8z" />
    <glyph glyph-name="Ncommaaccent" unicode="&#x145;" horiz-adv-x="677" 
d="M34 0zM643 597v-30l-39 2h-2q-17 0 -17 -21v-554h-60l-391 531v-476q0 -22 19 -22l49 2v-29h-168v29l39 -2q20 0 20 22v499q0 9 -5.5 15.5t-14.5 5.5l-39 -2v30h206l304 -414v366q0 20 -17 20h-3l-49 -2v30h168zM338.5 -200q14.5 17 14.5 30q0 29 -28 29q-19 0 -30 14.5
t-11 34.5q0 23 16 40.5t47 17.5q35 0 57 -23t22 -54q0 -45 -29 -82t-70 -58l-22 22q19 12 33.5 29z" />
    <glyph glyph-name="Ntilde" unicode="&#xd1;" horiz-adv-x="677" 
d="M34 0zM643 597v-30l-39 2h-2q-17 0 -17 -21v-554h-60l-391 531v-476q0 -22 19 -22l49 2v-29h-168v29l39 -2q20 0 20 22v499q0 9 -5.5 15.5t-14.5 5.5l-39 -2v30h206l304 -414v366q0 20 -17 20h-3l-49 -2v30h168zM215 744q16 27 48 27q17 0 37.5 -5.5t52.5 -15.5
q20 -7 40 -12.5t32 -5.5q14 0 23.5 10.5t9.5 27.5h27q0 -45 -16 -72t-48 -27q-28 0 -90 22q-5 2 -30 10t-41 8q-14 0 -23.5 -10.5t-9.5 -28.5h-28q0 45 16 72z" />
    <glyph glyph-name="O" unicode="O" horiz-adv-x="678" 
d="M111 527.5q81 79.5 228 79.5q149 0 229 -81t80 -227q0 -147 -81 -228t-228 -81t-228 81t-81 228q0 149 81 228.5zM198 134.5q17 -59.5 51 -84.5t90 -25t90 25t51 84.5t17 164.5q0 104 -17 164t-51 85t-90 25t-90 -25t-51 -85t-17 -164q0 -105 17 -164.5z" />
    <glyph glyph-name="Oacute" unicode="&#xd3;" horiz-adv-x="678" 
d="M30 0zM111 527.5q81 79.5 228 79.5q149 0 229 -81t80 -227q0 -147 -81 -228t-228 -81t-228 81t-81 228q0 149 81 228.5zM198 134.5q17 -59.5 51 -84.5t90 -25t90 25t51 84.5t17 164.5q0 104 -17 164t-51 85t-90 25t-90 -25t-51 -85t-17 -164q0 -105 17 -164.5zM475 771
l-167 -102q-13 -9 -24 -9t-11 10t16 27l95 104q15 17 20.5 21t15.5 4q18 0 43 -13.5t25 -23.5q0 -8 -13 -18z" />
    <glyph glyph-name="Ocircumflex" unicode="&#xd4;" horiz-adv-x="678" 
d="M30 0zM111 527.5q81 79.5 228 79.5q149 0 229 -81t80 -227q0 -147 -81 -228t-228 -81t-228 81t-81 228q0 149 81 228.5zM198 134.5q17 -59.5 51 -84.5t90 -25t90 25t51 84.5t17 164.5q0 104 -17 164t-51 85t-90 25t-90 -25t-51 -85t-17 -164q0 -105 17 -164.5zM483 666
q-14 0 -33 12l-111 66l-112 -66q-19 -12 -33 -12q-11 0 -11 8q0 4 8 12.5t20 19.5q30 30 48 50l23 24l24 24q17 18 33 18q15 0 33 -18l24 -24l23 -24q18 -20 48 -50q12 -11 20 -19.5t8 -12.5q0 -8 -12 -8z" />
    <glyph glyph-name="Odieresis" unicode="&#xd6;" horiz-adv-x="678" 
d="M30 0zM111 527.5q81 79.5 228 79.5q149 0 229 -81t80 -227q0 -147 -81 -228t-228 -81t-228 81t-81 228q0 149 81 228.5zM198 134.5q17 -59.5 51 -84.5t90 -25t90 25t51 84.5t17 164.5q0 104 -17 164t-51 85t-90 25t-90 -25t-51 -85t-17 -164q0 -105 17 -164.5z
M177.5 789.5q21.5 17.5 55.5 17.5q33 0 55 -17.5t22 -45.5q0 -29 -21.5 -46t-55.5 -17t-55.5 17t-21.5 46q0 28 21.5 45.5zM388.5 789.5q21.5 17.5 55.5 17.5q33 0 55 -17.5t22 -45.5q0 -29 -21.5 -46t-55.5 -17t-55.5 17t-21.5 46q0 28 21.5 45.5z" />
    <glyph glyph-name="Ograve" unicode="&#xd2;" horiz-adv-x="678" 
d="M30 0zM111 527.5q81 79.5 228 79.5q149 0 229 -81t80 -227q0 -147 -81 -228t-228 -81t-228 81t-81 228q0 149 81 228.5zM198 134.5q17 -59.5 51 -84.5t90 -25t90 25t51 84.5t17 164.5q0 104 -17 164t-51 85t-90 25t-90 -25t-51 -85t-17 -164q0 -105 17 -164.5zM216 812.5
q25 13.5 43 13.5q10 0 15.5 -4t20.5 -21l95 -104q16 -17 16 -27t-11 -10q-10 0 -24 9l-167 102q-13 10 -13 18q0 10 25 23.5z" />
    <glyph glyph-name="Ohungarumlaut" unicode="&#x150;" horiz-adv-x="678" 
d="M30 0zM111 527.5q81 79.5 228 79.5q149 0 229 -81t80 -227q0 -147 -81 -228t-228 -81t-228 81t-81 228q0 149 81 228.5zM198 134.5q17 -59.5 51 -84.5t90 -25t90 25t51 84.5t17 164.5q0 104 -17 164t-51 85t-90 25t-90 -25t-51 -85t-17 -164q0 -105 17 -164.5zM243 726
q48 87 51 91q4 5 6.5 7t6.5 2q7 0 26.5 -6l31.5 -10q9 -4 9 -12q0 -4 -6 -12q-8 -9 -115 -109q-13 -12 -24 -12q-5 0 -8 3t-3 6q0 5 3 11zM386 754q34 62 35 63q4 5 6.5 7t6.5 2q7 0 27 -6t32 -10q9 -4 9 -12q0 -4 -6 -12l-116 -109q-13 -12 -24 -12q-5 0 -7.5 3t-2.5 6
q0 5 3 11z" />
    <glyph glyph-name="Omacron" unicode="&#x14c;" horiz-adv-x="678" 
d="M30 0zM111 527.5q81 79.5 228 79.5q149 0 229 -81t80 -227q0 -147 -81 -228t-228 -81t-228 81t-81 228q0 149 81 228.5zM198 134.5q17 -59.5 51 -84.5t90 -25t90 25t51 84.5t17 164.5q0 104 -17 164t-51 85t-90 25t-90 -25t-51 -85t-17 -164q0 -105 17 -164.5zM219 699
v47h239v-47h-239z" />
    <glyph glyph-name="Oslash" unicode="&#xd8;" horiz-adv-x="676" 
d="M615 459.5q33 -67.5 33 -160.5q0 -147 -81 -228t-228 -81q-81 0 -144 26l-65 -111l-45 24l65 110q-59 38 -89.5 104t-30.5 156q0 149 81 228.5t228 79.5q75 0 132 -21l60 103l45 -27l-57 -98q63 -37 96 -104.5zM201 126l241 411q-36 36 -103 36q-56 0 -90 -25t-51 -85
t-17 -164q0 -114 20 -173zM429 50q34 25 51 84.5t17 164.5q0 125 -25 187l-244 -415q36 -46 111 -46q56 0 90 25z" />
    <glyph glyph-name="Otilde" unicode="&#xd5;" horiz-adv-x="678" 
d="M30 0zM111 527.5q81 79.5 228 79.5q149 0 229 -81t80 -227q0 -147 -81 -228t-228 -81t-228 81t-81 228q0 149 81 228.5zM198 134.5q17 -59.5 51 -84.5t90 -25t90 25t51 84.5t17 164.5q0 104 -17 164t-51 85t-90 25t-90 -25t-51 -85t-17 -164q0 -105 17 -164.5zM212 744
q16 27 48 27q17 0 37.5 -5.5t52.5 -15.5q20 -7 40 -12.5t32 -5.5q14 0 23.5 10.5t9.5 27.5h27q0 -45 -16 -72t-48 -27q-28 0 -90 22q-5 2 -30 10t-41 8q-14 0 -23.5 -10.5t-9.5 -28.5h-28q0 45 16 72z" />
    <glyph glyph-name="OE" unicode="&#x152;" horiz-adv-x="905" 
d="M107.5 524.5q77.5 82.5 234.5 82.5q21 0 41.5 -2t27.5 -3q32 -5 60 -5h363v-154h-34q0 64 -33.5 91.5t-108.5 27.5h-73q-13 0 -13 -14v-223h66q34 0 55.5 27t21.5 74h34v-235h-34q0 42 -23 70.5t-54 28.5h-66v-242q0 -13 13 -13h102q69 0 104.5 37t35.5 107h34v-182
q-25 3 -95 3h-287q-60 0 -99 -5t-41 -5q-147 0 -228 80.5t-81 221.5q0 150 77.5 232.5zM195.5 137q15.5 -59 49.5 -85t90 -26q55 0 77 18.5t22 45.5v436q0 20 -29 34t-70 14q-56 0 -89.5 -27.5t-49.5 -88.5t-16 -162q0 -100 15.5 -159z" />
    <glyph glyph-name="P" unicode="P" horiz-adv-x="547" 
d="M39 37l35 -2h2q17 0 17 22v483q0 12 -5 17.5t-18 4.5l-31 -2v37h263q113 0 167 -41.5t54 -126.5q0 -82 -52.5 -131.5t-141.5 -49.5h-98v-191q0 -22 20 -22l49 2v-37h-261v37zM286 284q40 0 66.5 41t26.5 104q0 59 -26.5 96t-69.5 37h-40q-4 0 -8 -3.5t-4 -8.5v-266h55z
" />
    <glyph glyph-name="Thorn" unicode="&#xde;" horiz-adv-x="543" 
d="M39 29l35 -2h2q9 0 13 6t4 16v499q0 9 -5 15.5t-14 5.5l-35 -2v30h261v-30l-49 2q-9 0 -14.5 -6t-5.5 -15v-52h75q112 0 162.5 -37t50.5 -125q0 -83 -50.5 -127.5t-141.5 -44.5h-96v-113q0 -23 20 -22l49 2v-29h-261v29zM235 192q4 -4 9 -4h47q36 0 61.5 40.5t25.5 105.5
q0 66 -27 101.5t-76 35.5h-44v-270q0 -5 4 -9z" />
    <glyph glyph-name="Q" unicode="Q" horiz-adv-x="669" 
d="M585.5 91.5q-62.5 -78.5 -177.5 -96.5q-2 -68 37.5 -111.5t105.5 -43.5l-10 -36q-84 0 -148 24.5t-98 68.5t-33 100q-111 20 -171.5 98t-60.5 204q0 149 81 228.5t228 79.5q149 0 229 -81t80 -227q0 -129 -62.5 -207.5zM198 134.5q17 -59.5 51 -84.5t90 -25t90 25
t51 84.5t17 164.5q0 104 -17 164t-51 85t-90 25t-90 -25t-51 -85t-17 -164q0 -105 17 -164.5z" />
    <glyph glyph-name="R" unicode="R" horiz-adv-x="597" 
d="M39 37l35 -2h2q17 0 17 22v484q0 9 -5.5 15.5t-16.5 5.5l-32 -2v37h259q108 0 159.5 -36.5t51.5 -113.5q0 -61 -38.5 -102t-106.5 -55q36 0 73 -20t61.5 -58.5t24.5 -89.5q0 -28 8.5 -59.5t20.5 -34.5q6 -2 13 -2q9 0 16 4v-30h-177q-12 25 -14 66q-2 26 -2 38v33
q0 68 -38 101t-92 33h-27v-214q0 -22 20 -22l49 2v-37h-261v37zM294 306q36 0 57.5 34.5t21.5 93.5q0 67 -24 97.5t-74 30.5h-32q-12 0 -12 -10v-246h63z" />
    <glyph glyph-name="Racute" unicode="&#x154;" horiz-adv-x="597" 
d="M39 0zM39 37l35 -2h2q17 0 17 22v484q0 9 -5.5 15.5t-16.5 5.5l-32 -2v37h259q108 0 159.5 -36.5t51.5 -113.5q0 -61 -38.5 -102t-106.5 -55q36 0 73 -20t61.5 -58.5t24.5 -89.5q0 -28 8.5 -59.5t20.5 -34.5q6 -2 13 -2q9 0 16 4v-30h-177q-12 25 -14 66q-2 26 -2 38v33
q0 68 -38 101t-92 33h-27v-214q0 -22 20 -22l49 2v-37h-261v37zM294 306q36 0 57.5 34.5t21.5 93.5q0 67 -24 97.5t-74 30.5h-32q-12 0 -12 -10v-246h63zM427 771l-167 -102q-13 -9 -24 -9t-11 10t16 27l95 104q15 17 20.5 21t15.5 4q18 0 43 -13.5t25 -23.5q0 -8 -13 -18z
" />
    <glyph glyph-name="Rcaron" unicode="&#x158;" horiz-adv-x="597" 
d="M39 0zM39 37l35 -2h2q17 0 17 22v484q0 9 -5.5 15.5t-16.5 5.5l-32 -2v37h259q108 0 159.5 -36.5t51.5 -113.5q0 -61 -38.5 -102t-106.5 -55q36 0 73 -20t61.5 -58.5t24.5 -89.5q0 -28 8.5 -59.5t20.5 -34.5q6 -2 13 -2q9 0 16 4v-30h-177q-12 25 -14 66q-2 26 -2 38v33
q0 68 -38 101t-92 33h-27v-214q0 -22 20 -22l49 2v-37h-261v37zM294 306q36 0 57.5 34.5t21.5 93.5q0 67 -24 97.5t-74 30.5h-32q-12 0 -12 -10v-246h63zM147 824q14 0 33 -12l111 -66l112 66q19 12 33 12q11 0 11 -8q0 -4 -8 -12.5t-20 -19.5q-30 -30 -48 -50l-23 -24
l-24 -24q-16 -18 -33 -18q-15 0 -33 18l-24 24l-23 24q-18 20 -48 50q-12 11 -20 19.5t-8 12.5q0 8 12 8z" />
    <glyph glyph-name="Rcommaaccent" unicode="&#x156;" horiz-adv-x="597" 
d="M39 0zM39 37l35 -2h2q17 0 17 22v484q0 9 -5.5 15.5t-16.5 5.5l-32 -2v37h259q108 0 159.5 -36.5t51.5 -113.5q0 -61 -38.5 -102t-106.5 -55q36 0 73 -20t61.5 -58.5t24.5 -89.5q0 -28 8.5 -59.5t20.5 -34.5q6 -2 13 -2q9 0 16 4v-30h-177q-12 25 -14 66q-2 26 -2 38v33
q0 68 -38 101t-92 33h-27v-214q0 -22 20 -22l49 2v-37h-261v37zM294 306q36 0 57.5 34.5t21.5 93.5q0 67 -24 97.5t-74 30.5h-32q-12 0 -12 -10v-246h63zM287.5 -200q14.5 17 14.5 30q0 29 -28 29q-19 0 -30 14.5t-11 34.5q0 23 16 40.5t47 17.5q35 0 57 -23t22 -54
q0 -45 -29 -82t-70 -58l-22 22q19 12 33.5 29z" />
    <glyph glyph-name="S" unicode="S" horiz-adv-x="498" 
d="M73 203q10 -87 56.5 -132t115.5 -45q51 0 80.5 28t29.5 74q0 70 -95 107l-98 41q-114 47 -114 155q0 48 23 88t69 64t112 24q33 0 56 -5t46 -13t33 -11q17 -6 30 -6q17 0 28 4q-3 -24 -3 -76q0 -29 1 -42t5 -24h-34q0 62 -42.5 100.5t-103.5 38.5q-48 0 -79 -25t-31 -65
q0 -28 20.5 -50.5t65.5 -40.5l85 -36q78 -34 111.5 -72.5t33.5 -101.5q0 -54 -25 -97.5t-74 -69t-119 -25.5q-44 0 -95 13q-57 15 -78 15q-9 0 -21.5 -1.5t-16.5 -3.5q4 21 4 77q0 40 -2 74t-6 36z" />
    <glyph glyph-name="Sacute" unicode="&#x15a;" horiz-adv-x="498" 
d="M41 0zM73 203q10 -87 56.5 -132t115.5 -45q51 0 80.5 28t29.5 74q0 70 -95 107l-98 41q-114 47 -114 155q0 48 23 88t69 64t112 24q33 0 56 -5t46 -13t33 -11q17 -6 30 -6q17 0 28 4q-3 -24 -3 -76q0 -29 1 -42t5 -24h-34q0 62 -42.5 100.5t-103.5 38.5q-48 0 -79 -25
t-31 -65q0 -28 20.5 -50.5t65.5 -40.5l85 -36q78 -34 111.5 -72.5t33.5 -101.5q0 -54 -25 -97.5t-74 -69t-119 -25.5q-44 0 -95 13q-57 15 -78 15q-9 0 -21.5 -1.5t-16.5 -3.5q4 21 4 77q0 40 -2 74t-6 36zM387 771l-167 -102q-13 -9 -24 -9t-11 10t16 27l95 104
q15 17 20.5 21t15.5 4q18 0 43 -13.5t25 -23.5q0 -8 -13 -18z" />
    <glyph glyph-name="Scaron" unicode="&#x160;" horiz-adv-x="498" 
d="M41 0zM73 203q10 -87 56.5 -132t115.5 -45q51 0 80.5 28t29.5 74q0 70 -95 107l-98 41q-114 47 -114 155q0 48 23 88t69 64t112 24q33 0 56 -5t46 -13t33 -11q17 -6 30 -6q17 0 28 4q-3 -24 -3 -76q0 -29 1 -42t5 -24h-34q0 62 -42.5 100.5t-103.5 38.5q-48 0 -79 -25
t-31 -65q0 -28 20.5 -50.5t65.5 -40.5l85 -36q78 -34 111.5 -72.5t33.5 -101.5q0 -54 -25 -97.5t-74 -69t-119 -25.5q-44 0 -95 13q-57 15 -78 15q-9 0 -21.5 -1.5t-16.5 -3.5q4 21 4 77q0 40 -2 74t-6 36zM107 824q14 0 33 -12l111 -66l112 66q19 12 33 12q11 0 11 -8
q0 -4 -8 -12.5t-20 -19.5q-30 -30 -48 -50l-23 -24l-24 -24q-16 -18 -33 -18q-15 0 -33 18l-24 24l-23 24q-18 20 -48 50q-12 11 -20 19.5t-8 12.5q0 8 12 8z" />
    <glyph glyph-name="Scedilla" unicode="&#x15e;" horiz-adv-x="498" 
d="M254 -36q-6 -11 -6 -19q0 -7 7.5 -10t25.5 -7q29 -5 46 -15t17 -35q0 -44 -35.5 -68t-80.5 -24q-44 0 -69 16l13 32q12 -13 35 -13q19 0 34.5 14t15.5 32q0 21 -34 39l-23 14q-11 8 -11 15t6 13l34 43q-27 1 -68 12q-57 15 -78 15q-9 0 -21.5 -1.5t-16.5 -3.5q4 21 4 77
q0 40 -2 74t-6 36l32 3q10 -87 56.5 -132t115.5 -45q51 0 80.5 28t29.5 74q0 70 -95 107l-98 41q-114 47 -114 155q0 48 23 88t69 64t112 24q33 0 56 -5t46 -13t33 -11q17 -6 30 -6q17 0 28 4q-3 -24 -3 -76q0 -29 1 -42t5 -24h-34q0 62 -42.5 100.5t-103.5 38.5
q-48 0 -79 -25t-31 -65q0 -28 20.5 -50.5t65.5 -40.5l85 -36q78 -34 111.5 -72.5t33.5 -101.5q0 -80 -53 -134t-151 -58z" />
    <glyph glyph-name="Scommaaccent" unicode="&#x218;" horiz-adv-x="498" 
d="M41 0zM73 203q10 -87 56.5 -132t115.5 -45q51 0 80.5 28t29.5 74q0 70 -95 107l-98 41q-114 47 -114 155q0 48 23 88t69 64t112 24q33 0 56 -5t46 -13t33 -11q17 -6 30 -6q17 0 28 4q-3 -24 -3 -76q0 -29 1 -42t5 -24h-34q0 62 -42.5 100.5t-103.5 38.5q-48 0 -79 -25
t-31 -65q0 -28 20.5 -50.5t65.5 -40.5l85 -36q78 -34 111.5 -72.5t33.5 -101.5q0 -54 -25 -97.5t-74 -69t-119 -25.5q-44 0 -95 13q-57 15 -78 15q-9 0 -21.5 -1.5t-16.5 -3.5q4 21 4 77q0 40 -2 74t-6 36zM247.5 -200q14.5 17 14.5 30q0 29 -28 29q-19 0 -30 14.5t-11 34.5
q0 23 16 40.5t47 17.5q35 0 57 -23t22 -54q0 -45 -29 -82t-70 -58l-22 22q19 12 33.5 29z" />
    <glyph glyph-name="T" unicode="T" horiz-adv-x="544" 
d="M15 600q18 -2 48 -2h419q37 0 47 2v-156h-33q0 61 -28.5 90t-94.5 29h-20q-10 0 -12 -11v-495q0 -22 20 -22l53 2v-37h-284v37l54 -2q9 0 14 7.5t5 17.5v491q0 12 -12 12h-18q-66 0 -95 -29t-29 -90h-34v156z" />
    <glyph glyph-name="Tcaron" unicode="&#x164;" horiz-adv-x="544" 
d="M15 0zM15 600q18 -2 48 -2h419q37 0 47 2v-156h-33q0 61 -28.5 90t-94.5 29h-20q-10 0 -12 -11v-495q0 -22 20 -22l53 2v-37h-284v37l54 -2q9 0 14 7.5t5 17.5v491q0 12 -12 12h-18q-66 0 -95 -29t-29 -90h-34v156zM129 824q14 0 33 -12l111 -66l112 66q19 12 33 12
q11 0 11 -8q0 -4 -8 -12.5t-20 -19.5q-30 -30 -48 -50l-23 -24l-24 -24q-16 -18 -33 -18q-15 0 -33 18l-24 24l-23 24q-18 20 -48 50q-12 11 -20 19.5t-8 12.5q0 8 12 8z" />
    <glyph glyph-name="uni0162" unicode="&#x162;" horiz-adv-x="544" 
d="M15 0zM15 600q18 -2 48 -2h419q37 0 47 2v-156h-33q0 61 -28.5 90t-94.5 29h-20q-10 0 -12 -11v-495q0 -22 20 -22l53 2v-37h-284v37l54 -2q9 0 14 7.5t5 17.5v491q0 12 -12 12h-18q-66 0 -95 -29t-29 -90h-34v156zM194 -166q12 -13 35 -13q19 0 34.5 14t15.5 32
q0 21 -34 39l-23 14q-11 8 -11 15t6 13l41 52h40l-22 -36q-6 -11 -6 -19q0 -7 7.5 -10t25.5 -7q29 -5 46 -15t17 -35q0 -44 -35.5 -68t-80.5 -24q-44 0 -69 16z" />
    <glyph glyph-name="uni021A" unicode="&#x21a;" horiz-adv-x="544" 
d="M15 0zM15 600q18 -2 48 -2h419q37 0 47 2v-156h-33q0 61 -28.5 90t-94.5 29h-20q-10 0 -12 -11v-495q0 -22 20 -22l53 2v-37h-284v37l54 -2q9 0 14 7.5t5 17.5v491q0 12 -12 12h-18q-66 0 -95 -29t-29 -90h-34v156zM269.5 -200q14.5 17 14.5 30q0 29 -28 29
q-19 0 -30 14.5t-11 34.5q0 23 16 40.5t47 17.5q35 0 57 -23t22 -54q0 -45 -29 -82t-70 -58l-22 22q19 12 33.5 29z" />
    <glyph glyph-name="U" unicode="U" horiz-adv-x="659" 
d="M35 597h264v-37l-49 2h-2q-8 0 -13 -6t-5 -14v-343q0 -85 39.5 -126.5t114.5 -41.5q77 0 112.5 46t35.5 126v338q0 10 -5 16t-13 5l-49 -2v37h169v-37l-39 2h-2q-8 0 -13 -6t-5 -14v-339q0 -101 -54 -157t-163 -56q-266 0 -266 209v342q0 9 -5.5 15.5t-13.5 5.5l-38 -2
v37z" />
    <glyph glyph-name="Uacute" unicode="&#xda;" horiz-adv-x="659" 
d="M35 0zM35 597h264v-37l-49 2h-2q-8 0 -13 -6t-5 -14v-343q0 -85 39.5 -126.5t114.5 -41.5q77 0 112.5 46t35.5 126v338q0 10 -5 16t-13 5l-49 -2v37h169v-37l-39 2h-2q-8 0 -13 -6t-5 -14v-339q0 -101 -54 -157t-163 -56q-266 0 -266 209v342q0 9 -5.5 15.5t-13.5 5.5
l-38 -2v37zM480 771l-167 -102q-13 -9 -24 -9t-11 10t16 27l95 104q15 17 20.5 21t15.5 4q18 0 43 -13.5t25 -23.5q0 -8 -13 -18z" />
    <glyph glyph-name="Ucircumflex" unicode="&#xdb;" horiz-adv-x="659" 
d="M35 0zM35 597h264v-37l-49 2h-2q-8 0 -13 -6t-5 -14v-343q0 -85 39.5 -126.5t114.5 -41.5q77 0 112.5 46t35.5 126v338q0 10 -5 16t-13 5l-49 -2v37h169v-37l-39 2h-2q-8 0 -13 -6t-5 -14v-339q0 -101 -54 -157t-163 -56q-266 0 -266 209v342q0 9 -5.5 15.5t-13.5 5.5
l-38 -2v37zM488 666q-14 0 -33 12l-111 66l-112 -66q-19 -12 -33 -12q-11 0 -11 8q0 4 8 12.5t20 19.5q30 30 48 50l23 24l24 24q17 18 33 18q15 0 33 -18l24 -24l23 -24q18 -20 48 -50q12 -11 20 -19.5t8 -12.5q0 -8 -12 -8z" />
    <glyph glyph-name="Udieresis" unicode="&#xdc;" horiz-adv-x="659" 
d="M35 0zM35 597h264v-37l-49 2h-2q-8 0 -13 -6t-5 -14v-343q0 -85 39.5 -126.5t114.5 -41.5q77 0 112.5 46t35.5 126v338q0 10 -5 16t-13 5l-49 -2v37h169v-37l-39 2h-2q-8 0 -13 -6t-5 -14v-339q0 -101 -54 -157t-163 -56q-266 0 -266 209v342q0 9 -5.5 15.5t-13.5 5.5
l-38 -2v37zM182.5 789.5q21.5 17.5 55.5 17.5q33 0 55 -17.5t22 -45.5q0 -29 -21.5 -46t-55.5 -17t-55.5 17t-21.5 46q0 28 21.5 45.5zM393.5 789.5q21.5 17.5 55.5 17.5q33 0 55 -17.5t22 -45.5q0 -29 -21.5 -46t-55.5 -17t-55.5 17t-21.5 46q0 28 21.5 45.5z" />
    <glyph glyph-name="Ugrave" unicode="&#xd9;" horiz-adv-x="659" 
d="M35 0zM35 597h264v-37l-49 2h-2q-8 0 -13 -6t-5 -14v-343q0 -85 39.5 -126.5t114.5 -41.5q77 0 112.5 46t35.5 126v338q0 10 -5 16t-13 5l-49 -2v37h169v-37l-39 2h-2q-8 0 -13 -6t-5 -14v-339q0 -101 -54 -157t-163 -56q-266 0 -266 209v342q0 9 -5.5 15.5t-13.5 5.5
l-38 -2v37zM221 812.5q25 13.5 43 13.5q10 0 15.5 -4t20.5 -21l95 -104q16 -17 16 -27t-11 -10q-10 0 -24 9l-167 102q-13 10 -13 18q0 10 25 23.5z" />
    <glyph glyph-name="Uhungarumlaut" unicode="&#x170;" horiz-adv-x="659" 
d="M35 0zM35 597h264v-37l-49 2h-2q-8 0 -13 -6t-5 -14v-343q0 -85 39.5 -126.5t114.5 -41.5q77 0 112.5 46t35.5 126v338q0 10 -5 16t-13 5l-49 -2v37h169v-37l-39 2h-2q-8 0 -13 -6t-5 -14v-339q0 -101 -54 -157t-163 -56q-266 0 -266 209v342q0 9 -5.5 15.5t-13.5 5.5
l-38 -2v37zM248 726q48 87 51 91q4 5 6.5 7t6.5 2q7 0 26.5 -6l31.5 -10q9 -4 9 -12q0 -4 -6 -12q-8 -9 -115 -109q-13 -12 -24 -12q-5 0 -8 3t-3 6q0 5 3 11zM391 754q34 62 35 63q4 5 6.5 7t6.5 2q7 0 27 -6t32 -10q9 -4 9 -12q0 -4 -6 -12l-116 -109q-13 -12 -24 -12
q-5 0 -7.5 3t-2.5 6q0 5 3 11z" />
    <glyph glyph-name="Umacron" unicode="&#x16a;" horiz-adv-x="659" 
d="M35 0zM35 597h264v-37l-49 2h-2q-8 0 -13 -6t-5 -14v-343q0 -85 39.5 -126.5t114.5 -41.5q77 0 112.5 46t35.5 126v338q0 10 -5 16t-13 5l-49 -2v37h169v-37l-39 2h-2q-8 0 -13 -6t-5 -14v-339q0 -101 -54 -157t-163 -56q-266 0 -266 209v342q0 9 -5.5 15.5t-13.5 5.5
l-38 -2v37zM224 699v47h239v-47h-239z" />
    <glyph glyph-name="Uogonek" unicode="&#x172;" horiz-adv-x="659" 
d="M634 597v-37l-39 2h-2q-8 0 -13 -6t-5 -14v-339q0 -70 -25.5 -118.5t-77.5 -72.5q-19 -10 -29 -28t-10 -39q0 -20 12.5 -33t37.5 -13q34 0 70 21l12 -19q-25 -29 -55.5 -44.5t-62.5 -15.5q-33 0 -57 19t-24 53q0 47 41 80q-22 -3 -49 -3q-266 0 -266 209v342
q0 9 -5.5 15.5t-13.5 5.5l-38 -2v37h264v-37l-49 2h-2q-8 0 -13 -6t-5 -14v-343q0 -85 39.5 -126.5t114.5 -41.5q77 0 112.5 46t35.5 126v338q0 10 -5 16t-13 5l-49 -2v37h169z" />
    <glyph glyph-name="Uring" unicode="&#x16e;" horiz-adv-x="659" 
d="M35 0zM35 597h264v-37l-49 2h-2q-8 0 -13 -6t-5 -14v-343q0 -85 39.5 -126.5t114.5 -41.5q77 0 112.5 46t35.5 126v338q0 10 -5 16t-13 5l-49 -2v37h169v-37l-39 2h-2q-8 0 -13 -6t-5 -14v-339q0 -101 -54 -157t-163 -56q-266 0 -266 209v342q0 9 -5.5 15.5t-13.5 5.5
l-38 -2v37zM281 807q25 24 62 24q38 0 63 -23.5t25 -59.5t-25 -59.5t-63 -23.5t-62.5 23.5t-24.5 59.5q0 35 25 59zM316 717q10 -11 27 -11t27.5 11.5t10.5 30.5t-10.5 30t-27.5 11t-27 -11t-10 -30q0 -20 10 -31z" />
    <glyph glyph-name="V" unicode="V" horiz-adv-x="607" 
d="M627 597v-37l-36 2q-8 1 -11.5 -4t-9.5 -19l-235 -543h-52l-234 543q-11 23 -23 23l-28 -2v37h256v-37l-50 2q-5 0 -8 -4.5t-3 -10.5q0 -3 2 -9l164 -379l160 368q7 15 7 24q0 11 -12 11l-48 -2v37h161z" />
    <glyph glyph-name="W" unicode="W" horiz-adv-x="911" 
d="M931 597v-37l-30 2q-9 1 -15.5 -6t-9.5 -15l-185 -551h-46l-184 478l-162 -478h-49l-202 550q-7 22 -21 22l-30 -2v37h255v-37l-50 2q-7 0 -10 -2.5t-3 -8.5l3 -11l129 -358l118 344l-2 5q-6 17 -11 24.5t-15 6.5l-41 -2v37h247v-37l-42 2q-8 0 -10.5 -7.5t0.5 -14.5
l140 -381l129 383l2 8q0 6 -3.5 9.5t-9.5 2.5l-52 -2v37h160z" />
    <glyph glyph-name="Wacute" unicode="&#x1e82;" horiz-adv-x="911" 
d="M0 0zM931 597v-37l-30 2q-9 1 -15.5 -6t-9.5 -15l-185 -551h-46l-184 478l-162 -478h-49l-202 550q-7 22 -21 22l-30 -2v37h255v-37l-50 2q-7 0 -10 -2.5t-3 -8.5l3 -11l129 -358l118 344l-2 5q-6 17 -11 24.5t-15 6.5l-41 -2v37h247v-37l-42 2q-8 0 -10.5 -7.5
t0.5 -14.5l140 -381l129 383l2 8q0 6 -3.5 9.5t-9.5 2.5l-52 -2v37h160zM618 771l-167 -102q-13 -9 -24 -9t-11 10t16 27l95 104q15 17 20.5 21t15.5 4q18 0 43 -13.5t25 -23.5q0 -8 -13 -18z" />
    <glyph glyph-name="Wcircumflex" unicode="&#x174;" horiz-adv-x="911" 
d="M0 0zM931 597v-37l-30 2q-9 1 -15.5 -6t-9.5 -15l-185 -551h-46l-184 478l-162 -478h-49l-202 550q-7 22 -21 22l-30 -2v37h255v-37l-50 2q-7 0 -10 -2.5t-3 -8.5l3 -11l129 -358l118 344l-2 5q-6 17 -11 24.5t-15 6.5l-41 -2v37h247v-37l-42 2q-8 0 -10.5 -7.5
t0.5 -14.5l140 -381l129 383l2 8q0 6 -3.5 9.5t-9.5 2.5l-52 -2v37h160zM626 666q-14 0 -33 12l-111 66l-112 -66q-19 -12 -33 -12q-11 0 -11 8q0 4 8 12.5t20 19.5q30 30 48 50l23 24l24 24q17 18 33 18q15 0 33 -18l24 -24l23 -24q18 -20 48 -50q12 -11 20 -19.5t8 -12.5
q0 -8 -12 -8z" />
    <glyph glyph-name="Wdieresis" unicode="&#x1e84;" horiz-adv-x="911" 
d="M0 0zM931 597v-37l-30 2q-9 1 -15.5 -6t-9.5 -15l-185 -551h-46l-184 478l-162 -478h-49l-202 550q-7 22 -21 22l-30 -2v37h255v-37l-50 2q-7 0 -10 -2.5t-3 -8.5l3 -11l129 -358l118 344l-2 5q-6 17 -11 24.5t-15 6.5l-41 -2v37h247v-37l-42 2q-8 0 -10.5 -7.5
t0.5 -14.5l140 -381l129 383l2 8q0 6 -3.5 9.5t-9.5 2.5l-52 -2v37h160zM320.5 789.5q21.5 17.5 55.5 17.5q33 0 55 -17.5t22 -45.5q0 -29 -21.5 -46t-55.5 -17t-55.5 17t-21.5 46q0 28 21.5 45.5zM531.5 789.5q21.5 17.5 55.5 17.5q33 0 55 -17.5t22 -45.5q0 -29 -21.5 -46
t-55.5 -17t-55.5 17t-21.5 46q0 28 21.5 45.5z" />
    <glyph glyph-name="Wgrave" unicode="&#x1e80;" horiz-adv-x="911" 
d="M0 0zM931 597v-37l-30 2q-9 1 -15.5 -6t-9.5 -15l-185 -551h-46l-184 478l-162 -478h-49l-202 550q-7 22 -21 22l-30 -2v37h255v-37l-50 2q-7 0 -10 -2.5t-3 -8.5l3 -11l129 -358l118 344l-2 5q-6 17 -11 24.5t-15 6.5l-41 -2v37h247v-37l-42 2q-8 0 -10.5 -7.5
t0.5 -14.5l140 -381l129 383l2 8q0 6 -3.5 9.5t-9.5 2.5l-52 -2v37h160zM359 812.5q25 13.5 43 13.5q10 0 15.5 -4t20.5 -21l95 -104q16 -17 16 -27t-11 -10q-10 0 -24 9l-167 102q-13 10 -13 18q0 10 25 23.5z" />
    <glyph glyph-name="X" unicode="X" horiz-adv-x="585" 
d="M593 37v-37h-276v37l49 -3h2q10 0 10 8q0 7 -5 15l-115 193l-123 -195q-3 -6 -3 -11q0 -4 2.5 -7t6.5 -2l45 3v-38h-166v38l36 -2q21 0 34 22l147 235l-148 250q-11 19 -32 19l-25 -2v37h270v-37l-42 2h-2q-7 0 -11 -3.5t-4 -8.5q0 -4 3 -9l96 -169l108 170q5 7 5 12
q0 9 -13 8l-43 -2v37h163v-37l-35 2q-19 0 -31 -20l-132 -212l168 -279q11 -20 30 -17z" />
    <glyph glyph-name="Y" unicode="Y" horiz-adv-x="559" 
d="M569 597v-37l-30 2q-16 0 -28 -21l-149 -266v-219q0 -21 20 -21l48 2v-37h-274v37l49 -2q19 0 19 22v199l-172 287q-12 19 -24 19l-29 -2v37h270v-37l-53 2h-1q-11 0 -11 -10q0 -6 5 -14l133 -221l126 225q3 5 3 10q0 10 -10 10l-52 -2v37h160z" />
    <glyph glyph-name="Yacute" unicode="&#xdd;" horiz-adv-x="559" 
d="M0 0zM569 597v-37l-30 2q-16 0 -28 -21l-149 -266v-219q0 -21 20 -21l48 2v-37h-274v37l49 -2q19 0 19 22v199l-172 287q-12 19 -24 19l-29 -2v37h270v-37l-53 2h-1q-11 0 -11 -10q0 -6 5 -14l133 -221l126 225q3 5 3 10q0 10 -10 10l-52 -2v37h160zM441 771l-167 -102
q-13 -9 -24 -9t-11 10t16 27l95 104q15 17 20.5 21t15.5 4q18 0 43 -13.5t25 -23.5q0 -8 -13 -18z" />
    <glyph glyph-name="Ycircumflex" unicode="&#x176;" horiz-adv-x="559" 
d="M0 0zM569 597v-37l-30 2q-16 0 -28 -21l-149 -266v-219q0 -21 20 -21l48 2v-37h-274v37l49 -2q19 0 19 22v199l-172 287q-12 19 -24 19l-29 -2v37h270v-37l-53 2h-1q-11 0 -11 -10q0 -6 5 -14l133 -221l126 225q3 5 3 10q0 10 -10 10l-52 -2v37h160zM449 666
q-14 0 -33 12l-111 66l-112 -66q-19 -12 -33 -12q-11 0 -11 8q0 4 8 12.5t20 19.5q30 30 48 50l23 24l24 24q17 18 33 18q15 0 33 -18l24 -24l23 -24q18 -20 48 -50q12 -11 20 -19.5t8 -12.5q0 -8 -12 -8z" />
    <glyph glyph-name="Ydieresis" unicode="&#x178;" horiz-adv-x="559" 
d="M0 0zM569 597v-37l-30 2q-16 0 -28 -21l-149 -266v-219q0 -21 20 -21l48 2v-37h-274v37l49 -2q19 0 19 22v199l-172 287q-12 19 -24 19l-29 -2v37h270v-37l-53 2h-1q-11 0 -11 -10q0 -6 5 -14l133 -221l126 225q3 5 3 10q0 10 -10 10l-52 -2v37h160zM143.5 789.5
q21.5 17.5 55.5 17.5q33 0 55 -17.5t22 -45.5q0 -29 -21.5 -46t-55.5 -17t-55.5 17t-21.5 46q0 28 21.5 45.5zM354.5 789.5q21.5 17.5 55.5 17.5q33 0 55 -17.5t22 -45.5q0 -29 -21.5 -46t-55.5 -17t-55.5 17t-21.5 46q0 28 21.5 45.5z" />
    <glyph glyph-name="Ygrave" unicode="&#x1ef2;" horiz-adv-x="559" 
d="M0 0zM569 597v-37l-30 2q-16 0 -28 -21l-149 -266v-219q0 -21 20 -21l48 2v-37h-274v37l49 -2q19 0 19 22v199l-172 287q-12 19 -24 19l-29 -2v37h270v-37l-53 2h-1q-11 0 -11 -10q0 -6 5 -14l133 -221l126 225q3 5 3 10q0 10 -10 10l-52 -2v37h160zM182 812.5
q25 13.5 43 13.5q10 0 15.5 -4t20.5 -21l95 -104q16 -17 16 -27t-11 -10q-10 0 -24 9l-167 102q-13 10 -13 18q0 10 25 23.5z" />
    <glyph glyph-name="Z" unicode="Z" horiz-adv-x="547" 
d="M527 167l-8 -171q-12 4 -113 4h-375v27l319 535h-120q-72 0 -106.5 -29t-34.5 -90h-34v157l38 -1q42 -2 71 -2h353v-24l-316 -538h141q69 0 109.5 35t40.5 97h35z" />
    <glyph glyph-name="Zacute" unicode="&#x179;" horiz-adv-x="547" 
d="M31 0zM527 167l-8 -171q-12 4 -113 4h-375v27l319 535h-120q-72 0 -106.5 -29t-34.5 -90h-34v157l38 -1q42 -2 71 -2h353v-24l-316 -538h141q69 0 109.5 35t40.5 97h35zM427 771l-167 -102q-13 -9 -24 -9t-11 10t16 27l95 104q15 17 20.5 21t15.5 4q18 0 43 -13.5
t25 -23.5q0 -8 -13 -18z" />
    <glyph glyph-name="Zcaron" unicode="&#x17d;" horiz-adv-x="547" 
d="M31 0zM527 167l-8 -171q-12 4 -113 4h-375v27l319 535h-120q-72 0 -106.5 -29t-34.5 -90h-34v157l38 -1q42 -2 71 -2h353v-24l-316 -538h141q69 0 109.5 35t40.5 97h35zM147 824q14 0 33 -12l111 -66l112 66q19 12 33 12q11 0 11 -8q0 -4 -8 -12.5t-20 -19.5
q-30 -30 -48 -50l-23 -24l-24 -24q-16 -18 -33 -18q-15 0 -33 18l-24 24l-23 24q-18 20 -48 50q-12 11 -20 19.5t-8 12.5q0 8 12 8z" />
    <glyph glyph-name="Zdotaccent" unicode="&#x17b;" horiz-adv-x="547" 
d="M31 0zM527 167l-8 -171q-12 4 -113 4h-375v27l319 535h-120q-72 0 -106.5 -29t-34.5 -90h-34v157l38 -1q42 -2 71 -2h353v-24l-316 -538h141q69 0 109.5 35t40.5 97h35zM235.5 789.5q21.5 17.5 55.5 17.5q33 0 55 -17.5t22 -45.5q0 -29 -21.5 -46t-55.5 -17t-55.5 17
t-21.5 46q0 28 21.5 45.5z" />
    <glyph glyph-name="a" unicode="a" horiz-adv-x="467" 
d="M456 34v-34h-182q4 24 4 37l1 27q-44 -69 -138 -69q-63 0 -95.5 28.5t-32.5 84.5q0 73 64 108t202 35v70q0 38 -13 59t-54 21q-35 0 -49.5 -12t-14.5 -29q0 -13 5 -23q4 -14 4 -20q0 -22 -15.5 -34t-39.5 -12q-28 0 -45.5 16.5t-17.5 41.5q0 48 50 77t135 29
q186 0 186 -133v-251q0 -19 13 -19zM251.5 80.5q22.5 26.5 27.5 69.5v66q-68 0 -99 -24t-31 -72q0 -66 49 -66q31 0 53.5 26.5z" />
    <glyph glyph-name="aacute" unicode="&#xe1;" horiz-adv-x="467" 
d="M13 0zM456 34v-34h-182q4 24 4 37l1 27q-44 -69 -138 -69q-63 0 -95.5 28.5t-32.5 84.5q0 73 64 108t202 35v70q0 38 -13 59t-54 21q-35 0 -49.5 -12t-14.5 -29q0 -13 5 -23q4 -14 4 -20q0 -22 -15.5 -34t-39.5 -12q-28 0 -45.5 16.5t-17.5 41.5q0 48 50 77t135 29
q186 0 186 -133v-251q0 -19 13 -19zM251.5 80.5q22.5 26.5 27.5 69.5v66q-68 0 -99 -24t-31 -72q0 -66 49 -66q31 0 53.5 26.5zM361 603l-167 -102q-13 -9 -24 -9t-11 10t16 27l95 104q15 17 20.5 21t15.5 4q18 0 43 -13.5t25 -23.5q0 -8 -13 -18z" />
    <glyph glyph-name="abreve" unicode="&#x103;" horiz-adv-x="467" 
d="M13 0zM456 34v-34h-182q4 24 4 37l1 27q-44 -69 -138 -69q-63 0 -95.5 28.5t-32.5 84.5q0 73 64 108t202 35v70q0 38 -13 59t-54 21q-35 0 -49.5 -12t-14.5 -29q0 -13 5 -23q4 -14 4 -20q0 -22 -15.5 -34t-39.5 -12q-28 0 -45.5 16.5t-17.5 41.5q0 48 50 77t135 29
q186 0 186 -133v-251q0 -19 13 -19zM251.5 80.5q22.5 26.5 27.5 69.5v66q-68 0 -99 -24t-31 -72q0 -66 49 -66q31 0 53.5 26.5zM322 552.5q-37 -36.5 -97 -36.5t-96.5 36.5t-38.5 94.5h46q7 -28 28 -47t61 -19q39 0 61 19t30 47h45q-2 -58 -39 -94.5z" />
    <glyph glyph-name="acircumflex" unicode="&#xe2;" horiz-adv-x="467" 
d="M13 0zM456 34v-34h-182q4 24 4 37l1 27q-44 -69 -138 -69q-63 0 -95.5 28.5t-32.5 84.5q0 73 64 108t202 35v70q0 38 -13 59t-54 21q-35 0 -49.5 -12t-14.5 -29q0 -13 5 -23q4 -14 4 -20q0 -22 -15.5 -34t-39.5 -12q-28 0 -45.5 16.5t-17.5 41.5q0 48 50 77t135 29
q186 0 186 -133v-251q0 -19 13 -19zM251.5 80.5q22.5 26.5 27.5 69.5v66q-68 0 -99 -24t-31 -72q0 -66 49 -66q31 0 53.5 26.5zM370 498q-14 0 -33 12l-111 66l-112 -66q-19 -12 -33 -12q-11 0 -11 8q0 4 8 12.5t20 19.5q30 30 48 50l23 24l24 24q17 18 33 18q15 0 33 -18
l24 -24l23 -24q18 -20 48 -50q12 -11 20 -19.5t8 -12.5q0 -8 -12 -8z" />
    <glyph glyph-name="adieresis" unicode="&#xe4;" horiz-adv-x="467" 
d="M13 0zM456 34v-34h-182q4 24 4 37l1 27q-44 -69 -138 -69q-63 0 -95.5 28.5t-32.5 84.5q0 73 64 108t202 35v70q0 38 -13 59t-54 21q-35 0 -49.5 -12t-14.5 -29q0 -13 5 -23q4 -14 4 -20q0 -22 -15.5 -34t-39.5 -12q-28 0 -45.5 16.5t-17.5 41.5q0 48 50 77t135 29
q186 0 186 -133v-251q0 -19 13 -19zM251.5 80.5q22.5 26.5 27.5 69.5v66q-68 0 -99 -24t-31 -72q0 -66 49 -66q31 0 53.5 26.5zM64.5 645.5q21.5 17.5 55.5 17.5q33 0 55 -17.5t22 -45.5q0 -29 -21.5 -46t-55.5 -17t-55.5 17t-21.5 46q0 28 21.5 45.5zM275.5 645.5
q21.5 17.5 55.5 17.5q33 0 55 -17.5t22 -45.5q0 -29 -21.5 -46t-55.5 -17t-55.5 17t-21.5 46q0 28 21.5 45.5z" />
    <glyph glyph-name="agrave" unicode="&#xe0;" horiz-adv-x="467" 
d="M13 0zM456 34v-34h-182q4 24 4 37l1 27q-44 -69 -138 -69q-63 0 -95.5 28.5t-32.5 84.5q0 73 64 108t202 35v70q0 38 -13 59t-54 21q-35 0 -49.5 -12t-14.5 -29q0 -13 5 -23q4 -14 4 -20q0 -22 -15.5 -34t-39.5 -12q-28 0 -45.5 16.5t-17.5 41.5q0 48 50 77t135 29
q186 0 186 -133v-251q0 -19 13 -19zM251.5 80.5q22.5 26.5 27.5 69.5v66q-68 0 -99 -24t-31 -72q0 -66 49 -66q31 0 53.5 26.5zM103 644.5q25 13.5 43 13.5q10 0 15.5 -4t20.5 -21l95 -104q16 -17 16 -27t-11 -10q-10 0 -24 9l-167 102q-13 10 -13 18q0 10 25 23.5z" />
    <glyph glyph-name="amacron" unicode="&#x101;" horiz-adv-x="467" 
d="M13 0zM456 34v-34h-182q4 24 4 37l1 27q-44 -69 -138 -69q-63 0 -95.5 28.5t-32.5 84.5q0 73 64 108t202 35v70q0 38 -13 59t-54 21q-35 0 -49.5 -12t-14.5 -29q0 -13 5 -23q4 -14 4 -20q0 -22 -15.5 -34t-39.5 -12q-28 0 -45.5 16.5t-17.5 41.5q0 48 50 77t135 29
q186 0 186 -133v-251q0 -19 13 -19zM251.5 80.5q22.5 26.5 27.5 69.5v66q-68 0 -99 -24t-31 -72q0 -66 49 -66q31 0 53.5 26.5zM106 565v47h239v-47h-239z" />
    <glyph glyph-name="aogonek" unicode="&#x105;" horiz-adv-x="467" 
d="M495 -103q-25 -29 -55.5 -44.5t-62.5 -15.5q-33 0 -57 19t-24 53q0 27 14.5 50.5t41.5 40.5h-78q4 24 4 37l1 27q-44 -69 -138 -69q-63 0 -95.5 28.5t-32.5 84.5q0 73 64 108t202 35v70q0 38 -13 59t-54 21q-35 0 -49.5 -12t-14.5 -29q0 -13 5 -23q4 -14 4 -20
q0 -22 -15.5 -34t-39.5 -12q-28 0 -45.5 16.5t-17.5 41.5q0 48 50 77t135 29q186 0 186 -133v-251q0 -19 13 -19l33 2v-34h-66q-27 -22 -27 -59q0 -20 12.5 -33t37.5 -13q34 0 70 21zM251.5 80.5q22.5 26.5 27.5 69.5v66q-68 0 -99 -24t-31 -72q0 -66 49 -66q31 0 53.5 26.5
z" />
    <glyph glyph-name="aring" unicode="&#xe5;" horiz-adv-x="467" 
d="M13 0zM456 34v-34h-182q4 24 4 37l1 27q-44 -69 -138 -69q-63 0 -95.5 28.5t-32.5 84.5q0 73 64 108t202 35v70q0 38 -13 59t-54 21q-35 0 -49.5 -12t-14.5 -29q0 -13 5 -23q4 -14 4 -20q0 -22 -15.5 -34t-39.5 -12q-28 0 -45.5 16.5t-17.5 41.5q0 48 50 77t135 29
q186 0 186 -133v-251q0 -19 13 -19zM251.5 80.5q22.5 26.5 27.5 69.5v66q-68 0 -99 -24t-31 -72q0 -66 49 -66q31 0 53.5 26.5zM163 639q25 24 62 24q38 0 63 -23.5t25 -59.5t-25 -59.5t-63 -23.5t-62.5 23.5t-24.5 59.5q0 35 25 59zM198 549q10 -11 27 -11t27.5 11.5
t10.5 30.5t-10.5 30t-27.5 11t-27 -11t-10 -30q0 -20 10 -31z" />
    <glyph glyph-name="atilde" unicode="&#xe3;" horiz-adv-x="467" 
d="M13 0zM456 34v-34h-182q4 24 4 37l1 27q-44 -69 -138 -69q-63 0 -95.5 28.5t-32.5 84.5q0 73 64 108t202 35v70q0 38 -13 59t-54 21q-35 0 -49.5 -12t-14.5 -29q0 -13 5 -23q4 -14 4 -20q0 -22 -15.5 -34t-39.5 -12q-28 0 -45.5 16.5t-17.5 41.5q0 48 50 77t135 29
q186 0 186 -133v-251q0 -19 13 -19zM251.5 80.5q22.5 26.5 27.5 69.5v66q-68 0 -99 -24t-31 -72q0 -66 49 -66q31 0 53.5 26.5zM99 603q16 27 48 27q17 0 37.5 -5.5t52.5 -15.5q20 -7 40 -12.5t32 -5.5q14 0 23.5 10.5t9.5 27.5h27q0 -45 -16 -72t-48 -27q-28 0 -90 22
q-5 2 -30 10t-41 8q-14 0 -23.5 -10.5t-9.5 -28.5h-28q0 45 16 72z" />
    <glyph glyph-name="ae" unicode="&#xe6;" horiz-adv-x="719" 
d="M648.5 381.5q50.5 -53.5 50.5 -171.5h-289q0 -87 32 -133t95 -46q45 0 80.5 23.5t51.5 57.5l27 -19q-23 -49 -73 -76t-120 -27q-77 0 -126.5 21.5t-75.5 65.5q-49 -82 -156 -82q-63 0 -97.5 28t-34.5 83q0 72 64 104t202 32v79q0 38 -13 59t-54 21q-35 0 -49.5 -12
t-14.5 -29q0 -13 5 -23q4 -14 4 -20q0 -22 -15.5 -34t-39.5 -12q-28 0 -45.5 16.5t-17.5 41.5q0 48 50 77t135 29q91 0 136 -32q51 32 139 32q99 0 149.5 -53.5zM431 358q-21 -43 -21 -116h138q17 0 17 32q0 63 -16 95t-53 32q-44 0 -65 -43zM180 184q-31 -24 -31 -70
q0 -31 13 -46t37 -15q30 0 53 29t27 74v52q-68 0 -99 -24z" />
    <glyph glyph-name="b" unicode="b" horiz-adv-x="514" 
d="M17 730h177v-374q14 36 48 57.5t80 21.5q87 0 131.5 -56.5t44.5 -167.5q0 -109 -47 -165t-136 -56q-52 0 -79 16t-50 46q-7 9 -18 9q-18 0 -27 -18t-9 -48h-69v685q0 8 -3 14t-10 6l-33 -2v32zM284 36q28 0 44 16.5t23 54t7 104.5q0 92 -15 135.5t-57 43.5
q-43 0 -66.5 -43.5t-23.5 -117.5v-43q0 -150 88 -150z" />
    <glyph glyph-name="c" unicode="c" horiz-adv-x="439" 
d="M334 421q40 -14 62.5 -38t22.5 -53q0 -26 -16.5 -44t-46.5 -18q-24 0 -39.5 11.5t-15.5 33.5q0 9 4 21q5 10 5 22q0 22 -17.5 33.5t-43.5 11.5q-43 0 -67 -40.5t-24 -137.5q0 -108 29.5 -152t81.5 -44q41 0 74.5 22.5t51.5 73.5l31 -15q-43 -118 -181 -118
q-98 0 -161.5 54t-63.5 165t62 168.5t162 57.5q50 0 90 -14z" />
    <glyph glyph-name="cacute" unicode="&#x107;" horiz-adv-x="439" 
d="M20 0zM334 421q40 -14 62.5 -38t22.5 -53q0 -26 -16.5 -44t-46.5 -18q-24 0 -39.5 11.5t-15.5 33.5q0 9 4 21q5 10 5 22q0 22 -17.5 33.5t-43.5 11.5q-43 0 -67 -40.5t-24 -137.5q0 -108 29.5 -152t81.5 -44q41 0 74.5 22.5t51.5 73.5l31 -15q-43 -118 -181 -118
q-98 0 -161.5 54t-63.5 165t62 168.5t162 57.5q50 0 90 -14zM360 603l-167 -102q-13 -9 -24 -9t-11 10t16 27l95 104q15 17 20.5 21t15.5 4q18 0 43 -13.5t25 -23.5q0 -8 -13 -18z" />
    <glyph glyph-name="ccaron" unicode="&#x10d;" horiz-adv-x="439" 
d="M20 0zM334 421q40 -14 62.5 -38t22.5 -53q0 -26 -16.5 -44t-46.5 -18q-24 0 -39.5 11.5t-15.5 33.5q0 9 4 21q5 10 5 22q0 22 -17.5 33.5t-43.5 11.5q-43 0 -67 -40.5t-24 -137.5q0 -108 29.5 -152t81.5 -44q41 0 74.5 22.5t51.5 73.5l31 -15q-43 -118 -181 -118
q-98 0 -161.5 54t-63.5 165t62 168.5t162 57.5q50 0 90 -14zM81 662q14 0 33 -12l111 -66l112 66q19 12 33 12q11 0 11 -8q0 -4 -8 -12.5t-20 -19.5q-30 -30 -48 -50l-23 -24l-24 -24q-16 -18 -33 -18q-15 0 -33 18l-24 24l-23 24q-18 20 -48 50q-12 11 -20 19.5t-8 12.5
q0 8 12 8z" />
    <glyph glyph-name="ccedilla" unicode="&#xe7;" horiz-adv-x="439" 
d="M228 -36q-6 -11 -6 -19q0 -7 7.5 -10t25.5 -7q29 -5 46 -15t17 -35q0 -44 -35.5 -68t-80.5 -24q-44 0 -69 16l13 32q12 -13 35 -13q19 0 34.5 14t15.5 32q0 21 -34 39l-23 14q-11 8 -11 15t6 13l35 45q-82 10 -133 63.5t-51 152.5q0 111 62 168.5t162 57.5q50 0 90 -14
t62.5 -38t22.5 -53q0 -26 -16.5 -44t-46.5 -18q-24 0 -39.5 11.5t-15.5 33.5q0 9 4 21q5 10 5 22q0 22 -17.5 33.5t-43.5 11.5q-43 0 -67 -40.5t-24 -137.5q0 -108 29.5 -152t81.5 -44q41 0 74.5 22.5t51.5 73.5l31 -15q-43 -118 -181 -118h-1z" />
    <glyph glyph-name="d" unicode="d" horiz-adv-x="522" 
d="M69.5 378.5q45.5 56.5 134.5 56.5q46 0 79.5 -22.5t44.5 -55.5v323q0 20 -13 20l-46 -2v32h190v-679q0 -19 13 -19l33 2v-34h-184q2 8 2 16v22q0 11 1 17t1 8q-13 -34 -43 -53.5t-77 -19.5q-97 0 -139 54t-42 167q0 111 45.5 167.5zM170.5 107q6.5 -37 22.5 -54t45 -17
q45 0 66.5 37.5t21.5 112.5v43q0 76 -23 118.5t-66 42.5q-40 0 -56.5 -45.5t-16.5 -133.5q0 -67 6.5 -104z" />
    <glyph glyph-name="eth" unicode="&#xf0;" horiz-adv-x="507" 
d="M441 425q46 -82 46 -201q0 -109 -59 -172t-174 -63q-114 0 -174 57t-60 166q0 111 58 167t154 56q53 0 85 -21q-22 54 -73 98l-102 -59l-17 30l90 52q-54 36 -103 43l20 29q80 -3 149 -35l83 48l16 -30l-63 -36q78 -47 124 -129zM326 66.5q21 44.5 21 145.5
q0 103 -21.5 147t-71.5 44t-72 -42.5t-22 -148.5q0 -104 22.5 -147t71.5 -43q51 0 72 44.5z" />
    <glyph glyph-name="dcaron" unicode="&#x10f;" horiz-adv-x="522" 
d="M459 51q0 -19 13 -19l33 2v-34h-184q2 8 2 16v22q0 11 1 17t1 8q-13 -34 -43 -53.5t-77 -19.5q-97 0 -139 54t-42 167q0 111 45.5 167.5t134.5 56.5q46 0 79.5 -22.5t44.5 -55.5v323q0 20 -13 20l-46 -2v32h190v-119q17 12 40 12q30 0 50 -19.5t20 -50.5
q0 -38 -26.5 -71.5t-62.5 -50.5l-21 22q15 10 26 24t11 28q0 21 -21 21q-8 0 -16 3v-478zM326 229q0 76 -23 118.5t-66 42.5q-40 0 -56.5 -45.5t-16.5 -133.5q0 -67 6.5 -104t22.5 -54t45 -17q45 0 66.5 37.5t21.5 112.5v43z" />
    <glyph glyph-name="dcroat" unicode="&#x111;" horiz-adv-x="522" 
d="M459 551v-500q0 -19 13 -19l33 2v-34h-184q2 8 2 16v22q0 11 1 17t1 8q-13 -34 -43 -53.5t-77 -19.5q-97 0 -139 54t-42 167q0 111 45.5 167.5t134.5 56.5q46 0 79.5 -22.5t44.5 -55.5v194h-102v47h102v82q0 20 -13 20l-46 -2v32h190v-132h50v-47h-50zM326 229
q0 76 -23 118.5t-66 42.5q-40 0 -56.5 -45.5t-16.5 -133.5q0 -67 6.5 -104t22.5 -54t45 -17q45 0 66.5 37.5t21.5 112.5v43z" />
    <glyph glyph-name="e" unicode="e" horiz-adv-x="468" 
d="M392.5 385.5q54.5 -49.5 55.5 -140.5v-37h-288q0 -86 31.5 -131t94.5 -46q47 0 81 23.5t50 57.5l27 -19q-23 -49 -73.5 -76t-121.5 -27q-119 0 -174 54t-55 167q0 115 57 169.5t170 54.5q91 0 145.5 -49.5zM181 356.5q-20 -44.5 -20 -115.5h133q10 0 15 7t5 26
q0 65 -16.5 96t-53.5 31q-43 0 -63 -44.5z" />
    <glyph glyph-name="eacute" unicode="&#xe9;" horiz-adv-x="468" 
d="M20 0zM392.5 385.5q54.5 -49.5 55.5 -140.5v-37h-288q0 -86 31.5 -131t94.5 -46q47 0 81 23.5t50 57.5l27 -19q-23 -49 -73.5 -76t-121.5 -27q-119 0 -174 54t-55 167q0 115 57 169.5t170 54.5q91 0 145.5 -49.5zM181 356.5q-20 -44.5 -20 -115.5h133q10 0 15 7t5 26
q0 65 -16.5 96t-53.5 31q-43 0 -63 -44.5zM378 603l-167 -102q-13 -9 -24 -9t-11 10t16 27l95 104q15 17 20.5 21t15.5 4q18 0 43 -13.5t25 -23.5q0 -8 -13 -18z" />
    <glyph glyph-name="ecaron" unicode="&#x11b;" horiz-adv-x="468" 
d="M20 0zM392.5 385.5q54.5 -49.5 55.5 -140.5v-37h-288q0 -86 31.5 -131t94.5 -46q47 0 81 23.5t50 57.5l27 -19q-23 -49 -73.5 -76t-121.5 -27q-119 0 -174 54t-55 167q0 115 57 169.5t170 54.5q91 0 145.5 -49.5zM181 356.5q-20 -44.5 -20 -115.5h133q10 0 15 7t5 26
q0 65 -16.5 96t-53.5 31q-43 0 -63 -44.5zM99 662q14 0 33 -12l111 -66l112 66q19 12 33 12q11 0 11 -8q0 -4 -8 -12.5t-20 -19.5q-30 -30 -48 -50l-23 -24l-24 -24q-16 -18 -33 -18q-15 0 -33 18l-24 24l-23 24q-18 20 -48 50q-12 11 -20 19.5t-8 12.5q0 8 12 8z" />
    <glyph glyph-name="ecircumflex" unicode="&#xea;" horiz-adv-x="468" 
d="M20 0zM392.5 385.5q54.5 -49.5 55.5 -140.5v-37h-288q0 -86 31.5 -131t94.5 -46q47 0 81 23.5t50 57.5l27 -19q-23 -49 -73.5 -76t-121.5 -27q-119 0 -174 54t-55 167q0 115 57 169.5t170 54.5q91 0 145.5 -49.5zM181 356.5q-20 -44.5 -20 -115.5h133q10 0 15 7t5 26
q0 65 -16.5 96t-53.5 31q-43 0 -63 -44.5zM387 498q-14 0 -33 12l-111 66l-112 -66q-19 -12 -33 -12q-11 0 -11 8q0 4 8 12.5t20 19.5q30 30 48 50l23 24l24 24q17 18 33 18q15 0 33 -18l24 -24l23 -24q18 -20 48 -50q12 -11 20 -19.5t8 -12.5q0 -8 -12 -8z" />
    <glyph glyph-name="edieresis" unicode="&#xeb;" horiz-adv-x="468" 
d="M20 0zM392.5 385.5q54.5 -49.5 55.5 -140.5v-37h-288q0 -86 31.5 -131t94.5 -46q47 0 81 23.5t50 57.5l27 -19q-23 -49 -73.5 -76t-121.5 -27q-119 0 -174 54t-55 167q0 115 57 169.5t170 54.5q91 0 145.5 -49.5zM181 356.5q-20 -44.5 -20 -115.5h133q10 0 15 7t5 26
q0 65 -16.5 96t-53.5 31q-43 0 -63 -44.5zM81.5 645.5q21.5 17.5 55.5 17.5q33 0 55 -17.5t22 -45.5q0 -29 -21.5 -46t-55.5 -17t-55.5 17t-21.5 46q0 28 21.5 45.5zM292.5 645.5q21.5 17.5 55.5 17.5q33 0 55 -17.5t22 -45.5q0 -29 -21.5 -46t-55.5 -17t-55.5 17t-21.5 46
q0 28 21.5 45.5z" />
    <glyph glyph-name="edotaccent" unicode="&#x117;" horiz-adv-x="468" 
d="M20 0zM392.5 385.5q54.5 -49.5 55.5 -140.5v-37h-288q0 -86 31.5 -131t94.5 -46q47 0 81 23.5t50 57.5l27 -19q-23 -49 -73.5 -76t-121.5 -27q-119 0 -174 54t-55 167q0 115 57 169.5t170 54.5q91 0 145.5 -49.5zM181 356.5q-20 -44.5 -20 -115.5h133q10 0 15 7t5 26
q0 65 -16.5 96t-53.5 31q-43 0 -63 -44.5zM187.5 645.5q21.5 17.5 55.5 17.5q33 0 55 -17.5t22 -45.5q0 -29 -21.5 -46t-55.5 -17t-55.5 17t-21.5 46q0 28 21.5 45.5z" />
    <glyph glyph-name="egrave" unicode="&#xe8;" horiz-adv-x="468" 
d="M20 0zM392.5 385.5q54.5 -49.5 55.5 -140.5v-37h-288q0 -86 31.5 -131t94.5 -46q47 0 81 23.5t50 57.5l27 -19q-23 -49 -73.5 -76t-121.5 -27q-119 0 -174 54t-55 167q0 115 57 169.5t170 54.5q91 0 145.5 -49.5zM181 356.5q-20 -44.5 -20 -115.5h133q10 0 15 7t5 26
q0 65 -16.5 96t-53.5 31q-43 0 -63 -44.5zM120 644.5q25 13.5 43 13.5q10 0 15.5 -4t20.5 -21l95 -104q16 -17 16 -27t-11 -10q-10 0 -24 9l-167 102q-13 10 -13 18q0 10 25 23.5z" />
    <glyph glyph-name="emacron" unicode="&#x113;" horiz-adv-x="468" 
d="M20 0zM392.5 385.5q54.5 -49.5 55.5 -140.5v-37h-288q0 -86 31.5 -131t94.5 -46q47 0 81 23.5t50 57.5l27 -19q-23 -49 -73.5 -76t-121.5 -27q-119 0 -174 54t-55 167q0 115 57 169.5t170 54.5q91 0 145.5 -49.5zM181 356.5q-20 -44.5 -20 -115.5h133q10 0 15 7t5 26
q0 65 -16.5 96t-53.5 31q-43 0 -63 -44.5zM123 565v47h239v-47h-239z" />
    <glyph glyph-name="eogonek" unicode="&#x119;" horiz-adv-x="468" 
d="M448 208h-288q0 -86 31.5 -131t94.5 -46q47 0 81 23.5t50 57.5l27 -19q-27 -58 -92 -84q-18 -10 -28 -28t-10 -39q0 -20 12.5 -33t37.5 -13q34 0 70 21l12 -19q-25 -29 -55.5 -44.5t-62.5 -15.5q-33 0 -57 19t-24 53q0 48 44 83q-19 -3 -42 -3q-119 0 -174 54t-55 167
q0 115 57 169.5t170 54.5q91 0 145.5 -49.5t55.5 -140.5v-37zM309 248q5 7 5 26q0 65 -16.5 96t-53.5 31q-43 0 -63 -44.5t-20 -115.5h133q10 0 15 7z" />
    <glyph glyph-name="f" unicode="f" horiz-adv-x="299" 
d="M20 34l37 -2q13 0 13 19v342h-39v32h39v61q0 102 39.5 176t143.5 74q61 0 102.5 -30t41.5 -73q0 -25 -16 -43t-48 -18q-23 0 -38.5 10.5t-15.5 29.5q0 7 4 21q5 12 5 25q0 18 -9 31t-28 13q-27 0 -42 -23.5t-15 -84.5q0 -25 1 -44t2 -32q3 -36 3 -69v-24h79v-32h-78v-342
q0 -19 13 -19l62 2v-34h-256v34z" />
    <glyph glyph-name="g" unicode="g" horiz-adv-x="511" 
d="M382 440q-16 -9 -26 -22q87 -34 87 -120q0 -66 -53 -102.5t-143 -36.5q-42 0 -79 9q-21 -18 -21 -37q0 -32 58 -32h99q91 0 139 -35.5t48 -114.5q0 -91 -69 -142.5t-187 -51.5q-95 0 -147 31.5t-52 90.5q0 74 100 118q-39 8 -62.5 28.5t-23.5 51.5q0 21 10 38t37 41
l31 27q-79 35 -79 114q0 66 54.5 103t144.5 37q45 0 78 -8q63 83 125 83q33 0 47 -15.5t14 -35.5q0 -17 -10 -31t-32 -14q-15 0 -22 5t-15 15q-6 8 -10.5 11.5t-12.5 3.5q-12 0 -28 -9zM294.5 213.5q14.5 24.5 14.5 81.5t-14.5 81.5t-49.5 24.5q-34 0 -48 -23.5t-14 -83.5
q0 -59 13.5 -82t47.5 -23q36 0 50.5 24.5zM189 -11h-2q-25 -10 -42 -39.5t-17 -63.5q0 -46 28 -72t87 -26q64 0 101.5 34t37.5 89q0 40 -22 59t-71 19h-100z" />
    <glyph glyph-name="gbreve" unicode="&#x11f;" horiz-adv-x="511" 
d="M36 0zM382 440q-16 -9 -26 -22q87 -34 87 -120q0 -66 -53 -102.5t-143 -36.5q-42 0 -79 9q-21 -18 -21 -37q0 -32 58 -32h99q91 0 139 -35.5t48 -114.5q0 -91 -69 -142.5t-187 -51.5q-95 0 -147 31.5t-52 90.5q0 74 100 118q-39 8 -62.5 28.5t-23.5 51.5q0 21 10 38
t37 41l31 27q-79 35 -79 114q0 66 54.5 103t144.5 37q45 0 78 -8q63 83 125 83q33 0 47 -15.5t14 -35.5q0 -17 -10 -31t-32 -14q-15 0 -22 5t-15 15q-6 8 -10.5 11.5t-12.5 3.5q-12 0 -28 -9zM294.5 213.5q14.5 24.5 14.5 81.5t-14.5 81.5t-49.5 24.5q-34 0 -48 -23.5
t-14 -83.5q0 -59 13.5 -82t47.5 -23q36 0 50.5 24.5zM189 -11h-2q-25 -10 -42 -39.5t-17 -63.5q0 -46 28 -72t87 -26q64 0 101.5 34t37.5 89q0 40 -22 59t-71 19h-100zM346 552.5q-37 -36.5 -97 -36.5t-96.5 36.5t-38.5 94.5h46q7 -28 28 -47t61 -19q39 0 61 19t30 47h45
q-2 -58 -39 -94.5z" />
    <glyph glyph-name="gcommaaccent" unicode="&#x123;" horiz-adv-x="511" 
d="M183 514q-22 23 -22 54q0 45 29 82t70 58l22 -22q-19 -12 -33.5 -29t-14.5 -30q0 -29 28 -29q19 0 30 -14.5t11 -34.5q0 -23 -16 -40.5t-47 -17.5q-35 0 -57 23zM382 440q-16 -9 -26 -22q87 -34 87 -120q0 -66 -53 -102.5t-143 -36.5q-42 0 -79 9q-21 -18 -21 -37
q0 -32 58 -32h99q91 0 139 -35.5t48 -114.5q0 -91 -69 -142.5t-187 -51.5q-95 0 -147 31.5t-52 90.5q0 74 100 118q-39 8 -62.5 28.5t-23.5 51.5q0 21 10 38t37 41l31 27q-79 35 -79 114q0 66 54.5 103t144.5 37q45 0 78 -8q63 83 125 83q33 0 47 -15.5t14 -35.5
q0 -17 -10 -31t-32 -14q-15 0 -22 5t-15 15q-6 8 -10.5 11.5t-12.5 3.5q-12 0 -28 -9zM294.5 213.5q14.5 24.5 14.5 81.5t-14.5 81.5t-49.5 24.5q-34 0 -48 -23.5t-14 -83.5q0 -59 13.5 -82t47.5 -23q36 0 50.5 24.5zM189 -11h-2q-25 -10 -42 -39.5t-17 -63.5q0 -46 28 -72
t87 -26q64 0 101.5 34t37.5 89q0 40 -22 59t-71 19h-100z" />
    <glyph glyph-name="h" unicode="h" horiz-adv-x="539" 
d="M528 34v-34h-228v34l38 -2q13 3 13 19v242q0 53 -8.5 74t-38.5 21q-26 0 -50.5 -22t-40.5 -65t-16 -103v-147q0 -19 13 -19l39 2v-34h-229v34l33 -2q13 3 13 19v628q0 17 -13 20l-33 -2v33h177v-396q22 48 61.5 74.5t93.5 26.5q68 0 99 -34.5t31 -108.5v-241
q0 -19 13 -19z" />
    <glyph glyph-name="i" unicode="i" horiz-adv-x="263" 
d="M184.5 640q21.5 -17 21.5 -45q0 -29 -21.5 -46t-55.5 -17t-55.5 17t-21.5 46q0 28 21.5 45t55.5 17t55.5 -17zM197 51q0 -20 13 -19l33 2v-34h-223v34l33 -2h2q11 0 11 19v323q0 17 -12 20l-33 -2v33h176v-374z" />
    <glyph glyph-name="dotlessi" unicode="&#x131;" horiz-adv-x="263" 
d="M197 51q0 -20 13 -19l33 2v-34h-223v34l33 -2h2q11 0 11 19v323q0 17 -12 20l-33 -2v33h176v-374z" />
    <glyph glyph-name="iacute" unicode="&#xed;" horiz-adv-x="263" 
d="M20 0zM197 51q0 -20 13 -19l33 2v-34h-223v34l33 -2h2q11 0 11 19v323q0 17 -12 20l-33 -2v33h176v-374zM263 603l-167 -102q-13 -9 -24 -9t-11 10t16 27l95 104q15 17 20.5 21t15.5 4q18 0 43 -13.5t25 -23.5q0 -8 -13 -18z" />
    <glyph glyph-name="icircumflex" unicode="&#xee;" horiz-adv-x="263" 
d="M0 0zM197 51q0 -20 13 -19l33 2v-34h-223v34l33 -2h2q11 0 11 19v323q0 17 -12 20l-33 -2v33h176v-374zM4 498q-5 0 -8 3t-3 8t19 27l94 113q11 15 22 15q10 0 23 -15l94 -113q18 -23 18 -27q0 -5 -3 -8t-8 -3q-6 0 -26 11l-98 65l-98 -65q-18 -11 -26 -11z" />
    <glyph glyph-name="idieresis" unicode="&#xef;" horiz-adv-x="263" 
d="M0 0zM197 51q0 -20 13 -19l33 2v-34h-223v34l33 -2h2q11 0 11 19v323q0 17 -12 20l-33 -2v33h176v-374zM-33.5 645.5q21.5 17.5 55.5 17.5q33 0 55 -17.5t22 -45.5q0 -29 -21.5 -46t-55.5 -17t-55.5 17t-21.5 46q0 28 21.5 45.5zM177.5 645.5q21.5 17.5 55.5 17.5
q33 0 55 -17.5t22 -45.5q0 -29 -21.5 -46t-55.5 -17t-55.5 17t-21.5 46q0 28 21.5 45.5z" />
    <glyph glyph-name="i.loclTRK" horiz-adv-x="263" 
d="M20 0zM197 51q0 -20 13 -19l33 2v-34h-223v34l33 -2h2q11 0 11 19v323q0 17 -12 20l-33 -2v33h176v-374zM72.5 645.5q21.5 17.5 55.5 17.5q33 0 55 -17.5t22 -45.5q0 -29 -21.5 -46t-55.5 -17t-55.5 17t-21.5 46q0 28 21.5 45.5z" />
    <glyph glyph-name="igrave" unicode="&#xec;" horiz-adv-x="263" 
d="M0 0zM197 51q0 -20 13 -19l33 2v-34h-223v34l33 -2h2q11 0 11 19v323q0 17 -12 20l-33 -2v33h176v-374zM5 644.5q25 13.5 43 13.5q10 0 15.5 -4t20.5 -21l95 -104q16 -17 16 -27t-11 -10q-10 0 -24 9l-167 102q-13 10 -13 18q0 10 25 23.5z" />
    <glyph glyph-name="ij" unicode="&#x133;" horiz-adv-x="525" 
d="M20 0zM184.5 640q21.5 -17 21.5 -45q0 -29 -21.5 -46t-55.5 -17t-55.5 17t-21.5 46q0 28 21.5 45t55.5 17t55.5 -17zM197 51q0 -20 13 -19l33 2v-34h-223v34l33 -2h2q11 0 11 19v323q0 17 -12 20l-33 -2v33h176v-374zM448 640q22 -17 22 -45q0 -29 -21.5 -46t-56.5 -17
q-34 0 -55 16.5t-21 46.5q0 28 21 45t55 17t56 -17zM460 -12q0 -118 -39.5 -174.5t-118.5 -56.5q-61 0 -95 21t-34 56q0 26 17 42t46 16q18 0 36.5 -10t18.5 -35q0 -5 -3 -16t-3 -15q0 -25 22 -25q15 0 23.5 14.5t8.5 35.5q0 11 -3 31q-7 47 -7 91v411q0 9 -3.5 15t-9.5 5
l-33 -2v33h177v-437z" />
    <glyph glyph-name="imacron" unicode="&#x12b;" horiz-adv-x="263" 
d="M8 0zM197 51q0 -20 13 -19l33 2v-34h-223v34l33 -2h2q11 0 11 19v323q0 17 -12 20l-33 -2v33h176v-374zM8 565v47h239v-47h-239z" />
    <glyph glyph-name="iogonek" unicode="&#x12f;" horiz-adv-x="263" 
d="M72.5 554q-21.5 17 -21.5 46q0 28 21.5 45.5t55.5 17.5q33 0 55 -17.5t22 -45.5q0 -29 -21.5 -46t-55.5 -17t-55.5 17zM302 -100q-25 -29 -55.5 -44.5t-62.5 -15.5q-33 0 -57 19t-24 53q0 25 13 48t39 40h-135v34l33 -2h2q11 0 11 19v323q0 17 -12 20l-33 -2v33h176v-374
q0 -20 13 -19l33 2v-34h-49q-24 -22 -24 -56q0 -20 12.5 -33t37.5 -13q34 0 70 21z" />
    <glyph glyph-name="j" unicode="j" horiz-adv-x="262" 
d="M185 640q22 -17 22 -45q0 -29 -21.5 -46t-56.5 -17q-34 0 -55 16.5t-21 46.5q0 28 21 45t55 17t56 -17zM197 -12q0 -118 -39.5 -174.5t-118.5 -56.5q-61 0 -95 21t-34 56q0 26 17 42t46 16q18 0 36.5 -10t18.5 -35q0 -5 -3 -16t-3 -15q0 -25 22 -25q15 0 23.5 14.5
t8.5 35.5q0 11 -3 31q-7 47 -7 91v411q0 9 -3.5 15t-9.5 5l-33 -2v33h177v-437z" />
    <glyph glyph-name="uni0237" unicode="&#x237;" horiz-adv-x="262" 
d="M197 -12q0 -118 -39.5 -174.5t-118.5 -56.5q-61 0 -95 21t-34 56q0 26 17 42t46 16q18 0 36.5 -10t18.5 -35q0 -5 -3 -16t-3 -15q0 -25 22 -25q15 0 23.5 14.5t8.5 35.5q0 11 -3 31q-7 47 -7 91v411q0 9 -3.5 15t-9.5 5l-33 -2v33h177v-437z" />
    <glyph glyph-name="k" unicode="k" horiz-adv-x="524" 
d="M517 34v-34h-241v34l34 -2h2q7 0 8.5 4t-1.5 10l-99 169l-23 -19v-145q0 -20 13 -19l35 2v-34h-225v34l33 -2q13 3 13 19v628q0 21 -12 21l-33 -2v32h176v-492l160 137q6 6 6 13q0 3 -2.5 5.5t-6.5 1.5l-43 -2v32h170v-32l-36 2q-15 0 -31 -14l-97 -83l144 -248
q5 -8 13 -13.5t14 -4.5z" />
    <glyph glyph-name="kcommaaccent" unicode="&#x137;" horiz-adv-x="524" 
d="M20 0zM517 34v-34h-241v34l34 -2h2q7 0 8.5 4t-1.5 10l-99 169l-23 -19v-145q0 -20 13 -19l35 2v-34h-225v34l33 -2q13 3 13 19v628q0 21 -12 21l-33 -2v32h176v-492l160 137q6 6 6 13q0 3 -2.5 5.5t-6.5 1.5l-43 -2v32h170v-32l-36 2q-15 0 -31 -14l-97 -83l144 -248
q5 -8 13 -13.5t14 -4.5zM256.5 -200q14.5 17 14.5 30q0 29 -28 29q-19 0 -30 14.5t-11 34.5q0 23 16 40.5t47 17.5q35 0 57 -23t22 -54q0 -45 -29 -82t-70 -58l-22 22q19 12 33.5 29z" />
    <glyph glyph-name="l" unicode="l" horiz-adv-x="263" 
d="M20 34l33 -2q13 3 13 19v629q0 17 -12 21l-33 -2v32h176v-680q0 -20 13 -19l33 2v-34h-223v34z" />
    <glyph glyph-name="lacute" unicode="&#x13a;" horiz-adv-x="263" 
d="M259 820l-178 -65q-10 -4 -18 -4q-16 0 -16 11q0 6 4 10.5t16 12.5l113 83q12 9 18.5 12t12.5 3q15 0 39.5 -17.5t24.5 -30.5q0 -9 -16 -15zM20 34l33 -2q13 3 13 19v629q0 17 -12 21l-33 -2v32h176v-680q0 -20 13 -19l33 2v-34h-223v34z" />
    <glyph glyph-name="lcaron" unicode="&#x13e;" horiz-adv-x="263" 
d="M239 477q11 14 11 28q0 21 -21 21q-10 0 -18.5 5t-13.5 13v-493q0 -20 13 -19l33 2v-34h-223v34l33 -2q13 3 13 19v629q0 17 -12 21l-33 -2v32h176v-138q7 14 22 22t34 8q30 0 50 -19.5t20 -50.5q0 -38 -26.5 -71.5t-62.5 -50.5l-21 22q15 10 26 24z" />
    <glyph glyph-name="lcommaaccent" unicode="&#x13c;" horiz-adv-x="263" 
d="M20 0zM20 34l33 -2q13 3 13 19v629q0 17 -12 21l-33 -2v32h176v-680q0 -20 13 -19l33 2v-34h-223v34zM124.5 -200q14.5 17 14.5 30q0 29 -28 29q-19 0 -30 14.5t-11 34.5q0 23 16 40.5t47 17.5q35 0 57 -23t22 -54q0 -45 -29 -82t-70 -58l-22 22q19 12 33.5 29z" />
    <glyph glyph-name="ldot" unicode="&#x140;" horiz-adv-x="263" 
d="M20 34l33 -2q13 3 13 19v629q0 17 -12 21l-33 -2v32h176v-680q0 -20 13 -19l33 2v-34h-223v34zM236.5 399.5q18.5 17.5 47.5 17.5q28 0 46.5 -17.5t18.5 -45.5q0 -29 -18 -46t-47 -17t-47.5 17t-18.5 46q0 28 18.5 45.5z" />
    <glyph glyph-name="lslash" unicode="&#x142;" horiz-adv-x="263" 
d="M197 429v-378q0 -20 13 -19l33 2v-34h-223v34l33 -2q13 3 13 19v277l-56 -47v52l56 47v300q0 17 -12 21l-33 -2v32h176v-249l57 48v-54z" />
    <glyph glyph-name="m" unicode="m" horiz-adv-x="807" 
d="M796 34v-34h-226v34l36 -2q13 3 13 19v242q0 51 -7.5 73t-31.5 22q-22 0 -46.5 -22t-41.5 -64t-18 -99v-152q0 -19 13 -19l35 2v-34h-228v34l36 -2q13 3 13 19v242q0 53 -8 74t-33 21q-21 0 -44.5 -21t-40.5 -60.5t-20 -93.5v-162q0 -20 13 -19l36 2v-34h-226v34l33 -2
q13 3 13 19v323q0 17 -13 20l-33 -2v33h183q-5 -15 -5 -34v-56q21 47 60 73.5t93 26.5t83.5 -25t36.5 -81q21 51 61 78.5t95 27.5q64 0 93.5 -34.5t29.5 -108.5v-241q0 -19 13 -19z" />
    <glyph glyph-name="n" unicode="n" horiz-adv-x="539" 
d="M528 34v-34h-228v34l38 -2q13 3 13 19v242q0 52 -8.5 73.5t-38.5 21.5q-26 0 -50.5 -22t-40.5 -65t-16 -103v-147q0 -19 13 -19l39 2v-34h-229v34l33 -2q13 3 13 19v323q0 17 -13 20l-33 -2v33h182q-5 -15 -5 -35v-56q22 48 61.5 74.5t93.5 26.5q68 0 99 -34.5t31 -108.5
v-241q0 -19 13 -19z" />
    <glyph glyph-name="nacute" unicode="&#x144;" horiz-adv-x="539" 
d="M20 0zM528 34v-34h-228v34l38 -2q13 3 13 19v242q0 52 -8.5 73.5t-38.5 21.5q-26 0 -50.5 -22t-40.5 -65t-16 -103v-147q0 -19 13 -19l39 2v-34h-229v34l33 -2q13 3 13 19v323q0 17 -13 20l-33 -2v33h182q-5 -15 -5 -35v-56q22 48 61.5 74.5t93.5 26.5q68 0 99 -34.5
t31 -108.5v-241q0 -19 13 -19zM409 603l-167 -102q-13 -9 -24 -9t-11 10t16 27l95 104q15 17 20.5 21t15.5 4q18 0 43 -13.5t25 -23.5q0 -8 -13 -18z" />
    <glyph glyph-name="ncaron" unicode="&#x148;" horiz-adv-x="539" 
d="M20 0zM528 34v-34h-228v34l38 -2q13 3 13 19v242q0 52 -8.5 73.5t-38.5 21.5q-26 0 -50.5 -22t-40.5 -65t-16 -103v-147q0 -19 13 -19l39 2v-34h-229v34l33 -2q13 3 13 19v323q0 17 -13 20l-33 -2v33h182q-5 -15 -5 -35v-56q22 48 61.5 74.5t93.5 26.5q68 0 99 -34.5
t31 -108.5v-241q0 -19 13 -19zM130 662q14 0 33 -12l111 -66l112 66q19 12 33 12q11 0 11 -8q0 -4 -8 -12.5t-20 -19.5q-30 -30 -48 -50l-23 -24l-24 -24q-16 -18 -33 -18q-15 0 -33 18l-24 24l-23 24q-18 20 -48 50q-12 11 -20 19.5t-8 12.5q0 8 12 8z" />
    <glyph glyph-name="ncommaaccent" unicode="&#x146;" horiz-adv-x="539" 
d="M20 0zM528 34v-34h-228v34l38 -2q13 3 13 19v242q0 52 -8.5 73.5t-38.5 21.5q-26 0 -50.5 -22t-40.5 -65t-16 -103v-147q0 -19 13 -19l39 2v-34h-229v34l33 -2q13 3 13 19v323q0 17 -13 20l-33 -2v33h182q-5 -15 -5 -35v-56q22 48 61.5 74.5t93.5 26.5q68 0 99 -34.5
t31 -108.5v-241q0 -19 13 -19zM270.5 -200q14.5 17 14.5 30q0 29 -28 29q-19 0 -30 14.5t-11 34.5q0 23 16 40.5t47 17.5q35 0 57 -23t22 -54q0 -45 -29 -82t-70 -58l-22 22q19 12 33.5 29z" />
    <glyph glyph-name="ntilde" unicode="&#xf1;" horiz-adv-x="539" 
d="M20 0zM528 34v-34h-228v34l38 -2q13 3 13 19v242q0 52 -8.5 73.5t-38.5 21.5q-26 0 -50.5 -22t-40.5 -65t-16 -103v-147q0 -19 13 -19l39 2v-34h-229v34l33 -2q13 3 13 19v323q0 17 -13 20l-33 -2v33h182q-5 -15 -5 -35v-56q22 48 61.5 74.5t93.5 26.5q68 0 99 -34.5
t31 -108.5v-241q0 -19 13 -19zM147 603q16 27 48 27q17 0 37.5 -5.5t52.5 -15.5q20 -7 40 -12.5t32 -5.5q14 0 23.5 10.5t9.5 27.5h27q0 -45 -16 -72t-48 -27q-28 0 -90 22q-5 2 -30 10t-41 8q-14 0 -23.5 -10.5t-9.5 -28.5h-28q0 45 16 72z" />
    <glyph glyph-name="o" unicode="o" horiz-adv-x="487" 
d="M76 378q56 57 168 57q113 0 168 -57t55 -165q0 -223 -223 -223q-112 0 -168 57t-56 166q0 108 56 165zM179.5 67.5q19.5 -42.5 64.5 -42.5t64 42t19 144q0 104 -19 147t-64 43t-64.5 -43t-19.5 -147q0 -101 19.5 -143.5z" />
    <glyph glyph-name="oacute" unicode="&#xf3;" horiz-adv-x="487" 
d="M20 0zM76 378q56 57 168 57q113 0 168 -57t55 -165q0 -223 -223 -223q-112 0 -168 57t-56 166q0 108 56 165zM179.5 67.5q19.5 -42.5 64.5 -42.5t64 42t19 144q0 104 -19 147t-64 43t-64.5 -43t-19.5 -147q0 -101 19.5 -143.5zM379 603l-167 -102q-13 -9 -24 -9t-11 10
t16 27l95 104q15 17 20.5 21t15.5 4q18 0 43 -13.5t25 -23.5q0 -8 -13 -18z" />
    <glyph glyph-name="ocircumflex" unicode="&#xf4;" horiz-adv-x="487" 
d="M20 0zM76 378q56 57 168 57q113 0 168 -57t55 -165q0 -223 -223 -223q-112 0 -168 57t-56 166q0 108 56 165zM179.5 67.5q19.5 -42.5 64.5 -42.5t64 42t19 144q0 104 -19 147t-64 43t-64.5 -43t-19.5 -147q0 -101 19.5 -143.5zM388 498q-14 0 -33 12l-111 66l-112 -66
q-19 -12 -33 -12q-11 0 -11 8q0 4 8 12.5t20 19.5q30 30 48 50l23 24l24 24q17 18 33 18q15 0 33 -18l24 -24l23 -24q18 -20 48 -50q12 -11 20 -19.5t8 -12.5q0 -8 -12 -8z" />
    <glyph glyph-name="odieresis" unicode="&#xf6;" horiz-adv-x="487" 
d="M20 0zM76 378q56 57 168 57q113 0 168 -57t55 -165q0 -223 -223 -223q-112 0 -168 57t-56 166q0 108 56 165zM179.5 67.5q19.5 -42.5 64.5 -42.5t64 42t19 144q0 104 -19 147t-64 43t-64.5 -43t-19.5 -147q0 -101 19.5 -143.5zM82.5 645.5q21.5 17.5 55.5 17.5
q33 0 55 -17.5t22 -45.5q0 -29 -21.5 -46t-55.5 -17t-55.5 17t-21.5 46q0 28 21.5 45.5zM293.5 645.5q21.5 17.5 55.5 17.5q33 0 55 -17.5t22 -45.5q0 -29 -21.5 -46t-55.5 -17t-55.5 17t-21.5 46q0 28 21.5 45.5z" />
    <glyph glyph-name="ograve" unicode="&#xf2;" horiz-adv-x="487" 
d="M20 0zM76 378q56 57 168 57q113 0 168 -57t55 -165q0 -223 -223 -223q-112 0 -168 57t-56 166q0 108 56 165zM179.5 67.5q19.5 -42.5 64.5 -42.5t64 42t19 144q0 104 -19 147t-64 43t-64.5 -43t-19.5 -147q0 -101 19.5 -143.5zM121 644.5q25 13.5 43 13.5q10 0 15.5 -4
t20.5 -21l95 -104q16 -17 16 -27t-11 -10q-10 0 -24 9l-167 102q-13 10 -13 18q0 10 25 23.5z" />
    <glyph glyph-name="ohungarumlaut" unicode="&#x151;" horiz-adv-x="487" 
d="M20 0zM76 378q56 57 168 57q113 0 168 -57t55 -165q0 -223 -223 -223q-112 0 -168 57t-56 166q0 108 56 165zM179.5 67.5q19.5 -42.5 64.5 -42.5t64 42t19 144q0 104 -19 147t-64 43t-64.5 -43t-19.5 -147q0 -101 19.5 -143.5zM155 558q48 87 51 91q4 5 6.5 7t6.5 2
q7 0 26.5 -6l31.5 -10q9 -4 9 -12q0 -4 -6 -12q-8 -9 -115 -109q-13 -12 -24 -12q-5 0 -8 3t-3 6q0 5 3 11zM298 586q34 62 35 63q4 5 6.5 7t6.5 2q7 0 27 -6t32 -10q9 -4 9 -12q0 -4 -6 -12l-116 -109q-13 -12 -24 -12q-5 0 -7.5 3t-2.5 6q0 5 3 11z" />
    <glyph glyph-name="omacron" unicode="&#x14d;" horiz-adv-x="487" 
d="M20 0zM76 378q56 57 168 57q113 0 168 -57t55 -165q0 -223 -223 -223q-112 0 -168 57t-56 166q0 108 56 165zM179.5 67.5q19.5 -42.5 64.5 -42.5t64 42t19 144q0 104 -19 147t-64 43t-64.5 -43t-19.5 -147q0 -101 19.5 -143.5zM124 565v47h239v-47h-239z" />
    <glyph glyph-name="oslash" unicode="&#xf8;" horiz-adv-x="487" 
d="M467 213q0 -223 -223 -223q-49 0 -85 10l-49 -88l-46 23l47 85q-91 52 -91 193q0 108 56 165t168 57q54 0 93 -13l47 85l42 -27l-44 -78q85 -53 85 -189zM166 117l139 248q-20 36 -61 36q-45 0 -64.5 -43t-19.5 -147q0 -56 6 -94zM308 67q19 42 19 144q0 53 -4 84
l-135 -243q18 -27 56 -27q45 0 64 42z" />
    <glyph glyph-name="otilde" unicode="&#xf5;" horiz-adv-x="487" 
d="M20 0zM76 378q56 57 168 57q113 0 168 -57t55 -165q0 -223 -223 -223q-112 0 -168 57t-56 166q0 108 56 165zM179.5 67.5q19.5 -42.5 64.5 -42.5t64 42t19 144q0 104 -19 147t-64 43t-64.5 -43t-19.5 -147q0 -101 19.5 -143.5zM117 603q16 27 48 27q17 0 37.5 -5.5
t52.5 -15.5q20 -7 40 -12.5t32 -5.5q14 0 23.5 10.5t9.5 27.5h27q0 -45 -16 -72t-48 -27q-28 0 -90 22q-5 2 -30 10t-41 8q-14 0 -23.5 -10.5t-9.5 -28.5h-28q0 45 16 72z" />
    <glyph glyph-name="oe" unicode="&#x153;" horiz-adv-x="768" 
d="M693.5 385.5q54.5 -49.5 54.5 -141.5v-34h-290q0 -87 33 -133t96 -46q46 0 81 24.5t49 56.5l27 -19q-23 -49 -72.5 -76t-120.5 -27q-100 0 -157 51q-28 -27 -64.5 -39t-87.5 -12q-110 0 -166 57t-56 164t55 165.5t166 58.5q101 0 153 -51q29 26 66 38.5t87 12.5
q92 0 146.5 -49.5zM179 357q-19 -44 -19 -147q0 -98 19 -141.5t63 -43.5q33 0 51 18.5t26 58.5t8 109q0 72 -8.5 113t-27 59t-50.5 18q-43 0 -62 -44zM480 358.5q-21 -42.5 -21 -116.5h137q18 0 18 29q0 67 -16.5 98.5t-54.5 31.5q-42 0 -63 -42.5z" />
    <glyph glyph-name="p" unicode="p" horiz-adv-x="521" 
d="M455 380q42 -55 42 -169q0 -111 -46.5 -166t-143.5 -55q-41 0 -70.5 13t-43.5 36v-227q0 -20 13 -20l62 2v-33h-248v33l29 -2q13 1 13 20v562q0 20 -13 20l-33 -2v33h181q-4 -25 -4 -51v-25q15 42 46.5 64t85.5 22q88 0 130 -55zM219 346q-24 -44 -24 -117v-43
q0 -150 86 -150q30 0 46.5 16.5t23.5 54t7 104.5q0 69 -6 107t-21.5 55t-43.5 17q-44 0 -68 -44z" />
    <glyph glyph-name="thorn" unicode="&#xfe;" horiz-adv-x="520" 
d="M193 344q15 42 46 64t86 22q88 0 130 -54.5t42 -166.5q0 -110 -46.5 -164.5t-143.5 -54.5q-41 0 -70.5 13t-43.5 36v-227q0 -20 13 -20l62 2v-33h-248v33l29 -2q13 1 13 20v867q0 18 -13 21l-33 -2v33h177v-387zM219 341q-24 -43 -24 -115v-42q0 -148 85 -148
q30 0 46.5 16t23.5 53t7 104q0 68 -6 105t-21 53.5t-44 16.5q-43 0 -67 -43z" />
    <glyph glyph-name="q" unicode="q" horiz-adv-x="513" 
d="M279 422q30 -13 51 -42q1 -1 5.5 -7.5t17.5 -6.5q35 0 35 59h71v-613q0 -20 13 -19l28 1v-33h-241v33l56 -1q13 1 13 19v250q-12 -28 -45 -50t-84 -22q-85 0 -130 56t-45 166q0 109 46.5 166t136.5 57q42 0 72 -13zM180.5 350.5q-16.5 -39.5 -16.5 -131.5
q0 -104 17.5 -143.5t56.5 -39.5q46 0 67 48t21 103v44q0 68 -19 113.5t-67 45.5q-43 0 -59.5 -39.5z" />
    <glyph glyph-name="r" unicode="r" horiz-adv-x="419" 
d="M385.5 410q27.5 -25 27.5 -65q0 -30 -17.5 -45t-42.5 -15q-21 0 -37.5 10.5t-16.5 30.5q0 7 4 21q3 18 3 20q0 22 -19 22q-26 0 -46.5 -29.5t-31.5 -73.5t-12 -85v-150q0 -19 13 -19l69 2v-34h-254v34l28 -2q13 0 13 19v323q0 20 -13 20l-32 -2v33h182q-2 -6 -4 -19.5
t-2 -26.5v-46q36 102 118 102q43 0 70.5 -25z" />
    <glyph glyph-name="racute" unicode="&#x155;" horiz-adv-x="419" 
d="M21 0zM385.5 410q27.5 -25 27.5 -65q0 -30 -17.5 -45t-42.5 -15q-21 0 -37.5 10.5t-16.5 30.5q0 7 4 21q3 18 3 20q0 22 -19 22q-26 0 -46.5 -29.5t-31.5 -73.5t-12 -85v-150q0 -19 13 -19l69 2v-34h-254v34l28 -2q13 0 13 19v323q0 20 -13 20l-32 -2v33h182
q-2 -6 -4 -19.5t-2 -26.5v-46q36 102 118 102q43 0 70.5 -25zM276 603l-167 -102q-13 -9 -24 -9t-11 10t16 27l95 104q15 17 20.5 21t15.5 4q18 0 43 -13.5t25 -23.5q0 -8 -13 -18z" />
    <glyph glyph-name="rcaron" unicode="&#x159;" horiz-adv-x="419" 
d="M0 0zM385.5 410q27.5 -25 27.5 -65q0 -30 -17.5 -45t-42.5 -15q-21 0 -37.5 10.5t-16.5 30.5q0 7 4 21q3 18 3 20q0 22 -19 22q-26 0 -46.5 -29.5t-31.5 -73.5t-12 -85v-150q0 -19 13 -19l69 2v-34h-254v34l28 -2q13 0 13 19v323q0 20 -13 20l-32 -2v33h182
q-2 -6 -4 -19.5t-2 -26.5v-46q36 102 118 102q43 0 70.5 -25zM-3 662q14 0 33 -12l111 -66l112 66q19 12 33 12q11 0 11 -8q0 -4 -8 -12.5t-20 -19.5q-30 -30 -48 -50l-23 -24l-24 -24q-16 -18 -33 -18q-15 0 -33 18l-24 24l-23 24q-18 20 -48 50q-12 11 -20 19.5t-8 12.5
q0 8 12 8z" />
    <glyph glyph-name="rcommaaccent" unicode="&#x157;" horiz-adv-x="419" 
d="M21 0zM385.5 410q27.5 -25 27.5 -65q0 -30 -17.5 -45t-42.5 -15q-21 0 -37.5 10.5t-16.5 30.5q0 7 4 21q3 18 3 20q0 22 -19 22q-26 0 -46.5 -29.5t-31.5 -73.5t-12 -85v-150q0 -19 13 -19l69 2v-34h-254v34l28 -2q13 0 13 19v323q0 20 -13 20l-32 -2v33h182
q-2 -6 -4 -19.5t-2 -26.5v-46q36 102 118 102q43 0 70.5 -25zM138.5 -200q14.5 17 14.5 30q0 29 -28 29q-19 0 -30 14.5t-11 34.5q0 23 16 40.5t47 17.5q35 0 57 -23t22 -54q0 -45 -29 -82t-70 -58l-22 22q19 12 33.5 29z" />
    <glyph glyph-name="s" unicode="s" horiz-adv-x="415" 
d="M40 142l34 2q0 -51 42.5 -85t102.5 -34q33 0 52.5 15.5t19.5 43.5q0 23 -14.5 36.5t-49.5 22.5l-72 20q-58 16 -85.5 49t-27.5 84q0 62 43 100.5t121 38.5q21 0 38 -3t42 -10q32 -9 50 -9q16 0 30 8l-6 -114h-30q0 38 -31.5 66t-85.5 28q-31 0 -49.5 -15.5t-18.5 -38.5
q0 -19 14 -32.5t41 -20.5l69 -18q69 -18 94.5 -51t25.5 -85q0 -71 -48 -110.5t-127 -39.5q-23 0 -46.5 4.5t-73.5 17.5q-16 4 -28 4q-22 0 -31 -6z" />
    <glyph glyph-name="sacute" unicode="&#x15b;" horiz-adv-x="415" 
d="M35 0zM40 142l34 2q0 -51 42.5 -85t102.5 -34q33 0 52.5 15.5t19.5 43.5q0 23 -14.5 36.5t-49.5 22.5l-72 20q-58 16 -85.5 49t-27.5 84q0 62 43 100.5t121 38.5q21 0 38 -3t42 -10q32 -9 50 -9q16 0 30 8l-6 -114h-30q0 38 -31.5 66t-85.5 28q-31 0 -49.5 -15.5
t-18.5 -38.5q0 -19 14 -32.5t41 -20.5l69 -18q69 -18 94.5 -51t25.5 -85q0 -71 -48 -110.5t-127 -39.5q-23 0 -46.5 4.5t-73.5 17.5q-16 4 -28 4q-22 0 -31 -6zM354 603l-167 -102q-13 -9 -24 -9t-11 10t16 27l95 104q15 17 20.5 21t15.5 4q18 0 43 -13.5t25 -23.5
q0 -8 -13 -18z" />
    <glyph glyph-name="scaron" unicode="&#x161;" horiz-adv-x="415" 
d="M35 0zM40 142l34 2q0 -51 42.5 -85t102.5 -34q33 0 52.5 15.5t19.5 43.5q0 23 -14.5 36.5t-49.5 22.5l-72 20q-58 16 -85.5 49t-27.5 84q0 62 43 100.5t121 38.5q21 0 38 -3t42 -10q32 -9 50 -9q16 0 30 8l-6 -114h-30q0 38 -31.5 66t-85.5 28q-31 0 -49.5 -15.5
t-18.5 -38.5q0 -19 14 -32.5t41 -20.5l69 -18q69 -18 94.5 -51t25.5 -85q0 -71 -48 -110.5t-127 -39.5q-23 0 -46.5 4.5t-73.5 17.5q-16 4 -28 4q-22 0 -31 -6zM75 662q14 0 33 -12l111 -66l112 66q19 12 33 12q11 0 11 -8q0 -4 -8 -12.5t-20 -19.5q-30 -30 -48 -50l-23 -24
l-24 -24q-16 -18 -33 -18q-15 0 -33 18l-24 24l-23 24q-18 20 -48 50q-12 11 -20 19.5t-8 12.5q0 8 12 8z" />
    <glyph glyph-name="scedilla" unicode="&#x15f;" horiz-adv-x="415" 
d="M223 -36q-6 -11 -6 -19q0 -7 7.5 -10t25.5 -7q29 -5 46 -15t17 -35q0 -44 -35.5 -68t-80.5 -24q-44 0 -69 16l13 32q12 -13 35 -13q19 0 34.5 14t15.5 32q0 21 -34 39l-23 14q-11 8 -11 15t6 13l34 43q-18 1 -43.5 6.5t-60.5 14.5q-16 4 -28 4q-22 0 -31 -6l5 132l34 2
q0 -51 42.5 -85t102.5 -34q33 0 52.5 15.5t19.5 43.5q0 23 -14.5 36.5t-49.5 22.5l-72 20q-58 16 -85.5 49t-27.5 84q0 62 43 100.5t121 38.5q21 0 38 -3t42 -10q32 -9 50 -9q16 0 30 8l-6 -114h-30q0 38 -31.5 66t-85.5 28q-31 0 -49.5 -15.5t-18.5 -38.5q0 -19 14 -32.5
t41 -20.5l69 -18q69 -18 94.5 -51t25.5 -85q0 -65 -40.5 -104t-108.5 -45z" />
    <glyph glyph-name="scommaaccent" unicode="&#x219;" horiz-adv-x="415" 
d="M35 0zM40 142l34 2q0 -51 42.5 -85t102.5 -34q33 0 52.5 15.5t19.5 43.5q0 23 -14.5 36.5t-49.5 22.5l-72 20q-58 16 -85.5 49t-27.5 84q0 62 43 100.5t121 38.5q21 0 38 -3t42 -10q32 -9 50 -9q16 0 30 8l-6 -114h-30q0 38 -31.5 66t-85.5 28q-31 0 -49.5 -15.5
t-18.5 -38.5q0 -19 14 -32.5t41 -20.5l69 -18q69 -18 94.5 -51t25.5 -85q0 -71 -48 -110.5t-127 -39.5q-23 0 -46.5 4.5t-73.5 17.5q-16 4 -28 4q-22 0 -31 -6zM216.5 -200q14.5 17 14.5 30q0 29 -28 29q-19 0 -30 14.5t-11 34.5q0 23 16 40.5t47 17.5q35 0 57 -23t22 -54
q0 -45 -29 -82t-70 -58l-22 22q19 12 33.5 29z" />
    <glyph glyph-name="germandbls" unicode="&#xdf;" horiz-adv-x="563" 
d="M422 706.5q50 -30.5 50 -87.5q0 -37 -20 -63t-56 -56l-22 -19q-32 -29 -32 -61q0 -24 18.5 -46.5t59.5 -57.5l70 -60q65 -54 65 -124q0 -66 -49.5 -103t-127.5 -37q-58 0 -91 19t-33 54q0 26 16 41t44 15q25 0 36.5 -12t11.5 -30q0 -8 -3 -21t-3 -19q0 -18 21 -18
q24 0 39 18t15 53q0 64 -60 115l-63 51q-33 27 -50 52t-17 53q0 26 10.5 45t34.5 45q13 14 28 34q34 45 34 103q0 53 -22 84t-62 31q-38 0 -60.5 -28t-22.5 -74q0 -24 7 -75q8 -64 8 -94v-386q0 -9 4 -15t10 -6l35 2v-29h-225v29l33 -2q6 0 9 6t3 15v464q0 117 53.5 171
t162.5 54q91 0 141 -30.5z" />
    <glyph glyph-name="t" unicode="t" horiz-adv-x="325" 
d="M201 425h99v-32h-99v-306q0 -35 9 -47t28 -12q12 0 25.5 10.5t20.5 28.5l27 -15q-13 -32 -40.5 -46.5t-69.5 -14.5q-61 0 -96 23.5t-35 74.5v304h-60v32q40 0 61 7.5t33.5 28.5t23.5 66h73v-102z" />
    <glyph glyph-name="tcaron" unicode="&#x165;" horiz-adv-x="325" 
d="M10 0zM201 425h99v-32h-99v-306q0 -35 9 -47t28 -12q12 0 25.5 10.5t20.5 28.5l27 -15q-13 -32 -40.5 -46.5t-69.5 -14.5q-61 0 -96 23.5t-35 74.5v304h-60v32q40 0 61 7.5t33.5 28.5t23.5 66h73v-102zM255 477q11 14 11 28q0 21 -21 21q-17 0 -27.5 11.5t-10.5 30.5
q0 25 17.5 40t44.5 15q30 0 50 -19.5t20 -50.5q0 -38 -26.5 -71.5t-62.5 -50.5l-21 22q15 10 26 24z" />
    <glyph glyph-name="uni0163" unicode="&#x163;" horiz-adv-x="325" 
d="M169 -36q-6 -11 -6 -19q0 -7 7.5 -10t25.5 -7q29 -5 46 -15t17 -35q0 -44 -35.5 -68t-80.5 -24q-44 0 -69 16l13 32q12 -13 35 -13q19 0 34.5 14t15.5 32q0 21 -34 39l-23 14q-11 8 -11 15t6 13l38 48q-78 18 -78 93v304h-60v32q40 0 61 7.5t33.5 28.5t23.5 66h73v-102
h99v-32h-99v-306q0 -35 9 -47t28 -12q12 0 25.5 10.5t20.5 28.5l27 -15q-13 -32 -40.5 -46.5t-69.5 -14.5h-15z" />
    <glyph glyph-name="uni021B" unicode="&#x21b;" horiz-adv-x="325" 
d="M10 0zM201 425h99v-32h-99v-306q0 -35 9 -47t28 -12q12 0 25.5 10.5t20.5 28.5l27 -15q-13 -32 -40.5 -46.5t-69.5 -14.5q-61 0 -96 23.5t-35 74.5v304h-60v32q40 0 61 7.5t33.5 28.5t23.5 66h73v-102zM162.5 -200q14.5 17 14.5 30q0 29 -28 29q-19 0 -30 14.5t-11 34.5
q0 23 16 40.5t47 17.5q35 0 57 -23t22 -54q0 -45 -29 -82t-70 -58l-22 22q19 12 33.5 29z" />
    <glyph glyph-name="u" unicode="u" horiz-adv-x="532" 
d="M512 34v-34h-183q5 15 5 44v45q-45 -99 -152 -99q-65 0 -95 35.5t-30 112.5v237q0 19 -13 19l-33 -2v33h177v-293q0 -51 8.5 -73t35.5 -22q24 0 47.5 21t38.5 62.5t16 99.5v154q0 20 -12 20l-39 -2v33h183v-374q0 -18 13 -19z" />
    <glyph glyph-name="uacute" unicode="&#xfa;" horiz-adv-x="532" 
d="M11 0zM512 34v-34h-183q5 15 5 44v45q-45 -99 -152 -99q-65 0 -95 35.5t-30 112.5v237q0 19 -13 19l-33 -2v33h177v-293q0 -51 8.5 -73t35.5 -22q24 0 47.5 21t38.5 62.5t16 99.5v154q0 20 -12 20l-39 -2v33h183v-374q0 -18 13 -19zM390 603l-167 -102q-13 -9 -24 -9
t-11 10t16 27l95 104q15 17 20.5 21t15.5 4q18 0 43 -13.5t25 -23.5q0 -8 -13 -18z" />
    <glyph glyph-name="ucircumflex" unicode="&#xfb;" horiz-adv-x="532" 
d="M11 0zM512 34v-34h-183q5 15 5 44v45q-45 -99 -152 -99q-65 0 -95 35.5t-30 112.5v237q0 19 -13 19l-33 -2v33h177v-293q0 -51 8.5 -73t35.5 -22q24 0 47.5 21t38.5 62.5t16 99.5v154q0 20 -12 20l-39 -2v33h183v-374q0 -18 13 -19zM399 498q-14 0 -33 12l-111 66
l-112 -66q-19 -12 -33 -12q-11 0 -11 8q0 4 8 12.5t20 19.5q30 30 48 50l23 24l24 24q17 18 33 18q15 0 33 -18l24 -24l23 -24q18 -20 48 -50q12 -11 20 -19.5t8 -12.5q0 -8 -12 -8z" />
    <glyph glyph-name="udieresis" unicode="&#xfc;" horiz-adv-x="532" 
d="M11 0zM512 34v-34h-183q5 15 5 44v45q-45 -99 -152 -99q-65 0 -95 35.5t-30 112.5v237q0 19 -13 19l-33 -2v33h177v-293q0 -51 8.5 -73t35.5 -22q24 0 47.5 21t38.5 62.5t16 99.5v154q0 20 -12 20l-39 -2v33h183v-374q0 -18 13 -19zM93.5 645.5q21.5 17.5 55.5 17.5
q33 0 55 -17.5t22 -45.5q0 -29 -21.5 -46t-55.5 -17t-55.5 17t-21.5 46q0 28 21.5 45.5zM304.5 645.5q21.5 17.5 55.5 17.5q33 0 55 -17.5t22 -45.5q0 -29 -21.5 -46t-55.5 -17t-55.5 17t-21.5 46q0 28 21.5 45.5z" />
    <glyph glyph-name="ugrave" unicode="&#xf9;" horiz-adv-x="532" 
d="M11 0zM512 34v-34h-183q5 15 5 44v45q-45 -99 -152 -99q-65 0 -95 35.5t-30 112.5v237q0 19 -13 19l-33 -2v33h177v-293q0 -51 8.5 -73t35.5 -22q24 0 47.5 21t38.5 62.5t16 99.5v154q0 20 -12 20l-39 -2v33h183v-374q0 -18 13 -19zM132 644.5q25 13.5 43 13.5
q10 0 15.5 -4t20.5 -21l95 -104q16 -17 16 -27t-11 -10q-10 0 -24 9l-167 102q-13 10 -13 18q0 10 25 23.5z" />
    <glyph glyph-name="uhungarumlaut" unicode="&#x171;" horiz-adv-x="532" 
d="M11 0zM512 34v-34h-183q5 15 5 44v45q-45 -99 -152 -99q-65 0 -95 35.5t-30 112.5v237q0 19 -13 19l-33 -2v33h177v-293q0 -51 8.5 -73t35.5 -22q24 0 47.5 21t38.5 62.5t16 99.5v154q0 20 -12 20l-39 -2v33h183v-374q0 -18 13 -19zM166 558q48 87 51 91q4 5 6.5 7t6.5 2
q7 0 26.5 -6l31.5 -10q9 -4 9 -12q0 -4 -6 -12q-8 -9 -115 -109q-13 -12 -24 -12q-5 0 -8 3t-3 6q0 5 3 11zM309 586q34 62 35 63q4 5 6.5 7t6.5 2q7 0 27 -6t32 -10q9 -4 9 -12q0 -4 -6 -12l-116 -109q-13 -12 -24 -12q-5 0 -7.5 3t-2.5 6q0 5 3 11z" />
    <glyph glyph-name="umacron" unicode="&#x16b;" horiz-adv-x="532" 
d="M11 0zM512 34v-34h-183q5 15 5 44v45q-45 -99 -152 -99q-65 0 -95 35.5t-30 112.5v237q0 19 -13 19l-33 -2v33h177v-293q0 -51 8.5 -73t35.5 -22q24 0 47.5 21t38.5 62.5t16 99.5v154q0 20 -12 20l-39 -2v33h183v-374q0 -18 13 -19zM135 565v47h239v-47h-239z" />
    <glyph glyph-name="uogonek" unicode="&#x173;" horiz-adv-x="532" 
d="M557 -102q-25 -29 -55.5 -44.5t-62.5 -15.5q-33 0 -57 19t-24 53q0 26 14 49.5t41 40.5h-84q5 15 5 44v45q-45 -99 -152 -99q-65 0 -95 35.5t-30 112.5v237q0 19 -13 19l-33 -2v33h177v-293q0 -51 8.5 -73t35.5 -22q24 0 47.5 21t38.5 62.5t16 99.5v154q0 20 -12 20
l-39 -2v33h183v-374q0 -18 13 -19l33 2v-34h-61q-26 -21 -26 -58q0 -20 12.5 -33t37.5 -13q34 0 70 21z" />
    <glyph glyph-name="uring" unicode="&#x16f;" horiz-adv-x="532" 
d="M11 0zM512 34v-34h-183q5 15 5 44v45q-45 -99 -152 -99q-65 0 -95 35.5t-30 112.5v237q0 19 -13 19l-33 -2v33h177v-293q0 -51 8.5 -73t35.5 -22q24 0 47.5 21t38.5 62.5t16 99.5v154q0 20 -12 20l-39 -2v33h183v-374q0 -18 13 -19zM192 639q25 24 62 24q38 0 63 -23.5
t25 -59.5t-25 -59.5t-63 -23.5t-62.5 23.5t-24.5 59.5q0 35 25 59zM227 549q10 -11 27 -11t27.5 11.5t10.5 30.5t-10.5 30t-27.5 11t-27 -11t-10 -30q0 -20 10 -31z" />
    <glyph glyph-name="v" unicode="v" horiz-adv-x="475" 
d="M466 425v-33l-32 2h-3q-14 0 -20 -15l-157 -384h-61l-154 386q-2 6 -8 10t-12 3l-32 -2v33h251v-33l-41 2q-7 0 -13 -6t-2 -14l96 -231l92 235q2 4 2 8q0 9 -10 8l-41 -2v33h145z" />
    <glyph glyph-name="w" unicode="w" horiz-adv-x="742" 
d="M733 425v-33l-37 2q-14 0 -21 -17l-148 -387h-47l-122 286l-127 -286h-44l-141 391q-6 13 -17 13l-42 -2v33h254v-33l-44 2h-2q-9 0 -12.5 -6t-0.5 -14l82 -230l122 286h48l118 -280l83 227l2 8q0 10 -13 9l-53 -2v33h162z" />
    <glyph glyph-name="wacute" unicode="&#x1e83;" horiz-adv-x="742" 
d="M0 0zM733 425v-33l-37 2q-14 0 -21 -17l-148 -387h-47l-122 286l-127 -286h-44l-141 391q-6 13 -17 13l-42 -2v33h254v-33l-44 2h-2q-9 0 -12.5 -6t-0.5 -14l82 -230l122 286h48l118 -280l83 227l2 8q0 10 -13 9l-53 -2v33h162zM544 603l-167 -102q-13 -9 -24 -9t-11 10
t16 27l95 104q15 17 20.5 21t15.5 4q18 0 43 -13.5t25 -23.5q0 -8 -13 -18z" />
    <glyph glyph-name="wcircumflex" unicode="&#x175;" horiz-adv-x="742" 
d="M0 0zM733 425v-33l-37 2q-14 0 -21 -17l-148 -387h-47l-122 286l-127 -286h-44l-141 391q-6 13 -17 13l-42 -2v33h254v-33l-44 2h-2q-9 0 -12.5 -6t-0.5 -14l82 -230l122 286h48l118 -280l83 227l2 8q0 10 -13 9l-53 -2v33h162zM553 498q-14 0 -33 12l-111 66l-112 -66
q-19 -12 -33 -12q-11 0 -11 8q0 4 8 12.5t20 19.5q30 30 48 50l23 24l24 24q17 18 33 18q15 0 33 -18l24 -24l23 -24q18 -20 48 -50q12 -11 20 -19.5t8 -12.5q0 -8 -12 -8z" />
    <glyph glyph-name="wdieresis" unicode="&#x1e85;" horiz-adv-x="742" 
d="M0 0zM733 425v-33l-37 2q-14 0 -21 -17l-148 -387h-47l-122 286l-127 -286h-44l-141 391q-6 13 -17 13l-42 -2v33h254v-33l-44 2h-2q-9 0 -12.5 -6t-0.5 -14l82 -230l122 286h48l118 -280l83 227l2 8q0 10 -13 9l-53 -2v33h162zM247.5 645.5q21.5 17.5 55.5 17.5
q33 0 55 -17.5t22 -45.5q0 -29 -21.5 -46t-55.5 -17t-55.5 17t-21.5 46q0 28 21.5 45.5zM458.5 645.5q21.5 17.5 55.5 17.5q33 0 55 -17.5t22 -45.5q0 -29 -21.5 -46t-55.5 -17t-55.5 17t-21.5 46q0 28 21.5 45.5z" />
    <glyph glyph-name="wgrave" unicode="&#x1e81;" horiz-adv-x="742" 
d="M0 0zM733 425v-33l-37 2q-14 0 -21 -17l-148 -387h-47l-122 286l-127 -286h-44l-141 391q-6 13 -17 13l-42 -2v33h254v-33l-44 2h-2q-9 0 -12.5 -6t-0.5 -14l82 -230l122 286h48l118 -280l83 227l2 8q0 10 -13 9l-53 -2v33h162zM286 644.5q25 13.5 43 13.5q10 0 15.5 -4
t20.5 -21l95 -104q16 -17 16 -27t-11 -10q-10 0 -24 9l-167 102q-13 10 -13 18q0 10 25 23.5z" />
    <glyph glyph-name="x" unicode="x" horiz-adv-x="523" 
d="M512 34v-34h-270v34l49 -3h1q6 0 7.5 5t-1.5 9l-94 133l-96 -132l-2 -4q0 -10 13 -10l43 2v-34h-155v34l39 -2q12 0 21 13l116 163l-122 173q-7 13 -19 13l-35 -2v33h263v-33l-46 2q-7 0 -10.5 -3.5t1.5 -9.5l92 -129l98 125q3 5 3 9q0 8 -9 8l-43 -2v33h153v-33l-38 2
q-5 0 -12.5 -4t-12.5 -11l-119 -156l126 -178q9 -13 19 -13z" />
    <glyph glyph-name="y" unicode="y" horiz-adv-x="501" 
d="M500 425v-33l-37 2h-2q-18 0 -25 -19l-204 -491q-29 -70 -61 -96.5t-79 -26.5q-37 0 -59.5 16.5t-24.5 48.5q0 31 17.5 48t39.5 17q23 0 34.5 -9.5t20.5 -26.5q6 -12 11.5 -17.5t14.5 -5.5q13 0 22.5 10.5t21.5 38.5l47 113l-184 387q-6 13 -16 13l-39 -2v33h258v-33
l-45 2q-7 0 -11 -5.5t-1 -11.5l107 -219l92 221q1 2 1 6q0 9 -11 9l-47 -2v33h159z" />
    <glyph glyph-name="yacute" unicode="&#xfd;" horiz-adv-x="501" 
d="M0 0zM500 425v-33l-37 2h-2q-18 0 -25 -19l-204 -491q-29 -70 -61 -96.5t-79 -26.5q-37 0 -59.5 16.5t-24.5 48.5q0 31 17.5 48t39.5 17q23 0 34.5 -9.5t20.5 -26.5q6 -12 11.5 -17.5t14.5 -5.5q13 0 22.5 10.5t21.5 38.5l47 113l-184 387q-6 13 -16 13l-39 -2v33h258
v-33l-45 2q-7 0 -11 -5.5t-1 -11.5l107 -219l92 221q1 2 1 6q0 9 -11 9l-47 -2v33h159zM407 603l-167 -102q-13 -9 -24 -9t-11 10t16 27l95 104q15 17 20.5 21t15.5 4q18 0 43 -13.5t25 -23.5q0 -8 -13 -18z" />
    <glyph glyph-name="ycircumflex" unicode="&#x177;" horiz-adv-x="501" 
d="M0 0zM500 425v-33l-37 2h-2q-18 0 -25 -19l-204 -491q-29 -70 -61 -96.5t-79 -26.5q-37 0 -59.5 16.5t-24.5 48.5q0 31 17.5 48t39.5 17q23 0 34.5 -9.5t20.5 -26.5q6 -12 11.5 -17.5t14.5 -5.5q13 0 22.5 10.5t21.5 38.5l47 113l-184 387q-6 13 -16 13l-39 -2v33h258
v-33l-45 2q-7 0 -11 -5.5t-1 -11.5l107 -219l92 221q1 2 1 6q0 9 -11 9l-47 -2v33h159zM416 498q-14 0 -33 12l-111 66l-112 -66q-19 -12 -33 -12q-11 0 -11 8q0 4 8 12.5t20 19.5q30 30 48 50l23 24l24 24q17 18 33 18q15 0 33 -18l24 -24l23 -24q18 -20 48 -50
q12 -11 20 -19.5t8 -12.5q0 -8 -12 -8z" />
    <glyph glyph-name="ydieresis" unicode="&#xff;" horiz-adv-x="501" 
d="M0 0zM500 425v-33l-37 2h-2q-18 0 -25 -19l-204 -491q-29 -70 -61 -96.5t-79 -26.5q-37 0 -59.5 16.5t-24.5 48.5q0 31 17.5 48t39.5 17q23 0 34.5 -9.5t20.5 -26.5q6 -12 11.5 -17.5t14.5 -5.5q13 0 22.5 10.5t21.5 38.5l47 113l-184 387q-6 13 -16 13l-39 -2v33h258
v-33l-45 2q-7 0 -11 -5.5t-1 -11.5l107 -219l92 221q1 2 1 6q0 9 -11 9l-47 -2v33h159zM110.5 645.5q21.5 17.5 55.5 17.5q33 0 55 -17.5t22 -45.5q0 -29 -21.5 -46t-55.5 -17t-55.5 17t-21.5 46q0 28 21.5 45.5zM321.5 645.5q21.5 17.5 55.5 17.5q33 0 55 -17.5t22 -45.5
q0 -29 -21.5 -46t-55.5 -17t-55.5 17t-21.5 46q0 28 21.5 45.5z" />
    <glyph glyph-name="ygrave" unicode="&#x1ef3;" horiz-adv-x="501" 
d="M0 0zM500 425v-33l-37 2h-2q-18 0 -25 -19l-204 -491q-29 -70 -61 -96.5t-79 -26.5q-37 0 -59.5 16.5t-24.5 48.5q0 31 17.5 48t39.5 17q23 0 34.5 -9.5t20.5 -26.5q6 -12 11.5 -17.5t14.5 -5.5q13 0 22.5 10.5t21.5 38.5l47 113l-184 387q-6 13 -16 13l-39 -2v33h258
v-33l-45 2q-7 0 -11 -5.5t-1 -11.5l107 -219l92 221q1 2 1 6q0 9 -11 9l-47 -2v33h159zM149 644.5q25 13.5 43 13.5q10 0 15.5 -4t20.5 -21l95 -104q16 -17 16 -27t-11 -10q-10 0 -24 9l-167 102q-13 10 -13 18q0 10 25 23.5z" />
    <glyph glyph-name="z" unicode="z" horiz-adv-x="443" 
d="M406 139v-139h-268l-84 -1q-9 -1 -20 -1v28l212 367h-60q-47 0 -75.5 -28t-36.5 -80h-28l9 142q3 0 29.5 -1t66.5 -1h248v-26l-207 -366h56q63 0 96 26.5t33 79.5h29z" />
    <glyph glyph-name="zacute" unicode="&#x17a;" horiz-adv-x="443" 
d="M34 0zM406 139v-139h-268l-84 -1q-9 -1 -20 -1v28l212 367h-60q-47 0 -75.5 -28t-36.5 -80h-28l9 142q3 0 29.5 -1t66.5 -1h248v-26l-207 -366h56q63 0 96 26.5t33 79.5h29zM356 603l-167 -102q-13 -9 -24 -9t-11 10t16 27l95 104q15 17 20.5 21t15.5 4q18 0 43 -13.5
t25 -23.5q0 -8 -13 -18z" />
    <glyph glyph-name="zcaron" unicode="&#x17e;" horiz-adv-x="443" 
d="M34 0zM406 139v-139h-268l-84 -1q-9 -1 -20 -1v28l212 367h-60q-47 0 -75.5 -28t-36.5 -80h-28l9 142q3 0 29.5 -1t66.5 -1h248v-26l-207 -366h56q63 0 96 26.5t33 79.5h29zM77 662q14 0 33 -12l111 -66l112 66q19 12 33 12q11 0 11 -8q0 -4 -8 -12.5t-20 -19.5
q-30 -30 -48 -50l-23 -24l-24 -24q-16 -18 -33 -18q-15 0 -33 18l-24 24l-23 24q-18 20 -48 50q-12 11 -20 19.5t-8 12.5q0 8 12 8z" />
    <glyph glyph-name="zdotaccent" unicode="&#x17c;" horiz-adv-x="443" 
d="M34 0zM406 139v-139h-268l-84 -1q-9 -1 -20 -1v28l212 367h-60q-47 0 -75.5 -28t-36.5 -80h-28l9 142q3 0 29.5 -1t66.5 -1h248v-26l-207 -366h56q63 0 96 26.5t33 79.5h29zM165.5 645.5q21.5 17.5 55.5 17.5q33 0 55 -17.5t22 -45.5q0 -29 -21.5 -46t-55.5 -17t-55.5 17
t-21.5 46q0 28 21.5 45.5z" />
    <glyph glyph-name="f.ss01" horiz-adv-x="310" 
d="M20 34l37 -2q13 0 13 19v337h-39v32h39v119q0 80 31 138.5t113 58.5q50 0 83 -24t33 -65q0 -23 -15 -39.5t-44 -16.5q-20 0 -35 10t-15 28q0 8 4 24q3 21 3 23q0 10 -5.5 18t-16.5 8q-35 0 -35 -77q0 -14 3.5 -29.5t8.5 -30.5q8 -26 12.5 -48.5t4.5 -51.5v-45h91v-32h-90
v-337q0 -19 13 -19l70 2v-34h-264v34z" />
    <glyph glyph-name="ordfeminine" unicode="&#xaa;" horiz-adv-x="343" 
d="M61 477q41 21 133 21v41q0 46 -35 46q-22 0 -27 -6t-5 -28q0 -18 -13.5 -27.5t-34.5 -9.5q-20 0 -34 11t-14 32q0 28 31.5 43t93.5 15q70 0 102.5 -21t32.5 -67v-139q0 -7 6 -7l26 1v-32h-128l3 40q-11 -23 -36 -35.5t-58 -12.5q-84 0 -84 69q0 45 41 66zM149 384
q19 0 32 19.5t13 47.5v16q-42 0 -57.5 -11.5t-15.5 -37.5q0 -34 28 -34z" />
    <glyph glyph-name="ordmasculine" unicode="&#xba;" horiz-adv-x="351" 
d="M63 581.5q41 36.5 112 36.5q72 0 113.5 -36t41.5 -102q0 -64 -41 -100t-114 -36q-75 0 -114 38t-39 98q0 65 41 101.5zM139 399q9 -23 36 -23q18 0 27.5 8.5t14 30.5t4.5 65q0 61 -9.5 84t-36.5 23q-26 0 -35.5 -24t-9.5 -83q0 -58 9 -81z" />
    <glyph glyph-name="uni0394" unicode="&#x394;" horiz-adv-x="609" 
d="M323 607l254 -607h-557l255 607h48zM418 36l-174 416l-173 -416h347z" />
    <glyph glyph-name="uni03A9" unicode="&#x3a9;" horiz-adv-x="670" 
d="M646 162q-20 -130 -20 -165q-10 3 -96 3h-143l-2 43q46 64 70 133t24 173q0 123 -34.5 173.5t-109.5 50.5t-109.5 -50.5t-34.5 -173.5q0 -104 24 -172.5t70 -133.5l-2 -43h-143q-85 0 -96 -3q0 35 -20 165h35q4 -37 24 -53t61 -16h52q-51 45 -81.5 81.5t-47.5 80.5
t-17 102q0 70 34 127t98.5 90t152.5 33t152.5 -33t98.5 -90t34 -127q0 -58 -17 -102t-47.5 -80.5t-81.5 -81.5h53q41 0 60.5 16t23.5 53h35z" />
    <glyph glyph-name="uni03BC" unicode="&#x3bc;" horiz-adv-x="540" 
d="M19 0zM520 34v-34h-183q6 15 6 45v45q-19 -41 -53 -69t-76 -28q-6 0 -18 2v-183q0 -19 13 -19l58 1v-33h-248v33l33 -1q13 1 13 19v563q0 19 -13 19l-33 -2v33h177v-293q0 -50 8.5 -72.5t35.5 -22.5q26 0 49.5 22.5t38.5 66.5t15 105v143q0 20 -13 20l-39 -2v33h183v-374
q0 -18 13 -19z" />
    <glyph glyph-name="pi" unicode="&#x3c0;" horiz-adv-x="619" 
d="M608 458q-17 -68 -17 -116v-19q-12 2 -30 2h-45h-36q-9 -131 -9 -199q0 -48 8 -71.5t31 -23.5q28 0 54 33l21 -14q-22 -31 -48.5 -43.5t-68.5 -12.5q-67 0 -93.5 33t-26.5 86q0 93 18 217l-118 4q-11 -90 -30 -190q-13 -65 -41 -109.5t-90 -44.5q-22 0 -41.5 16t-19.5 45
q0 26 14 44t36 18q12 0 32 -12q16 -10 27 -10q20 0 27.5 14.5t14.5 47.5q17 83 29 182h-27q-43 0 -71.5 -12.5t-49.5 -42.5l-25 12q51 138 160 138q70 0 204 -6q104 -4 126 -4q25 0 35.5 9t18.5 34z" />
    <glyph glyph-name="zero" unicode="0" horiz-adv-x="540" 
d="M51.5 466q32.5 70 89 105.5t129.5 35.5t129.5 -36t89 -106t32.5 -168q0 -96 -32 -165.5t-88.5 -105.5t-130.5 -36q-75 0 -131.5 36.5t-88 106t-31.5 164.5q0 99 32.5 169zM165 131q12 -59 37 -82.5t68 -23.5t68.5 24.5t37.5 83.5t12 165q0 109 -12 169t-37 84t-69 24
q-43 0 -68 -25.5t-37 -85.5t-12 -166q0 -108 12 -167z" />
    <glyph glyph-name="one" unicode="1" horiz-adv-x="365" 
d="M182 577q25 15 56 41h21v-567q0 -20 18 -20l57 1v-32h-276v32l58 -1q20 0 20 20v433q0 9 -5.5 14t-14.5 1l-65 -23l-12 38q69 16 143 63z" />
    <glyph glyph-name="two" unicode="2" horiz-adv-x="499" 
d="M462 169q-10 -50 -15.5 -98t-6.5 -74q-9 3 -59 3h-337l-3 80l122 113q72 68 111 128.5t39 139.5q0 57 -23 84.5t-61 27.5q-30 0 -49.5 -16t-19.5 -43q0 -13 5 -30q4 -20 4 -30q0 -24 -17.5 -36.5t-43.5 -12.5q-33 0 -51 20t-18 51q0 35 24.5 65t70 48t104.5 18
q93 0 151.5 -39.5t58.5 -117.5q0 -44 -19.5 -83t-61.5 -80t-115 -96l-130 -95h189q55 0 80.5 16t31.5 57h39z" />
    <glyph glyph-name="three" unicode="3" horiz-adv-x="499" 
d="M244 321q115 -2 176 -40.5t61 -113.5q0 -53 -33.5 -93.5t-91.5 -62t-132 -21.5q-58 0 -106 15.5t-75 43t-27 62.5q0 29 18 47.5t51 18.5q27 0 43.5 -14t16.5 -37q0 -7 -4 -23q-5 -13 -5 -25q0 -26 24.5 -39.5t57.5 -13.5q60 0 94.5 38.5t34.5 97.5q0 65 -48.5 96.5
t-163.5 40.5v33q45 2 85.5 20.5t65 52.5t24.5 80q0 39 -21.5 64t-63.5 25q-32 0 -54 -14.5t-22 -37.5q0 -12 5 -24q1 -3 3 -10.5t2 -15.5q0 -25 -18 -37.5t-42 -12.5q-35 0 -52 19t-17 47q0 55 62 87.5t146 32.5q89 0 147.5 -32.5t58.5 -93.5q0 -63 -57 -104.5t-143 -52.5
v-3z" />
    <glyph glyph-name="four" unicode="4" horiz-adv-x="486" 
d="M396 224h79v-77h-79v-96q0 -20 19 -20l43 1v-32h-273v32l69 -1q19 0 19 20v96h-263v68q19 17 30 30l30 31l233 278l17 22l21 28h55v-380zM273 463l-200 -239h200v239z" />
    <glyph glyph-name="five" unicode="5" horiz-adv-x="485" 
d="M398.5 326q58.5 -49 58.5 -137q0 -61 -31 -106t-85 -69t-120 -24q-74 0 -134.5 28.5t-60.5 91.5q0 33 19.5 52t48.5 19q26 0 43.5 -14.5t17.5 -37.5q0 -12 -6 -30q-4 -14 -4 -21q0 -27 22 -40.5t53 -13.5q57 0 81 39t24 111q0 151 -126 151q-35 0 -68 -14.5t-46 -34.5
h-30l26 321h271q43 0 82 3q-5 -18 -9.5 -47t-6.5 -52h-304l-18 -170q30 19 70.5 31.5t80.5 12.5q93 0 151.5 -49z" />
    <glyph glyph-name="six" unicode="6" horiz-adv-x="500" 
d="M428 342.5q55 -52.5 55 -147.5q0 -60 -28 -107t-79 -73t-117 -26q-125 0 -177 74t-52 200q0 152 60.5 248t202.5 96q49 0 86.5 -14.5t58 -38.5t20.5 -52q0 -29 -18 -46.5t-46 -17.5q-29 0 -46 12t-17 34q0 10 4 24t4 23q0 17 -14 28.5t-42 11.5q-57 0 -86 -59t-35 -158
q43 41 110 41q101 0 156 -52.5zM331.5 61.5q20.5 42.5 20.5 130.5q0 171 -92 171q-60 0 -80 -44t-20 -126q0 -72 25 -123t75 -51q51 0 71.5 42.5z" />
    <glyph glyph-name="seven" unicode="7" horiz-adv-x="447" 
d="M308.5 329q-43.5 -119 -43.5 -265q0 -31 3 -64h-131q1 81 17 156t62.5 162.5t133.5 182.5h-202q-44 0 -64 -12t-24 -42h-37l7 63q8 74 8 91q13 -4 126 -4h275l5 -46q-92 -103 -135.5 -222z" />
    <glyph glyph-name="eight" unicode="8" horiz-adv-x="515" 
d="M454 257.5q39 -41.5 39 -100.5q0 -53 -34 -90.5t-90.5 -57t-122.5 -19.5q-101 0 -160.5 33.5t-59.5 107.5q0 54 38.5 94t107.5 70q-60 34 -92.5 71t-32.5 89q0 73 62.5 112.5t158.5 39.5q91 0 147.5 -32t56.5 -94q0 -48 -38.5 -88t-88.5 -55q70 -39 109 -80.5zM199 550.5
q-28 -22.5 -28 -56.5q0 -40 34 -68.5t104 -67.5q31 22 47 53.5t16 65.5q0 46 -25.5 71t-72.5 25t-75 -22.5zM337.5 47.5q30.5 23.5 30.5 65.5q0 36 -21.5 64t-51.5 47.5t-85 49.5q-35 -21 -57.5 -58.5t-22.5 -75.5q0 -51 34 -83.5t93 -32.5q50 0 80.5 23.5z" />
    <glyph glyph-name="nine" unicode="9" horiz-adv-x="500" 
d="M436 533q52 -74 52 -200q0 -152 -60.5 -248t-202.5 -96q-49 0 -86.5 14.5t-58 38.5t-20.5 52q0 29 18 46.5t46 17.5q29 0 46 -12t17 -34q0 -10 -4 -24t-4 -23q0 -17 14 -28.5t42 -11.5q57 0 86 59t35 158q-43 -41 -110 -41q-101 0 -156 52.5t-55 147.5q0 60 28 107t79 73
t117 26q125 0 177 -74zM338 277q20 44 20 126q0 72 -25 123t-75 51q-51 0 -71.5 -42.5t-20.5 -130.5q0 -171 92 -171q60 0 80 44z" />
    <glyph glyph-name="uni00B9" unicode="&#xb9;" horiz-adv-x="222" 
d="M175 438q0 -9 9 -9h25v-26h-182v26h33q10 0 10 9v165q0 10 -10 8l-37 -7l-7 30q38 6 77.5 21t62.5 27h19v-244z" />
    <glyph glyph-name="uni00B2" unicode="&#xb2;" horiz-adv-x="293" 
d="M238 476q11 7 13 19h25q-7 -29 -11 -94q-8 2 -38 2h-204l-3 64l80 42q37 21 54 44t17 59q0 21 -8.5 32.5t-22.5 11.5q-13 0 -21 -6t-8 -16q0 -6 3 -16t3 -16q0 -17 -14.5 -26.5t-36.5 -9.5q-27 0 -40 13t-13 33q0 30 32.5 48t94.5 18t100.5 -19t38.5 -56
q0 -33 -31.5 -57.5t-95.5 -48.5l-82 -28h135q22 0 33 7z" />
    <glyph glyph-name="uni00B3" unicode="&#xb3;" horiz-adv-x="291" 
d="M72 551q37 0 64 16t27 53q0 17 -7.5 26.5t-20.5 9.5q-10 0 -17 -5t-7 -13q0 -4 1.5 -10.5t1.5 -12.5q0 -18 -14.5 -27.5t-36.5 -9.5q-25 0 -38 12t-13 29q0 28 36 43.5t91 15.5q54 0 90 -15.5t36 -47.5q0 -28 -28 -45.5t-73 -22.5v-3q56 0 87 -16t31 -48
q0 -38 -42.5 -60.5t-110.5 -22.5q-57 0 -89.5 14.5t-32.5 43.5q0 18 14 30t37 12q22 0 36.5 -11t14.5 -27q0 -5 -1.5 -10t-1.5 -10q0 -11 9.5 -15t21.5 -4q19 0 30.5 14.5t11.5 40.5q0 19 -8.5 30t-31.5 17t-67 8v21z" />
    <glyph glyph-name="fraction" unicode="&#x2044;" horiz-adv-x="139" 
d="M-146 10l427 599l42 -28l-429 -602z" />
    <glyph glyph-name="onehalf" unicode="&#xbd;" horiz-adv-x="625" 
d="M45 0zM68 10l427 599l42 -28l-429 -602zM204 367q0 -9 9 -9h25v-26h-182v26h33q10 0 10 9v165q0 10 -10 8l-37 -7l-7 30q38 6 77.5 21t62.5 27h19v-244zM550 73q11 7 13 19h25q-7 -29 -11 -94q-8 2 -38 2h-204l-3 64l80 42q37 21 54 44t17 59q0 21 -8.5 32.5t-22.5 11.5
q-13 0 -21 -6t-8 -16q0 -6 3 -16t3 -16q0 -17 -14.5 -26.5t-36.5 -9.5q-27 0 -40 13t-13 33q0 30 32.5 48t94.5 18t100.5 -19t38.5 -56q0 -33 -31.5 -57.5t-95.5 -48.5l-82 -28h135q22 0 33 7z" />
    <glyph glyph-name="onequarter" unicode="&#xbc;" horiz-adv-x="580" 
d="M99 367v165q0 10 -10 8l-37 -7l-7 30q38 6 77.5 21t62.5 27h19v-244q0 -9 9 -9h25v-26h-182v26h33q10 0 10 9zM492 609l42 -28l-429 -602l-40 31zM511 61v-26q0 -9 10 -9h18v-26h-180v26h36q10 0 10 9v26h-128v37l176 176h58v-172h37v-41h-37zM321 102h84v82z" />
    <glyph glyph-name="threequarters" unicode="&#xbe;" horiz-adv-x="580" 
d="M510 609l42 -28l-429 -602l-40 31zM263.5 348.5q-42.5 -22.5 -110.5 -22.5q-57 0 -89.5 14.5t-32.5 43.5q0 18 14 30t37 12q22 0 36.5 -11t14.5 -27q0 -5 -1.5 -10t-1.5 -10q0 -11 9.5 -15t21.5 -4q19 0 30.5 14.5t11.5 40.5q0 19 -8.5 30t-31.5 17t-67 8v21q37 0 64 16
t27 53q0 17 -7.5 26.5t-20.5 9.5q-10 0 -17 -5t-7 -13q0 -4 1.5 -10.5t1.5 -12.5q0 -18 -14.5 -27.5t-36.5 -9.5q-25 0 -38 12t-13 29q0 28 36 43.5t91 15.5q54 0 90 -15.5t36 -47.5q0 -28 -28 -45.5t-73 -22.5v-3q56 0 87 -16t31 -48q0 -38 -42.5 -60.5zM513 102h37v-41
h-37v-26q0 -9 10 -9h19v-26h-180v26h36q10 0 10 9v26h-128v37l176 176h57v-172zM323 102h85v83z" />
    <glyph glyph-name="asterisk" unicode="*" horiz-adv-x="338" 
d="M310.5 527.5q7.5 -10.5 7.5 -35.5t-8.5 -35.5t-24.5 -10.5q-8 0 -13.5 3.5t-12.5 10.5q-7 8 -14.5 12.5t-19.5 4.5q-10 0 -18 -6l-1 -5q0 -5 5 -15q6 -10 12.5 -14t19.5 -7q1 0 10 -3t14 -12q6 -10 6 -19q0 -17 -29 -33q-19 -10 -32 -10q-15 0 -25 16q-3 6 -3 13
q0 5 2.5 16t2.5 17q0 11 -6 21q-4 10 -14 12q-10 -2 -14 -12q-6 -10 -6 -20q0 -6 3 -17t3 -16q0 -7 -4 -14q-10 -18 -24 -18q-8 0 -32 12q-29 15 -29 35q0 7 5 17q4 7 9 9.5t16 5.5q13 3 19.5 7t12.5 14q3 6 3 12t-1 8q-8 6 -17 6q-12 0 -18.5 -4t-15.5 -13q-7 -7 -12 -10.5
t-14 -3.5q-18 0 -25.5 10.5t-7.5 35.5q0 46 33 46q9 0 14 -3.5t12 -10.5q8 -8 15 -12t19 -4q11 0 18 5q1 3 1 7q0 5 -4 13q-6 10 -12.5 14t-19.5 7q-11 3 -16 5.5t-9 9.5q-6 12 -6 19q0 17 30 33q17 11 31 11q15 0 25 -16q4 -7 4 -14q0 -5 -3 -16t-3 -18q0 -10 6 -20
q4 -10 14 -12q10 2 14 12q6 10 6 21q0 6 -3 17t-3 16q0 7 4 14q11 17 24 17q11 0 32 -12q29 -15 29 -34q0 -8 -5 -18q-5 -9 -14 -12t-10 -3q-13 -3 -19.5 -7t-12.5 -14q-7 -9 -3 -20q7 -5 17 -5q12 0 19.5 4.5t14.5 12.5q5 5 11.5 9t14.5 4q18 0 25.5 -10.5z" />
    <glyph glyph-name="backslash" unicode="\" horiz-adv-x="257" 
d="M-8 626l48 11l219 -629l-49 -13z" />
    <glyph glyph-name="periodcentered" unicode="&#xb7;" horiz-adv-x="275" 
d="M71 248.5q26 20.5 66 20.5q41 0 67 -20.5t26 -54.5q0 -35 -26 -55t-67 -20t-66.5 20t-25.5 55q0 34 26 54.5z" />
    <glyph glyph-name="bullet" unicode="&#x2022;" horiz-adv-x="468" 
d="M126 341.5q43 36.5 108 36.5t108 -36.5t43 -94.5t-43 -94.5t-108 -36.5q-67 0 -109 36.5t-42 94.5t43 94.5z" />
    <glyph glyph-name="colon" unicode=":" horiz-adv-x="275" 
d="M45 0zM71 119.5q26 20.5 66 20.5q41 0 67 -20.5t26 -54.5q0 -35 -26 -55t-67 -20t-66.5 20t-25.5 55q0 34 26 54.5zM71 408.5q26 20.5 66 20.5q41 0 67 -20.5t26 -54.5q0 -35 -26 -55t-67 -20t-66.5 20t-25.5 55q0 34 26 54.5z" />
    <glyph glyph-name="comma" unicode="," horiz-adv-x="276" 
d="M120.5 -94q19.5 29 19.5 57q0 30 -37 30q-28 0 -42 15.5t-14 43.5q0 31 21 53t58 22q48 0 76 -30.5t28 -74.5q0 -58 -39.5 -106t-95.5 -76l-20 21q26 16 45.5 45z" />
    <glyph glyph-name="ellipsis" unicode="&#x2026;" horiz-adv-x="745" 
d="M45 0zM71 119.5q26 20.5 66 20.5q41 0 67 -20.5t26 -54.5q0 -35 -26 -55t-67 -20t-66.5 20t-25.5 55q0 34 26 54.5zM306 119.5q26 20.5 66 20.5q41 0 67 -20.5t26 -54.5q0 -35 -26 -55t-67 -20t-66.5 20t-25.5 55q0 34 26 54.5zM541 119.5q26 20.5 66 20.5q41 0 67 -20.5
t26 -54.5q0 -35 -26 -55t-67 -20t-66.5 20t-25.5 55q0 34 26 54.5z" />
    <glyph glyph-name="exclam" unicode="!" horiz-adv-x="286" 
d="M209 616q19 -21 19 -56q0 -24 -9 -66l-20 -86q-15 -69 -22 -107t-7 -80q0 -20 -15 -20q-16 0 -16 20q0 37 -6.5 74t-18.5 90q-1 6 -5 23l-19 86q-9 42 -9 66q0 35 18.5 56t53.5 21q37 0 56 -21zM220.5 118q26.5 -22 26.5 -53q0 -32 -26.5 -53.5t-65.5 -21.5t-65 21.5
t-26 53.5q0 31 26 53t65 22t65.5 -22z" />
    <glyph glyph-name="exclamdown" unicode="&#xa1;" horiz-adv-x="286" 
d="M196 423.5q26 -21.5 26 -53.5q0 -31 -26 -52.5t-65 -21.5t-65.5 21.5t-26.5 52.5q0 32 26.5 53.5t65.5 21.5t65 -21.5zM146 214q0 -62 10.5 -126t27.5 -143q2 -8 10.5 -49.5t8.5 -61.5q0 -35 -17.5 -55.5t-52.5 -20.5q-37 0 -55.5 20.5t-18.5 55.5q0 21 8.5 62.5
t10.5 52.5q18 78 28 141t10 124q0 20 15 20t15 -20z" />
    <glyph glyph-name="numbersign" unicode="#" horiz-adv-x="504" 
d="M17 191l13 47h95l50 164h-96l13 47h96l58 190h48l-58 -190h106l58 190h48l-57 -190h97l-13 -47h-99l-48 -164h97l-14 -47h-98l-59 -200h-48l60 200h-107l-59 -200h-48l60 200h-95zM173 238h107l49 164h-107z" />
    <glyph glyph-name="period" unicode="." horiz-adv-x="275" 
d="M71 119.5q26 20.5 66 20.5q41 0 67 -20.5t26 -54.5q0 -35 -26 -55t-67 -20t-66.5 20t-25.5 55q0 34 26 54.5z" />
    <glyph glyph-name="question" unicode="?" horiz-adv-x="413" 
d="M178 239.5q-27 17.5 -45.5 42.5t-18.5 54q0 27 16.5 51t49.5 57q35 36 53 62.5t18 58.5t-19 51.5t-51 19.5q-21 0 -34.5 -9t-13.5 -24q0 -6 4 -19t4 -21q0 -22 -18 -34t-43 -12q-33 0 -50 19t-17 45q0 45 51 67t134 22q94 0 144 -28.5t50 -81.5q0 -41 -27 -72t-77 -68
q-45 -34 -66 -56.5t-21 -51.5q0 -20 11 -38.5t33 -31.5l-17 -26q-23 6 -50 23.5zM128.5 11q-26.5 21 -26.5 53q0 31 26 53t66 22q39 0 65.5 -21t26.5 -53q0 -33 -26.5 -54t-65.5 -21t-65.5 21z" />
    <glyph glyph-name="questiondown" unicode="&#xbf;" horiz-adv-x="413" 
d="M284.5 424q26.5 -21 26.5 -53q0 -31 -26 -53t-66 -22q-39 0 -65.5 21t-26.5 53q0 33 26.5 54t65.5 21t65.5 -21zM235 195.5q27 -17.5 45.5 -42.5t18.5 -54q0 -27 -16.5 -51t-49.5 -57q-35 -36 -53 -62.5t-18 -58.5t19 -51.5t51 -19.5q21 0 34.5 9t13.5 24q0 6 -4 19
t-4 21q0 22 18 34t43 12q33 0 50 -19t17 -45q0 -45 -51 -67t-134 -22q-94 0 -144 28.5t-50 81.5q0 41 27 72t77 68q45 34 66 56.5t21 51.5q0 20 -11 38.5t-33 31.5l17 26q23 -6 50 -23.5z" />
    <glyph glyph-name="quotedbl" unicode="&#x22;" horiz-adv-x="267" 
d="M15 409zM28.5 625.5q13.5 14.5 38.5 14.5t38.5 -14.5t13.5 -40.5q0 -11 -5 -30t-11 -38q-7 -23 -13 -46.5t-6 -40.5q0 -21 -17 -21t-17 21q0 17 -6 40.5t-13 46.5q-6 19 -11 38t-5 30q0 26 13.5 40.5zM161.5 625.5q13.5 14.5 38.5 14.5t38.5 -14.5t13.5 -40.5
q0 -11 -5 -30t-11 -38q-7 -23 -13 -46.5t-6 -40.5q0 -21 -17 -21t-17 21q0 17 -6 40.5t-13 46.5q-6 19 -11 38t-5 30q0 26 13.5 40.5z" />
    <glyph glyph-name="quotesingle" unicode="'" horiz-adv-x="134" 
d="M28.5 625.5q13.5 14.5 38.5 14.5t38.5 -14.5t13.5 -40.5q0 -11 -5 -30t-11 -38q-7 -23 -13 -46.5t-6 -40.5q0 -21 -17 -21t-17 21q0 17 -6 40.5t-13 46.5q-6 19 -11 38t-5 30q0 26 13.5 40.5z" />
    <glyph glyph-name="semicolon" unicode=";" horiz-adv-x="276" 
d="M39 0zM122.5 -94q19.5 29 19.5 57q0 30 -37 30q-28 0 -42 15.5t-14 43.5q0 31 21 53t58 22q48 0 76 -30.5t28 -74.5q0 -58 -39.5 -106t-95.5 -76l-20 21q26 16 45.5 45zM65 408.5q26 20.5 66 20.5q41 0 67 -20.5t26 -54.5q0 -35 -26 -55t-67 -20t-66.5 20t-25.5 55
q0 34 26 54.5z" />
    <glyph glyph-name="slash" unicode="/" horiz-adv-x="255" 
d="M-5 6l219 629l46 -10l-218 -632z" />
    <glyph glyph-name="underscore" unicode="_" horiz-adv-x="493" 
d="M0 -143h493v-48h-493v48z" />
    <glyph glyph-name="braceleft" unicode="{" horiz-adv-x="280" 
d="M30 281q28 6 39 23t11 54v224q0 37 10.5 56.5t36.5 28t74 8.5h49v-37h-27q-31 0 -31 -49v-231q0 -31 -9.5 -48.5t-32.5 -26.5t-69 -16q46 -9 68.5 -18t32 -25.5t10.5 -47.5v-236q0 -25 7 -37t24 -12h27v-37h-49q-50 0 -75.5 8.5t-35.5 28t-10 56.5v229q0 29 -4 42.5
t-13.5 20.5t-32.5 14v28z" />
    <glyph glyph-name="braceright" unicode="}" horiz-adv-x="283" 
d="M220.5 239q-9.5 -7 -13.5 -20.5t-4 -42.5v-229q0 -37 -10 -56.5t-35.5 -28t-75.5 -8.5h-49v37h27q17 0 24 12t7 37v236q1 31 10.5 47.5t32 25.5t68.5 18q-46 7 -69 16t-32.5 26.5t-9.5 48.5v231q0 49 -31 49h-27v37h49q48 0 74 -8.5t36.5 -28t10.5 -56.5v-224
q0 -37 11 -54t39 -23v-28q-23 -7 -32.5 -14z" />
    <glyph glyph-name="bracketleft" unicode="[" horiz-adv-x="279" 
d="M46 -147v822h200v-34h-82v-754h82v-34h-200z" />
    <glyph glyph-name="bracketright" unicode="]" horiz-adv-x="279" 
d="M233 -147h-200v34h82v754h-82v34h200v-822z" />
    <glyph glyph-name="parenleft" unicode="(" horiz-adv-x="277" 
d="M44.5 418.5q26.5 80.5 70 146.5t111.5 146h51q-53 -87 -82.5 -209t-29.5 -262q0 -139 29.5 -261.5t82.5 -209.5h-51q-68 80 -111.5 146t-70 146.5t-26.5 178.5t26.5 178.5z" />
    <glyph glyph-name="parenright" unicode=")" horiz-adv-x="277" 
d="M232.5 61.5q-26.5 -80.5 -70 -146.5t-111.5 -146h-51q53 87 82.5 209.5t29.5 261.5q0 140 -29.5 262t-82.5 209h51q68 -80 111.5 -146t70 -146.5t26.5 -178.5t-26.5 -178.5z" />
    <glyph glyph-name="emdash" unicode="&#x2014;" horiz-adv-x="794" 
d="M0 187v47h794v-47h-794z" />
    <glyph glyph-name="endash" unicode="&#x2013;" horiz-adv-x="477" 
d="M18 187v47h441v-47h-441z" />
    <glyph glyph-name="hyphen" unicode="-" horiz-adv-x="250" 
d="M22 182v62h206v-62h-206z" />
    <glyph glyph-name="uni00AD" unicode="&#xad;" horiz-adv-x="250" 
d="M22 182zM22 182v62h206v-62h-206z" />
    <glyph glyph-name="guillemotleft" unicode="&#xab;" horiz-adv-x="488" 
d="M26 35zM209 206l186 171h44l-98 -171l98 -171h-44zM26 206l186 171h44l-98 -171l98 -171h-44z" />
    <glyph glyph-name="guillemotright" unicode="&#xbb;" horiz-adv-x="478" 
d="M280 206l-186 -171h-44l98 171l-98 171h44zM452 206l-186 -171h-44l98 171l-98 171h44z" />
    <glyph glyph-name="guilsinglleft" unicode="&#x2039;" horiz-adv-x="302" 
d="M22 206l186 171h44l-98 -171l98 -171h-44z" />
    <glyph glyph-name="guilsinglright" unicode="&#x203a;" horiz-adv-x="301" 
d="M280 206l-186 -171h-44l98 171l-98 171h44z" />
    <glyph glyph-name="quotedblbase" unicode="&#x201e;" horiz-adv-x="508" 
d="M102 0zM169 -100q19 23 19 46q0 24 -28 24q-25 0 -41.5 16t-16.5 42q0 29 21 49t58 20q39 0 63 -26t24 -64q0 -57 -38 -99t-94 -68l-13 22q27 15 46 38zM376 -100q19 23 19 46q0 24 -28 24q-25 0 -41.5 16t-16.5 42q0 29 21 49t58 20q39 0 63 -26t24 -64q0 -57 -38 -99
t-94 -68l-13 22q27 15 46 38z" />
    <glyph glyph-name="quotedblleft" unicode="&#x201c;" 
d="M125 586q-19 -23 -19 -46q0 -24 28 -24q25 0 41.5 -16t16.5 -42q0 -29 -21 -49t-58 -20q-39 0 -63 26t-24 64q0 57 38 99t94 68l13 -22q-27 -15 -46 -38zM329 586q-19 -23 -19 -46q0 -24 28 -24q25 0 41.5 -16t16.5 -42q0 -29 -21 -49t-58 -20q-39 0 -63 26t-24 64
q0 57 38 99t94 68l13 -22q-27 -15 -46 -38z" />
    <glyph glyph-name="quotedblright" unicode="&#x201d;" 
d="M64 379zM131 439q19 23 19 46q0 24 -28 24q-25 0 -41.5 16t-16.5 42q0 29 21 49t58 20q39 0 63 -26t24 -64q0 -57 -38 -99t-94 -68l-13 22q27 15 46 38zM335 439q19 23 19 46q0 24 -28 24q-25 0 -41.5 16t-16.5 42q0 29 21 49t58 20q39 0 63 -26t24 -64q0 -57 -38 -99
t-94 -68l-13 22q27 15 46 38z" />
    <glyph glyph-name="quoteleft" unicode="&#x2018;" horiz-adv-x="257" 
d="M126 585q-19 -23 -19 -46q0 -24 28 -24q25 0 41.5 -16t16.5 -42q0 -29 -21 -49t-58 -20q-39 0 -63 26t-24 64q0 57 38 99t94 68l13 -22q-27 -15 -46 -38z" />
    <glyph glyph-name="quoteright" unicode="&#x2019;" horiz-adv-x="257" 
d="M131 439q19 23 19 46q0 24 -28 24q-25 0 -41.5 16t-16.5 42q0 29 21 49t58 20q39 0 63 -26t24 -64q0 -57 -38 -99t-94 -68l-13 22q27 15 46 38z" />
    <glyph glyph-name="quotesinglbase" unicode="&#x201a;" horiz-adv-x="301" 
d="M102 0zM169 -100q19 23 19 46q0 24 -28 24q-25 0 -41.5 16t-16.5 42q0 29 21 49t58 20q39 0 63 -26t24 -64q0 -57 -38 -99t-94 -68l-13 22q27 15 46 38z" />
    <glyph glyph-name="uni00A0" unicode="&#xa0;" horiz-adv-x="205" 
 />
    <glyph glyph-name="cent" unicode="&#xa2;" horiz-adv-x="414" 
d="M353 218l28 -10q-17 -49 -49.5 -70.5t-80.5 -24.5v-208h-45v208q-75 4 -123.5 45.5t-48.5 130.5q0 86 47 130t125 50v178h45v-178q59 -4 95 -27.5t36 -57.5q0 -23 -15.5 -38.5t-43.5 -15.5q-23 0 -38 10.5t-15 31.5q0 8 3.5 18t3.5 16q0 17 -12 25t-30 8q-32 0 -50 -31.5
t-18 -106.5q0 -91 24.5 -123t65.5 -32q65 0 96 72z" />
    <glyph glyph-name="currency" unicode="&#xa4;" horiz-adv-x="443" 
d="M357 159l48 -49l-31 -31l-48 49q-46 -34 -104 -34q-59 0 -103 36l-50 -50l-31 31l50 50q-36 45 -36 104q0 58 35 103l-48 48l31 31l48 -48q45 36 104 36t106 -36l47 47l31 -31l-48 -47q35 -46 35 -103q0 -60 -36 -106zM288.5 151.5q30.5 17.5 48 48t17.5 65.5t-18 65
t-48 48t-66 18q-35 0 -65.5 -18t-48 -48t-17.5 -65t17.5 -65.5t48 -48t65.5 -17.5q36 0 66.5 17.5z" />
    <glyph glyph-name="dollar" unicode="$" horiz-adv-x="448" 
d="M339 155q-34 -33 -92 -38v-212h-45v212q-24 3 -77 17q-17 3 -25 3q-17 0 -25 -5l4 106l31 1q0 -40 35 -65.5t84 -25.5q24 0 38.5 10.5t14.5 30.5q0 17 -11 27.5t-39 17.5l-47 13q-57 16 -81.5 41.5t-24.5 66.5q0 50 32 82t91 36v174h45v-175q17 -2 42 -8q26 -7 42 -7
q14 0 24 6l-4 -91h-28q0 28 -25.5 49.5t-70.5 21.5q-22 0 -36 -10t-14 -27q0 -33 41 -41l45 -11q65 -15 87.5 -42t22.5 -70q0 -54 -34 -87z" />
    <glyph glyph-name="Euro" unicode="&#x20ac;" horiz-adv-x="485" 
d="M475 82q0 -29 3 -47h-6q-15 0 -31 -4.5t-41 -14.5q-35 -13 -58 -19.5t-49 -6.5q-97 0 -161 59.5t-81 166.5h-49l10 41h34q-1 12 -1 38q0 24 1 35h-44l10 41h38q17 113 81 174.5t166 61.5q32 0 53.5 -6t51.5 -18q21 -10 36 -14.5t34 -4.5q-4 -31 -4 -75q0 -21 1 -37.5
t3 -18.5h-32q-8 59 -43 100.5t-78 41.5q-49 0 -80.5 -52.5t-39.5 -151.5h199l-10 -41h-191q-1 -11 -1 -35q0 -26 1 -38h201l-10 -41h-188q10 -92 42 -141.5t81 -49.5q45 0 79 40.5t43 101.5h36q-6 -49 -6 -85z" />
    <glyph glyph-name="florin" unicode="&#x192;" horiz-adv-x="485" 
d="M459.5 583q35.5 -24 35.5 -61q0 -22 -14.5 -41t-48.5 -19q-26 0 -41 11.5t-15 30.5q0 11 5 24q4 14 4 21q0 11 -5.5 17.5t-16.5 6.5q-25 0 -43.5 -47.5t-34.5 -152.5l-2 -8h112v-11l-48 -28h-72l-49 -239q-24 -116 -77.5 -195.5t-148.5 -79.5q-48 0 -87 21t-39 62
q0 27 17.5 43t46.5 16q24 0 39 -11t15 -29q0 -9 -4 -25q-4 -14 -4 -21q0 -10 6 -16t17 -6q27 0 41 40.5t33 140.5q9 50 18 90l43 209h-102l34 39h76q26 117 78 179.5t144 62.5q52 0 87.5 -24z" />
    <glyph glyph-name="sterling" unicode="&#xa3;" horiz-adv-x="507" 
d="M464 168l-10 -171q-15 0 -25 1q-28 2 -53 2h-233q-38 0 -113 -3l-2 19q40 23 64 60.5t24 79.5l-4 143h-76v30h75l-2 81q0 103 49 150t160 47q60 0 97 -25.5t37 -63.5q0 -25 -18 -41t-44 -16q-24 0 -40.5 12.5t-16.5 30.5q0 8 4.5 20t4.5 19q0 34 -39 34
q-28 0 -45.5 -24.5t-17.5 -65.5q0 -6 6 -54q1 -10 5.5 -44t5.5 -60h119v-30h-119v-58q0 -41 -22 -78.5t-56 -65.5h129q50 0 76.5 6.5t37 21.5t10.5 43h32z" />
    <glyph glyph-name="yen" unicode="&#xa5;" horiz-adv-x="577" 
d="M569 597v-37l-30 2q-16 0 -28 -21l-112 -200h101v-36h-121l-17 -30v-44h138v-36h-138v-139q0 -21 20 -21l48 2v-37h-274v37l49 -2q19 0 19 22v138h-136v36h136v25l-29 49h-107v36h85l-121 202q-12 19 -24 19l-29 -2v37h270v-37l-53 2h-1q-11 0 -11 -10q0 -6 5 -14
l133 -221l126 225q3 5 3 10q0 10 -10 10l-52 -2v37h160z" />
    <glyph glyph-name="uni2219" unicode="&#x2219;" horiz-adv-x="270" 
d="M42 119zM68 248.5q26 20.5 66 20.5q41 0 67 -20.5t26 -54.5q0 -35 -26 -55t-67 -20t-66.5 20t-25.5 55q0 34 26 54.5z" />
    <glyph glyph-name="uni2215" unicode="&#x2215;" horiz-adv-x="139" 
d="M0 0zM-146 10l427 599l42 -28l-429 -602z" />
    <glyph glyph-name="plus" unicode="+" 
d="M20 255v52h182v181h57v-181h181v-52h-181v-182h-57v182h-182z" />
    <glyph glyph-name="minus" unicode="&#x2212;" 
d="M20 256v49h420v-49h-420z" />
    <glyph glyph-name="multiply" unicode="&#xd7;" 
d="M60 135l135 133l-133 131l37 37l130 -132l133 133l38 -37l-133 -133l133 -133l-36 -36l-134 133l-132 -132z" />
    <glyph glyph-name="divide" unicode="&#xf7;" 
d="M174 484q21 17 55 17t56 -17t22 -46t-21.5 -45.5t-56.5 -16.5q-34 0 -55 16.5t-21 45.5t21 46zM19 240v59h422v-59h-422zM174.5 141.5q21.5 17.5 54.5 17.5q34 0 56 -17t22 -46t-21.5 -45.5t-56.5 -16.5q-34 0 -55 16.5t-21 45.5q0 28 21.5 45.5z" />
    <glyph glyph-name="equal" unicode="=" 
d="M35 295v50h390v-50h-390zM35 103v51h390v-51h-390z" />
    <glyph glyph-name="notequal" unicode="&#x2260;" 
d="M425 295h-151l-49 -141h200v-51h-218l-37 -108l-48 13l33 95h-120v51h138l49 141h-187v50h205l38 110l47 -11l-34 -99h134v-50z" />
    <glyph glyph-name="greater" unicode="&#x3e;" 
d="M54 -5v56l256 155l32 12l-32 14l-256 154v56l352 -211v-24z" />
    <glyph glyph-name="less" unicode="&#x3c;" 
d="M406 441v-56l-256 -155l-32 -12l32 -14l256 -154v-56l-352 211v24z" />
    <glyph glyph-name="greaterequal" unicode="&#x2265;" 
d="M406 311v-25l-352 -166v54l231 106l60 18l-60 20l-231 106v53zM54 49h352v-49h-352v49z" />
    <glyph glyph-name="lessequal" unicode="&#x2264;" 
d="M54 311l352 166v-53l-231 -106l-60 -20l60 -18l231 -106v-54l-352 166v25zM406 49v-49h-352v49h352z" />
    <glyph glyph-name="plusminus" unicode="&#xb1;" 
d="M20 273v49h183v184h53v-184h184v-49h-184v-186h-53v186h-183zM20 0v49h420v-49h-420z" />
    <glyph glyph-name="approxequal" unicode="&#x2248;" 
d="M140 380q20 0 41 -8t54 -25q31 -16 51 -24t38 -8q24 0 41 11.5t41 42.5l32 -31q-22 -37 -52 -57.5t-62 -20.5q-19 0 -38 7.5t-56 25.5q-30 16 -51 24t-39 8q-26 0 -42.5 -10.5t-39.5 -43.5l-31 31q42 78 113 78zM77 169q29 19 63 19q20 0 41 -8t54 -25q31 -16 51 -24
t38 -8q24 0 41 12t41 44l32 -34q-22 -37 -52 -57.5t-62 -20.5q-19 0 -38 7.5t-56 25.5q-30 16 -51 24t-39 8q-26 0 -42.5 -10.5t-39.5 -43.5l-31 34q21 38 50 57z" />
    <glyph glyph-name="asciitilde" unicode="~" 
d="M68 313q29 19 63 19q22 0 44 -8t56 -25q32 -16 53 -24t41 -8q25 0 44 13t42 46l32 -33q-22 -39 -53.5 -60.5t-64.5 -21.5q-21 0 -41 7.5t-58 25.5q-31 16 -53 24t-42 8q-26 0 -42.5 -10.5t-39.5 -43.5l-31 34q21 38 50 57z" />
    <glyph glyph-name="logicalnot" unicode="&#xac;" 
d="M20 312v48h420v-214h-50v166h-370z" />
    <glyph glyph-name="infinity" unicode="&#x221e;" horiz-adv-x="547" 
d="M506.5 370.5q40.5 -49.5 40.5 -124.5q0 -69 -34 -114t-91 -45q-44 0 -78 25.5t-49 65.5q-26 -43 -59 -67t-84 -24q-72 0 -112 49t-40 125q0 69 33.5 114t91.5 45q43 0 78 -25.5t49 -65.5q27 43 59.5 67t83.5 24q71 0 111.5 -49.5zM489.5 210.5q24.5 16.5 24.5 46.5
q0 26 -18 41.5t-49 15.5q-44 0 -72 -24t-54 -70q42 -26 100 -26q44 0 68.5 16.5zM172 217q27 24 54 70q-43 26 -100 26q-45 0 -69 -16t-24 -47q0 -26 18 -41.5t50 -15.5q44 0 71 24z" />
    <glyph glyph-name="integral" unicode="&#x222b;" horiz-adv-x="496" 
d="M437 756.5q33 -22.5 33 -58.5q0 -24 -15.5 -41t-41.5 -17q-29 0 -41 10t-13.5 22t-1.5 39q0 15 -4.5 22.5t-18.5 7.5q-21 0 -29.5 -42t-8.5 -139q0 -32 11 -170q2 -22 9 -122t7 -155q0 -123 -47.5 -201.5t-135.5 -78.5q-45 0 -78 23t-33 58q0 26 15 42t42 16q28 0 40 -10
t13.5 -22t1.5 -39q0 -15 4.5 -22.5t18.5 -7.5q21 0 29.5 42t8.5 139q0 12 -3 55l-5 72q-19 240 -19 320q0 122 48 201t135 79q46 0 79 -22.5z" />
    <glyph glyph-name="uni2126" unicode="&#x2126;" horiz-adv-x="670" 
d="M24 0zM646 162q-20 -130 -20 -165q-10 3 -96 3h-143l-2 43q46 64 70 133t24 173q0 123 -34.5 173.5t-109.5 50.5t-109.5 -50.5t-34.5 -173.5q0 -104 24 -172.5t70 -133.5l-2 -43h-143q-85 0 -96 -3q0 35 -20 165h35q4 -37 24 -53t61 -16h52q-51 45 -81.5 81.5t-47.5 80.5
t-17 102q0 70 34 127t98.5 90t152.5 33t152.5 -33t98.5 -90t34 -127q0 -58 -17 -102t-47.5 -80.5t-81.5 -81.5h53q41 0 60.5 16t23.5 53h35z" />
    <glyph glyph-name="uni2206" unicode="&#x2206;" horiz-adv-x="609" 
d="M20 0zM323 607l254 -607h-557l255 607h48zM418 36l-174 416l-173 -416h347z" />
    <glyph glyph-name="product" unicode="&#x220f;" horiz-adv-x="641" 
d="M39 -44l35 -2q19 0 19 22v565q0 22 -19 21l-35 -2v37h563v-37l-35 2h-2q-8 0 -12.5 -6t-4.5 -15v-565q0 -22 19 -22l35 2v-36h-242v36l31 -2q19 0 19 22v583h-179v-583q0 -22 20 -22l30 2v-36h-242v36z" />
    <glyph glyph-name="summation" unicode="&#x2211;" horiz-adv-x="511" 
d="M474 73q-7 -31 -13 -82.5t-6 -73.5q-11 3 -101 3h-316v25l180 293l-170 308v51h311q92 0 103 3q0 -34 10 -132h-37q-5 52 -26 73t-66 21h-143l125 -238l-192 -309h215q41 0 63 13t27 45h36z" />
    <glyph glyph-name="radical" unicode="&#x221a;" 
d="M456 786h34l-192 -881h-35l-165 419l-77 -25l-11 32l200 66l9 -25l92 -248z" />
    <glyph glyph-name="uni00B5" unicode="&#xb5;" horiz-adv-x="540" 
d="M520 34v-34h-183q6 15 6 45v45q-19 -41 -53 -69t-76 -28q-6 0 -18 2v-183q0 -19 13 -19l58 1v-33h-248v33l33 -1q13 1 13 19v563q0 19 -13 19l-33 -2v33h177v-293q0 -50 8.5 -72.5t35.5 -22.5q26 0 49.5 22.5t38.5 66.5t15 105v143q0 20 -13 20l-39 -2v33h183v-374
q0 -18 13 -19z" />
    <glyph glyph-name="partialdiff" unicode="&#x2202;" horiz-adv-x="476" 
d="M342 572q52 -33 82 -98.5t30 -158.5q0 -65 -18.5 -139t-69.5 -130.5t-141 -56.5q-46 0 -93 16t-79.5 53t-32.5 96q0 51 22.5 90t61.5 60t87 21q77 0 128 -34q2 50 2 66q0 98 -27 156t-75 58q-21 0 -33 -8.5t-12 -24.5q0 -7 4 -21q5 -13 5 -26q0 -17 -14.5 -29.5
t-46.5 -12.5q-30 0 -46 17.5t-16 42.5q0 46 51 71t113 25q66 0 118 -33zM282 90q24 66 33 159q-29 32 -68 32q-42 0 -68.5 -40t-26.5 -116q0 -51 17 -76t49 -25q40 0 64 66z" />
    <glyph glyph-name="percent" unicode="%" horiz-adv-x="601" 
d="M64 10l427 599l42 -28l-429 -602zM47 568.5q40 38.5 110 38.5q72 0 111.5 -39t39.5 -101q0 -61 -39.5 -100t-111.5 -39q-73 0 -111.5 39t-38.5 100q0 63 40 101.5zM123.5 378q9.5 -24 33.5 -24q25 0 34.5 24.5t9.5 89.5q0 66 -9.5 90.5t-34.5 24.5q-24 0 -33.5 -25.5
t-9.5 -89.5q0 -66 9.5 -90zM333 230.5q40 38.5 110 38.5q73 0 112 -39t39 -101q0 -61 -39 -100t-112 -39q-72 0 -111 39.5t-39 99.5q0 63 40 101.5zM410 40q9 -24 33 -24q25 0 34.5 24.5t9.5 89.5q0 66 -9.5 90.5t-34.5 24.5q-24 0 -33 -25t-9 -90q0 -66 9 -90z" />
    <glyph glyph-name="perthousand" unicode="&#x2030;" horiz-adv-x="958" 
d="M71 10l427 599l42 -28l-429 -602zM54 568.5q40 38.5 110 38.5q73 0 112 -39t39 -101q0 -61 -39 -100t-112 -39q-72 0 -111 39.5t-39 99.5q0 63 40 101.5zM131 378q9 -24 33 -24q25 0 34.5 24.5t9.5 89.5q0 66 -9.5 90.5t-34.5 24.5q-24 0 -33 -25t-9 -90q0 -66 9 -90z
M341 230.5q40 38.5 110 38.5q72 0 111.5 -39t39.5 -101q0 -61 -39.5 -100t-111.5 -39q-73 0 -111.5 39t-38.5 100q0 63 40 101.5zM683 230.5q40 38.5 110 38.5q73 0 112 -39t39 -101q0 -61 -39 -100t-112 -39q-72 0 -111 39.5t-39 99.5q0 63 40 101.5zM417.5 40
q9.5 -24 33.5 -24q25 0 34.5 24.5t9.5 89.5q0 66 -9.5 90.5t-34.5 24.5q-24 0 -33.5 -25.5t-9.5 -89.5q0 -66 9.5 -90zM760 40q9 -24 33 -24q25 0 34.5 24.5t9.5 89.5q0 66 -9.5 90.5t-34.5 24.5q-24 0 -33 -25t-9 -90q0 -66 9 -90z" />
    <glyph glyph-name="lozenge" unicode="&#x25ca;" 
d="M246 -79h-28l-209 365l205 359h28l209 -364zM245 17l149 264l-152 268l-13 32l-13 -32l-149 -264l152 -268l12 -32z" />
    <glyph glyph-name="at" unicode="@" horiz-adv-x="776" 
d="M77 385.5q55 98.5 151.5 158.5t213.5 60q88 0 159.5 -39.5t112.5 -107.5t41 -151q0 -84 -46 -162.5t-132 -122.5q-58 -31 -107 -31q-24 0 -31.5 10.5t-7.5 35.5q0 38 22 136q-41 -96 -91 -139t-102 -43q-44 0 -68 32.5t-24 89.5q0 80 34.5 155t94 121.5t129.5 46.5
q23 0 41 -9.5t27 -29.5l5 20l137 17l-24 -95q-18 -74 -30.5 -146.5t-12.5 -99.5q0 -17 13 -17q26 0 57.5 34.5t54 88t22.5 107.5q0 71 -36 131t-99 95.5t-139 35.5q-117 0 -201 -58t-127.5 -149t-43.5 -187q0 -85 41.5 -151t118 -102.5t179.5 -36.5q91 0 162.5 31t139.5 98
l24 -29q-73 -73 -152.5 -104.5t-182.5 -31.5q-114 0 -199.5 40.5t-132 115.5t-46.5 175q0 109 55 207.5zM311.5 78q9.5 -18 26.5 -18q20 0 55 51t62 120t27 122q0 22 -11 37t-30 15q-35 0 -67.5 -43.5t-53.5 -118.5q-18 -58 -18 -112q0 -35 9.5 -53z" />
    <glyph glyph-name="ampersand" unicode="&#x26;" horiz-adv-x="624" 
d="M639 36v-36h-192l-35 48q-70 -58 -173 -58q-88 0 -152.5 40t-64.5 122q0 59 39.5 106.5t128.5 88.5l-24.5 34.5t-29.5 53t-10 50.5q0 52 41 86.5t111 34.5q64 0 97.5 -30t33.5 -76q0 -72 -84 -124l137 -186q29 75 29 143q0 18 -3 25t-11 7l-42 -2v36h151v-36l-42 2
q-7 0 -9.5 -5t-3.5 -17q-10 -115 -43 -188l80 -108q10 -13 30 -13zM260 555q-17 -13 -17 -38q0 -19 10 -37.5t33 -50.5l18 -25q35 22 51.5 43.5t16.5 50.5q0 32 -18.5 51t-49.5 19q-27 0 -44 -13zM390 76l-176 237q-30 -25 -44 -62.5t-14 -76.5q0 -68 36 -106.5t90 -38.5
q59 0 108 47z" />
    <glyph glyph-name="paragraph" unicode="&#xb6;" horiz-adv-x="499" 
d="M82.5 552.5q52.5 44.5 145.5 44.5h250v-38h-93v-828h-43v828h-33q-38 0 -38 -38v-790h-43v535q-94 0 -146 42.5t-52 122.5q0 77 52.5 121.5z" />
    <glyph glyph-name="section" unicode="&#xa7;" horiz-adv-x="439" 
d="M388.5 78q17.5 -31 17.5 -68q0 -67 -50.5 -106t-139.5 -39q-74 0 -128.5 26.5t-54.5 75.5q0 28 18 45.5t48 17.5q27 0 41 -13t14 -34q0 -10 -6 -24q-6 -12 -6 -20q0 -22 22 -33t52 -11q37 0 61 17t24 46q0 22 -15 38.5t-43 31.5l-123 65q-49 26 -70.5 56t-21.5 67
q0 77 83 121q-41 28 -59 58t-18 67q0 66 51 105.5t140 39.5q74 0 128.5 -26.5t54.5 -75.5q0 -28 -18 -45.5t-48 -17.5q-27 0 -41 13.5t-14 33.5q0 10 6 24q6 12 6 20q0 22 -22.5 33t-51.5 11q-37 0 -61.5 -17t-24.5 -46q0 -22 15 -38.5t43 -30.5l124 -66q49 -26 70.5 -56
t21.5 -67q0 -78 -83 -120q41 -27 58.5 -58zM295 156q16 15 16 38q0 21 -15 35t-56 36l-95 52q-15 -16 -15 -39q0 -22 15 -35.5t56 -34.5z" />
    <glyph glyph-name="copyright" unicode="&#xa9;" horiz-adv-x="708" 
d="M509 565.5q71 -41.5 112.5 -112.5t41.5 -155t-41.5 -155t-112.5 -112t-155 -41q-85 0 -155.5 41t-111.5 111.5t-41 155.5q0 84 41 155t112 112.5t155 41.5t155 -41.5zM488.5 64q61.5 36 97 98t35.5 136t-35.5 136.5t-97 99t-135.5 36.5q-75 0 -136 -36.5t-96.5 -99
t-35.5 -136.5q0 -75 35.5 -136.5t96.5 -97.5t136 -36q74 0 135.5 36zM495 233l-3 -52q0 -9 2 -23h-4q-21 0 -56 -13q-24 -8 -39.5 -11.5t-33.5 -3.5q-84 0 -132 45t-48 123q0 82 48 127t135 45q26 0 42.5 -4t36.5 -11q28 -11 47 -11q-2 -24 -2 -39q0 -28 2 -32l-25 -2
q-5 28 -29.5 49t-51.5 21q-43 0 -63 -32.5t-20 -110.5q0 -73 21.5 -105t63.5 -32q28 0 52 21t30 51h27z" />
    <glyph glyph-name="registered" unicode="&#xae;" horiz-adv-x="487" 
d="M347 582q46 -25 72 -69.5t26 -101.5t-26 -101.5t-72 -69.5t-103 -25q-59 0 -105 25t-72 69.5t-26 101.5t26 101.5t72 69.5t105 25q57 0 103 -25zM122 530q-47 -46 -47 -119t47 -119t121 -46t121 46t47 119t-47 119t-121 46t-121 -46zM267 513q39 0 57.5 -11.5t18.5 -35.5
q0 -23 -15.5 -39t-45.5 -20q24 0 44 -13t21 -34q0 -8 4 -13.5t14 -3.5v-27h-49q-43 0 -43 39v6q0 26 -24 26h-18v-37q0 -7 9 -7h14v-27h-118v27h18q6 0 6 7v129q0 7 -9 7h-15v27h131zM236 486q-5 0 -5 -3v-66h12q14 0 21.5 10.5t7.5 25.5q0 17 -7.5 25t-18.5 8h-10z" />
    <glyph glyph-name="trademark" unicode="&#x2122;" horiz-adv-x="773" 
d="M9 597h296v-74h-23q0 26 -14.5 38.5t-47.5 12.5h-8q-6 0 -6 -6v-224q0 -11 10 -11l27 1v-24h-173v24l27 -1q4 0 6.5 3.5t2.5 8.5v223q0 6 -6 6h-7q-32 0 -46 -12.5t-16 -38.5h-22v74zM761 334v-24h-159v24l25 -1q10 0 10 11v194l-103 -225h-22l-117 250v-219
q0 -11 10 -11l24 1v-24h-91v24l19 -1q10 0 10 11v226q0 4 -5 3l-21 -1v25h142l77 -168l77 168h121v-25l-12 1h-2q-8 0 -8 -9v-220q0 -11 10 -11z" />
    <glyph glyph-name="degree" unicode="&#xb0;" horiz-adv-x="374" 
d="M115 577.5q30 29.5 72 29.5t72 -29.5t30 -72.5q0 -42 -30 -71.5t-72 -29.5t-72 29.5t-30 71.5q0 43 30 72.5zM150 467.5q15 -15.5 37 -15.5t37 15.5t15 37.5t-15 37.5t-37 15.5t-37 -15.5t-15 -37.5t15 -37.5z" />
    <glyph glyph-name="bar" unicode="|" horiz-adv-x="240" 
d="M98 -239v969h44v-969h-44z" />
    <glyph glyph-name="brokenbar" unicode="&#xa6;" horiz-adv-x="240" 
d="M97 265v342h46v-342h-46zM97 113h46v-344h-46v344z" />
    <glyph glyph-name="uni2113" unicode="&#x2113;" horiz-adv-x="430" 
d="M306 49.5q19 18.5 33 54.5l28 -14q-18 -36 -35 -55.5t-42.5 -30t-67.5 -10.5q-64 0 -101 34t-37 103v45q-40 -18 -58 -25l-10 32q24 10 69 31l8 173q5 98 42.5 159t126.5 61q58 0 89 -30t31 -88q0 -63 -34.5 -125t-127.5 -122q-5 -83 -5 -135q0 -42 12 -59t40 -17
q20 0 39 18.5zM234.5 537.5q-11.5 -35.5 -11.5 -85.5l1 -40q1 -12 1 -34l-3 -93q62 42 90.5 89t28.5 106q0 45 -14.5 69t-40.5 24q-40 0 -51.5 -35.5z" />
    <glyph glyph-name="dagger" unicode="&#x2020;" horiz-adv-x="528" 
d="M467.5 449.5q15.5 -16.5 15.5 -45.5q0 -53 -41 -53q-12 0 -18.5 5t-15.5 16q-7 10 -12.5 14t-14.5 4t-16.5 -3t-9.5 -4q-14 -8 -26 -8q-26 0 -52 18q1 -19 8.5 -32t20.5 -28q9 -10 13.5 -17.5t4.5 -16.5q0 -7 -5 -27q-16 -51 -19 -116q-4 -127 -14 -216.5t-27 -89.5
t-27 89.5t-14 216.5q-3 65 -19 116q-5 20 -5 27q0 10 5 18.5t15 20.5q11 14 18 26.5t9 28.5q-24 -18 -52 -18q-11 0 -25 8q-2 1 -9.5 4t-16.5 3t-14.5 -4.5t-12.5 -13.5q-9 -11 -15.5 -16t-18.5 -5q-22 0 -32 14.5t-10 38.5q0 29 15.5 45.5t40.5 16.5q18 0 30 -5t28 -15
q20 -13 37.5 -20t47.5 -9q-3 6 -6.5 10.5t-5.5 7.5q-8 10 -11.5 17t-3.5 18q0 13 15 30q12 14 12 22q0 9 -4.5 14t-15.5 12q-12 7 -18.5 14t-6.5 20q0 23 20.5 40.5t49.5 17.5q30 0 50.5 -17.5t20.5 -40.5q0 -13 -6.5 -20t-18.5 -14q-11 -7 -15.5 -12t-4.5 -14q0 -7 3 -11.5
t10 -11.5q7 -8 10.5 -14t3.5 -15q0 -10 -3.5 -17t-11.5 -18l-13 -18q30 2 47.5 9.5t36.5 19.5q16 10 28 15t31 5q25 0 40.5 -16.5z" />
    <glyph glyph-name="daggerdbl" unicode="&#x2021;" horiz-adv-x="528" 
d="M483 85q0 -29 -15.5 -45.5t-40.5 -16.5q-19 0 -31.5 5t-27.5 15q-18 12 -34.5 18.5t-44.5 9.5q4 -7 10.5 -17t9.5 -17.5t3 -17.5q0 -9 -4 -15.5t-11 -14.5q-12 -14 -12 -23t4.5 -14t15.5 -12q12 -7 18.5 -14t6.5 -20q0 -23 -20.5 -40.5t-50.5 -17.5q-29 0 -49.5 17.5
t-20.5 40.5q0 13 6.5 20t18.5 14q11 7 15.5 12t4.5 14q0 7 -5 13.5t-7 8.5q-15 17 -15 31q0 11 3.5 19t9 17.5t9.5 15.5q-27 -3 -44.5 -10t-35.5 -19q-17 -10 -29 -14.5t-29 -4.5q-25 0 -40.5 16.5t-15.5 45.5q0 24 10 38.5t32 14.5q12 0 18.5 -5t15.5 -16q7 -9 12.5 -13.5
t14.5 -4.5t16.5 3t9.5 4q12 7 25 7q26 0 52 -18v1q0 19 -7 31t-20 25q-11 12 -15.5 19t-4.5 18q0 26 26 55q-26 31 -26 55q0 11 5 19t15 17q13 14 20 26.5t7 31.5q-24 -18 -52 -18q-11 0 -25 8q-2 1 -9.5 4t-16.5 3t-14.5 -4.5t-12.5 -13.5q-9 -11 -15.5 -16t-18.5 -5
q-22 0 -32 14.5t-10 38.5q0 29 15.5 45.5t40.5 16.5q18 0 30 -5t28 -15q18 -12 35.5 -19t44.5 -10l-10.5 16.5t-9 18.5t-2.5 18q0 13 15 30q12 14 12 22q0 9 -4.5 14t-15.5 12q-12 7 -18.5 14t-6.5 20q0 23 20.5 40.5t49.5 17.5q30 0 50.5 -17.5t20.5 -40.5q0 -13 -6.5 -20
t-18.5 -14q-11 -7 -15.5 -12t-4.5 -14q0 -7 3 -11.5t10 -11.5q7 -8 10.5 -14t3.5 -15q0 -12 -3.5 -19.5t-9.5 -17t-10 -16.5q27 3 44 10t35 19q16 10 28 15t31 5q25 0 40.5 -16.5t15.5 -45.5q0 -53 -41 -53q-12 0 -18.5 5t-15.5 16q-7 10 -12.5 14t-14.5 4t-16.5 -3t-9.5 -4
q-14 -8 -26 -8q-26 0 -52 18q0 -19 7 -31.5t20 -26.5q10 -9 15 -17t5 -19q0 -24 -26 -55q26 -29 26 -55q0 -11 -4.5 -18t-15.5 -19q-13 -13 -20 -25t-7 -31v-1q26 18 52 18q14 0 26 -7q2 -1 9.5 -4t16.5 -3t14.5 4t12.5 14q9 11 15.5 16t18.5 5q41 0 41 -53z" />
    <glyph glyph-name="estimated" unicode="&#x212e;" horiz-adv-x="706" 
d="M573.5 525q77.5 -82 77.5 -226h-448v-230q63 -44 155 -44q81 0 138.5 29t89.5 85l30 -19q-36 -63 -103 -97t-155 -34q-145 0 -224 82t-79 228t79 227t220 81q142 0 219.5 -82zM203 530v-195h300v193q-61 44 -149 44t-151 -42z" />
    <glyph glyph-name="asciicircum" unicode="^" 
d="M18 321l201 336h23l200 -336h-54l-145 245l-13 31l-11 -31l-147 -245h-54z" />
    <glyph glyph-name="uni0326" unicode="&#x326;" horiz-adv-x="0" 
d="M-140.5 -200q14.5 17 14.5 30q0 29 -28 29q-19 0 -30 14.5t-11 34.5q0 23 16 40.5t47 17.5q35 0 57 -23t22 -54q0 -45 -29 -82t-70 -58l-22 22q19 12 33.5 29z" />
    <glyph glyph-name="uni02C9" unicode="&#x2c9;" horiz-adv-x="447" 
d="M104 560zM104 560v47h239v-47h-239z" />
    <glyph glyph-name="acute" unicode="&#xb4;" horiz-adv-x="276" 
d="M239 598l-167 -102q-13 -9 -24 -9t-11 10t16 27l95 104q15 17 20.5 21t15.5 4q18 0 43 -13.5t25 -23.5q0 -8 -13 -18z" />
    <glyph glyph-name="breve" unicode="&#x2d8;" horiz-adv-x="341" 
d="M267 547.5q-37 -36.5 -97 -36.5t-96.5 36.5t-38.5 94.5h46q7 -28 28 -47t61 -19q39 0 61 19t30 47h45q-2 -58 -39 -94.5z" />
    <glyph glyph-name="caron" unicode="&#x2c7;" horiz-adv-x="382" 
d="M47 657q14 0 33 -12l111 -66l112 66q19 12 33 12q11 0 11 -8q0 -4 -8 -12.5t-20 -19.5q-30 -30 -48 -50l-23 -24l-24 -24q-16 -18 -33 -18q-15 0 -33 18l-24 24l-23 24q-18 20 -48 50q-12 11 -20 19.5t-8 12.5q0 8 12 8z" />
    <glyph glyph-name="cedilla" unicode="&#xb8;" horiz-adv-x="241" 
d="M41 -166q12 -13 35 -13q19 0 34.5 14t15.5 32q0 21 -34 39l-23 14q-11 8 -11 15t6 13l41 52h40l-22 -36q-6 -11 -6 -19q0 -7 7.5 -10t25.5 -7q29 -5 46 -15t17 -35q0 -44 -35.5 -68t-80.5 -24q-44 0 -69 16z" />
    <glyph glyph-name="circumflex" unicode="&#x2c6;" horiz-adv-x="546" 
d="M335 493q-14 0 -33 12l-111 66l-112 -66q-19 -12 -33 -12q-11 0 -11 8q0 4 8 12.5t20 19.5q30 30 48 50l23 24l24 24q17 18 33 18q15 0 33 -18l24 -24l23 -24q18 -20 48 -50q12 -11 20 -19.5t8 -12.5q0 -8 -12 -8z" />
    <glyph glyph-name="dieresis" unicode="&#xa8;" horiz-adv-x="420" 
d="M27 532zM48.5 640.5q21.5 17.5 55.5 17.5q33 0 55 -17.5t22 -45.5q0 -29 -21.5 -46t-55.5 -17t-55.5 17t-21.5 46q0 28 21.5 45.5zM259.5 640.5q21.5 17.5 55.5 17.5q33 0 55 -17.5t22 -45.5q0 -29 -21.5 -46t-55.5 -17t-55.5 17t-21.5 46q0 28 21.5 45.5z" />
    <glyph glyph-name="dotaccent" unicode="&#x2d9;" horiz-adv-x="242" 
d="M65.5 640.5q21.5 17.5 55.5 17.5q33 0 55 -17.5t22 -45.5q0 -29 -21.5 -46t-55.5 -17t-55.5 17t-21.5 46q0 28 21.5 45.5z" />
    <glyph glyph-name="grave" unicode="`" horiz-adv-x="276" 
d="M49 639.5q25 13.5 43 13.5q10 0 15.5 -4t20.5 -21l95 -104q16 -17 16 -27t-11 -10q-10 0 -24 9l-167 102q-13 10 -13 18q0 10 25 23.5z" />
    <glyph glyph-name="hungarumlaut" unicode="&#x2dd;" horiz-adv-x="354" 
d="M60 553q48 87 51 91q4 5 6.5 7t6.5 2q7 0 26.5 -6l31.5 -10q9 -4 9 -12q0 -4 -6 -12q-8 -9 -115 -109q-13 -12 -24 -12q-5 0 -8 3t-3 6q0 5 3 11zM203 581q34 62 35 63q4 5 6.5 7t6.5 2q7 0 27 -6t32 -10q9 -4 9 -12q0 -4 -6 -12l-116 -109q-13 -12 -24 -12q-5 0 -7.5 3
t-2.5 6q0 5 3 11z" />
    <glyph glyph-name="macron" unicode="&#xaf;" horiz-adv-x="447" 
d="M104 560v47h239v-47h-239z" />
    <glyph glyph-name="ogonek" unicode="&#x2db;" horiz-adv-x="242" 
d="M161.5 -143.5q-30.5 -15.5 -62.5 -15.5q-33 0 -57 19t-24 53q0 31 19 57.5t56 43.5h35q-20 -10 -31.5 -28t-11.5 -41q0 -20 12.5 -33t37.5 -13q34 0 70 21l12 -19q-25 -29 -55.5 -44.5z" />
    <glyph glyph-name="ring" unicode="&#x2da;" horiz-adv-x="237" 
d="M56 634q25 24 62 24q38 0 63 -23.5t25 -59.5t-25 -59.5t-63 -23.5t-62.5 23.5t-24.5 59.5q0 35 25 59zM91 544q10 -11 27 -11t27.5 11.5t10.5 30.5t-10.5 30t-27.5 11t-27 -11t-10 -30q0 -20 10 -31z" />
    <glyph glyph-name="tilde" unicode="&#x2dc;" horiz-adv-x="356" 
d="M51 598q16 27 48 27q17 0 37.5 -5.5t52.5 -15.5q20 -7 40 -12.5t32 -5.5q14 0 23.5 10.5t9.5 27.5h27q0 -45 -16 -72t-48 -27q-28 0 -90 22q-5 2 -30 10t-41 8q-14 0 -23.5 -10.5t-9.5 -28.5h-28q0 45 16 72z" />
    <glyph glyph-name="caron.alt" horiz-adv-x="328" 
d="M146 477q11 14 11 28q0 21 -21 21q-17 0 -27.5 11.5t-10.5 30.5q0 25 17.5 40t44.5 15q30 0 50 -19.5t20 -50.5q0 -38 -26.5 -71.5t-62.5 -50.5l-21 22q15 10 26 24z" />
    <glyph glyph-name="acute.case" horiz-adv-x="276" 
d="M239 771l-167 -102q-13 -9 -24 -9t-11 10t16 27l95 104q15 17 20.5 21t15.5 4q18 0 43 -13.5t25 -23.5q0 -8 -13 -18z" />
    <glyph glyph-name="breve.case" horiz-adv-x="341" 
d="M267 695.5q-37 -36.5 -97 -36.5t-96.5 36.5t-38.5 94.5h46q7 -28 28 -47t61 -19q39 0 61 19t30 47h45q-2 -58 -39 -94.5z" />
    <glyph glyph-name="caron.case" horiz-adv-x="382" 
d="M47 824q14 0 33 -12l111 -66l112 66q19 12 33 12q11 0 11 -8q0 -4 -8 -12.5t-20 -19.5q-30 -30 -48 -50l-23 -24l-24 -24q-16 -18 -33 -18q-15 0 -33 18l-24 24l-23 24q-18 20 -48 50q-12 11 -20 19.5t-8 12.5q0 8 12 8z" />
    <glyph glyph-name="circumflex.case" horiz-adv-x="382" 
d="M335 666q-14 0 -33 12l-111 66l-112 -66q-19 -12 -33 -12q-11 0 -11 8q0 4 8 12.5t20 19.5q30 30 48 50l23 24l24 24q17 18 33 18q15 0 33 -18l24 -24l23 -24q18 -20 48 -50q12 -11 20 -19.5t8 -12.5q0 -8 -12 -8z" />
    <glyph glyph-name="dieresis.case" horiz-adv-x="420" 
d="M27 681zM48.5 789.5q21.5 17.5 55.5 17.5q33 0 55 -17.5t22 -45.5q0 -29 -21.5 -46t-55.5 -17t-55.5 17t-21.5 46q0 28 21.5 45.5zM259.5 789.5q21.5 17.5 55.5 17.5q33 0 55 -17.5t22 -45.5q0 -29 -21.5 -46t-55.5 -17t-55.5 17t-21.5 46q0 28 21.5 45.5z" />
    <glyph glyph-name="dotaccent.case" horiz-adv-x="242" 
d="M65.5 789.5q21.5 17.5 55.5 17.5q33 0 55 -17.5t22 -45.5q0 -29 -21.5 -46t-55.5 -17t-55.5 17t-21.5 46q0 28 21.5 45.5z" />
    <glyph glyph-name="grave.case" horiz-adv-x="276" 
d="M49 812.5q25 13.5 43 13.5q10 0 15.5 -4t20.5 -21l95 -104q16 -17 16 -27t-11 -10q-10 0 -24 9l-167 102q-13 10 -13 18q0 10 25 23.5z" />
    <glyph glyph-name="hungarumlaut.case" horiz-adv-x="354" 
d="M60 726q48 87 51 91q4 5 6.5 7t6.5 2q7 0 26.5 -6l31.5 -10q9 -4 9 -12q0 -4 -6 -12q-8 -9 -115 -109q-13 -12 -24 -12q-5 0 -8 3t-3 6q0 5 3 11zM203 754q34 62 35 63q4 5 6.5 7t6.5 2q7 0 27 -6t32 -10q9 -4 9 -12q0 -4 -6 -12l-116 -109q-13 -12 -24 -12q-5 0 -7.5 3
t-2.5 6q0 5 3 11z" />
    <glyph glyph-name="macron.case" horiz-adv-x="309" 
d="M35 699v47h239v-47h-239z" />
    <glyph glyph-name="ring.case" horiz-adv-x="237" 
d="M56 807q25 24 62 24q38 0 63 -23.5t25 -59.5t-25 -59.5t-63 -23.5t-62.5 23.5t-24.5 59.5q0 35 25 59zM91 717q10 -11 27 -11t27.5 11.5t10.5 30.5t-10.5 30t-27.5 11t-27 -11t-10 -30q0 -20 10 -31z" />
    <glyph glyph-name="tilde.case" horiz-adv-x="356" 
d="M51 744q16 27 48 27q17 0 37.5 -5.5t52.5 -15.5q20 -7 40 -12.5t32 -5.5q14 0 23.5 10.5t9.5 27.5h27q0 -45 -16 -72t-48 -27q-28 0 -90 22q-5 2 -30 10t-41 8q-14 0 -23.5 -10.5t-9.5 -28.5h-28q0 45 16 72z" />
    <glyph glyph-name="circumflex.narrow" horiz-adv-x="340" 
d="M46 493q-5 0 -8 3t-3 8t19 27l94 113q11 15 22 15q10 0 23 -15l94 -113q18 -23 18 -27q0 -5 -3 -8t-8 -3q-6 0 -26 11l-98 65l-98 -65q-18 -11 -26 -11z" />
    <glyph glyph-name="uniE000" unicode="&#xe000;" horiz-adv-x="420" 
d="M0 420h420v-420h-420v420z" />
    <glyph glyph-name=".ttfautohint" horiz-adv-x="420" 
d="M0 0z" />
    </font>
</defs>
</svg>
