<?xml version="1.0" encoding="UTF-8"?>
<!DOCTYPE svg PUBLIC "-//W3C//DTD SVG 1.1//EN" "http://www.w3.org/Graphics/SVG/1.1/DTD/svg11.dtd">
<!-- Creator: CorelDRAW X8 -->
<svg xmlns="http://www.w3.org/2000/svg" xml:space="preserve" width="1000px" height="1000px" version="1.1" style="shape-rendering:geometricPrecision; text-rendering:geometricPrecision; image-rendering:optimizeQuality; fill-rule:evenodd; clip-rule:evenodd"
viewBox="0 0 10000 10000"
 xmlns:xlink="http://www.w3.org/1999/xlink">
 <defs>
  <style type="text/css">
   <![CDATA[
    .fil3 {fill:#948975}
    .fil1 {fill:#F9F5EF}
    .fil5 {fill:#241F16;fill-rule:nonzero}
    .fil2 {fill:#948975;fill-rule:nonzero}
    .fil4 {fill:#948975;fill-rule:nonzero}
    .fil0 {fill:#F9F5EF;fill-rule:nonzero}
   ]]>
  </style>
 </defs>
 <g id="Слой_x0020_1">
  <metadata id="CorelCorpID_0Corel-Layer"/>
  <g id="_3209934885856">
   <path class="fil0" d="M678 135c-4,-5 -10,-9 -17,-12l0 0c-6,-2 -13,-4 -20,-4 -7,0 -14,2 -20,4 -6,3 -12,7 -17,12l-6 6c-2,2 -6,2 -9,0l-6 -6c-5,-5 -10,-9 -17,-12 -6,-2 -13,-4 -20,-4 -7,0 -14,2 -20,4 -6,3 -12,7 -17,12l0 0c-5,5 -9,11 -12,17 -2,6 -4,13 -4,20 0,7 2,14 4,20 3,6 7,12 12,17l85 85 85 -85c4,-5 8,-10 11,-17 2,-6 4,-13 4,-20 0,-7 -1,-14 -4,-20 -3,-6 -6,-12 -12,-17zm-12 -23c8,3 15,8 21,14 6,6 11,13 14,21 4,8 5,16 5,25 0,9 -1,17 -5,25 -3,8 -8,15 -14,21l-85 85c-2,2 -5,4 -8,4 -2,0 -4,-1 -5,-1 -2,-1 -3,-2 -4,-3l-85 -85c-6,-6 -11,-13 -14,-21 -3,-8 -5,-16 -5,-25 0,-9 2,-17 5,-25 3,-8 8,-15 14,-21l0 0c6,-6 13,-11 21,-14 8,-3 16,-5 25,-5 9,0 17,2 25,5 8,3 15,8 21,14l2 1 1 -1c6,-6 13,-11 21,-14 8,-3 17,-5 25,-5 9,0 17,2 25,5l0 0z"/>
   <path class="fil0" d="M184 107c24,0 45,9 60,24 15,16 25,37 25,60 0,23 -10,45 -25,60 -15,15 -36,25 -60,25 -23,0 -44,-10 -59,-25 -16,-15 -25,-37 -25,-60 0,-23 9,-44 25,-60 15,-15 36,-24 59,-24zm51 33c-13,-13 -31,-21 -51,-21 -19,0 -37,8 -50,21 -13,13 -21,31 -21,51 0,20 8,38 21,51 13,13 31,21 50,21 20,0 38,-8 51,-21 13,-13 21,-31 21,-51 0,-20 -8,-38 -21,-51z"/>
   <path class="fil0" d="M235 251c-2,-3 -2,-7 0,-9 3,-2 7,-2 9,0l54 54c3,2 3,6 0,9 -2,2 -6,2 -9,0l-54 -54z"/>
   <path class="fil0" d="M900 294l155 0 -14 -124 -126 0 -15 124zm162 12l-169 0c-4,0 -6,-3 -6,-6l16 -137c0,-3 3,-5 6,-5l138 0c3,0 6,2 6,5l16 137c0,4 -3,6 -7,6z"/>
   <path class="fil0" d="M935 177l-1 -27c0,-12 5,-23 13,-31 8,-7 19,-12 30,-12l1 0c12,0 23,5 31,13 8,8 13,18 13,31l0 28 -13 0 0 -28c0,-9 -3,-17 -9,-23 -5,-5 -13,-9 -22,-9l-1 0c-8,0 -16,4 -21,9 -6,6 -9,13 -9,21l0 28 -12 0z"/>
   <path class="fil1" d="M941 175c6,0 12,5 12,12 0,7 -6,12 -12,12 -7,0 -12,-5 -12,-12 0,-7 5,-12 12,-12z"/>
   <path class="fil0" d="M941 169c5,0 9,2 13,5 3,3 5,8 5,13 0,5 -2,10 -5,13 -4,3 -8,5 -13,5 -5,0 -10,-2 -13,-5 -4,-3 -6,-8 -6,-13 0,-5 2,-10 6,-13 3,-3 8,-5 13,-5zm4 14c-1,-1 -3,-2 -4,-2 -2,0 -3,1 -4,2 -1,1 -2,2 -2,4 0,2 1,3 2,4 1,1 2,2 4,2 1,0 3,-1 4,-2 1,-1 2,-2 2,-4 0,-2 -1,-3 -2,-4z"/>
   <path class="fil1" d="M1015 175c7,0 12,5 12,12 0,7 -5,12 -12,12 -7,0 -12,-5 -12,-12 0,-7 5,-12 12,-12z"/>
   <path class="fil0" d="M1015 169c5,0 10,2 13,5 3,3 6,8 6,13 0,5 -3,10 -6,13 -3,3 -8,5 -13,5 -5,0 -9,-2 -13,-5 -3,-3 -5,-8 -5,-13 0,-5 2,-10 5,-13 4,-3 8,-5 13,-5zm4 14c-1,-1 -2,-2 -4,-2 -1,0 -3,1 -4,2 -1,1 -2,2 -2,4 0,2 1,3 2,4 1,1 3,2 4,2 2,0 3,-1 4,-2 1,-1 2,-2 2,-4 0,-2 -1,-3 -2,-4z"/>
   <path class="fil2" d="M263 834l0 -90 33 0 0 -20 -33 0 0 -15c0,-5 2,-12 7,-17 4,-3 10,-6 17,-6l9 0 0 -24 -23 0c-8,0 -20,2 -28,10 -6,4 -10,11 -10,21l0 0c0,1 0,8 0,24l0 7 -33 0 0 20 33 0 0 89 -12 0 0 -77 -34 0 0 -45 33 0c0,-11 0,-17 0,-18 0,-14 6,-24 15,-31 11,-10 26,-13 36,-13l36 0 -1 50 -21 0c-4,0 -6,1 -8,3 -3,2 -4,5 -4,7l0 2 33 0 0 45 -33 0 0 78 -12 0z"/>
   <path class="fil2" d="M138 600l164 0c11,0 20,4 27,11 7,7 11,16 11,27l0 164c0,10 -4,20 -11,27 -7,7 -16,11 -27,11l-164 0c-11,0 -20,-4 -27,-11 -7,-7 -11,-17 -11,-27l0 -164c0,-11 4,-20 11,-27 7,-7 16,-11 27,-11zm164 12l-164 0c-7,0 -13,3 -18,8 -4,4 -7,11 -7,18l0 164c0,7 3,13 7,18 5,4 11,7 18,7l164 0c7,0 13,-3 18,-7 4,-5 7,-11 7,-18l0 -164c0,-7 -3,-14 -7,-18 -5,-5 -11,-8 -18,-8z"/>
   <path class="fil2" d="M515 600l164 0c11,0 20,4 27,11 7,7 11,16 11,27l0 164c0,10 -4,20 -11,27 -7,7 -16,11 -27,11l-164 0c-11,0 -20,-4 -27,-11 -7,-7 -11,-17 -11,-27l0 -164c0,-11 4,-20 11,-27 7,-7 16,-11 27,-11zm164 12l-164 0c-7,0 -13,3 -18,8 -4,4 -7,11 -7,18l0 164c0,7 3,13 7,18 5,4 11,7 18,7l164 0c7,0 13,-3 18,-7 5,-5 7,-11 7,-18l0 -164c0,-7 -3,-14 -7,-18 -5,-5 -11,-8 -18,-8z"/>
   <path class="fil2" d="M597 644c21,0 40,9 53,22 14,14 22,33 22,54 0,21 -8,39 -22,53 -13,14 -32,22 -53,22 -21,0 -40,-8 -53,-22 -14,-14 -22,-32 -22,-53 0,-21 8,-40 22,-53 13,-14 32,-23 53,-23zm44 31c-11,-11 -27,-18 -44,-18 -17,0 -33,7 -44,18 -12,12 -19,27 -19,45 0,17 7,33 19,44 11,11 27,18 44,18 17,0 33,-7 44,-18 12,-11 19,-27 19,-44 0,-18 -7,-33 -19,-45z"/>
   <path class="fil2" d="M597 675c12,0 24,5 32,13 8,8 13,19 13,32 0,12 -5,23 -13,32 -8,8 -20,13 -32,13 -12,0 -24,-5 -32,-13 -8,-9 -13,-20 -13,-32 0,-13 5,-24 13,-32 8,-8 20,-13 32,-13zm23 22c-6,-6 -14,-9 -23,-9 -9,0 -17,3 -23,9 -6,6 -9,14 -9,23 0,9 3,17 9,23 6,5 14,9 23,9 9,0 17,-4 23,-9 6,-6 9,-14 9,-23 0,-9 -3,-17 -9,-23z"/>
   <path class="fil3" d="M671 635c6,0 11,4 11,10 0,6 -5,11 -11,11 -5,0 -10,-5 -10,-11 0,-6 5,-10 10,-10z"/>
   <path class="fil2" d="M671 628c5,0 9,2 12,5 3,3 5,7 5,12 0,5 -2,9 -5,12 -3,3 -7,5 -12,5 -4,0 -8,-2 -11,-5 -3,-3 -5,-7 -5,-12 0,-5 2,-9 5,-12 3,-3 7,-5 11,-5zm3 14c0,-1 -1,-1 -3,-1 -1,0 -2,0 -2,1 -1,1 -2,2 -2,3 0,1 1,2 2,3 0,1 1,1 2,1 2,0 3,0 3,-1 1,-1 2,-2 2,-3 0,-1 -1,-2 -2,-3z"/>
   <path class="fil2" d="M872 632l192 0c5,0 10,2 13,6 3,3 5,7 5,12l0 139c0,5 -2,10 -5,13 -3,3 -8,5 -13,5l-192 0c-5,0 -9,-2 -13,-5 -3,-3 -5,-8 -5,-13l0 -139c0,-5 2,-9 5,-12 4,-4 8,-6 13,-6zm192 13l-192 0c-2,0 -3,1 -4,1 -1,1 -1,3 -1,4l0 139c0,2 0,3 1,4 1,1 2,2 4,2l192 0c2,0 3,-1 4,-2 1,-1 2,-2 2,-4l0 -139c0,-1 -1,-3 -2,-4 -1,0 -2,-1 -4,-1z"/>
   <path class="fil2" d="M1074 652l-91 79c-4,4 -9,6 -15,6 -5,0 -11,-2 -15,-6l-90 -79 8 -10 90 80c2,2 5,2 7,2 3,0 5,0 7,-2l90 -80 9 10z"/>
   <polygon class="fil2" points="858,790 938,711 947,720 867,799 "/>
   <polygon class="fil2" points="1069,799 989,720 998,711 1078,790 "/>
   <polygon class="fil4" points="1870,655 1994,720 1870,785 1863,772 1962,720 1863,668 "/>
   <polygon class="fil4" points="1673,668 1575,720 1673,772 1666,785 1542,720 1666,655 "/>
   <polygon class="fil5" points="1510,266 1479,313 1448,266 1458,260 1479,292 1501,260 "/>
   <polygon class="fil0" points="1866,266 1835,313 1804,266 1813,260 1835,292 1856,260 "/>
   <path class="fil5" d="M298 1095c-5,-5 -11,-9 -17,-12l-1 0c-6,-3 -13,-4 -20,-4 -7,0 -14,1 -20,4 -6,3 -12,7 -17,12l-6 5c-2,3 -6,3 -9,0l-6 -6c-5,-5 -10,-8 -17,-11 -6,-3 -13,-4 -20,-4 -7,0 -14,1 -20,4 -6,3 -12,6 -17,11l0 0c-5,5 -9,11 -12,17 -2,7 -4,14 -4,21 1,7 2,14 4,20 3,6 7,12 12,17l85 85 85 -85c5,-5 8,-11 11,-17 3,-6 4,-13 4,-20 0,-7 -1,-14 -4,-20 -3,-7 -6,-12 -11,-17zm-13 -23c8,3 15,8 21,14 7,6 11,13 15,21 3,8 4,16 4,25 0,8 -1,17 -5,25 -3,8 -7,15 -14,21l-85 85c-2,2 -5,3 -8,3 -2,0 -4,0 -5,-1 -2,0 -3,-1 -4,-2l-85 -85c-6,-6 -11,-14 -14,-21 -3,-8 -5,-17 -5,-25 0,-9 2,-17 5,-25 3,-8 8,-15 14,-21l0 0c6,-7 13,-11 21,-15 8,-3 16,-5 25,-5 9,0 17,2 25,5 8,4 15,9 21,15l2 1 1 -1c6,-6 14,-11 21,-14 8,-4 17,-5 25,-5 9,0 17,1 25,4l0 1z"/>
   <polygon class="fil4" points="593,1131 525,1166 593,1202 589,1211 503,1166 589,1121 "/>
   <polygon class="fil4" points="732,1131 800,1166 732,1202 737,1211 822,1166 737,1121 "/>
   <polygon class="fil5" points="1076,1172 1076,1160 1125,1160 1125,1111 1138,1111 1138,1160 1187,1160 1187,1172 1138,1172 1138,1221 1125,1221 1125,1172 "/>
   <polygon class="fil5" points="1345,1161 1450,1161 1450,1171 1345,1171 "/>
  </g>
 </g>
</svg>
