<?xml version="1.0" encoding="UTF-8"?>
<!DOCTYPE svg PUBLIC "-//W3C//DTD SVG 1.1//EN" "http://www.w3.org/Graphics/SVG/1.1/DTD/svg11.dtd">
<!-- Creator: CorelDRAW X8 -->
<svg xmlns="http://www.w3.org/2000/svg" xml:space="preserve" width="1000px" height="1000px" version="1.1" style="shape-rendering:geometricPrecision; text-rendering:geometricPrecision; image-rendering:optimizeQuality; fill-rule:evenodd; clip-rule:evenodd"
viewBox="0 0 10000 10000"
 xmlns:xlink="http://www.w3.org/1999/xlink">
 <defs>
  <style type="text/css">
   <![CDATA[
    .fil3 {fill:#948975}
    .fil1 {fill:#F9F5EF}
    .fil5 {fill:#241F16;fill-rule:nonzero}
    .fil2 {fill:#948975;fill-rule:nonzero}
    .fil4 {fill:#948975;fill-rule:nonzero}
    .fil0 {fill:#F9F5EF;fill-rule:nonzero}
   ]]>
  </style>
 </defs>
 <g id="Слой_x0020_1">
  <metadata id="CorelCorpID_0Corel-Layer"/>
  <g id="_2316556391728">
   <path class="fil0" d="M717 130c-5,-5 -11,-9 -18,-12l0 0c-7,-3 -14,-4 -22,-4 -7,0 -14,1 -21,4 -7,3 -13,7 -18,12l-7 6c-2,3 -6,3 -9,0l-6 -6c-6,-5 -12,-9 -19,-12 -6,-3 -14,-5 -21,-5 -8,0 -15,2 -22,5 -6,2 -13,7 -18,12l0 0c-5,5 -9,11 -12,18 -3,7 -4,14 -4,22 0,7 1,15 4,21 3,7 7,13 12,18l91 91 90 -90c5,-6 10,-12 12,-19 3,-6 5,-14 5,-21 0,-8 -2,-15 -5,-22 -2,-6 -7,-13 -12,-18zm-13 -24c8,3 16,8 23,15 6,6 11,14 15,22 3,9 5,18 5,27 0,9 -2,18 -5,26 -4,9 -9,16 -15,23l-91 90c-3,3 -6,4 -9,4 -2,0 -4,0 -5,-1 -2,-1 -4,-1 -5,-3l-90 -90c-7,-7 -12,-14 -15,-23 -4,-8 -6,-17 -6,-26 0,-10 2,-19 6,-27 3,-8 8,-16 15,-22l0 0c6,-7 14,-12 22,-16 9,-3 18,-5 27,-5 9,0 18,2 26,5 9,4 17,9 23,16l2 1 1 -1c7,-7 14,-12 23,-15 8,-4 17,-6 26,-6 10,0 18,2 27,5l0 1z"/>
   <path class="fil0" d="M190 100c25,0 48,10 64,26 16,17 26,39 26,64 0,25 -10,47 -26,64 -17,16 -39,26 -64,26 -25,0 -47,-10 -64,-26 -16,-16 -26,-39 -26,-64 0,-25 10,-47 26,-64 17,-16 39,-26 64,-26zm54 36c-13,-14 -33,-23 -54,-23 -21,0 -40,9 -54,23 -14,14 -23,33 -23,54 0,21 9,41 23,54 14,14 33,23 54,23 21,0 41,-9 54,-23 14,-13 23,-33 23,-54 0,-21 -9,-40 -23,-54z"/>
   <path class="fil0" d="M244 254c-2,-3 -2,-7 0,-10 3,-2 7,-2 10,0l57 58c3,3 3,7 0,9 -2,3 -6,3 -9,0l-58 -57z"/>
   <path class="fil0" d="M954 300l165 0 -15 -132 -135 0 -15 132zm173 13l-181 0c-4,0 -7,-4 -6,-7l16 -145c1,-4 4,-7 7,-7l147 0c3,0 6,3 7,6l16 147c0,3 -3,6 -6,6z"/>
   <path class="fil0" d="M990 175l0 -29c0,-13 5,-24 14,-32 8,-8 19,-14 32,-14l1 0c13,0 24,5 33,14 8,8 13,20 13,33l0 30 -13 0 0 -30c0,-9 -4,-18 -10,-24 -6,-6 -14,-10 -23,-10l-1 0c-9,1 -17,4 -23,10 -6,6 -10,14 -10,23l1 29 -14 0z"/>
   <path class="fil1" d="M997 173c7,0 13,6 13,13 0,7 -6,13 -13,13 -7,0 -13,-6 -13,-13 0,-7 6,-13 13,-13z"/>
   <path class="fil0" d="M997 166c5,0 10,2 14,6 3,3 5,8 5,14 0,5 -2,10 -5,14 -4,3 -9,5 -14,5 -5,0 -10,-2 -14,-5 -3,-4 -6,-9 -6,-14 0,-6 3,-11 6,-14 4,-4 9,-6 14,-6zm4 15c-1,-1 -2,-2 -4,-2 -2,0 -3,1 -4,2 -2,1 -2,3 -2,5 0,1 0,3 2,4 1,1 2,2 4,2 2,0 3,-1 4,-2 1,-1 2,-3 2,-4 0,-2 -1,-4 -2,-5z"/>
   <path class="fil1" d="M1076 173c7,0 13,6 13,13 0,7 -6,13 -13,13 -7,0 -13,-6 -13,-13 0,-7 6,-13 13,-13z"/>
   <path class="fil0" d="M1076 166c6,0 11,2 14,6 4,3 6,8 6,14 0,5 -2,10 -6,13 -3,4 -8,6 -14,6 -5,0 -10,-2 -14,-5 -3,-4 -5,-9 -5,-14 0,-6 2,-11 5,-14 4,-4 9,-6 14,-6zm5 15c-1,-1 -3,-2 -5,-2 -1,0 -3,1 -4,2 -1,1 -2,3 -2,5 0,1 1,3 2,4 1,1 3,2 4,2 2,0 4,-1 5,-2 1,-1 1,-3 1,-4 0,-2 0,-4 -1,-5z"/>
   <path class="fil2" d="M271 840l0 -95 35 0 0 -21 -35 0 0 -16c0,-5 3,-12 8,-17 4,-4 10,-6 18,-6l9 0 1 -26 -24 0c-9,0 -22,3 -31,10 -6,5 -10,12 -10,22l0 1c0,1 0,8 0,25l0 7 -35 0 0 21 35 0 0 94 -13 0 0 -81 -36 0 0 -48 36 0c0,-11 0,-17 0,-19 0,-15 6,-25 15,-32 11,-10 28,-13 39,-13l37 0 -1 52 -22 0c-4,0 -7,1 -9,3 -2,2 -4,5 -4,7l0 2 35 0 0 48 -35 0 0 82 -13 0z"/>
   <path class="fil2" d="M140 594l173 0c11,0 21,4 28,11 7,7 11,17 11,28l0 173c0,11 -4,21 -11,28 -7,8 -17,12 -28,12l-173 0c-11,0 -21,-4 -28,-12 -8,-7 -12,-17 -12,-28l0 -173c0,-11 4,-21 12,-28 7,-7 17,-11 28,-11zm173 13l-173 0c-8,0 -14,3 -19,8 -5,4 -8,11 -8,18l0 173c0,8 3,14 8,19 5,5 11,8 19,8l173 0c7,0 14,-3 18,-8 5,-5 8,-11 8,-19l0 -173c0,-7 -3,-14 -8,-18 -4,-5 -11,-8 -18,-8z"/>
   <path class="fil2" d="M536 594l173 0c11,0 21,4 28,12 8,7 12,17 12,28l0 173c0,11 -4,21 -12,28 -7,7 -17,11 -28,11l-173 0c-11,0 -21,-4 -28,-11 -7,-7 -11,-17 -11,-28l0 -173c0,-11 4,-21 11,-28 7,-8 17,-12 28,-12zm173 13l-173 0c-7,0 -14,3 -18,8 -5,5 -8,11 -8,19l0 173c0,7 3,14 8,18 4,5 11,8 18,8l173 0c8,0 14,-3 19,-8 5,-4 8,-11 8,-18l0 -173c0,-8 -3,-14 -8,-19 -5,-5 -11,-8 -19,-8z"/>
   <path class="fil2" d="M623 641c22,0 42,9 56,23 14,15 23,34 23,56 0,22 -9,42 -23,56 -14,15 -34,23 -56,23 -22,0 -42,-8 -56,-23 -15,-14 -23,-34 -23,-56 0,-22 8,-41 23,-56 14,-14 34,-23 56,-23zm46 33c-11,-12 -28,-20 -46,-20 -18,0 -35,8 -47,20 -12,11 -19,28 -19,46 0,18 7,35 19,47 12,12 29,19 47,19 18,0 35,-7 46,-19 12,-12 20,-29 20,-47 0,-18 -8,-35 -20,-46z"/>
   <path class="fil2" d="M623 673c13,0 25,5 33,14 9,8 14,20 14,33 0,13 -5,25 -14,34 -8,8 -20,13 -33,13 -13,0 -25,-5 -34,-13 -8,-9 -13,-21 -13,-34 0,-13 5,-25 13,-33 9,-9 21,-14 34,-14zm24 23c-6,-6 -15,-10 -24,-10 -10,0 -18,4 -24,10 -6,6 -10,15 -10,24 0,10 4,18 10,24 6,6 14,10 24,10 9,0 18,-4 24,-10 6,-6 10,-14 10,-24 0,-9 -4,-18 -10,-24z"/>
   <path class="fil3" d="M701 631c6,0 11,5 11,11 0,6 -5,11 -11,11 -6,0 -11,-5 -11,-11 0,-6 5,-11 11,-11z"/>
   <path class="fil2" d="M701 624c5,0 9,2 13,5 3,3 5,8 5,13 0,4 -2,9 -5,12 -4,3 -8,5 -13,5 -5,0 -9,-2 -12,-5 -3,-3 -5,-8 -5,-12 0,-5 2,-10 5,-13 3,-3 7,-5 12,-5zm3 15c-1,-1 -2,-2 -3,-2 -1,0 -2,1 -3,2 -1,0 -1,1 -1,3 0,1 0,2 1,3 1,0 2,1 3,1 1,0 2,-1 3,-1 1,-1 1,-2 1,-3 0,-2 0,-3 -1,-3z"/>
   <path class="fil2" d="M912 628l203 0c5,0 9,2 13,6 3,3 5,8 5,13l0 146c0,6 -2,10 -5,14 -4,3 -8,5 -13,5l-203 0c-5,0 -10,-2 -13,-5 -4,-4 -6,-8 -6,-14l0 -146c0,-5 2,-10 6,-13 3,-4 8,-6 13,-6zm203 14l-203 0c-1,0 -3,0 -4,1 -1,1 -1,2 -1,4l0 146c0,2 0,3 1,4 1,1 3,2 4,2l203 0c1,0 2,-1 3,-2 1,-1 2,-2 2,-4l0 -146c0,-2 -1,-3 -2,-4 -1,-1 -2,-1 -3,-1z"/>
   <path class="fil2" d="M1124 648l-95 84c-4,4 -10,6 -16,6 -5,0 -11,-2 -16,-6l-95 -84 9 -9 95 83c2,2 5,3 7,3 3,0 5,-1 7,-3l95 -83 9 9z"/>
   <polygon class="fil2" points="898,794 982,711 991,720 907,804 "/>
   <polygon class="fil2" points="1119,804 1036,720 1045,711 1129,794 "/>
   <polygon class="fil4" points="1972,635 2134,720 1972,805 1963,787 2091,720 1963,653 "/>
   <polygon class="fil4" points="1714,653 1585,720 1714,787 1704,805 1542,720 1704,635 "/>
   <polygon class="fil5" points="1510,266 1479,313 1448,266 1458,260 1479,292 1501,260 "/>
  </g>
 </g>
</svg>
